<svg width="40" height="40" viewBox="0 0 40 40" fill="none" xmlns="http://www.w3.org/2000/svg">
<path fill-rule="evenodd" clip-rule="evenodd" d="M6.51309 18.4607C6.79646 18.4607 7.02618 18.6905 7.02618 18.9738C7.02618 19.6163 7.25339 20.1947 7.61789 20.6239C8.02538 21.1038 8.59862 21.3927 9.22513 21.3927C10.4027 21.3927 11.4241 20.3481 11.4241 18.9738C11.4241 18.6905 11.6538 18.4607 11.9372 18.4607C12.2205 18.4607 12.4503 18.6905 12.4503 18.9738C12.4503 20.8381 11.0433 22.4188 9.22513 22.4188C8.26998 22.4188 7.41967 21.9759 6.83568 21.2881C6.31384 20.6736 6 19.8599 6 18.9738C6 18.6905 6.22972 18.4607 6.51309 18.4607Z" fill="#262626"/>
<path fill-rule="evenodd" clip-rule="evenodd" d="M11.9372 18.4607C12.2205 18.4607 12.4503 18.6905 12.4503 18.9738C12.4503 19.6202 12.6728 20.2003 13.0271 20.6292C13.4232 21.1086 13.9762 21.3927 14.5759 21.3927C15.7004 21.3927 16.7016 20.3619 16.7016 18.9738C16.7016 18.6905 16.9313 18.4607 17.2147 18.4607C17.498 18.4607 17.7277 18.6905 17.7277 18.9738C17.7277 20.8243 16.3661 22.4188 14.5759 22.4188C13.6367 22.4188 12.8047 21.9711 12.236 21.2828C11.728 20.6679 11.4241 19.8561 11.4241 18.9738C11.4241 18.6905 11.6538 18.4607 11.9372 18.4607Z" fill="#262626"/>
<path fill-rule="evenodd" clip-rule="evenodd" d="M17.2147 18.4607C17.498 18.4607 17.7277 18.6905 17.7277 18.9738C17.7277 19.6125 17.9596 20.1891 18.3343 20.6188C18.7534 21.0993 19.347 21.3927 20 21.3927C21.2304 21.3927 22.2723 20.3348 22.2723 18.9738C22.2723 18.6905 22.502 18.4607 22.7853 18.4607C23.0687 18.4607 23.2984 18.6905 23.2984 18.9738C23.2984 20.8513 21.8462 22.4188 20 22.4188C19.0286 22.4188 18.1601 21.9803 17.561 21.2933C17.0254 20.6792 16.7016 19.8638 16.7016 18.9738C16.7016 18.6905 16.9313 18.4607 17.2147 18.4607Z" fill="#262626"/>
<path fill-rule="evenodd" clip-rule="evenodd" d="M22.7853 18.4607C23.0687 18.4607 23.2984 18.6905 23.2984 18.9738C23.2984 19.6163 23.5256 20.1947 23.8901 20.6239C24.2976 21.1038 24.8709 21.3927 25.4974 21.3927C26.6749 21.3927 27.6963 20.3481 27.6963 18.9738C27.6963 18.6905 27.9261 18.4607 28.2094 18.4607C28.4928 18.4607 28.7225 18.6905 28.7225 18.9738C28.7225 20.8381 27.3155 22.4188 25.4974 22.4188C24.5422 22.4188 23.6919 21.9759 23.1079 21.2881C22.5861 20.6736 22.2723 19.8599 22.2723 18.9738C22.2723 18.6905 22.502 18.4607 22.7853 18.4607Z" fill="#262626"/>
<path fill-rule="evenodd" clip-rule="evenodd" d="M28.2094 18.4607C28.4928 18.4607 28.7225 18.6905 28.7225 18.9738C28.7225 19.6202 28.945 20.2003 29.2994 20.6292C29.6954 21.1086 30.2485 21.3927 30.8482 21.3927C31.9726 21.3927 32.9738 20.3619 32.9738 18.9738C32.9738 18.6905 33.2035 18.4607 33.4869 18.4607C33.7703 18.4607 34 18.6905 34 18.9738C34 20.8243 32.6384 22.4188 30.8482 22.4188C29.9089 22.4188 29.0769 21.9711 28.5083 21.2828C28.0002 20.6679 27.6963 19.8561 27.6963 18.9738C27.6963 18.6905 27.9261 18.4607 28.2094 18.4607Z" fill="#262626"/>
<path fill-rule="evenodd" clip-rule="evenodd" d="M6 18.9738C6 18.6905 6.22972 18.4607 6.51309 18.4607H33.4869C33.7703 18.4607 34 18.6905 34 18.9738V33.4869C34 33.7703 33.7703 34 33.4869 34H6.51309C6.22972 34 6 33.7703 6 33.4869V18.9738ZM7.02618 19.4869V32.9738H32.9738V19.4869H7.02618Z" fill="#262626"/>
<path fill-rule="evenodd" clip-rule="evenodd" d="M23.1518 29.9686C23.1518 29.6852 23.3815 29.4555 23.6649 29.4555H33.4869C33.7703 29.4555 34 29.6852 34 29.9686C34 30.252 33.7703 30.4817 33.4869 30.4817H23.6649C23.3815 30.4817 23.1518 30.252 23.1518 29.9686Z" fill="#262626"/>
<path fill-rule="evenodd" clip-rule="evenodd" d="M6 29.9686C6 29.6852 6.22972 29.4555 6.51309 29.4555H16.3351C16.6185 29.4555 16.8482 29.6852 16.8482 29.9686C16.8482 30.252 16.6185 30.4817 16.3351 30.4817H6.51309C6.22972 30.4817 6 30.252 6 29.9686Z" fill="#262626"/>
<path fill-rule="evenodd" clip-rule="evenodd" d="M23.1518 24.1047C23.1518 23.8213 23.3815 23.5916 23.6649 23.5916H33.4869C33.7703 23.5916 34 23.8213 34 24.1047C34 24.3881 33.7703 24.6178 33.4869 24.6178H23.6649C23.3815 24.6178 23.1518 24.3881 23.1518 24.1047Z" fill="#262626"/>
<path fill-rule="evenodd" clip-rule="evenodd" d="M22.199 12.5969C22.4823 12.5969 22.712 12.8266 22.712 13.1099V17.0681C22.712 17.3514 22.4823 17.5812 22.199 17.5812C21.9156 17.5812 21.6859 17.3514 21.6859 17.0681V13.1099C21.6859 12.8266 21.9156 12.5969 22.199 12.5969Z" fill="#262626"/>
<path fill-rule="evenodd" clip-rule="evenodd" d="M17.801 8.78534C18.0844 8.78534 18.3141 9.01506 18.3141 9.29843V17.0681C18.3141 17.3514 18.0844 17.5812 17.801 17.5812C17.5177 17.5812 17.288 17.3514 17.288 17.0681V9.29843C17.288 9.01506 17.5177 8.78534 17.801 8.78534Z" fill="#262626"/>
<path fill-rule="evenodd" clip-rule="evenodd" d="M6 24.1047C6 23.8213 6.22972 23.5916 6.51309 23.5916H16.3351C16.6185 23.5916 16.8482 23.8213 16.8482 24.1047C16.8482 24.3881 16.6185 24.6178 16.3351 24.6178H6.51309C6.22972 24.6178 6 24.3881 6 24.1047Z" fill="#262626"/>
<path fill-rule="evenodd" clip-rule="evenodd" d="M15.9686 24.1047C15.9686 23.8213 16.1983 23.5916 16.4817 23.5916H23.5183C23.8017 23.5916 24.0314 23.8213 24.0314 24.1047V33.4869C24.0314 33.7703 23.8017 34 23.5183 34H16.4817C16.1983 34 15.9686 33.7703 15.9686 33.4869V24.1047ZM16.9948 24.6178V32.9738H23.0052V24.6178H16.9948Z" fill="#262626"/>
<path fill-rule="evenodd" clip-rule="evenodd" d="M16.3351 8.78534C16.6185 8.78534 16.8482 9.01506 16.8482 9.29843V11.644C16.8482 12.1702 17.2748 12.5969 17.801 12.5969C18.3273 12.5969 18.7539 12.1702 18.7539 11.644V9.29843C18.7539 9.01506 18.9836 8.78534 19.267 8.78534C19.5504 8.78534 19.7801 9.01506 19.7801 9.29843V11.644C19.7801 12.737 18.8941 13.623 17.801 13.623C16.708 13.623 15.822 12.737 15.822 11.644V9.29843C15.822 9.01506 16.0517 8.78534 16.3351 8.78534Z" fill="#262626"/>
<path fill-rule="evenodd" clip-rule="evenodd" d="M6.10867 19.2896C6.2059 19.4141 6.35509 19.4869 6.51309 19.4869H33.4869C33.6449 19.4869 33.7941 19.4141 33.8913 19.2896C33.9886 19.165 34.023 19.0026 33.9847 18.8494L32.1152 11.3729C32.0581 11.1445 31.8529 10.9843 31.6174 10.9843H26.0838V12.0105H31.2168L32.8297 18.4607H7.17028L8.78315 12.0105H13.6963V10.9843H8.38257C8.14713 10.9843 7.94191 11.1445 7.8848 11.3729L6.01533 18.8494C5.977 19.0026 6.01143 19.165 6.10867 19.2896Z" fill="#262626"/>
<path fill-rule="evenodd" clip-rule="evenodd" d="M19.9267 7.02618C16.7691 7.02618 14.2094 9.58589 14.2094 12.7435C14.2094 15.901 16.7691 18.4607 19.9267 18.4607C23.0843 18.4607 25.644 15.901 25.644 12.7435C25.644 9.58589 23.0843 7.02618 19.9267 7.02618ZM13.1832 12.7435C13.1832 9.01915 16.2024 6 19.9267 6C23.651 6 26.6702 9.01915 26.6702 12.7435C26.6702 16.4678 23.651 19.4869 19.9267 19.4869C16.2024 19.4869 13.1832 16.4678 13.1832 12.7435Z" fill="#262626"/>
<path fill-rule="evenodd" clip-rule="evenodd" d="M21.4224 10.1694C21.2319 10.4172 21.0995 10.7813 21.0995 11.2042C21.0995 11.6271 21.2319 11.9912 21.4224 12.2389C21.6126 12.4861 21.8397 12.5969 22.0524 12.5969C22.265 12.5969 22.4921 12.4861 22.6823 12.2389C22.8728 11.9912 23.0052 11.6271 23.0052 11.2042C23.0052 10.7813 22.8728 10.4172 22.6823 10.1694C22.4921 9.92229 22.265 9.81152 22.0524 9.81152C21.8397 9.81152 21.6126 9.92229 21.4224 10.1694ZM20.6091 9.54378C20.9495 9.10119 21.4554 8.78534 22.0524 8.78534C22.6493 8.78534 23.1552 9.10119 23.4956 9.54378C23.8357 9.98581 24.0314 10.5746 24.0314 11.2042C24.0314 11.8338 23.8357 12.4226 23.4956 12.8646C23.1552 13.3072 22.6493 13.623 22.0524 13.623C21.4554 13.623 20.9495 13.3072 20.6091 12.8646C20.269 12.4226 20.0733 11.8338 20.0733 11.2042C20.0733 10.5746 20.269 9.98581 20.6091 9.54378Z" fill="#262626"/>
</svg>
