<svg width="40" height="40" viewBox="0 0 40 40" fill="none" xmlns="http://www.w3.org/2000/svg">
<path fill-rule="evenodd" clip-rule="evenodd" d="M10.3916 28.2815V33.5958C10.3916 34.307 10.9681 34.8836 11.6794 34.8836H27.4591C28.1703 34.8836 28.7469 34.307 28.7469 33.5958V28.2815H29.8074V33.5958C29.8074 34.8927 28.7561 35.9441 27.4591 35.9441H11.6794C10.3824 35.9441 9.33105 34.8927 9.33105 33.5958V28.2815H10.3916Z" fill="#116565"/>
<path fill-rule="evenodd" clip-rule="evenodd" d="M16.0684 18.189C16.0684 17.5614 16.5771 17.0527 17.2046 17.0527H21.9362C22.5638 17.0527 23.0725 17.5614 23.0725 18.189V19.9487C23.0725 20.5763 22.5638 21.085 21.9362 21.085H17.2046C16.5771 21.085 16.0684 20.5763 16.0684 19.9487V18.189ZM17.2046 18.1132C17.1628 18.1132 17.1289 18.1471 17.1289 18.189V19.9487C17.1289 19.9906 17.1628 20.0245 17.2046 20.0245H21.9362C21.9781 20.0245 22.012 19.9906 22.012 19.9487V18.189C22.012 18.1471 21.9781 18.1132 21.9362 18.1132H17.2046Z" fill="#116565"/>
<path fill-rule="evenodd" clip-rule="evenodd" d="M17.0586 26.51C17.0586 25.8825 17.5673 25.3737 18.1949 25.3737H20.9453C21.5728 25.3737 22.0815 25.8825 22.0815 26.51V31.0435C22.0815 31.6711 21.5728 32.1798 20.9453 32.1798H18.1949C17.5673 32.1798 17.0586 31.6711 17.0586 31.0435V26.51ZM18.1949 26.4343C18.153 26.4343 18.1191 26.4682 18.1191 26.51V31.0435C18.1191 31.0853 18.153 31.1193 18.1949 31.1193H20.9453C20.9871 31.1193 21.021 31.0853 21.021 31.0435V26.51C21.021 26.4682 20.9871 26.4343 20.9453 26.4343H18.1949Z" fill="#116565"/>
<path fill-rule="evenodd" clip-rule="evenodd" d="M8.7373 22.3728C8.7373 21.0759 9.78868 20.0245 11.0856 20.0245H28.0541C29.351 20.0245 30.4024 21.0759 30.4024 22.3728V27.5732C30.4024 28.126 30.0046 28.5986 29.4599 28.6929L21.6415 30.046L21.4606 29.0011L29.279 27.6479C29.3154 27.6416 29.3419 27.6101 29.3419 27.5732V22.3728C29.3419 21.6616 28.7653 21.085 28.0541 21.085H11.0856C10.3744 21.085 9.79783 21.6616 9.79783 22.3728V27.5732C9.79783 27.6101 9.82436 27.6416 9.86067 27.6479L17.6791 29.0011L17.4982 30.046L9.6798 28.6929C9.13512 28.5986 8.7373 28.126 8.7373 27.5732V22.3728Z" fill="#116565"/>
<path fill-rule="evenodd" clip-rule="evenodd" d="M19.5697 4C19.769 4 19.9515 4.11173 20.0421 4.28923L21.2819 6.71877L23.9757 7.14719C24.1725 7.17849 24.3352 7.31748 24.3967 7.50701C24.4583 7.69653 24.4084 7.90458 24.2676 8.04558L22.3401 9.97554L22.7651 12.6699C22.7961 12.8667 22.7142 13.0643 22.553 13.1815C22.3918 13.2986 22.1785 13.3155 22.0009 13.2251L19.5697 11.9883L17.1386 13.2251C16.961 13.3155 16.7477 13.2986 16.5865 13.1815C16.4253 13.0643 16.3434 12.8667 16.3744 12.6699L16.7994 9.97554L14.8719 8.04558C14.7311 7.90458 14.6812 7.69653 14.7428 7.50701C14.8043 7.31748 14.967 7.17849 15.1638 7.14719L17.8576 6.71877L19.0974 4.28923C19.188 4.11173 19.3705 4 19.5697 4ZM19.5697 5.69681L18.6796 7.44112C18.6025 7.59209 18.4579 7.69714 18.2905 7.72376L16.3565 8.03135L17.7404 9.41698C17.8602 9.53692 17.9154 9.70688 17.889 9.87431L17.5839 11.8087L19.3293 10.9208C19.4804 10.8439 19.6591 10.8439 19.8102 10.9208L21.5556 11.8087L21.2505 9.87431C21.2241 9.70688 21.2793 9.53692 21.3991 9.41698L22.783 8.03135L20.849 7.72376C20.6816 7.69714 20.537 7.59209 20.4599 7.44112L19.5697 5.69681Z" fill="#116565"/>
<path fill-rule="evenodd" clip-rule="evenodd" d="M9.26797 9.45416C9.46725 9.45416 9.6497 9.56589 9.74029 9.74339L10.4806 11.194L12.089 11.4498C12.2858 11.4811 12.4484 11.6201 12.51 11.8096C12.5716 11.9991 12.5217 12.2072 12.3809 12.3482L11.23 13.5005L11.4837 15.1092C11.5148 15.3061 11.4329 15.5037 11.2716 15.6208C11.1104 15.738 10.8971 15.7548 10.7195 15.6645L9.26797 14.926L7.81642 15.6645C7.6388 15.7548 7.42552 15.738 7.2643 15.6208C7.10308 15.5037 7.02115 15.3061 7.05219 15.1092L7.30593 13.5005L6.15508 12.3482C6.01426 12.2072 5.96439 11.9991 6.02597 11.8096C6.08755 11.6201 6.25019 11.4811 6.44699 11.4498L8.05536 11.194L8.79566 9.74339C8.88624 9.56589 9.06869 9.45416 9.26797 9.45416ZM9.26797 11.151L8.87737 11.9163C8.80032 12.0673 8.65574 12.1724 8.48835 12.199L7.63973 12.334L8.24694 12.942C8.36672 13.0619 8.42195 13.2319 8.39554 13.3993L8.26166 14.2481L9.02754 13.8585C9.17861 13.7816 9.35733 13.7816 9.5084 13.8585L10.2743 14.2481L10.1404 13.3993C10.114 13.2319 10.1692 13.0619 10.289 12.942L10.8962 12.334L10.0476 12.199C9.8802 12.1724 9.73562 12.0673 9.65857 11.9163L9.26797 11.151Z" fill="#116565"/>
<path fill-rule="evenodd" clip-rule="evenodd" d="M29.8725 9.45416C30.0717 9.45416 30.2542 9.56589 30.3448 9.74339L31.0851 11.194L32.6934 11.4498C32.8902 11.4811 33.0529 11.6201 33.1145 11.8096C33.176 11.9991 33.1262 12.2072 32.9854 12.3482L31.8345 13.5005L32.0882 15.1092C32.1193 15.3061 32.0374 15.5037 31.8761 15.6208C31.7149 15.738 31.5016 15.7548 31.324 15.6645L29.8725 14.926L28.4209 15.6645C28.2433 15.7548 28.03 15.738 27.8688 15.6208C27.7076 15.5037 27.6256 15.3061 27.6567 15.1092L27.9104 13.5005L26.7596 12.3482C26.6188 12.2072 26.5689 11.9991 26.6305 11.8096C26.692 11.6201 26.8547 11.4811 27.0515 11.4498L28.6599 11.194L29.4001 9.74339C29.4907 9.56589 29.6732 9.45416 29.8725 9.45416ZM29.8725 11.151L29.4819 11.9163C29.4048 12.0673 29.2602 12.1724 29.0928 12.199L28.2442 12.334L28.8514 12.942C28.9712 13.0619 29.0264 13.2319 29 13.3993L28.8662 14.2481L29.632 13.8585C29.7831 13.7816 29.9618 13.7816 30.1129 13.8585L30.8788 14.2481L30.7449 13.3993C30.7185 13.2319 30.7737 13.0619 30.8935 12.942L31.5007 12.334L30.6521 12.199C30.4847 12.1724 30.3401 12.0673 30.2631 11.9163L29.8725 11.151Z" fill="#116565"/>
</svg>
