<svg width="40" height="40" viewBox="0 0 40 40" fill="none" xmlns="http://www.w3.org/2000/svg">
<path fill-rule="evenodd" clip-rule="evenodd" d="M17.1667 9.56863C17.1667 9.26541 17.4279 9.01961 17.75 9.01961H22.0833C22.4055 9.01961 22.6666 9.26541 22.6666 9.56863C22.6666 14.958 25.8187 19.975 27.2355 21.952C27.7073 22.6104 27.9999 23.3939 27.9999 24.2166V33.7255C27.9999 34.9817 26.9179 36 25.5833 36H14.4167C13.0821 36 12.0001 34.9817 12.0001 33.7255V24.1796C12.0001 23.3837 12.274 22.6237 12.719 21.9788C14.0825 20.0026 17.1667 14.927 17.1667 9.56863ZM18.3234 10.1176C18.1259 15.6013 15.0393 20.6319 13.6975 22.5768C13.3592 23.067 13.1668 23.6221 13.1668 24.1796V33.7255C13.1668 34.3752 13.7264 34.902 14.4167 34.902H25.5833C26.2736 34.902 26.8332 34.3752 26.8332 33.7255V24.2166C26.8332 23.6404 26.6276 23.0674 26.2683 22.566C24.872 20.6176 21.7109 15.6361 21.51 10.1176H18.3234Z" fill="black"/>
<path fill-rule="evenodd" clip-rule="evenodd" d="M15.5001 23.6863C15.5001 21.9969 16.9551 20.6274 18.75 20.6274H21.25C23.0449 20.6274 24.4999 21.9969 24.4999 23.6863V30.1176C24.4999 30.4209 24.2388 30.6667 23.9166 30.6667H16.0834C15.7612 30.6667 15.5001 30.4209 15.5001 30.1176V23.6863ZM18.75 21.7255C17.5994 21.7255 16.6667 22.6034 16.6667 23.6863V29.5686H23.3333V23.6863C23.3333 22.6034 22.4006 21.7255 21.25 21.7255H18.75Z" fill="black"/>
<path fill-rule="evenodd" clip-rule="evenodd" d="M16.0001 5.80392C16.0001 4.80764 16.8582 4 17.9167 4H22.0833C23.1418 4 23.9999 4.80764 23.9999 5.80392V8.31372C23.9999 9.31 23.1418 10.1176 22.0833 10.1176H17.9167C16.8582 10.1176 16.0001 9.31 16.0001 8.31372V5.80392ZM17.9167 5.09804C17.5025 5.09804 17.1667 5.41407 17.1667 5.80392V8.31372C17.1667 8.70357 17.5025 9.01961 17.9167 9.01961H22.0833C22.4975 9.01961 22.8333 8.70357 22.8333 8.31372V5.80392C22.8333 5.41407 22.4975 5.09804 22.0833 5.09804H17.9167Z" fill="black"/>
<path fill-rule="evenodd" clip-rule="evenodd" d="M17.6667 25.4902C17.6667 25.187 17.9279 24.9412 18.25 24.9412H21.9166C22.2388 24.9412 22.5 25.187 22.5 25.4902C22.5 25.7934 22.2388 26.0392 21.9166 26.0392H18.25C17.9279 26.0392 17.6667 25.7934 17.6667 25.4902Z" fill="black"/>
<path fill-rule="evenodd" clip-rule="evenodd" d="M16.1667 7.37255C16.1667 7.06933 16.4279 6.82353 16.75 6.82353H23.4166C23.7388 6.82353 23.9999 7.06933 23.9999 7.37255C23.9999 7.67576 23.7388 7.92157 23.4166 7.92157H16.75C16.4279 7.92157 16.1667 7.67576 16.1667 7.37255Z" fill="black"/>
<path fill-rule="evenodd" clip-rule="evenodd" d="M17.6667 27.451C17.6667 27.1478 17.9279 26.902 18.25 26.902H21.9166C22.2388 26.902 22.5 27.1478 22.5 27.451C22.5 27.7542 22.2388 28 21.9166 28H18.25C17.9279 28 17.6667 27.7542 17.6667 27.451Z" fill="black"/>
<path fill-rule="evenodd" clip-rule="evenodd" d="M12.3041 24.067C12.5869 23.9218 12.9413 24.0199 13.0955 24.2861C13.2583 24.567 13.6667 24.8912 14.2391 25.1085C14.801 25.3217 15.423 25.3934 15.9419 25.2713C16.2545 25.1977 16.5712 25.3766 16.6493 25.6708C16.7274 25.9649 16.5374 26.263 16.2249 26.3365C15.4104 26.5282 14.5325 26.4038 13.8028 26.1268C13.0835 25.8539 12.4085 25.3938 12.0713 24.8119C11.9171 24.5457 12.0213 24.2122 12.3041 24.067Z" fill="black"/>
<path fill-rule="evenodd" clip-rule="evenodd" d="M27.6959 25.6559C27.4131 25.8011 27.0587 25.703 26.9045 25.4368C26.7417 25.1559 26.3333 24.8317 25.7609 24.6145C25.199 24.4012 24.577 24.3296 24.0581 24.4516C23.7455 24.5252 23.4288 24.3463 23.3507 24.0522C23.2726 23.758 23.4626 23.4599 23.7751 23.3864C24.5896 23.1948 25.4675 23.3192 26.1972 23.5961C26.9165 23.8691 27.5915 24.3292 27.9287 24.911C28.0829 25.1772 27.9787 25.5107 27.6959 25.6559Z" fill="black"/>
</svg>
