<svg width="40" height="40" viewBox="0 0 40 40" fill="none" xmlns="http://www.w3.org/2000/svg">
<path d="M10.7717 14.7431C10.5507 14.7431 10.3418 14.7019 10.1453 14.6196C9.9488 14.5373 9.77787 14.4206 9.63253 14.2697C9.57497 14.2091 9.52385 14.144 9.47917 14.0745C9.36789 13.9015 9.48988 13.6912 9.69178 13.6389L-nan -nanL9.69178 13.6389C9.88459 13.589 10.074 13.7107 10.2117 13.852C10.2434 13.8846 10.2786 13.914 10.3173 13.9404C10.4544 14.0305 10.6049 14.0746 10.7687 14.0727C10.914 14.0727 11.044 14.0403 11.1586 13.9757C11.2733 13.911 11.3634 13.8237 11.4289 13.714C11.4944 13.6022 11.5271 13.4778 11.5271 13.3406C11.5271 13.1308 11.4565 12.9554 11.3153 12.8143C11.174 12.6731 10.9918 12.6026 10.7687 12.6026C10.7011 12.6026 10.6346 12.6114 10.5691 12.629L-nan -nanL10.5691 12.629C10.462 12.6588 10.34 12.6284 10.2833 12.5346L10.2056 12.4061C10.1142 12.2549 10.1481 12.0611 10.2857 11.9484L11.4625 10.9845C11.497 10.9563 11.5497 10.97 11.5653 11.0113C11.581 11.0529 11.5496 11.0971 11.5043 11.0971H9.83515C9.64693 11.0971 9.49435 10.9477 9.49435 10.7634C9.49435 10.5791 9.64693 10.4297 9.83515 10.4297H11.7278C11.9918 10.4297 12.2057 10.6392 12.2057 10.8977C12.2057 11.0268 12.1513 11.1502 12.0552 11.2387L11.1152 12.104C11.0749 12.1411 11.0087 12.1142 11.0071 12.0601C11.0061 12.023 11.0378 11.993 11.0755 11.9969C11.3134 12.0217 11.5182 12.0913 11.6899 12.2056C11.8803 12.3311 12.0256 12.4928 12.1259 12.6908C12.2283 12.8887 12.2794 13.1053 12.2794 13.3406C12.2794 13.6071 12.2109 13.8463 12.0737 14.058C11.9386 14.2697 11.7564 14.4373 11.5271 14.5608C11.2999 14.6823 11.0481 14.7431 10.7717 14.7431Z" fill="#262626"/>
<path d="M14.6657 14.7519C14.3525 14.7519 14.0761 14.6882 13.8366 14.5608C13.5971 14.4314 13.4098 14.252 13.2747 14.0227C13.1416 13.7934 13.0751 13.5287 13.0751 13.2288V11.8645C13.0751 11.5646 13.1416 11.3 13.2747 11.0707C13.4098 10.8413 13.5971 10.663 13.8366 10.5355C14.0761 10.4062 14.3525 10.3415 14.6657 10.3415C14.9789 10.3415 15.2542 10.4062 15.4917 10.5355C15.7312 10.663 15.9185 10.8413 16.0536 11.0707C16.1887 11.3 16.2563 11.5646 16.2563 11.8645V13.2288C16.2563 13.5287 16.1887 13.7934 16.0536 14.0227C15.9185 14.252 15.7312 14.4314 15.4917 14.5608C15.2542 14.6882 14.9789 14.7519 14.6657 14.7519ZM14.6657 14.0786C14.8213 14.0786 14.9625 14.0433 15.0894 13.9727C15.2164 13.9002 15.3167 13.8041 15.3904 13.6846C15.4641 13.563 15.5009 13.4278 15.5009 13.2788V11.8116C15.5009 11.6607 15.4641 11.5254 15.3904 11.4059C15.3167 11.2843 15.2164 11.1883 15.0894 11.1177C14.9625 11.0452 14.8213 11.0089 14.6657 11.0089C14.5101 11.0089 14.3688 11.0452 14.2419 11.1177C14.115 11.1883 14.0147 11.2843 13.941 11.4059C13.8673 11.5254 13.8305 11.6607 13.8305 11.8116V13.2788C13.8305 13.4278 13.8673 13.563 13.941 13.6846C14.0147 13.8041 14.115 13.9002 14.2419 13.9727C14.3688 14.0433 14.5101 14.0786 14.6657 14.0786Z" fill="#262626"/>
<path d="M17.9716 14.434C17.8381 14.5617 17.6249 14.5616 17.4914 14.4339C17.3536 14.3019 17.3536 14.0847 17.4915 13.9527L20.9321 10.6609C21.0663 10.5325 21.2807 10.5328 21.4144 10.6617C21.552 10.7942 21.5516 11.0115 21.4135 11.1435L17.9716 14.434ZM20.7438 14.7519C20.5411 14.7519 20.3558 14.7048 20.188 14.6108C20.0222 14.5147 19.8891 14.3873 19.7888 14.2285C19.6885 14.0678 19.6383 13.8894 19.6383 13.6934C19.6383 13.5013 19.6895 13.3249 19.7919 13.1641C19.8942 13.0034 20.0293 12.875 20.1972 12.779C20.3651 12.6829 20.5473 12.6349 20.7438 12.6349C20.9464 12.6349 21.1317 12.6829 21.2996 12.779C21.4674 12.8731 21.6005 13.0005 21.6988 13.1612C21.7991 13.32 21.8492 13.4974 21.8492 13.6934C21.8492 13.8894 21.7991 14.0678 21.6988 14.2285C21.6005 14.3873 21.4674 14.5147 21.2996 14.6108C21.1317 14.7048 20.9464 14.7519 20.7438 14.7519ZM20.7438 14.1462C20.8277 14.1462 20.9055 14.1256 20.9771 14.0845C21.0508 14.0433 21.1092 13.9884 21.1522 13.9198C21.1952 13.8512 21.2167 13.7757 21.2167 13.6934C21.2167 13.6111 21.1952 13.5356 21.1522 13.467C21.1092 13.3984 21.0508 13.3435 20.9771 13.3023C20.9055 13.2612 20.8277 13.2406 20.7438 13.2406C20.6578 13.2406 20.579 13.2612 20.5073 13.3023C20.4357 13.3435 20.3773 13.3984 20.3323 13.467C20.2893 13.5356 20.2678 13.6111 20.2678 13.6934C20.2678 13.7757 20.2893 13.8512 20.3323 13.9198C20.3773 13.9884 20.4357 14.0433 20.5073 14.0845C20.579 14.1256 20.6578 14.1462 20.7438 14.1462ZM18.1613 12.4585C17.9587 12.4585 17.7734 12.4114 17.6056 12.3173C17.4377 12.2213 17.3036 12.0939 17.2033 11.9351C17.105 11.7744 17.0559 11.596 17.0559 11.4C17.0559 11.2079 17.1071 11.0315 17.2094 10.8707C17.3118 10.71 17.4469 10.5816 17.6148 10.4856C17.7826 10.3895 17.9648 10.3415 18.1613 10.3415C18.364 10.3415 18.5482 10.3895 18.7141 10.4856C18.8819 10.5797 19.016 10.7071 19.1163 10.8678C19.2166 11.0266 19.2668 11.204 19.2668 11.4C19.2668 11.596 19.2166 11.7744 19.1163 11.9351C19.016 12.0939 18.8819 12.2213 18.7141 12.3173C18.5482 12.4114 18.364 12.4585 18.1613 12.4585ZM18.1613 11.8528C18.2473 11.8528 18.3261 11.8322 18.3978 11.791C18.4694 11.7499 18.5268 11.695 18.5697 11.6264C18.6127 11.5578 18.6342 11.4823 18.6342 11.4C18.6342 11.3177 18.6127 11.2422 18.5697 11.1736C18.5268 11.105 18.4694 11.0501 18.3978 11.0089C18.3261 10.9678 18.2473 10.9472 18.1613 10.9472C18.0754 10.9472 17.9966 10.9678 17.9249 11.0089C17.8533 11.0501 17.7959 11.105 17.7529 11.1736C17.71 11.2422 17.6885 11.3177 17.6885 11.4C17.6885 11.4823 17.71 11.5578 17.7529 11.6264C17.7959 11.695 17.8533 11.7499 17.9249 11.791C17.9966 11.8322 18.0754 11.8528 18.1613 11.8528Z" fill="#262626"/>
<path d="M18.2526 28.6749C18.0952 28.8263 17.917 28.936 17.7179 29.0039C17.5175 29.0704 17.3117 29.0952 17.1008 29.0784C17.0085 29.0704 16.9181 29.0537 16.8293 29.0286C16.6393 28.9746 16.5814 28.7541 16.682 28.5873L16.6932 28.5687C16.7882 28.4112 17 28.373 17.1863 28.3859C17.2996 28.3923 17.4082 28.3772 17.512 28.3405C17.6173 28.3024 17.7085 28.2462 17.7858 28.1718C17.8859 28.0754 17.9537 27.9636 17.9889 27.8362C18.0242 27.7088 18.0262 27.5818 17.9949 27.4553C17.9621 27.3274 17.8967 27.2145 17.7985 27.1167C17.7002 27.0188 17.5861 26.9541 17.456 26.9226C17.326 26.8883 17.1964 26.8881 17.0671 26.9218C16.9364 26.9541 16.8217 27.0178 16.7229 27.1128C16.6042 27.2271 16.5265 27.3431 16.4899 27.4607C16.4883 27.4659 16.4868 27.4711 16.4853 27.4762C16.4356 27.6476 16.3408 27.8186 16.1783 27.8988C15.9941 27.9898 15.7704 27.9472 15.6346 27.7952L14.5311 26.5603C14.4328 26.4504 14.4392 26.2846 14.5456 26.1822L15.7925 24.9823C15.9261 24.8537 16.141 24.8555 16.2723 24.9864C16.4037 25.1173 16.4018 25.3276 16.2681 25.4563L15.2412 26.4445C15.1936 26.4903 15.1132 26.4555 15.1157 26.3901C15.1183 26.3247 15.2013 26.2961 15.2452 26.3455L16.0694 27.2727C16.1051 27.3128 16.0719 27.375 16.0179 27.3692C15.9863 27.3658 15.9628 27.3388 15.9662 27.3079C15.9805 27.1792 16.0187 27.055 16.0806 26.9352C16.1514 26.7984 16.2362 26.6825 16.3349 26.5875C16.5281 26.4016 16.7426 26.2804 16.9784 26.2239C17.2142 26.1646 17.4487 26.1684 17.6819 26.2354C17.9164 26.3009 18.1284 26.4281 18.3179 26.6168C18.5073 26.8056 18.6291 27.025 18.6833 27.2752C18.736 27.524 18.7257 27.773 18.6524 28.0222C18.5805 28.27 18.4472 28.4876 18.2526 28.6749Z" fill="#262626"/>
<path d="M20.9631 26.0665C20.7442 26.2772 20.5054 26.4177 20.2468 26.4879C19.9868 26.5567 19.7275 26.5548 19.4689 26.4821C19.2117 26.408 18.9758 26.264 18.7611 26.0501L17.7846 25.077C17.5699 24.8631 17.427 24.6296 17.3558 24.3766C17.2861 24.1221 17.2894 23.8689 17.3656 23.6169C17.4404 23.3636 17.5872 23.1315 17.8062 22.9209C18.0251 22.7102 18.2638 22.5711 18.5224 22.5037C18.781 22.4335 19.0396 22.4347 19.2982 22.5074C19.5568 22.5801 19.7935 22.7234 20.0081 22.9373L20.9847 23.9104C21.1994 24.1243 21.3416 24.3585 21.4113 24.6129C21.481 24.8674 21.4785 25.1213 21.4037 25.3746C21.3289 25.6252 21.182 25.8559 20.9631 26.0665ZM20.4812 25.5863C20.5899 25.4817 20.6634 25.3615 20.7016 25.2258C20.7384 25.0887 20.7397 24.9527 20.7057 24.8179C20.6702 24.6816 20.5991 24.5604 20.4925 24.4541L19.4423 23.4076C19.3342 23.3 19.2117 23.2283 19.0746 23.1926C18.9361 23.1555 18.7972 23.1545 18.658 23.1895C18.5173 23.2231 18.3927 23.2923 18.2839 23.3969C18.1752 23.5016 18.1024 23.6224 18.0656 23.7595C18.0274 23.8952 18.026 24.0312 18.0615 24.1675C18.0956 24.3023 18.1666 24.4236 18.2747 24.5312L19.3249 25.5777C19.4315 25.6839 19.5541 25.7556 19.6926 25.7927C19.8297 25.8284 19.9686 25.8295 20.1092 25.7958C20.2484 25.7608 20.3724 25.691 20.4812 25.5863Z" fill="#262626"/>
<path d="M23.0464 23.6095C23.0445 23.793 22.8912 23.9404 22.7037 23.939C22.5155 23.9376 22.3643 23.7868 22.3662 23.6026L22.4147 18.9406C22.4166 18.7561 22.571 18.608 22.7594 18.61C22.9477 18.612 23.0988 18.7631 23.0968 18.9475L23.0464 23.6095ZM25.2115 21.9783C25.0698 22.1146 24.9067 22.2057 24.722 22.2515C24.5373 22.2945 24.3531 22.2931 24.1694 22.2474C23.9842 22.2002 23.8215 22.1067 23.6812 21.9669C23.5437 21.8299 23.4531 21.6696 23.4096 21.4862C23.3661 21.3027 23.3687 21.1202 23.4172 20.9388C23.4658 20.7574 23.5588 20.6006 23.6961 20.4684C23.8378 20.3321 24.0017 20.2417 24.1878 20.1973C24.3724 20.1515 24.5566 20.1529 24.7404 20.2015C24.9241 20.2472 25.0862 20.34 25.2265 20.4798C25.3668 20.6196 25.4594 20.7806 25.5044 20.9627C25.5493 21.142 25.5475 21.3224 25.4989 21.5038C25.449 21.6838 25.3531 21.842 25.2115 21.9783ZM24.7779 21.5463C24.8366 21.4899 24.8762 21.4229 24.8969 21.3453C24.9189 21.2664 24.9204 21.188 24.9013 21.1101C24.8823 21.0323 24.8433 20.964 24.7843 20.9053C24.7254 20.8466 24.6564 20.8072 24.5772 20.7872C24.4981 20.7672 24.418 20.7673 24.337 20.7875C24.2575 20.8063 24.1884 20.844 24.1297 20.9004C24.0696 20.9582 24.0293 21.0259 24.0086 21.1035C23.988 21.181 23.9865 21.2594 24.0042 21.3386C24.0232 21.4165 24.0622 21.4848 24.1211 21.5435C24.1801 21.6022 24.2491 21.6416 24.3283 21.6616C24.4089 21.6802 24.4889 21.6801 24.5685 21.6613C24.648 21.6425 24.7178 21.6042 24.7779 21.5463ZM21.7648 22.0796C21.6232 22.2159 21.46 22.3069 21.2753 22.3527C21.0893 22.3971 20.9043 22.3964 20.7206 22.3507C20.5368 22.3021 20.3748 22.2079 20.2345 22.0681C20.097 21.9311 20.0065 21.7709 19.963 21.5874C19.9195 21.4039 19.922 21.2214 19.9706 21.04C20.0192 20.8586 20.1121 20.7018 20.2495 20.5696C20.3912 20.4333 20.5543 20.3437 20.739 20.3006C20.9236 20.2548 21.1086 20.2555 21.2937 20.3027C21.4775 20.3485 21.6395 20.4413 21.7798 20.5811C21.9201 20.7209 22.0128 20.8818 22.0577 21.0639C22.1012 21.2447 22.0987 21.4257 22.0502 21.6071C22.0016 21.7858 21.9065 21.9432 21.7648 22.0796ZM21.3313 21.6476C21.3914 21.5897 21.4317 21.522 21.4524 21.4445C21.473 21.3669 21.4737 21.2892 21.4547 21.2114C21.4356 21.1335 21.3966 21.0652 21.3377 21.0065C21.2788 20.9478 21.2097 20.9084 21.1306 20.8884C21.0514 20.8684 20.9721 20.8678 20.8925 20.8866C20.813 20.9055 20.7432 20.9438 20.6831 21.0016C20.623 21.0595 20.5826 21.1272 20.562 21.2047C20.5414 21.2823 20.5406 21.36 20.5597 21.4378C20.5787 21.5157 20.6177 21.5839 20.6766 21.6427C20.7356 21.7014 20.8046 21.7408 20.8838 21.7608C20.9629 21.7808 21.0423 21.7814 21.1218 21.7625C21.2014 21.7437 21.2712 21.7054 21.3313 21.6476Z" fill="#262626"/>
<path fill-rule="evenodd" clip-rule="evenodd" d="M7 7.03369C7 6.4628 7.47262 6 8.05563 6H24.863C25.2786 6 25.6555 6.23876 25.8259 6.60994L28.1437 11.6598L27.245 12.0553L24.9272 7.00544C24.9158 6.98069 24.8907 6.96478 24.863 6.96478H8.05563C8.01676 6.96478 7.98526 6.99563 7.98526 7.03369V18.1975C7.98526 18.2356 8.01676 18.2664 8.05563 18.2664H16.3599V19.2312H8.05563C7.47262 19.2312 7 18.7684 7 18.1975V7.03369Z" fill="#262626"/>
<path fill-rule="evenodd" clip-rule="evenodd" d="M24.3124 11.7887C23.8459 11.7887 23.4678 12.1589 23.4678 12.6156H22.4826C22.4826 11.6261 23.3018 10.8239 24.3124 10.8239C24.8459 10.8239 25.3267 11.0481 25.6605 11.4042L24.9347 12.0566C24.7797 11.8912 24.5586 11.7887 24.3124 11.7887Z" fill="#262626"/>
<path fill-rule="evenodd" clip-rule="evenodd" d="M24.0309 12.6156C24.0309 11.9305 24.598 11.3752 25.2976 11.3752H31.6314C32.2746 11.3752 32.9685 11.8785 32.9685 12.6156H31.9833C31.9833 12.569 31.9599 12.5038 31.8868 12.4402C31.8124 12.3755 31.7157 12.34 31.6314 12.34H25.2976C25.1421 12.34 25.0161 12.4634 25.0161 12.6156C25.0161 12.7678 25.1421 12.8913 25.2976 12.8913H30.0128V13.856H25.2976C24.598 13.856 24.0309 13.3007 24.0309 12.6156Z" fill="#262626"/>
<path fill-rule="evenodd" clip-rule="evenodd" d="M10.0694 25.7284C9.66076 25.3212 9.66658 24.6667 10.0824 24.2666L22.0701 12.7308C22.3665 12.4456 22.8062 12.3572 23.1934 12.505L28.5027 14.5317L28.1448 15.4306L22.8356 13.4039C22.8097 13.394 22.7804 13.3999 22.7607 13.4189L10.773 24.9547C10.7453 24.9814 10.7449 25.025 10.7721 25.0521L18.7632 33.0146C18.7904 33.0418 18.835 33.0421 18.8627 33.0155L30.8504 21.4797C30.8702 21.4607 30.8767 21.4321 30.8671 21.4066L28.911 16.2286L29.8351 15.8939L31.7911 21.0719C31.9353 21.4536 31.8374 21.8826 31.541 22.1678L19.5533 33.7036C19.1375 34.1037 18.4691 34.098 18.0605 33.6908L10.0694 25.7284Z" fill="#262626"/>
<path fill-rule="evenodd" clip-rule="evenodd" d="M25.8208 17.2374C25.4882 17.5575 25.4835 18.0811 25.8104 18.4068C26.1373 18.7326 26.672 18.7372 27.0047 18.417C27.1803 18.248 27.2646 18.0231 27.2568 17.7988L28.2414 17.766C28.2582 18.249 28.0758 18.7389 27.6953 19.1052C26.9745 19.7987 25.816 19.7889 25.1077 19.0831C24.3994 18.3773 24.4095 17.2429 25.1302 16.5493C25.5108 16.1831 26.0142 16.013 26.5072 16.0379L26.4565 17.0014C26.2276 16.9898 25.9965 17.0684 25.8208 17.2374Z" fill="#262626"/>
<path fill-rule="evenodd" clip-rule="evenodd" d="M26.2118 18.0205C25.7215 17.5319 25.7285 16.7465 26.2275 16.2663L30.8453 11.8225C31.3443 11.3423 32.1464 11.3492 32.6367 11.8378C33.1271 12.3264 33.1201 13.1118 32.6211 13.592L28.0032 18.0358C27.5043 18.5159 26.7022 18.5091 26.2118 18.0205ZM26.918 16.9544C26.8072 17.0611 26.8056 17.2357 26.9146 17.3443C27.0235 17.4528 27.2018 17.4544 27.3127 17.3476L31.9306 12.9038C32.0414 12.7971 32.043 12.6226 31.934 12.514C31.8251 12.4054 31.6468 12.4039 31.5359 12.5106L26.918 16.9544Z" fill="#262626"/>
</svg>
