<svg width="40" height="40" viewBox="0 0 40 40" fill="none" xmlns="http://www.w3.org/2000/svg">
<path fill-rule="evenodd" clip-rule="evenodd" d="M20.2032 13.7625C20.3404 13.6975 20.4997 13.6983 20.6362 13.7647L26.861 16.7929C27.0331 16.8766 27.1423 17.0511 27.1423 17.2425V23.0997C27.1423 23.2857 27.039 23.4564 26.8741 23.5427L20.6493 26.8003C20.5023 26.8772 20.3268 26.8762 20.1807 26.7977L14.1197 23.5401C13.9576 23.4529 13.8564 23.2837 13.8564 23.0997V17.2425C13.8564 17.0558 13.9604 16.8847 14.1261 16.7987L17.557 15.0177C17.5623 15.0149 17.5677 15.0122 17.5731 15.0097L20.2032 13.7625ZM17.7915 16.0227L22.8258 18.5426L20.4204 19.7124L15.4582 17.2339L17.7915 16.0227ZM14.8565 18.0511L19.9175 20.579V25.5209L14.8565 22.8007V18.0511ZM20.9175 25.5313L26.1423 22.797V18.0417L24.4558 18.8618V20.5988C24.4558 20.875 24.2319 21.0988 23.9558 21.0988C23.6796 21.0988 23.4558 20.875 23.4558 20.5988V19.3482L20.9175 20.5826V25.5313ZM25.4991 17.2424L23.959 17.9915L18.9287 15.4736L20.4147 14.769L25.4991 17.2424ZM15.8448 21.9773C15.9757 21.7342 16.279 21.6432 16.5221 21.7742L19.3078 23.2742C19.551 23.4051 19.6419 23.7083 19.511 23.9515C19.3801 24.1946 19.0769 24.2856 18.8337 24.1547L16.048 22.6546C15.8048 22.5237 15.7139 22.2205 15.8448 21.9773Z" fill="#116565"/>
<path fill-rule="evenodd" clip-rule="evenodd" d="M30.2696 13.0832C30.4998 12.9307 30.81 12.9937 30.9625 13.2239C32.2493 15.1665 32.9986 17.4966 32.9986 20.0001C32.9986 23.1294 31.8282 25.986 29.9021 28.1549H31.7129C31.9891 28.1549 32.2129 28.3788 32.2129 28.6549C32.2129 28.9311 31.9891 29.1549 31.7129 29.1549H28.7129C28.4368 29.1549 28.2129 28.9311 28.2129 28.6549V25.643C28.2129 25.3669 28.4368 25.143 28.7129 25.143C28.989 25.143 29.2129 25.3669 29.2129 25.643V27.4245C30.948 25.4398 31.9986 22.8429 31.9986 20.0001C31.9986 17.699 31.3105 15.5601 30.1288 13.7762C29.9763 13.5459 30.0393 13.2357 30.2696 13.0832Z" fill="#116565"/>
<path fill-rule="evenodd" clip-rule="evenodd" d="M10.7295 27.5002C10.4992 27.6527 10.189 27.5897 10.0365 27.3594C8.74973 25.4168 8.00038 23.0868 8.00038 20.5833C8.00038 17.4539 9.17085 14.5974 11.0969 12.4285L9.2861 12.4285C9.00996 12.4285 8.7861 12.2046 8.7861 11.9285C8.7861 11.6523 9.00996 11.4285 9.2861 11.4285L12.2861 11.4285C12.5623 11.4285 12.7861 11.6523 12.7861 11.9285L12.7861 14.9404C12.7861 15.2165 12.5623 15.4404 12.2861 15.4404C12.01 15.4404 11.7861 15.2165 11.7861 14.9404L11.7861 13.1588C10.051 15.1436 9.00039 17.7404 9.00039 20.5833C9.00039 22.8844 9.68855 25.0233 10.8702 26.8072C11.0227 27.0374 10.9597 27.3477 10.7295 27.5002Z" fill="#116565"/>
<path fill-rule="evenodd" clip-rule="evenodd" d="M27.4988 29.771C27.6513 30.0012 27.5883 30.3115 27.3581 30.464C25.4155 31.7507 23.0854 32.5001 20.5819 32.5001C17.4526 32.5001 14.596 31.3296 12.4271 29.4036L12.4271 31.2144C12.4271 31.4905 12.2033 31.7144 11.9271 31.7144C11.651 31.7144 11.4271 31.4905 11.4271 31.2144L11.4271 28.2143C11.4271 27.9382 11.651 27.7143 11.9271 27.7143L14.939 27.7143C15.2152 27.7143 15.439 27.9382 15.439 28.2143C15.439 28.4905 15.2152 28.7143 14.939 28.7143L13.1575 28.7143C15.1422 30.4495 17.7391 31.5001 20.5819 31.5001C22.883 31.5001 25.0219 30.8119 26.8059 29.6303C27.0361 29.4778 27.3463 29.5408 27.4988 29.771Z" fill="#116565"/>
<path fill-rule="evenodd" clip-rule="evenodd" d="M13.2248 10.7291C13.0723 10.4989 13.1353 10.1886 13.3655 10.0361C15.3082 8.74935 17.6382 7.99999 20.1417 7.99999C23.2711 7.99999 26.1276 9.17047 28.2965 11.0965L28.2965 9.28572C28.2965 9.00958 28.5204 8.78572 28.7965 8.78572C29.0727 8.78572 29.2965 9.00958 29.2965 9.28572L29.2965 12.2857C29.2965 12.5619 29.0727 12.7858 28.7965 12.7858L25.7846 12.7858C25.5085 12.7858 25.2846 12.5619 25.2846 12.2857C25.2846 12.0096 25.5085 11.7857 25.7846 11.7857L27.5662 11.7857C25.5814 10.0506 22.9846 9 20.1417 9C17.8406 9 15.7017 9.68817 13.9178 10.8698C13.6876 11.0223 13.3773 10.9593 13.2248 10.7291Z" fill="#116565"/>
</svg>
