<svg width="40" height="40" viewBox="0 0 40 40" fill="none" xmlns="http://www.w3.org/2000/svg">
<path fill-rule="evenodd" clip-rule="evenodd" d="M3 22.6866C3 22.3516 3.26908 22.08 3.60101 22.08H36.399C36.7309 22.08 37 22.3516 37 22.6866V28.2333C37 28.5683 36.7309 28.84 36.399 28.84H3.60101C3.26908 28.84 3 28.5683 3 28.2333V22.6866ZM4.20202 23.2933V27.6266H35.798V23.2933H4.20202Z" fill="black"/>
<path fill-rule="evenodd" clip-rule="evenodd" d="M9.52525 22.6866C9.52525 23.0217 9.79433 23.2933 10.1263 23.2933H14.9343C15.2663 23.2933 15.5354 23.0217 15.5354 22.6866V17.4866C15.5354 17.1516 15.2663 16.88 14.9343 16.88H10.1263C9.79433 16.88 9.52525 17.1516 9.52525 17.4866V22.6866ZM10.7273 22.08V18.0933H14.3333V22.08H10.7273Z" fill="black"/>
<path fill-rule="evenodd" clip-rule="evenodd" d="M6.43866 32.8223C6.55137 32.9361 6.70424 33 6.86364 33H11.6717C12.0036 33 12.2727 32.7284 12.2727 32.3933C12.2727 31.6235 12.5064 30.6567 12.76 29.846C12.8844 29.4484 13.0089 29.1026 13.1023 28.8566C13.1489 28.7337 13.1876 28.6362 13.2143 28.5701C13.2276 28.537 13.238 28.5118 13.2448 28.4953L13.2525 28.477L13.2542 28.4729L13.2544 28.4723C13.334 28.2849 13.315 28.0696 13.2038 27.8994C13.0926 27.7291 12.904 27.6267 12.702 27.6267H5.83333C5.62989 27.6267 5.44025 27.7306 5.32939 27.9028C5.21856 28.0749 5.20151 28.2919 5.28405 28.4796L5.28412 28.4797L5.28596 28.4839C5.28753 28.4876 5.29004 28.4933 5.29342 28.5012C5.30019 28.517 5.31044 28.5411 5.32369 28.5729C5.35021 28.6364 5.38865 28.7305 5.43504 28.8495C5.52797 29.0879 5.6521 29.4247 5.77608 29.8157C6.02822 30.6111 6.26263 31.579 6.26263 32.3933C6.26262 32.5542 6.32594 32.7085 6.43866 32.8223ZM6.71615 28.84H11.8271C11.7596 29.0311 11.6867 29.2474 11.6138 29.4806C11.4057 30.1455 11.1851 30.9858 11.1035 31.7867H7.43397C7.35422 30.9585 7.13186 30.1114 6.92091 29.4459C6.85104 29.2256 6.78121 29.0214 6.71615 28.84Z" fill="black"/>
<path fill-rule="evenodd" clip-rule="evenodd" d="M27.7316 32.8223C27.8443 32.9361 27.9972 33 28.1566 33H32.9646C33.2966 33 33.5657 32.7284 33.5657 32.3933C33.5657 31.6235 33.7993 30.6567 34.0529 29.846C34.1773 29.4484 34.3019 29.1026 34.3952 28.8566C34.4418 28.7337 34.4805 28.6362 34.5072 28.5701C34.5206 28.537 34.5309 28.5118 34.5378 28.4953L34.5454 28.477L34.5471 28.4729L34.5474 28.4723C34.6269 28.2849 34.6079 28.0696 34.4967 27.8994C34.3855 27.7291 34.197 27.6267 33.9949 27.6267H27.1263C26.9228 27.6267 26.7332 27.7306 26.6223 27.9028C26.5115 28.0749 26.4944 28.2919 26.577 28.4796L26.5771 28.4797L26.5789 28.4839C26.5805 28.4876 26.583 28.4933 26.5863 28.5012C26.5931 28.517 26.6034 28.5411 26.6166 28.5729C26.6431 28.6364 26.6816 28.7305 26.728 28.8495C26.8209 29.0879 26.945 29.4247 27.069 29.8157C27.3211 30.6111 27.5556 31.579 27.5556 32.3933C27.5556 32.5542 27.6189 32.7085 27.7316 32.8223ZM28.0091 28.84H33.12C33.0526 29.0311 32.9796 29.2474 32.9067 29.4806C32.6987 30.1455 32.478 30.9858 32.3964 31.7867H28.7269C28.6471 30.9585 28.4248 30.1114 28.2138 29.4459C28.144 29.2256 28.0741 29.0214 28.0091 28.84Z" fill="black"/>
<path fill-rule="evenodd" clip-rule="evenodd" d="M9.45503 8.97538C10.8393 6.34154 14.5647 6.34154 15.949 8.97537L20.5943 17.8138C21.8971 20.2925 20.128 23.2933 17.3473 23.2933H8.0567C5.27599 23.2933 3.50694 20.2925 4.80971 17.8138L9.45503 8.97538ZM14.8872 9.54401C13.9547 7.76977 11.4494 7.76977 10.5169 9.54401L5.87155 18.3824C4.98923 20.0612 6.19139 22.08 8.0567 22.08H17.3473C19.2126 22.08 20.4148 20.0612 19.5325 18.3824L14.8872 9.54401Z" fill="black"/>
<path fill-rule="evenodd" clip-rule="evenodd" d="M23.8793 8.97538C25.2636 6.34154 28.989 6.34154 30.3733 8.97537L35.0186 17.8138C36.3214 20.2925 34.5523 23.2933 31.7716 23.2933V22.08C33.6369 22.08 34.8391 20.0612 33.9567 18.3824L29.3114 9.54401C28.3789 7.76977 25.8736 7.76977 24.9411 9.54401L24.079 11.1843L23.0172 10.6157L23.8793 8.97538Z" fill="black"/>
<path fill-rule="evenodd" clip-rule="evenodd" d="M16.6393 8.97538C18.0236 6.34154 21.749 6.34154 23.1333 8.97537L27.7786 17.8138C29.0813 20.2925 27.3123 23.2933 24.5316 23.2933V22.08C26.3969 22.08 27.5991 20.0612 26.7167 18.3824L22.0714 9.54401C21.1389 7.76977 18.6336 7.76977 17.7011 9.54401L16.839 11.1843L15.7772 10.6157L16.6393 8.97538Z" fill="black"/>
</svg>
