<svg width="40" height="40" viewBox="0 0 40 40" fill="none" xmlns="http://www.w3.org/2000/svg">
<path fill-rule="evenodd" clip-rule="evenodd" d="M4.87562 18.0118C5.24106 18.0118 5.53731 18.3086 5.53731 18.6746V31.5503C5.53731 33.2758 6.93392 34.6746 8.65672 34.6746H22.2687C23.9915 34.6746 25.3881 33.2758 25.3881 31.5503V18.6746C25.3881 18.3086 25.6843 18.0118 26.0498 18.0118C26.4152 18.0118 26.7114 18.3086 26.7114 18.6746V31.5503C26.7114 34.0078 24.7223 36 22.2687 36H8.65672C6.20303 36 4.21393 34.0078 4.21393 31.5503V18.6746C4.21393 18.3086 4.51018 18.0118 4.87562 18.0118Z" fill="black"/>
<path fill-rule="evenodd" clip-rule="evenodd" d="M35.1244 18.0118C35.4898 18.0118 35.7861 18.3086 35.7861 18.6746V31.5503C35.7861 34.0078 33.797 36 31.3433 36H21.0398C20.6744 36 20.3781 35.7033 20.3781 35.3373C20.3781 34.9713 20.6744 34.6746 21.0398 34.6746H31.3433C33.0661 34.6746 34.4627 33.2758 34.4627 31.5503V18.6746C34.4627 18.3086 34.7589 18.0118 35.1244 18.0118Z" fill="black"/>
<path fill-rule="evenodd" clip-rule="evenodd" d="M6.04975 7.70972C3.66127 9.17628 2.32338 11.1139 2.32338 13.1368C2.32338 14.9919 3.30105 16.7432 5.2585 18.1341C5.55655 18.3458 5.62675 18.7595 5.41529 19.058C5.20383 19.3566 4.7908 19.4269 4.49275 19.2151C2.26984 17.6355 1 15.5155 1 13.1368C1 10.4795 2.75157 8.18016 5.35807 6.57973C7.97563 4.97251 11.5498 4.00002 15.4627 4.00002C19.3756 4.00002 22.9497 4.97251 25.5673 6.57973C28.1738 8.18016 29.9254 10.4795 29.9254 13.1368C29.9254 15.5155 28.6555 17.6355 26.4326 19.2151C26.1346 19.4269 25.7215 19.3566 25.5101 19.058C25.2986 18.7595 25.3688 18.3458 25.6669 18.1341C27.6243 16.7432 28.602 14.9919 28.602 13.1368C28.602 11.1139 27.2641 9.17628 24.8756 7.70972C22.4982 6.24995 19.1719 5.32547 15.4627 5.32547C11.7535 5.32547 8.42717 6.24995 6.04975 7.70972Z" fill="black"/>
<path fill-rule="evenodd" clip-rule="evenodd" d="M24.5373 5.32544L15.7463 5.32548C15.3808 5.32548 15.0846 5.02877 15.0846 4.66276C15.0846 4.29675 15.3808 4.00004 15.7463 4.00003L24.5373 4C28.4502 4 32.0244 4.97249 34.6419 6.57971C37.2484 8.18014 39 10.4795 39 13.1367C39 15.5155 37.7302 17.6355 35.5073 19.2151C35.2092 19.4268 34.7962 19.3565 34.5847 19.058C34.3733 18.7595 34.4435 18.3458 34.7415 18.134C36.699 16.7431 37.6766 14.9919 37.6766 13.1367C37.6766 11.1139 36.3387 9.17626 33.9503 7.7097C31.5728 6.24993 28.2465 5.32544 24.5373 5.32544Z" fill="black"/>
<path fill-rule="evenodd" clip-rule="evenodd" d="M33.9901 12.5207C34.3555 12.5207 34.6517 12.8174 34.6517 13.1834C34.6517 17.0624 32.8048 19.7652 31.6269 20.8681V32.4024C31.6269 32.7684 31.3306 33.0651 30.9652 33.0651C30.5997 33.0651 30.3035 32.7684 30.3035 32.4024V20.5681C30.3035 20.3685 30.3933 20.1796 30.5479 20.0537C31.4194 19.3446 33.3284 16.9004 33.3284 13.1834C33.3284 12.8174 33.6246 12.5207 33.9901 12.5207Z" fill="black"/>
<path fill-rule="evenodd" clip-rule="evenodd" d="M15.9306 14.5136C16.189 14.7725 16.189 15.1921 15.9306 15.4509L10.3535 21.0367C10.0951 21.2955 9.67609 21.2955 9.41769 21.0367C9.15928 20.7779 9.15928 20.3583 9.41769 20.0994L14.9948 14.5136C15.2532 14.2548 15.6722 14.2548 15.9306 14.5136Z" fill="black"/>
<path fill-rule="evenodd" clip-rule="evenodd" d="M21.1296 22.3716C21.388 22.6304 21.388 23.0501 21.1296 23.3089L15.5525 28.8947C15.2941 29.1535 14.8751 29.1535 14.6167 28.8947C14.3583 28.6358 14.3583 28.2162 14.6167 27.9574L20.1938 22.3716C20.4522 22.1128 20.8712 22.1128 21.1296 22.3716Z" fill="black"/>
<path fill-rule="evenodd" clip-rule="evenodd" d="M20.0922 16.883C20.3493 17.1431 20.3471 17.5627 20.0873 17.8202L11.0127 26.8143C10.7529 27.0717 10.334 27.0695 10.0769 26.8094C9.81988 26.5492 9.82208 26.1296 10.0818 25.8721L19.1565 16.8781C19.4162 16.6206 19.8352 16.6228 20.0922 16.883Z" fill="black"/>
</svg>
