<svg width="40" height="40" viewBox="0 0 40 40" fill="none" xmlns="http://www.w3.org/2000/svg">
<path fill-rule="evenodd" clip-rule="evenodd" d="M23.2522 7.26024L5.90703 13.8995H36.4639C35.5621 11.9006 33.5807 10.1871 31.1958 8.9825C28.5463 7.64419 25.533 7.00351 23.2522 7.26024ZM36.7273 15.104H3.28342L3.35412 19.1186C4.86173 19.3954 6 20.6515 6 22.1592C6 23.6659 4.86332 24.9213 3.35728 25.1992L3.2972 30.3165C3.28764 31.1306 3.98231 31.7954 4.84255 31.7954L14.0492 31.7955C14.3549 29.9432 16.048 28.526 18.0909 28.526C20.1338 28.526 21.8269 29.9432 22.1326 31.7955L35.1818 31.7954C36.0354 31.7954 36.7273 31.1406 36.7273 30.3328V15.104ZM31.7951 7.91984C34.6378 9.35573 37.1463 11.5708 37.9758 14.3374C37.9919 14.3908 38 14.4462 38 14.5018V30.3328C38 31.8058 36.7383 33 35.1818 33L21.5455 33C21.3767 33 21.2148 32.9365 21.0955 32.8236C20.9761 32.7107 20.9091 32.5575 20.9091 32.3977C20.9091 30.9247 19.6473 29.7306 18.0909 29.7306C16.5345 29.7306 15.2727 30.9247 15.2727 32.3977C15.2727 32.5575 15.2057 32.7107 15.0863 32.8236C14.967 32.9365 14.8051 33 14.6364 33L4.84255 33C3.27387 33 2.00712 31.7877 2.02455 30.3032L2.09095 24.6476C2.09482 24.3176 2.37858 24.052 2.72727 24.052C3.83184 24.052 4.72727 23.2046 4.72727 22.1592C4.72727 21.1138 3.83184 20.2664 2.72727 20.2664C2.37995 20.2664 2.09679 20.0028 2.091 19.6741L2.00009 14.5118C1.9957 14.2628 2.15377 14.0368 2.39777 13.9434L22.8523 6.11399C22.9026 6.09473 22.9553 6.08165 23.0091 6.07505C25.6282 5.75375 28.9482 6.48183 31.7951 7.91984Z" fill="black"/>
<path fill-rule="evenodd" clip-rule="evenodd" d="M12.4545 19.5781C11.2998 19.5781 10.3636 20.464 10.3636 21.5569C10.3636 22.6498 11.2998 23.5358 12.4545 23.5358C13.6093 23.5358 14.5455 22.6498 14.5455 21.5569C14.5455 20.464 13.6093 19.5781 12.4545 19.5781ZM9.09091 21.5569C9.09091 19.7988 10.5969 18.3735 12.4545 18.3735C14.3122 18.3735 15.8182 19.7988 15.8182 21.5569C15.8182 23.3151 14.3122 24.7403 12.4545 24.7403C10.5969 24.7403 9.09091 23.3151 9.09091 21.5569Z" fill="black"/>
<path fill-rule="evenodd" clip-rule="evenodd" d="M30.8182 24.2241C29.6634 24.2241 28.7273 25.1101 28.7273 26.203C28.7273 27.2959 29.6634 28.1819 30.8182 28.1819C31.973 28.1819 32.9091 27.2959 32.9091 26.203C32.9091 25.1101 31.973 24.2241 30.8182 24.2241ZM27.4545 26.203C27.4545 24.4448 28.9605 23.0196 30.8182 23.0196C32.6759 23.0196 34.1818 24.4448 34.1818 26.203C34.1818 27.9611 32.6759 29.3864 30.8182 29.3864C28.9605 29.3864 27.4545 27.9611 27.4545 26.203Z" fill="black"/>
<path d="M8.63636 28.0098C8.63636 28.6275 8.10725 29.1283 7.45455 29.1283C6.80185 29.1283 6.27273 28.6275 6.27273 28.0098C6.27273 27.3921 6.80185 26.8913 7.45455 26.8913C8.10725 26.8913 8.63636 27.3921 8.63636 28.0098Z" fill="black"/>
<path d="M21.9091 20.0943C21.9091 20.712 21.38 21.2128 20.7273 21.2128C20.0746 21.2128 19.5455 20.712 19.5455 20.0943C19.5455 19.4766 20.0746 18.9758 20.7273 18.9758C21.38 18.9758 21.9091 19.4766 21.9091 20.0943Z" fill="black"/>
<path d="M33.1818 17.169C33.1818 17.7867 32.6527 18.2875 32 18.2875C31.3473 18.2875 30.8182 17.7867 30.8182 17.169C30.8182 16.5513 31.3473 16.0505 32 16.0505C32.6527 16.0505 33.1818 16.5513 33.1818 17.169Z" fill="black"/>
</svg>
