<svg width="40" height="40" viewBox="0 0 40 40" fill="none" xmlns="http://www.w3.org/2000/svg">
<path fill-rule="evenodd" clip-rule="evenodd" d="M20 15.6062C12.6482 15.6062 6.68837 21.5077 6.68837 28.7876C6.68837 29.546 6.753 30.289 6.87696 31.0116L5.72142 31.206C5.58649 30.4194 5.51628 29.6114 5.51628 28.7876C5.51628 20.8667 12.0009 14.4456 20 14.4456C27.9991 14.4456 34.4837 20.8667 34.4837 28.7876C34.4837 29.6114 34.4135 30.4194 34.2786 31.206L33.123 31.0116C33.247 30.289 33.3116 29.546 33.3116 28.7876C33.3116 21.5077 27.3518 15.6062 20 15.6062Z" fill="black"/>
<path fill-rule="evenodd" clip-rule="evenodd" d="M11.5718 21.6978C11.827 21.8949 11.8726 22.2596 11.6735 22.5123C10.6939 23.7561 9.93498 25.178 9.45447 26.7203C9.35906 27.0265 9.03099 27.1982 8.72171 27.1037C8.41243 27.0093 8.23905 26.6844 8.33446 26.3782C8.8577 24.6987 9.68382 23.1513 10.7493 21.7986C10.9483 21.5458 11.3166 21.5007 11.5718 21.6978Z" fill="black"/>
<path fill-rule="evenodd" clip-rule="evenodd" d="M20 11.4611C18.8441 11.4611 17.907 12.389 17.907 13.5337C17.907 13.9854 18.0522 14.4018 18.2991 14.7418L17.3474 15.4193C16.962 14.8884 16.7349 14.2365 16.7349 13.5337C16.7349 11.7481 18.1967 10.3005 20 10.3005C21.8033 10.3005 23.2651 11.7481 23.2651 13.5337C23.2651 14.2365 23.038 14.8884 22.6526 15.4193L21.7009 14.7418C21.9478 14.4018 22.093 13.9854 22.093 13.5337C22.093 12.389 21.1559 11.4611 20 11.4611Z" fill="black"/>
<path fill-rule="evenodd" clip-rule="evenodd" d="M34.2326 9.3057C34.4778 9.3057 34.6971 9.45689 34.7822 9.68462L35.5479 11.7338L37.6173 12.492C37.8473 12.5763 38 12.7934 38 13.0363C38 13.2791 37.8473 13.4962 37.6173 13.5805L35.5479 14.3388L34.7822 16.3879C34.6971 16.6157 34.4778 16.7668 34.2326 16.7668C33.9873 16.7668 33.768 16.6157 33.6829 16.3879L32.9172 14.3388L30.8478 13.5805C30.6178 13.4962 30.4651 13.2791 30.4651 13.0363C30.4651 12.7934 30.6178 12.5763 30.8478 12.492L32.9172 11.7338L33.6829 9.68462C33.768 9.45689 33.9873 9.3057 34.2326 9.3057ZM34.2326 11.5582L33.9229 12.3868C33.8636 12.5456 33.7371 12.6709 33.5767 12.7297L32.7399 13.0363L33.5767 13.3429C33.7371 13.4017 33.8636 13.5269 33.9229 13.6857L34.2326 14.5143L34.5422 13.6857C34.6016 13.5269 34.728 13.4017 34.8884 13.3429L35.7252 13.0363L34.8884 12.7297C34.728 12.6709 34.6016 12.5456 34.5422 12.3868L34.2326 11.5582Z" fill="black"/>
<path fill-rule="evenodd" clip-rule="evenodd" d="M6.93953 4C7.18476 4 7.40406 4.15119 7.48916 4.37892L8.57148 7.27522L11.4964 8.34695C11.7264 8.43122 11.8791 8.64837 11.8791 8.89119C11.8791 9.13402 11.7264 9.35117 11.4964 9.43544L8.57148 10.5072L7.48916 13.4035C7.40406 13.6312 7.18476 13.7824 6.93953 13.7824C6.69431 13.7824 6.47501 13.6312 6.38991 13.4035L5.30759 10.5072L2.38267 9.43544C2.15268 9.35117 2 9.13402 2 8.89119C2 8.64837 2.15268 8.43122 2.38267 8.34695L5.30759 7.27522L6.38991 4.37892C6.47501 4.15119 6.69431 4 6.93953 4ZM6.93953 6.2525L6.31332 7.92825C6.25396 8.08709 6.12749 8.21233 5.96708 8.27111L4.27476 8.89119L5.96708 9.51128C6.12749 9.57005 6.25396 9.69529 6.31332 9.85413L6.93953 11.5299L7.56575 9.85413C7.62511 9.69529 7.75158 9.57005 7.91199 9.51128L9.60431 8.89119L7.91199 8.27111C7.75158 8.21233 7.62511 8.08709 7.56575 7.92825L6.93953 6.2525Z" fill="black"/>
<path fill-rule="evenodd" clip-rule="evenodd" d="M2.33488 33.2642C2.33488 31.7533 3.57183 30.5285 5.09767 30.5285H34.7349C36.2607 30.5285 37.4977 31.7533 37.4977 33.2642C37.4977 34.7752 36.2607 36 34.7349 36H5.09767C3.57183 36 2.33488 34.7752 2.33488 33.2642ZM5.09767 31.6891C4.21916 31.6891 3.50698 32.3943 3.50698 33.2642C3.50698 34.1342 4.21916 34.8394 5.09767 34.8394H34.7349C35.6134 34.8394 36.3256 34.1342 36.3256 33.2642C36.3256 32.3943 35.6134 31.6891 34.7349 31.6891H5.09767Z" fill="black"/>
<path fill-rule="evenodd" clip-rule="evenodd" d="M20.7072 19.9532C21.7861 18.8848 23.5354 18.8848 24.6143 19.9532C25.6933 21.0215 25.6933 22.7537 24.6143 23.8221L20.4788 27.9171C20.3539 28.0409 20.1865 28.0971 20.0231 28.0857C19.8596 28.0971 19.6922 28.0409 19.5673 27.9171L15.4318 23.8221C14.3528 22.7537 14.3528 21.0215 15.4318 19.9532C16.5107 18.8848 18.26 18.8848 19.3389 19.9532L20.0231 20.6306L20.7072 19.9532ZM20.0231 21.9892C19.8596 22.0006 19.6922 21.9444 19.5673 21.8206L18.5101 20.7738C17.8889 20.1587 16.8818 20.1587 16.2606 20.7738C15.6394 21.389 15.6394 22.3863 16.2606 23.0014L20.0231 26.7271L23.7855 23.0014C24.4068 22.3863 24.4068 21.389 23.7855 20.7738C23.1643 20.1587 22.1572 20.1587 21.536 20.7738L20.4788 21.8206C20.3539 21.9444 20.1865 22.0006 20.0231 21.9892Z" fill="black"/>
</svg>
