<svg width="40" height="40" viewBox="0 0 40 40" fill="none" xmlns="http://www.w3.org/2000/svg">
<path fill-rule="evenodd" clip-rule="evenodd" d="M8.73143 10.1295C5.86894 11.9466 4.20202 14.3879 4.20202 16.9975C4.20202 19.6072 5.86894 22.0485 8.73143 23.8655C11.5881 25.6789 15.5705 26.8198 20 26.8198C24.4295 26.8198 28.4119 25.6789 31.2686 23.8655C34.1311 22.0485 35.798 19.6072 35.798 16.9975C35.798 14.3879 34.1311 11.9466 31.2686 10.1295C28.4119 8.31612 24.4295 7.17531 20 7.17531C15.5705 7.17531 11.5881 8.31612 8.73143 10.1295ZM8.0769 9.14374C11.1555 7.18951 15.3726 6 20 6C24.6274 6 28.8445 7.18951 31.9231 9.14374C34.9959 11.0943 37 13.8579 37 16.9975C37 20.1371 34.9959 22.9008 31.9231 24.8513C28.8445 26.8055 24.6274 27.9951 20 27.9951C15.3726 27.9951 11.1555 26.8055 8.0769 24.8513C5.00412 22.9008 3 20.1371 3 16.9975C3 13.8579 5.00412 11.0943 8.0769 9.14374Z" fill="black"/>
<path fill-rule="evenodd" clip-rule="evenodd" d="M4.20202 17.837V22.2025C4.20202 24.8121 5.86894 27.2534 8.73143 29.0705C11.5881 30.8839 15.5705 32.0247 20 32.0247C24.4295 32.0247 28.4119 30.8839 31.2686 29.0705C34.1311 27.2534 35.798 24.8121 35.798 22.2025V17.837H37V22.2025C37 25.3421 34.9959 28.1057 31.9231 30.0563C28.8445 32.0105 24.6274 33.2 20 33.2C15.3726 33.2 11.1555 32.0105 8.0769 30.0563C5.00412 28.1057 3 25.3421 3 22.2025V17.837H4.20202Z" fill="black"/>
<path fill-rule="evenodd" clip-rule="evenodd" d="M14.2279 13.7916C13.4545 13.0044 13.4801 11.7532 14.2852 10.9969C15.0903 10.2406 16.37 10.2657 17.1435 11.0529L25.9013 19.9662C26.6748 20.7534 26.6491 22.0046 25.844 22.7609C25.0389 23.5172 23.7592 23.4921 22.9858 22.7049L14.2279 13.7916ZM15.118 11.8444C14.7916 12.151 14.7812 12.6583 15.0948 12.9774L23.8526 21.8907C24.1661 22.2098 24.6849 22.22 25.0113 21.9134C25.3376 21.6068 25.348 21.0996 25.0345 20.7804L16.2766 11.8671C15.9631 11.548 15.4443 11.5379 15.118 11.8444Z" fill="black"/>
<path fill-rule="evenodd" clip-rule="evenodd" d="M9.13152 18.4838C8.35804 17.6966 8.38368 16.4454 9.18878 15.6891C9.99387 14.9328 11.2736 14.9579 12.047 15.7451L15.5301 19.29C16.3035 20.0772 16.2779 21.3284 15.4728 22.0847C14.6677 22.841 13.388 22.8159 12.6145 22.0287L9.13152 18.4838ZM10.0215 16.5367C9.69517 16.8432 9.68478 17.3505 9.99833 17.6696L13.4814 21.2145C13.7949 21.5336 14.3137 21.5437 14.64 21.2371C14.9664 20.9306 14.9768 20.4233 14.6632 20.1042L11.1802 16.5594C10.8667 16.2402 10.3479 16.2301 10.0215 16.5367Z" fill="black"/>
<path fill-rule="evenodd" clip-rule="evenodd" d="M24.2426 14.4542C23.4692 13.667 23.4948 12.4158 24.2999 11.6595C25.105 10.9032 26.3847 10.9283 27.1581 11.7155L30.6412 15.2603C31.4146 16.0475 31.389 17.2988 30.5839 18.0551C29.7788 18.8113 28.4991 18.7863 27.7257 17.9991L24.2426 14.4542ZM25.1326 12.507C24.8063 12.8136 24.7959 13.3208 25.1094 13.64L28.5925 17.1848C28.906 17.5039 29.4248 17.5141 29.7511 17.2075C30.0775 16.9009 30.0879 16.3937 29.7744 16.0746L26.2913 12.5297C25.9778 12.2106 25.459 12.2004 25.1326 12.507Z" fill="black"/>
<path d="M19.9141 23.7136C19.9141 24.0845 19.6066 24.3852 19.2273 24.3852C18.8479 24.3852 18.5404 24.0845 18.5404 23.7136C18.5404 23.3427 18.8479 23.042 19.2273 23.042C19.6066 23.042 19.9141 23.3427 19.9141 23.7136Z" fill="black"/>
<path d="M30.3889 21.1951C30.3889 21.566 30.0814 21.8667 29.702 21.8667C29.3227 21.8667 29.0152 21.566 29.0152 21.1951C29.0152 20.8241 29.3227 20.5235 29.702 20.5235C30.0814 20.5235 30.3889 20.8241 30.3889 21.1951Z" fill="black"/>
<path d="M21.9747 10.4494C21.9747 10.8203 21.6672 11.121 21.2879 11.121C20.9085 11.121 20.601 10.8203 20.601 10.4494C20.601 10.0785 20.9085 9.77778 21.2879 9.77778C21.6672 9.77778 21.9747 10.0785 21.9747 10.4494Z" fill="black"/>
<path d="M10.6414 11.7926C10.6414 12.1635 10.3339 12.4642 9.95455 12.4642C9.5752 12.4642 9.26768 12.1635 9.26768 11.7926C9.26768 11.4217 9.5752 11.121 9.95455 11.121C10.3339 11.121 10.6414 11.4217 10.6414 11.7926Z" fill="black"/>
</svg>
