<svg width="40" height="40" viewBox="0 0 40 40" fill="none" xmlns="http://www.w3.org/2000/svg">
<path fill-rule="evenodd" clip-rule="evenodd" d="M8.00011 14.3251C8.00011 14.0204 8.23664 13.7734 8.52841 13.7734H24.8302C25.122 13.7734 25.3585 14.0204 25.3585 14.3251V35.4483C25.3585 35.753 25.122 36 24.8302 36H8.52841C8.23664 36 8.00011 35.753 8.00011 35.4483V14.3251ZM9.05671 14.8768V34.8966H24.3019V14.8768H9.05671Z" fill="black"/>
<path fill-rule="evenodd" clip-rule="evenodd" d="M24.3019 14.3251C24.3019 14.0204 24.5384 13.7734 24.8302 13.7734H31.4717C31.7635 13.7734 32 14.0204 32 14.3251V35.4483C32 35.753 31.7635 36 31.4717 36H24.8302C24.5384 36 24.3019 35.753 24.3019 35.4483V14.3251ZM25.3585 14.8768V34.8966H30.9434V14.8768H25.3585Z" fill="black"/>
<path fill-rule="evenodd" clip-rule="evenodd" d="M26.1132 21.9704C26.1132 21.6657 26.3498 21.4187 26.6415 21.4187H29.8113C30.1031 21.4187 30.3396 21.6657 30.3396 21.9704C30.3396 22.2752 30.1031 22.5222 29.8113 22.5222H26.6415C26.3498 22.5222 26.1132 22.2752 26.1132 21.9704Z" fill="black"/>
<path fill-rule="evenodd" clip-rule="evenodd" d="M26.1132 25.0443C26.1132 24.7396 26.3498 24.4926 26.6415 24.4926H29.8113C30.1031 24.4926 30.3396 24.7396 30.3396 25.0443C30.3396 25.349 30.1031 25.5961 29.8113 25.5961H26.6415C26.3498 25.5961 26.1132 25.349 26.1132 25.0443Z" fill="black"/>
<path fill-rule="evenodd" clip-rule="evenodd" d="M26.1132 28.0394C26.1132 27.7347 26.3498 27.4877 26.6415 27.4877H29.8113C30.1031 27.4877 30.3396 27.7347 30.3396 28.0394C30.3396 28.3441 30.1031 28.5911 29.8113 28.5911H26.6415C26.3498 28.5911 26.1132 28.3441 26.1132 28.0394Z" fill="black"/>
<path fill-rule="evenodd" clip-rule="evenodd" d="M24.3019 32.4532C24.3019 32.1485 24.5384 31.9015 24.8302 31.9015H31.4717C31.7635 31.9015 32 32.1485 32 32.4532V35.4483C32 35.753 31.7635 36 31.4717 36H24.8302C24.5384 36 24.3019 35.753 24.3019 35.4483V32.4532ZM25.3585 33.0049V34.8966H30.9434V33.0049H25.3585Z" fill="black"/>
<path fill-rule="evenodd" clip-rule="evenodd" d="M24.3019 14.3251C24.3019 14.0204 24.5384 13.7734 24.8302 13.7734H31.4717C31.7635 13.7734 32 14.0204 32 14.3251V17.3202C32 17.6249 31.7635 17.8719 31.4717 17.8719H24.8302C24.5384 17.8719 24.3019 17.6249 24.3019 17.3202V14.3251ZM25.3585 14.8768V16.7685H30.9434V14.8768H25.3585Z" fill="black"/>
<path fill-rule="evenodd" clip-rule="evenodd" d="M8.00011 32.4532C8.00011 32.1485 8.23664 31.9015 8.52841 31.9015H24.8302C25.122 31.9015 25.3585 32.1485 25.3585 32.4532V35.4483C25.3585 35.753 25.122 36 24.8302 36H8.52841C8.23664 36 8.00011 35.753 8.00011 35.4483V32.4532ZM9.05671 33.0049V34.8966H24.3019V33.0049H9.05671Z" fill="black"/>
<path fill-rule="evenodd" clip-rule="evenodd" d="M8.00011 14.3251C8.00011 14.0204 8.23664 13.7734 8.52841 13.7734H24.8302C25.122 13.7734 25.3585 14.0204 25.3585 14.3251V17.3202C25.3585 17.6249 25.122 17.8719 24.8302 17.8719H8.52841C8.23664 17.8719 8.00011 17.6249 8.00011 17.3202V14.3251ZM9.05671 14.8768V16.7685H24.3019V14.8768H9.05671Z" fill="black"/>
<path fill-rule="evenodd" clip-rule="evenodd" d="M12.4716 25.6132C12.143 22.9249 14.1658 20.5517 16.7548 20.5517C19.3438 20.5517 21.3666 22.9249 21.038 25.6132L20.675 28.5822L19.627 28.4424L19.9899 25.4735C20.2371 23.451 18.7133 21.6552 16.7548 21.6552C14.7963 21.6552 13.2725 23.451 13.5197 25.4735L13.8826 28.4424L12.8345 28.5822L12.4716 25.6132Z" fill="black"/>
<path fill-rule="evenodd" clip-rule="evenodd" d="M11.3208 5.65517C11.3208 4.74105 12.0304 4 12.9057 4H26.9434C27.8187 4 28.5283 4.74105 28.5283 5.65517V7.5468C28.5283 7.85151 28.2918 8.09852 28 8.09852H11.8491C11.5574 8.09852 11.3208 7.85151 11.3208 7.5468V5.65517ZM12.9057 5.10345C12.614 5.10345 12.3774 5.35046 12.3774 5.65517V6.99507H27.4717V5.65517C27.4717 5.35046 27.2352 5.10345 26.9434 5.10345H12.9057Z" fill="black"/>
<path fill-rule="evenodd" clip-rule="evenodd" d="M12.1695 6.97913C12.4281 7.1204 12.528 7.45379 12.3927 7.72377L8.9965 14.5021C8.86123 14.7721 8.542 14.8764 8.28348 14.7352C8.02496 14.5939 7.92504 14.2605 8.06032 13.9905L11.4565 7.21219C11.5918 6.94221 11.911 6.83786 12.1695 6.97913Z" fill="black"/>
<path fill-rule="evenodd" clip-rule="evenodd" d="M27.9927 6.91631C28.1919 6.91342 28.3757 7.02783 28.4681 7.21219L31.8643 13.9905C31.9996 14.2605 31.8997 14.5939 31.6412 14.7352C31.3826 14.8764 31.0634 14.7721 30.9281 14.5021L28.0163 8.69046L25.3049 14.4884C25.1769 14.7622 24.8606 14.8758 24.5984 14.7421C24.3362 14.6083 24.2275 14.278 24.3555 14.0042L27.5253 7.22586C27.6127 7.03889 27.7935 6.9192 27.9927 6.91631Z" fill="black"/>
<path fill-rule="evenodd" clip-rule="evenodd" d="M17.1129 10.4801C16.8571 10.6754 16.7548 10.8989 16.7548 11.0936C16.7548 11.2883 16.8571 11.5118 17.1129 11.7071C17.3683 11.902 17.747 12.0394 18.1887 12.0394C18.6305 12.0394 19.0091 11.902 19.2646 11.7071C19.5204 11.5118 19.6227 11.2883 19.6227 11.0936C19.6227 10.8989 19.5204 10.6754 19.2646 10.4801C19.0091 10.2852 18.6305 10.1478 18.1887 10.1478C17.747 10.1478 17.3683 10.2852 17.1129 10.4801ZM16.4895 9.58922C16.9443 9.24214 17.5468 9.04433 18.1887 9.04433C18.8307 9.04433 19.4332 9.24214 19.888 9.58922C20.3424 9.93599 20.6793 10.4612 20.6793 11.0936C20.6793 11.726 20.3424 12.2512 19.888 12.598C19.4332 12.945 18.8307 13.1429 18.1887 13.1429C17.5468 13.1429 16.9443 12.945 16.4895 12.598C16.0351 12.2512 15.6982 11.726 15.6982 11.0936C15.6982 10.4612 16.0351 9.93599 16.4895 9.58922Z" fill="black"/>
<path fill-rule="evenodd" clip-rule="evenodd" d="M14.653 27.3178C14.135 27.6905 13.8869 28.1499 13.8869 28.5911C13.8869 29.0324 14.135 29.4918 14.653 29.8645C15.1688 30.2356 15.9103 30.4828 16.7548 30.4828C17.5993 30.4828 18.3408 30.2356 18.8566 29.8645C19.3746 29.4918 19.6227 29.0324 19.6227 28.5911C19.6227 28.1499 19.3746 27.6905 18.8566 27.3178C18.3408 26.9467 17.5993 26.6995 16.7548 26.6995C15.9103 26.6995 15.1688 26.9467 14.653 27.3178ZM14.0536 26.4091C14.767 25.8958 15.7236 25.5961 16.7548 25.5961C17.7859 25.5961 18.7426 25.8958 19.456 26.4091C20.1671 26.9207 20.6793 27.6829 20.6793 28.5911C20.6793 29.4993 20.1671 30.2616 19.456 30.7732C18.7426 31.2864 17.7859 31.5862 16.7548 31.5862C15.7236 31.5862 14.767 31.2864 14.0536 30.7732C13.3424 30.2616 12.8303 29.4993 12.8303 28.5911C12.8303 27.6829 13.3424 26.9207 14.0536 26.4091Z" fill="black"/>
<path fill-rule="evenodd" clip-rule="evenodd" d="M17.1945 23.3833C17.3322 24.186 17.7138 25.0677 18.3358 25.8827L17.5095 26.5705C16.7917 25.63 16.3268 24.5821 16.1544 23.578C15.9828 22.5781 16.0965 21.5805 16.5955 20.7978L17.475 21.4092C17.1684 21.8903 17.056 22.5766 17.1945 23.3833Z" fill="black"/>
<path fill-rule="evenodd" clip-rule="evenodd" d="M21.6978 18.5387C21.8772 18.6102 22.0053 18.7777 22.0325 18.9762C22.1994 20.1965 22.036 22.0425 20.2027 23.2277C19.9546 23.3881 19.629 23.3081 19.4754 23.049C19.3218 22.7899 19.3984 22.4499 19.6465 22.2895C20.524 21.7222 20.885 20.9642 20.9913 20.2312L18.9819 21.9984C18.7587 22.1946 18.4254 22.1648 18.2375 21.9317C18.0495 21.6987 18.0781 21.3506 18.3013 21.1543L21.1692 18.6322C21.316 18.503 21.5184 18.4672 21.6978 18.5387Z" fill="black"/>
<path fill-rule="evenodd" clip-rule="evenodd" d="M21.9086 23.7969C21.5735 23.5627 21.0843 23.3772 20.4141 23.5897C20.1349 23.6782 19.8399 23.5136 19.7551 23.2221C19.6703 22.9305 19.8279 22.6224 20.1071 22.5338C21.1386 22.2068 21.9531 22.5002 22.4963 22.8799C22.7623 23.0658 22.9622 23.2708 23.096 23.4291C23.1633 23.5087 23.2151 23.5781 23.2513 23.6296C23.2695 23.6553 23.2838 23.6768 23.2944 23.693C23.2996 23.7011 23.304 23.7079 23.3073 23.7133L23.3117 23.7203L23.3133 23.7229L23.314 23.7241L23.3143 23.7246C23.3145 23.7248 23.3146 23.7251 22.868 24.0197L23.3146 23.7251C23.4399 23.9322 23.4194 24.2008 23.2642 24.3846C22.4256 25.3778 21.1565 25.3765 20.583 25.3759C20.5694 25.3759 20.5562 25.3758 20.5434 25.3758C20.2516 25.3758 20.0151 25.1288 20.0151 24.8241C20.0151 24.5194 20.2516 24.2724 20.5434 24.2724C21.0347 24.2724 21.6364 24.2566 22.1142 23.9621C22.0537 23.9067 21.9851 23.8503 21.9086 23.7969Z" fill="black"/>
<path fill-rule="evenodd" clip-rule="evenodd" d="M11.5116 23.7969C11.8466 23.5627 12.3358 23.3772 13.006 23.5897C13.2852 23.6782 13.5803 23.5136 13.665 23.2221C13.7498 22.9305 13.5922 22.6224 13.313 22.5338C12.2816 22.2068 11.4671 22.5002 10.9239 22.8799C10.6578 23.0658 10.4579 23.2708 10.3241 23.4291C10.2568 23.5087 10.205 23.5781 10.1688 23.6296C10.1506 23.6553 10.1363 23.6768 10.1258 23.693C10.1205 23.7011 10.1162 23.7079 10.1128 23.7133L10.1084 23.7203L10.1068 23.7229L10.1061 23.7241L10.1058 23.7246C10.1057 23.7248 10.1055 23.7251 10.5522 24.0197L10.1055 23.7251C9.98023 23.9322 10.0008 24.2008 10.1559 24.3846C10.9946 25.3778 12.2636 25.3765 12.8371 25.3759C12.8507 25.3759 12.8639 25.3758 12.8767 25.3758C13.1685 25.3758 13.405 25.1288 13.405 24.8241C13.405 24.5194 13.1685 24.2724 12.8767 24.2724C12.3855 24.2724 11.7837 24.2566 11.3059 23.9621C11.3664 23.9067 11.4351 23.8503 11.5116 23.7969Z" fill="black"/>
<path fill-rule="evenodd" clip-rule="evenodd" d="M11.5555 18.5387C11.3761 18.6102 11.248 18.7777 11.2208 18.9762C11.0539 20.1965 11.2173 22.0425 13.0507 23.2277C13.2987 23.3881 13.6243 23.3081 13.7779 23.049C13.9315 22.7899 13.8549 22.4499 13.6068 22.2895C12.7293 21.7222 12.3683 20.9642 12.262 20.2312L14.2714 21.9984C14.4946 22.1946 14.8279 22.1648 15.0158 21.9317C15.2038 21.6987 15.1752 21.3506 14.952 21.1543L12.0841 18.6322C11.9373 18.503 11.7349 18.4672 11.5555 18.5387Z" fill="black"/>
<path d="M18.1887 23.9409H19.2453V25.0443H18.1887V23.9409Z" fill="black"/>
<path d="M17.1321 28.0394H18.1887V29.1429H17.1321V28.0394Z" fill="black"/>
<path d="M15.3208 28.0394H16.3774V29.1429H15.3208V28.0394Z" fill="black"/>
<path d="M14.2642 23.9409H15.3208V25.0443H14.2642V23.9409Z" fill="black"/>
</svg>
