<svg width="40" height="40" viewBox="0 0 40 40" fill="none" xmlns="http://www.w3.org/2000/svg">
<path fill-rule="evenodd" clip-rule="evenodd" d="M6 12.473C6 12.2118 6.21721 12 6.48515 12H33.5149C33.7828 12 34 12.2118 34 12.473C34 12.7342 33.7828 12.9459 33.5149 12.9459H6.48515C6.21721 12.9459 6 12.7342 6 12.473Z" fill="black"/>
<path fill-rule="evenodd" clip-rule="evenodd" d="M8.49505 10.0405C8.49505 9.77932 8.71226 9.56757 8.9802 9.56757L22.703 9.56757C22.9709 9.56757 23.1881 9.77933 23.1881 10.0405C23.1881 10.3018 22.9709 10.5135 22.703 10.5135L8.9802 10.5135C8.71226 10.5135 8.49505 10.3018 8.49505 10.0405Z" fill="black"/>
<path fill-rule="evenodd" clip-rule="evenodd" d="M23.5347 18.0811L22.4257 18.0811C22.1578 18.0811 21.9406 17.8693 21.9406 17.6081C21.9406 17.3469 22.1578 17.1351 22.4257 17.1351L23.5347 17.1351C23.8026 17.1351 24.0198 17.3469 24.0198 17.6081C24.0198 17.8693 23.8026 18.0811 23.5347 18.0811ZM24.9901 17.6081C24.9901 17.3469 25.2073 17.1351 25.4752 17.1351H31.1584C31.4264 17.1351 31.6436 17.3469 31.6436 17.6081C31.6436 17.8693 31.4264 18.0811 31.1584 18.0811H25.4752C25.2073 18.0811 24.9901 17.8693 24.9901 17.6081Z" fill="black"/>
<path fill-rule="evenodd" clip-rule="evenodd" d="M21.9406 21.6622C21.9406 21.4009 22.1578 21.1892 22.4257 21.1892H28.2475C28.5155 21.1892 28.7327 21.4009 28.7327 21.6622C28.7327 21.9234 28.5155 22.1351 28.2475 22.1351H22.4257C22.1578 22.1351 21.9406 21.9234 21.9406 21.6622ZM31.1584 22.1351H30.1188C29.8509 22.1351 29.6337 21.9234 29.6337 21.6622C29.6337 21.4009 29.8509 21.1892 30.1188 21.1892H31.1584C31.4264 21.1892 31.6436 21.4009 31.6436 21.6622C31.6436 21.9234 31.4264 22.1351 31.1584 22.1351Z" fill="black"/>
<path fill-rule="evenodd" clip-rule="evenodd" d="M24.9208 25.8514C24.9208 25.5901 25.138 25.3784 25.4059 25.3784H31.1584C31.4264 25.3784 31.6436 25.5901 31.6436 25.8514C31.6436 26.1126 31.4264 26.3243 31.1584 26.3243H25.4059C25.138 26.3243 24.9208 26.1126 24.9208 25.8514ZM23.604 26.3243H22.4257C22.1578 26.3243 21.9406 26.1126 21.9406 25.8514C21.9406 25.5901 22.1578 25.3784 22.4257 25.3784H23.604C23.8719 25.3784 24.0891 25.5901 24.0891 25.8514C24.0891 26.1126 23.8719 26.3243 23.604 26.3243Z" fill="black"/>
<path fill-rule="evenodd" clip-rule="evenodd" d="M14.2475 19.5676C13.0609 19.5676 12.099 20.5053 12.099 21.6622C12.099 22.819 13.0609 23.7568 14.2475 23.7568C15.4341 23.7568 16.396 22.819 16.396 21.6622C16.396 20.5053 15.4341 19.5676 14.2475 19.5676ZM11.1287 21.6622C11.1287 19.9829 12.5251 18.6216 14.2475 18.6216C15.97 18.6216 17.3663 19.9829 17.3663 21.6622C17.3663 23.3414 15.97 24.7027 14.2475 24.7027C12.5251 24.7027 11.1287 23.3414 11.1287 21.6622Z" fill="black"/>
<path fill-rule="evenodd" clip-rule="evenodd" d="M25.8911 9.43243C25.5466 9.43243 25.2673 9.70469 25.2673 10.0405C25.2673 10.3764 25.5466 10.6486 25.8911 10.6486C26.2356 10.6486 26.5149 10.3764 26.5149 10.0405C26.5149 9.70469 26.2356 9.43243 25.8911 9.43243ZM24.297 10.0405C24.297 9.18226 25.0107 8.48649 25.8911 8.48649C26.7715 8.48649 27.4851 9.18226 27.4851 10.0405C27.4851 10.8988 26.7715 11.5946 25.8911 11.5946C25.0107 11.5946 24.297 10.8988 24.297 10.0405Z" fill="black"/>
<path fill-rule="evenodd" clip-rule="evenodd" d="M30.0495 9.43243C29.705 9.43243 29.4257 9.70469 29.4257 10.0405C29.4257 10.3764 29.705 10.6486 30.0495 10.6486C30.394 10.6486 30.6733 10.3764 30.6733 10.0405C30.6733 9.70469 30.394 9.43243 30.0495 9.43243ZM28.4554 10.0405C28.4554 9.18226 29.1691 8.48649 30.0495 8.48649C30.9299 8.48649 31.6436 9.18226 31.6436 10.0405C31.6436 10.8988 30.9299 11.5946 30.0495 11.5946C29.1691 11.5946 28.4554 10.8988 28.4554 10.0405Z" fill="black"/>
<path fill-rule="evenodd" clip-rule="evenodd" d="M6 8.82432C6 7.81678 6.8378 7 7.87129 7H32.1287C33.1622 7 34 7.81678 34 8.82432V30.1757C34 31.1832 33.1622 32 32.1287 32H7.87129C6.8378 32 6 31.1832 6 30.1757V8.82432ZM7.87129 7.94595C7.37368 7.94595 6.9703 8.33921 6.9703 8.82432V30.1757C6.9703 30.6608 7.37368 31.0541 7.87129 31.0541H32.1287C32.6263 31.0541 33.0297 30.6608 33.0297 30.1757V8.82432C33.0297 8.33921 32.6263 7.94595 32.1287 7.94595H7.87129Z" fill="black"/>
<path fill-rule="evenodd" clip-rule="evenodd" d="M12.7921 16.2568C12.7921 15.8463 13.1334 15.5135 13.5545 15.5135H15.0792C15.5003 15.5135 15.8416 15.8463 15.8416 16.2568V16.5755C16.1975 16.6856 16.5914 16.8382 16.9319 17.0105L17.1592 16.7889C17.457 16.4986 17.9397 16.4986 18.2374 16.7889L19.3156 17.84C19.6133 18.1302 19.6133 18.6008 19.3156 18.8911L19.0863 19.1146C19.2593 19.4406 19.4213 19.8228 19.5364 20.1757H19.8614C20.2824 20.1757 20.6238 20.5084 20.6238 20.9189V22.4054C20.6238 22.8159 20.2824 23.1486 19.8614 23.1486H19.5364C19.4213 23.5015 19.2594 23.8837 19.0863 24.2097L19.3156 24.4333C19.6133 24.7235 19.6133 25.1941 19.3156 25.4844L18.2374 26.5355C17.9397 26.8257 17.457 26.8257 17.1593 26.5355L16.9354 26.3172C16.5946 26.4974 16.2191 26.6492 15.8416 26.7585V27.0676C15.8416 27.478 15.5003 27.8108 15.0792 27.8108H13.5545C13.1334 27.8108 12.7921 27.478 12.7921 27.0676V26.7585C12.4146 26.6493 12.039 26.4974 11.6983 26.3172L11.4744 26.5355C11.1767 26.8257 10.694 26.8257 10.3963 26.5355L9.31809 25.4844C9.02037 25.1941 9.02037 24.7235 9.31809 24.4333L9.54737 24.2097C9.37431 23.8837 9.21234 23.5016 9.09724 23.1487H8.77228C8.35123 23.1487 8.0099 22.8159 8.0099 22.4054V20.9189C8.0099 20.5085 8.35123 20.1757 8.77228 20.1757H9.092C9.20223 19.8128 9.35038 19.4439 9.53903 19.1065L9.31807 18.8911C9.02035 18.6008 9.02035 18.1302 9.31807 17.84L10.3962 16.7889C10.694 16.4986 11.1767 16.4986 11.4744 16.7889L11.7062 17.0149C12.0379 16.8481 12.4286 16.6841 12.7921 16.5711V16.2568ZM13.7624 16.4595V16.7141C13.7624 17.0696 13.5103 17.3521 13.1943 17.4406C12.7563 17.5633 12.2206 17.8021 11.8711 18.0066C11.6802 18.1183 11.4358 18.089 11.2784 17.9355L10.9353 17.6011L10.1512 18.3655L10.4943 18.7C10.659 18.8606 10.6834 19.1127 10.5523 19.3005C10.2734 19.7001 10.063 20.2328 9.93782 20.7561C9.8866 20.9702 9.69084 21.1216 9.46535 21.1216H8.9802V22.2027H9.46535C9.69084 22.2027 9.8866 22.3542 9.93782 22.5683C10.0466 23.0232 10.3165 23.6578 10.5619 24.0381C10.6824 24.225 10.6544 24.4683 10.4943 24.6244L10.1512 24.9588L10.9353 25.7233L11.2784 25.3888C11.4404 25.2309 11.6937 25.2049 11.8858 25.3266C12.3132 25.5974 12.8615 25.8208 13.3793 25.9295C13.6028 25.9764 13.7624 26.169 13.7624 26.3919V26.8649H14.8713V26.3919C14.8713 26.169 15.0309 25.9764 15.2543 25.9295C15.7722 25.8208 16.3205 25.5974 16.7479 25.3266C16.9401 25.2049 17.1933 25.2309 17.3553 25.3888L17.6984 25.7232L18.4825 24.9588L18.1394 24.6244C17.9793 24.4683 17.9513 24.225 18.0718 24.0381C18.3172 23.6578 18.587 23.0232 18.6958 22.5682C18.7471 22.3541 18.9428 22.2027 19.1683 22.2027H19.6535V21.1216H19.1683C18.9428 21.1216 18.7471 20.9701 18.6958 20.7561C18.587 20.3011 18.3171 19.6666 18.0718 19.2862C17.9512 19.0993 17.9793 18.856 18.1394 18.7L18.4824 18.3655L17.6983 17.6011L17.3553 17.9355C17.1933 18.0935 16.94 18.1194 16.7479 17.9977C16.4196 17.7897 15.8886 17.5731 15.4291 17.4417C15.1113 17.3508 14.8713 17.0662 14.8713 16.721V16.4595H13.7624ZM18.6295 25.1021C18.6294 25.102 18.6292 25.1019 18.6291 25.1017L18.6295 25.1021Z" fill="black"/>
<path fill-rule="evenodd" clip-rule="evenodd" d="M23.1881 17.2027C23.1881 16.4937 23.7777 15.9189 24.505 15.9189C25.2322 15.9189 25.8218 16.4937 25.8218 17.2027V18.0135C25.8218 18.7225 25.2322 19.2973 24.505 19.2973C23.7777 19.2973 23.1881 18.7225 23.1881 18.0135V17.2027ZM24.505 16.8649C24.3136 16.8649 24.1584 17.0161 24.1584 17.2027V18.0135C24.1584 18.2001 24.3136 18.3514 24.505 18.3514C24.6963 18.3514 24.8515 18.2001 24.8515 18.0135V17.2027C24.8515 17.0161 24.6963 16.8649 24.505 16.8649Z" fill="black"/>
<path fill-rule="evenodd" clip-rule="evenodd" d="M27.901 21.2568C27.901 20.5477 28.4906 19.973 29.2178 19.973C29.9451 19.973 30.5347 20.5477 30.5347 21.2568V22.2027C30.5347 22.9117 29.9451 23.4865 29.2178 23.4865C28.4906 23.4865 27.901 22.9117 27.901 22.2027V21.2568ZM29.2178 20.9189C29.0264 20.9189 28.8713 21.0702 28.8713 21.2568V22.2027C28.8713 22.3893 29.0264 22.5405 29.2178 22.5405C29.4092 22.5405 29.5644 22.3893 29.5644 22.2027V21.2568C29.5644 21.0702 29.4092 20.9189 29.2178 20.9189Z" fill="black"/>
<path fill-rule="evenodd" clip-rule="evenodd" d="M23.1881 25.4459C23.1881 24.7369 23.7777 24.1622 24.505 24.1622C25.2322 24.1622 25.8218 24.7369 25.8218 25.4459V26.2568C25.8218 26.9658 25.2322 27.5405 24.505 27.5405C23.7777 27.5405 23.1881 26.9658 23.1881 26.2568V25.4459ZM24.505 25.1081C24.3136 25.1081 24.1584 25.2594 24.1584 25.4459V26.2568C24.1584 26.4433 24.3136 26.5946 24.505 26.5946C24.6963 26.5946 24.8515 26.4433 24.8515 26.2568V25.4459C24.8515 25.2594 24.6963 25.1081 24.505 25.1081Z" fill="black"/>
</svg>
