<svg width="40" height="40" viewBox="0 0 40 40" fill="none" xmlns="http://www.w3.org/2000/svg">
<path fill-rule="evenodd" clip-rule="evenodd" d="M30.2791 9.33708C30.2791 7.49406 28.7902 6 26.9535 6L10.9302 6C10.7633 6 10.6279 6.13583 10.6279 6.30337L10.6279 32.6966C10.6279 32.7964 10.6768 32.8898 10.7587 32.9464C10.8406 33.003 10.9449 33.0156 11.0379 32.9801L15.6919 31.201L20.3459 32.9801C20.4152 33.0066 20.4918 33.0066 20.5611 32.9801L25.2151 31.201L29.8691 32.9801C29.962 33.0156 30.0664 33.003 30.1483 32.9464C30.2302 32.8898 30.2791 32.7964 30.2791 32.6966V26.7809H29.6744V32.2564L25.3227 30.5929C25.2534 30.5664 25.1768 30.5664 25.1075 30.5929L20.4535 32.372L15.7995 30.5929C15.7302 30.5664 15.6536 30.5664 15.5842 30.5929L11.2326 32.2564L11.2326 6.60674L26.9535 6.60674C28.4562 6.60674 29.6744 7.82916 29.6744 9.33708V17.3764H30.2791V9.33708Z" fill="#116565"/>
<path d="M25.4419 22.773V21.9978H27.5202C27.551 21.9978 27.5899 21.9966 27.6371 21.9944C27.6862 21.9899 27.7416 21.9775 27.8031 21.9573C27.9568 21.9056 28.0654 21.8202 28.129 21.7011C28.1946 21.582 28.2274 21.4404 28.2274 21.2764C28.2274 21.182 28.2151 21.0843 28.1905 20.9831C28.1679 20.882 28.1259 20.7921 28.0644 20.7135C28.0029 20.6326 27.9158 20.5753 27.8031 20.5416C27.7477 20.5236 27.6924 20.5135 27.6371 20.5112C27.5817 20.509 27.5428 20.5079 27.5202 20.5079H26.4011V19.6517H27.5571C27.5735 19.6517 27.6176 19.6528 27.6893 19.6551C27.7611 19.6573 27.84 19.6652 27.9261 19.6787C28.1905 19.7213 28.4067 19.8169 28.5748 19.9652C28.7449 20.1112 28.8699 20.2955 28.9499 20.518C29.0298 20.7404 29.0698 20.9843 29.0698 21.2494C29.0698 21.6607 28.9755 21.9978 28.7869 22.2607C28.6004 22.5236 28.3134 22.6854 27.9261 22.7461C27.84 22.7596 27.7611 22.7674 27.6893 22.7697C27.6176 22.7719 27.5735 22.773 27.5571 22.773H25.4419ZM25.4419 23.8989V23.191H28.1474V23.8989H25.4419ZM25.8723 24.5056V19.6517H26.7086V24.5056H25.8723Z" fill="#116565"/>
<path fill-rule="evenodd" clip-rule="evenodd" d="M27.2558 16.9213C24.4173 16.9213 22.1163 19.2304 22.1163 22.0787C22.1163 24.927 24.4173 27.236 27.2558 27.236C30.0943 27.236 32.3953 24.927 32.3953 22.0787C32.3953 19.2304 30.0943 16.9213 27.2558 16.9213ZM21.5116 22.0787C21.5116 18.8953 24.0834 16.3146 27.2558 16.3146C30.4282 16.3146 33 18.8953 33 22.0787C33 25.262 30.4282 27.8427 27.2558 27.8427C24.0834 27.8427 21.5116 25.262 21.5116 22.0787Z" fill="#116565"/>
<path fill-rule="evenodd" clip-rule="evenodd" d="M13.6512 10.2472C13.6512 10.0796 13.7865 9.94382 13.9535 9.94382H26.9535C27.1205 9.94382 27.2558 10.0796 27.2558 10.2472C27.2558 10.4147 27.1205 10.5506 26.9535 10.5506H13.9535C13.7865 10.5506 13.6512 10.4147 13.6512 10.2472Z" fill="#116565"/>
<path fill-rule="evenodd" clip-rule="evenodd" d="M13.6512 12.0674C13.6512 11.8999 13.7865 11.764 13.9535 11.764H26.9535C27.1205 11.764 27.2558 11.8999 27.2558 12.0674C27.2558 12.235 27.1205 12.3708 26.9535 12.3708H13.9535C13.7865 12.3708 13.6512 12.235 13.6512 12.0674Z" fill="#116565"/>
<path fill-rule="evenodd" clip-rule="evenodd" d="M13.6512 13.8876C13.6512 13.7201 13.7865 13.5843 13.9535 13.5843H26.9535C27.1205 13.5843 27.2558 13.7201 27.2558 13.8876C27.2558 14.0552 27.1205 14.191 26.9535 14.191H13.9535C13.7865 14.191 13.6512 14.0552 13.6512 13.8876Z" fill="#116565"/>
<path fill-rule="evenodd" clip-rule="evenodd" d="M13.6512 15.7079C13.6512 15.5403 13.7865 15.4045 13.9535 15.4045H20.6047C20.7716 15.4045 20.907 15.5403 20.907 15.7079C20.907 15.8754 20.7716 16.0112 20.6047 16.0112H13.9535C13.7865 16.0112 13.6512 15.8754 13.6512 15.7079Z" fill="#116565"/>
<path fill-rule="evenodd" clip-rule="evenodd" d="M13.6512 26.6292C13.6512 26.4617 13.7865 26.3258 13.9535 26.3258H18.7907C18.9577 26.3258 19.093 26.4617 19.093 26.6292C19.093 26.7968 18.9577 26.9326 18.7907 26.9326H13.9535C13.7865 26.9326 13.6512 26.7968 13.6512 26.6292Z" fill="#116565"/>
<path fill-rule="evenodd" clip-rule="evenodd" d="M7 9.33708C7 7.49406 8.48891 6 10.3256 6L10.9302 6C11.0972 6 11.2326 6.13582 11.2326 6.30337L11.2326 19.9551C11.2326 20.1226 11.0972 20.2584 10.9302 20.2584H7.30233C7.13536 20.2584 7 20.1226 7 19.9551L7 9.33708ZM10.3256 6.60674C8.82285 6.60674 7.60465 7.82916 7.60465 9.33708L7.60465 19.6517H10.6279L10.6279 6.60674L10.3256 6.60674Z" fill="#116565"/>
<path d="M26.9535 6V5.85V6ZM30.2791 9.33708H30.4291H30.2791ZM10.9302 6V6.15V6ZM10.6279 6.30337H10.4779H10.6279ZM10.6279 32.6966H10.7779H10.6279ZM10.7587 32.9464L10.844 32.8231L10.844 32.823L10.7587 32.9464ZM11.0379 32.9801L10.9843 32.84H10.9843L11.0379 32.9801ZM15.6919 31.201L15.7454 31.0609C15.7109 31.0477 15.6728 31.0477 15.6383 31.0609L15.6919 31.201ZM20.3459 32.9801L20.2923 33.1202H20.2923L20.3459 32.9801ZM20.5611 32.9801L20.6147 33.1202H20.6147L20.5611 32.9801ZM25.2151 31.201L25.2687 31.0609C25.2342 31.0477 25.196 31.0477 25.1616 31.0609L25.2151 31.201ZM29.8691 32.9801L29.9227 32.84L29.8691 32.9801ZM30.1483 32.9464L30.063 32.823L30.063 32.823L30.1483 32.9464ZM30.2791 32.6966H30.1291H30.2791ZM30.2791 26.7809H30.4291C30.4291 26.6981 30.3619 26.6309 30.2791 26.6309V26.7809ZM29.6744 26.7809V26.6309C29.5916 26.6309 29.5244 26.6981 29.5244 26.7809H29.6744ZM29.6744 32.2564L29.6209 32.3965C29.667 32.4142 29.7188 32.408 29.7595 32.38C29.8001 32.352 29.8244 32.3058 29.8244 32.2564H29.6744ZM25.3227 30.5929L25.3763 30.4528H25.3763L25.3227 30.5929ZM25.1075 30.5929L25.0539 30.4528L25.1075 30.5929ZM20.4535 32.372L20.3999 32.5121C20.4344 32.5253 20.4726 32.5253 20.507 32.5121L20.4535 32.372ZM15.7995 30.5929L15.853 30.4528L15.7995 30.5929ZM15.5842 30.5929L15.5307 30.4528L15.5842 30.5929ZM11.2326 32.2564H11.0826C11.0826 32.3058 11.1068 32.352 11.1475 32.38C11.1882 32.408 11.24 32.4142 11.2861 32.3965L11.2326 32.2564ZM11.2326 6.60674V6.45674C11.1928 6.45674 11.1546 6.47255 11.1265 6.50068C11.0984 6.52881 11.0826 6.56696 11.0826 6.60674H11.2326ZM26.9535 6.60674V6.75674V6.60674ZM29.6744 9.33708H29.8244H29.6744ZM29.6744 17.3764H29.5244C29.5244 17.4592 29.5916 17.5264 29.6744 17.5264V17.3764ZM30.2791 17.3764V17.5264C30.3619 17.5264 30.4291 17.4592 30.4291 17.3764H30.2791ZM25.4419 22.773H25.2919V22.923H25.4419V22.773ZM25.4419 21.9978V21.8478H25.2919V21.9978H25.4419ZM27.6371 21.9944L27.6442 22.1444L27.6507 22.1438L27.6371 21.9944ZM27.8031 21.9573L27.8499 22.0998L27.8509 22.0995L27.8031 21.9573ZM28.129 21.7011L27.9976 21.6288L27.9966 21.6305L28.129 21.7011ZM28.1905 20.9831L28.044 21.0158L28.0447 21.0186L28.1905 20.9831ZM28.0644 20.7135L27.945 20.8043L27.9462 20.8059L28.0644 20.7135ZM27.8031 20.5416L27.7567 20.6843L27.7601 20.6853L27.8031 20.5416ZM26.4011 20.5079H26.2511V20.6579H26.4011V20.5079ZM26.4011 19.6517V19.5017H26.2511V19.6517H26.4011ZM27.6893 19.6551L27.6846 19.805L27.6893 19.6551ZM27.9261 19.6787L27.95 19.5306L27.9493 19.5305L27.9261 19.6787ZM28.5748 19.9652L28.4755 20.0776L28.4771 20.079L28.5748 19.9652ZM28.9499 20.518L28.8087 20.5687L28.9499 20.518ZM28.7869 22.2607L28.665 22.1733L28.6646 22.1739L28.7869 22.2607ZM27.9261 22.7461L27.9493 22.8943L27.9261 22.7461ZM27.6893 22.7697L27.6846 22.6197L27.6893 22.7697ZM25.4419 23.8989H25.2919V24.0489H25.4419V23.8989ZM25.4419 23.191V23.041H25.2919V23.191H25.4419ZM28.1474 23.191H28.2974V23.041H28.1474V23.191ZM28.1474 23.8989V24.0489H28.2974V23.8989H28.1474ZM25.8723 24.5056H25.7223V24.6556H25.8723V24.5056ZM25.8723 19.6517V19.5017H25.7223V19.6517H25.8723ZM26.7086 19.6517H26.8586V19.5017H26.7086V19.6517ZM26.7086 24.5056V24.6556H26.8586V24.5056H26.7086ZM10.3256 6L10.3256 5.85H10.3256V6ZM7 9.33708H6.85H7ZM11.2326 6.30337L11.3826 6.30337L11.2326 6.30337ZM11.2326 19.9551H11.0826H11.2326ZM10.9302 20.2584V20.4084V20.2584ZM7.30233 20.2584V20.1084V20.2584ZM7 19.9551H7.15H7ZM7.60465 9.33708H7.75465H7.60465ZM10.3256 6.60674L10.3256 6.75674L10.3256 6.60674ZM7.60465 19.6517H7.45465C7.45465 19.7345 7.52181 19.8017 7.60465 19.8017V19.6517ZM10.6279 19.6517V19.8017C10.6677 19.8017 10.7058 19.7859 10.734 19.7578C10.7621 19.7296 10.7779 19.6915 10.7779 19.6517H10.6279ZM10.6279 6.60674H10.7779C10.7779 6.56696 10.7621 6.52881 10.734 6.50068C10.7058 6.47255 10.6677 6.45674 10.6279 6.45674V6.60674ZM26.9535 6.15C28.7068 6.15 30.1291 7.57642 30.1291 9.33708H30.4291C30.4291 7.41171 28.8735 5.85 26.9535 5.85V6.15ZM10.9302 6.15L26.9535 6.15V5.85L10.9302 5.85V6.15ZM10.7779 6.30337C10.7779 6.21818 10.8466 6.15 10.9302 6.15V5.85C10.6799 5.85 10.4779 6.05347 10.4779 6.30337L10.7779 6.30337ZM10.7779 32.6966L10.7779 6.30337L10.4779 6.30337L10.4779 32.6966H10.7779ZM10.844 32.823C10.8027 32.7945 10.7779 32.7473 10.7779 32.6966H10.4779C10.4779 32.8455 10.5509 32.9851 10.6734 33.0698L10.844 32.823ZM10.9843 32.84C10.9376 32.8579 10.8852 32.8515 10.844 32.8231L10.6734 33.0698C10.7959 33.1545 10.9522 33.1734 11.0914 33.1202L10.9843 32.84ZM15.6383 31.0609L10.9843 32.84L11.0914 33.1202L15.7454 31.3412L15.6383 31.0609ZM20.3994 32.84L15.7454 31.0609L15.6383 31.3412L20.2923 33.1202L20.3994 32.84ZM20.5076 32.84C20.4727 32.8533 20.4343 32.8533 20.3994 32.84L20.2923 33.1202C20.3961 33.1599 20.5109 33.1599 20.6147 33.1202L20.5076 32.84ZM25.1616 31.0609L20.5076 32.84L20.6147 33.1202L25.2687 31.3412L25.1616 31.0609ZM29.9227 32.84L25.2687 31.0609L25.1616 31.3412L29.8156 33.1202L29.9227 32.84ZM30.063 32.823C30.0218 32.8515 29.9693 32.8578 29.9227 32.84L29.8156 33.1202C29.9547 33.1734 30.1111 33.1545 30.2336 33.0698L30.063 32.823ZM30.1291 32.6966C30.1291 32.7473 30.1042 32.7945 30.063 32.823L30.2336 33.0698C30.3561 32.9851 30.4291 32.8455 30.4291 32.6966H30.1291ZM30.1291 26.7809V32.6966H30.4291V26.7809H30.1291ZM29.6744 26.9309H30.2791V26.6309H29.6744V26.9309ZM29.8244 32.2564V26.7809H29.5244V32.2564H29.8244ZM25.2692 30.733L29.6209 32.3965L29.728 32.1163L25.3763 30.4528L25.2692 30.733ZM25.1611 30.733C25.1959 30.7197 25.2344 30.7197 25.2692 30.733L25.3763 30.4528C25.2725 30.4131 25.1577 30.4131 25.0539 30.4528L25.1611 30.733ZM20.507 32.5121L25.1611 30.733L25.0539 30.4528L20.3999 32.2319L20.507 32.5121ZM15.7459 30.733L20.3999 32.5121L20.507 32.2319L15.853 30.4528L15.7459 30.733ZM15.6378 30.733C15.6726 30.7197 15.7111 30.7197 15.7459 30.733L15.853 30.4528C15.7492 30.4131 15.6345 30.4131 15.5307 30.4528L15.6378 30.733ZM11.2861 32.3965L15.6378 30.733L15.5307 30.4528L11.179 32.1163L11.2861 32.3965ZM11.0826 6.60674L11.0826 32.2564H11.3826L11.3826 6.60674L11.0826 6.60674ZM26.9535 6.45674L11.2326 6.45674V6.75674L26.9535 6.75674V6.45674ZM29.8244 9.33708C29.8244 7.7468 28.5395 6.45674 26.9535 6.45674V6.75674C28.3729 6.75674 29.5244 7.91151 29.5244 9.33708H29.8244ZM29.8244 17.3764V9.33708H29.5244V17.3764H29.8244ZM30.2791 17.2264H29.6744V17.5264H30.2791V17.2264ZM30.1291 9.33708V17.3764H30.4291V9.33708H30.1291ZM25.5919 22.773V21.9978H25.2919V22.773H25.5919ZM25.4419 22.1478H27.5202V21.8478H25.4419V22.1478ZM27.5202 22.1478C27.5542 22.1478 27.5958 22.1465 27.6442 22.1442L27.6299 21.8446C27.584 21.8467 27.5477 21.8478 27.5202 21.8478V22.1478ZM27.6507 22.1438C27.714 22.138 27.7808 22.1225 27.8499 22.0998L27.7562 21.8148C27.7024 21.8325 27.6584 21.8418 27.6234 21.845L27.6507 22.1438ZM27.8509 22.0995C28.0331 22.0382 28.1762 21.9312 28.2613 21.7717L27.9966 21.6305C27.9546 21.7093 27.8805 21.773 27.7553 21.8151L27.8509 22.0995ZM28.2604 21.7735C28.3404 21.6281 28.3774 21.4605 28.3774 21.2764H28.0774C28.0774 21.4203 28.0487 21.536 27.9976 21.6288L28.2604 21.7735ZM28.3774 21.2764C28.3774 21.1689 28.3633 21.0593 28.3362 20.9477L28.0447 21.0186C28.0668 21.1093 28.0774 21.1951 28.0774 21.2764H28.3774ZM28.3369 20.9505C28.3097 20.8285 28.2583 20.718 28.1826 20.6211L27.9462 20.8059C27.9935 20.8663 28.0262 20.9356 28.0441 21.0158L28.3369 20.9505ZM28.1838 20.6227C28.1002 20.5127 27.9842 20.4392 27.846 20.3979L27.7601 20.6853C27.8474 20.7114 27.9057 20.7525 27.945 20.8043L28.1838 20.6227ZM27.8494 20.3989C27.7817 20.3769 27.7128 20.3642 27.6431 20.3614L27.631 20.6611C27.6719 20.6628 27.7138 20.6703 27.7567 20.6842L27.8494 20.3989ZM27.6431 20.3614C27.5878 20.3591 27.5461 20.3579 27.5202 20.3579V20.6579C27.5394 20.6579 27.5756 20.6589 27.631 20.6611L27.6431 20.3614ZM27.5202 20.3579H26.4011V20.6579H27.5202V20.3579ZM26.5511 20.5079V19.6517H26.2511V20.5079H26.5511ZM26.4011 19.8017H27.5571V19.5017H26.4011V19.8017ZM27.5571 19.8017C27.5706 19.8017 27.6119 19.8027 27.6846 19.805L27.694 19.5051C27.6233 19.5029 27.5764 19.5017 27.5571 19.5017V19.8017ZM27.6846 19.805C27.749 19.807 27.8216 19.8141 27.9028 19.8268L27.9493 19.5305C27.8583 19.5162 27.7731 19.5076 27.694 19.5051L27.6846 19.805ZM27.9021 19.8267C28.1441 19.8658 28.3325 19.9514 28.4755 20.0776L28.674 19.8527C28.4809 19.6823 28.2368 19.5769 27.95 19.5306L27.9021 19.8267ZM28.4771 20.079C28.6264 20.2072 28.737 20.3693 28.8087 20.5687L29.091 20.4673C29.0028 20.2217 28.8634 20.0153 28.6725 19.8514L28.4771 20.079ZM28.8087 20.5687C28.8821 20.773 28.9198 20.9995 28.9198 21.2494H29.2198C29.2198 20.9691 29.1775 20.7079 29.091 20.4673L28.8087 20.5687ZM28.9198 21.2494C28.9198 21.6378 28.8309 21.942 28.665 22.1733L28.9088 22.3481C29.1201 22.0535 29.2198 21.6835 29.2198 21.2494H28.9198ZM28.6646 22.1739C28.5064 22.3969 28.2595 22.542 27.9028 22.5979L27.9493 22.8943C28.3674 22.8288 28.6944 22.6503 28.9093 22.3475L28.6646 22.1739ZM27.9028 22.5979C27.8216 22.6106 27.749 22.6177 27.6846 22.6197L27.694 22.9196C27.7731 22.9171 27.8583 22.9085 27.9493 22.8943L27.9028 22.5979ZM27.6846 22.6197C27.6119 22.622 27.5706 22.623 27.5571 22.623V22.923C27.5764 22.923 27.6233 22.9218 27.694 22.9196L27.6846 22.6197ZM27.5571 22.623H25.4419V22.923H27.5571V22.623ZM25.5919 23.8989V23.191H25.2919V23.8989H25.5919ZM25.4419 23.341H28.1474V23.041H25.4419V23.341ZM27.9974 23.191V23.8989H28.2974V23.191H27.9974ZM28.1474 23.7489H25.4419V24.0489H28.1474V23.7489ZM26.0223 24.5056V19.6517H25.7223V24.5056H26.0223ZM25.8723 19.8017H26.7086V19.5017H25.8723V19.8017ZM26.5586 19.6517V24.5056H26.8586V19.6517H26.5586ZM26.7086 24.3556H25.8723V24.6556H26.7086V24.3556ZM22.2663 22.0787C22.2663 19.3127 24.5007 17.0713 27.2558 17.0713V16.7713C24.334 16.7713 21.9663 19.148 21.9663 22.0787H22.2663ZM27.2558 27.086C24.5007 27.086 22.2663 24.8446 22.2663 22.0787H21.9663C21.9663 25.0093 24.334 27.386 27.2558 27.386V27.086ZM32.2453 22.0787C32.2453 24.8446 30.011 27.086 27.2558 27.086V27.386C30.1776 27.386 32.5453 25.0093 32.5453 22.0787H32.2453ZM27.2558 17.0713C30.011 17.0713 32.2453 19.3127 32.2453 22.0787H32.5453C32.5453 19.148 30.1776 16.7713 27.2558 16.7713V17.0713ZM27.2558 16.1646C24.0001 16.1646 21.3616 18.8129 21.3616 22.0787H21.6616C21.6616 18.9776 24.1667 16.4646 27.2558 16.4646V16.1646ZM33.15 22.0787C33.15 18.8129 30.5116 16.1646 27.2558 16.1646V16.4646C30.3449 16.4646 32.85 18.9776 32.85 22.0787H33.15ZM27.2558 27.9927C30.5116 27.9927 33.15 25.3444 33.15 22.0787H32.85C32.85 25.1797 30.3449 27.6927 27.2558 27.6927V27.9927ZM21.3616 22.0787C21.3616 25.3444 24.0001 27.9927 27.2558 27.9927V27.6927C24.1667 27.6927 21.6616 25.1797 21.6616 22.0787H21.3616ZM13.9535 9.79382C13.7032 9.79382 13.5012 9.99729 13.5012 10.2472H13.8012C13.8012 10.162 13.8698 10.0938 13.9535 10.0938V9.79382ZM26.9535 9.79382H13.9535V10.0938H26.9535V9.79382ZM27.4058 10.2472C27.4058 9.99729 27.2038 9.79382 26.9535 9.79382V10.0938C27.0371 10.0938 27.1058 10.162 27.1058 10.2472H27.4058ZM26.9535 10.7006C27.2038 10.7006 27.4058 10.4971 27.4058 10.2472H27.1058C27.1058 10.3324 27.0371 10.4006 26.9535 10.4006V10.7006ZM13.9535 10.7006H26.9535V10.4006H13.9535V10.7006ZM13.5012 10.2472C13.5012 10.4971 13.7032 10.7006 13.9535 10.7006V10.4006C13.8698 10.4006 13.8012 10.3324 13.8012 10.2472H13.5012ZM13.9535 11.614C13.7032 11.614 13.5012 11.8175 13.5012 12.0674H13.8012C13.8012 11.9822 13.8698 11.914 13.9535 11.914V11.614ZM26.9535 11.614H13.9535V11.914H26.9535V11.614ZM27.4058 12.0674C27.4058 11.8175 27.2038 11.614 26.9535 11.614V11.914C27.0371 11.914 27.1058 11.9822 27.1058 12.0674H27.4058ZM26.9535 12.5208C27.2038 12.5208 27.4058 12.3173 27.4058 12.0674H27.1058C27.1058 12.1526 27.0371 12.2208 26.9535 12.2208V12.5208ZM13.9535 12.5208H26.9535V12.2208H13.9535V12.5208ZM13.5012 12.0674C13.5012 12.3173 13.7032 12.5208 13.9535 12.5208V12.2208C13.8698 12.2208 13.8012 12.1526 13.8012 12.0674H13.5012ZM13.9535 13.4343C13.7032 13.4343 13.5012 13.6377 13.5012 13.8876H13.8012C13.8012 13.8024 13.8698 13.7343 13.9535 13.7343V13.4343ZM26.9535 13.4343H13.9535V13.7343H26.9535V13.4343ZM27.4058 13.8876C27.4058 13.6377 27.2038 13.4343 26.9535 13.4343V13.7343C27.0371 13.7343 27.1058 13.8024 27.1058 13.8876H27.4058ZM26.9535 14.341C27.2038 14.341 27.4058 14.1375 27.4058 13.8876H27.1058C27.1058 13.9728 27.0371 14.041 26.9535 14.041V14.341ZM13.9535 14.341H26.9535V14.041H13.9535V14.341ZM13.5012 13.8876C13.5012 14.1375 13.7032 14.341 13.9535 14.341V14.041C13.8698 14.041 13.8012 13.9728 13.8012 13.8876H13.5012ZM13.9535 15.2545C13.7032 15.2545 13.5012 15.458 13.5012 15.7079H13.8012C13.8012 15.6227 13.8698 15.5545 13.9535 15.5545V15.2545ZM20.6047 15.2545H13.9535V15.5545H20.6047V15.2545ZM21.057 15.7079C21.057 15.458 20.855 15.2545 20.6047 15.2545V15.5545C20.6883 15.5545 20.757 15.6227 20.757 15.7079H21.057ZM20.6047 16.1612C20.855 16.1612 21.057 15.9578 21.057 15.7079H20.757C20.757 15.7931 20.6883 15.8612 20.6047 15.8612V16.1612ZM13.9535 16.1612H20.6047V15.8612H13.9535V16.1612ZM13.5012 15.7079C13.5012 15.9578 13.7032 16.1612 13.9535 16.1612V15.8612C13.8698 15.8612 13.8012 15.7931 13.8012 15.7079H13.5012ZM13.9535 26.1758C13.7032 26.1758 13.5012 26.3793 13.5012 26.6292H13.8012C13.8012 26.544 13.8698 26.4758 13.9535 26.4758V26.1758ZM18.7907 26.1758H13.9535V26.4758H18.7907V26.1758ZM19.243 26.6292C19.243 26.3793 19.041 26.1758 18.7907 26.1758V26.4758C18.8743 26.4758 18.943 26.544 18.943 26.6292H19.243ZM18.7907 27.0826C19.041 27.0826 19.243 26.8791 19.243 26.6292H18.943C18.943 26.7144 18.8743 26.7826 18.7907 26.7826V27.0826ZM13.9535 27.0826H18.7907V26.7826H13.9535V27.0826ZM13.5012 26.6292C13.5012 26.8791 13.7032 27.0826 13.9535 27.0826V26.7826C13.8698 26.7826 13.8012 26.7144 13.8012 26.6292H13.5012ZM10.3256 5.85C8.40558 5.85 6.85 7.41171 6.85 9.33708H7.15C7.15 7.57642 8.57224 6.15 10.3256 6.15L10.3256 5.85ZM10.9302 5.85L10.3256 5.85L10.3256 6.15L10.9302 6.15L10.9302 5.85ZM11.3826 6.30337C11.3826 6.05347 11.1805 5.85 10.9302 5.85V6.15C11.0139 6.15 11.0826 6.21818 11.0826 6.30337L11.3826 6.30337ZM11.3826 19.9551L11.3826 6.30337L11.0826 6.30337L11.0826 19.9551H11.3826ZM10.9302 20.4084C11.1805 20.4084 11.3826 20.205 11.3826 19.9551H11.0826C11.0826 20.0402 11.0139 20.1084 10.9302 20.1084V20.4084ZM7.30233 20.4084H10.9302V20.1084H7.30233V20.4084ZM6.85 19.9551C6.85 20.205 7.05203 20.4084 7.30233 20.4084L7.30233 20.1084C7.21869 20.1084 7.15 20.0402 7.15 19.9551H6.85ZM6.85 9.33708L6.85 19.9551H7.15L7.15 9.33708H6.85ZM7.75465 9.33708C7.75465 7.91151 8.90618 6.75674 10.3256 6.75674L10.3256 6.45674C8.73952 6.45674 7.45465 7.7468 7.45465 9.33708H7.75465ZM7.75465 19.6517L7.75465 9.33708H7.45465L7.45465 19.6517H7.75465ZM10.6279 19.5017H7.60465V19.8017H10.6279V19.5017ZM10.4779 6.60674L10.4779 19.6517H10.7779L10.7779 6.60674L10.4779 6.60674ZM10.3256 6.75674H10.6279L10.6279 6.45674L10.3256 6.45674L10.3256 6.75674Z" fill="#116565"/>
</svg>
