<svg width="40" height="40" viewBox="0 0 40 40" fill="none" xmlns="http://www.w3.org/2000/svg">
<path fill-rule="evenodd" clip-rule="evenodd" d="M6 25.8687C6 25.5953 6.2216 25.3737 6.49495 25.3737H14.1313C14.4047 25.3737 14.6263 25.5953 14.6263 25.8687V33.5051C14.6263 33.7784 14.4047 34 14.1313 34H6.49495C6.2216 34 6 33.7784 6 33.5051V25.8687ZM6.9899 26.3636V33.0101H13.6364V26.3636H10.8081V28.9091C10.8081 29.1825 10.5865 29.4041 10.3131 29.4041C10.0398 29.4041 9.81818 29.1825 9.81818 28.9091V26.3636H6.9899Z" fill="#116565"/>
<path fill-rule="evenodd" clip-rule="evenodd" d="M6 18.2323C6 17.959 6.2216 17.7374 6.49495 17.7374H14.1313C14.4047 17.7374 14.6263 17.959 14.6263 18.2323V25.8687C14.6263 26.142 14.4047 26.3636 14.1313 26.3636H6.49495C6.2216 26.3636 6 26.142 6 25.8687V18.2323ZM6.9899 18.7273V25.3737H13.6364V18.7273H10.8081V21.2727C10.8081 21.5461 10.5865 21.7677 10.3131 21.7677C10.0398 21.7677 9.81818 21.5461 9.81818 21.2727V18.7273H6.9899Z" fill="#116565"/>
<path fill-rule="evenodd" clip-rule="evenodd" d="M13.6367 25.8687C13.6367 25.5953 13.8583 25.3737 14.1317 25.3737H21.768C22.0414 25.3737 22.263 25.5953 22.263 25.8687V33.5051C22.263 33.7784 22.0414 34 21.768 34H14.1317C13.8583 34 13.6367 33.7784 13.6367 33.5051V25.8687ZM14.6266 26.3636V33.0101H21.2731V26.3636H18.4448V28.9091C18.4448 29.1825 18.2232 29.4041 17.9499 29.4041C17.6765 29.4041 17.4549 29.1825 17.4549 28.9091V26.3636H14.6266Z" fill="#116565"/>
<path fill-rule="evenodd" clip-rule="evenodd" d="M8.40396 11.4445V18.0909H7.41406V11.4445H8.40396ZM30.606 33.0101V11.4445H31.5959V33.5051C31.5959 33.7784 31.3743 34 31.1009 34H7.90901V33.0101H30.606Z" fill="#116565"/>
<path fill-rule="evenodd" clip-rule="evenodd" d="M11.0908 15.404C11.0908 15.1307 11.3124 14.9091 11.5858 14.9091H27.5656C27.8389 14.9091 28.0605 15.1307 28.0605 15.404V33.505H27.0706V15.899H12.0807V18.0202H11.0908V15.404Z" fill="#116565"/>
<path fill-rule="evenodd" clip-rule="evenodd" d="M11.0908 18.0909C11.0908 17.8175 11.3124 17.5959 11.5858 17.5959L27.4242 17.5959C27.6975 17.5959 27.9191 17.8175 27.9191 18.0909C27.9191 18.3642 27.6975 18.5858 27.4242 18.5858L11.5858 18.5858C11.3124 18.5858 11.0908 18.3642 11.0908 18.0909Z" fill="#116565"/>
<path fill-rule="evenodd" clip-rule="evenodd" d="M17.5957 20.6364C17.5957 20.363 17.8173 20.1414 18.0907 20.1414L27.5654 20.1414C27.8388 20.1414 28.0603 20.363 28.0603 20.6364C28.0603 20.9097 27.8388 21.1313 27.5654 21.1313L18.0907 21.1313C17.8173 21.1313 17.5957 20.9097 17.5957 20.6364Z" fill="#116565"/>
<path fill-rule="evenodd" clip-rule="evenodd" d="M17.5957 23.1818C17.5957 22.9085 17.8173 22.6869 18.0907 22.6869L27.5654 22.6869C27.8388 22.6869 28.0603 22.9085 28.0603 23.1818C28.0603 23.4552 27.8388 23.6768 27.5654 23.6768L18.0907 23.6768C17.8173 23.6768 17.5957 23.4552 17.5957 23.1818Z" fill="#116565"/>
<path fill-rule="evenodd" clip-rule="evenodd" d="M19.4612 6.01343C19.5369 5.99543 19.6158 5.99552 19.6915 6.01371L32.6309 9.12483C32.8533 9.17831 33.0101 9.37728 33.0101 9.60606V12.0808C33.0101 12.2324 32.9406 12.3757 32.8215 12.4696C32.7024 12.5634 32.5469 12.5975 32.3994 12.562L19.5751 9.4786L6.60947 12.5623C6.46217 12.5974 6.30693 12.563 6.18812 12.4692C6.06931 12.3753 6 12.2322 6 12.0808V9.60606C6 9.37682 6.15741 9.17758 6.38043 9.12454L19.4612 6.01343ZM6.9899 9.9971V11.4543L19.4612 8.48818C19.5369 8.47017 19.6158 8.47027 19.6915 8.48846L32.0202 11.4527V9.99611L19.5751 7.00385L6.9899 9.9971Z" fill="#116565"/>
</svg>
