<svg width="40" height="40" viewBox="0 0 40 40" fill="none" xmlns="http://www.w3.org/2000/svg">
<path fill-rule="evenodd" clip-rule="evenodd" d="M18.2094 9.75789C18.2094 10.9121 19.2356 11.8947 20.5628 11.8947C21.89 11.8947 22.9162 10.9121 22.9162 9.75789H23.9791C23.9791 11.5337 22.4221 12.9263 20.5628 12.9263C18.7035 12.9263 17.1466 11.5337 17.1466 9.75789H18.2094Z" fill="#262626"/>
<path fill-rule="evenodd" clip-rule="evenodd" d="M20.8665 7.03158C19.3901 7.03158 18.2094 8.17047 18.2094 9.55623V10.1263H20.3351V9.55623C20.3351 9.27137 20.573 9.04044 20.8665 9.04044H23.4679C23.2179 7.89876 22.1548 7.03158 20.8665 7.03158ZM17.1466 9.55623C17.1466 7.58361 18.821 6 20.8665 6C22.912 6 24.5864 7.58361 24.5864 9.55623C24.5864 9.8411 24.3485 10.072 24.055 10.072H21.3979V10.6421C21.3979 10.927 21.16 11.1579 20.8665 11.1579H17.678C17.3845 11.1579 17.1466 10.927 17.1466 10.6421V9.55623Z" fill="#262626"/>
<path fill-rule="evenodd" clip-rule="evenodd" d="M5 16.5368C5 16.252 5.23792 16.0211 5.53141 16.0211H11.301C11.5945 16.0211 11.8325 16.252 11.8325 16.5368V23.0211C11.8325 23.3059 11.5945 23.5368 11.301 23.5368H5.53141C5.23792 23.5368 5 23.3059 5 23.0211V16.5368ZM6.06283 17.0526V22.5053H10.7696V17.0526H6.06283Z" fill="#262626"/>
<path fill-rule="evenodd" clip-rule="evenodd" d="M15.8137 12.6504C16.3656 12.4134 16.9703 12.4308 17.5754 12.6106C18.8979 13.0034 19.6421 14.3621 19.2383 15.6458C19.2381 15.6463 19.238 15.6468 19.2378 15.6473L17.7315 20.5167L16.7135 20.2201L18.2207 15.348L18.2215 15.3454C18.4546 14.606 18.0261 13.8233 17.2643 13.597C16.827 13.4671 16.4979 13.4846 16.2438 13.5937C15.9891 13.7032 15.7287 13.9394 15.5001 14.402C15.2267 14.9551 14.4607 16.9483 13.8026 18.6988C13.2776 20.095 13.7802 21.6585 15.0274 22.5285L14.4071 23.3662C12.7768 22.2289 12.1142 20.1801 12.8041 18.3452C13.4508 16.6252 14.2397 14.5671 14.5418 13.9558C14.8446 13.3433 15.2625 12.8872 15.8137 12.6504Z" fill="#262626"/>
<path fill-rule="evenodd" clip-rule="evenodd" d="M16.7059 20.2475C16.7747 19.9706 17.0618 19.8002 17.3471 19.867L22.4058 21.0512L22.4066 21.0514C23.4201 21.2859 24.055 22.1706 24.055 23.1684V28.1788C24.055 28.1788 24.055 28.1789 23.5236 28.1789C22.9921 28.1789 22.9921 28.1789 22.9921 28.1789V23.1684C22.9921 22.5928 22.6416 22.1661 22.1597 22.0547L22.1581 22.0544L17.0979 20.8698C16.8126 20.803 16.6371 20.5244 16.7059 20.2475ZM23.5236 28.1789L22.9921 28.1789C22.9921 28.4638 23.2301 28.6947 23.5236 28.6947C23.8171 28.6947 24.055 28.4638 24.055 28.1789H23.5236Z" fill="#262626"/>
<path fill-rule="evenodd" clip-rule="evenodd" d="M21.3594 17.6825L18.0447 14.1583L18.8296 13.4628L22.0193 16.8541L25.2286 17.355C26.0151 17.4778 26.5502 18.1962 26.4238 18.9596C26.2976 19.721 25.561 20.2397 24.7768 20.1206L20.5655 19.553C20.4456 19.5368 20.335 19.4814 20.2519 19.3959L17.7468 16.817L18.5202 16.1093L20.897 18.5562L24.928 19.0995C24.9318 19.1 24.9355 19.1006 24.9393 19.1012C25.1463 19.1335 25.3411 18.9968 25.3744 18.7958C25.4077 18.5949 25.2669 18.4058 25.0598 18.3735L21.6675 17.844C21.5489 17.8255 21.4403 17.7686 21.3594 17.6825Z" fill="#262626"/>
<path fill-rule="evenodd" clip-rule="evenodd" d="M27.1675 16.8316C27.1675 15.7328 28.0852 14.8421 29.2173 14.8421H30.5838C30.8773 14.8421 31.1152 15.073 31.1152 15.3579V18.3053C31.1152 18.5901 30.8773 18.8211 30.5838 18.8211H29.2173C28.0852 18.8211 27.1675 17.9303 27.1675 16.8316ZM29.2173 15.8737C28.6722 15.8737 28.2304 16.3025 28.2304 16.8316C28.2304 17.3606 28.6722 17.7895 29.2173 17.7895H30.0524V15.8737H29.2173Z" fill="#262626"/>
<path fill-rule="evenodd" clip-rule="evenodd" d="M27.4461 20.2225C27.3346 19.5964 26.7068 19.1876 26.0676 19.3247C25.781 19.3862 25.4973 19.2106 25.434 18.9324C25.3706 18.6543 25.5516 18.3789 25.8382 18.3175C27.0694 18.0533 28.2785 18.8407 28.4934 20.0467L29.591 26.2062C29.641 26.4869 29.4471 26.7538 29.1579 26.8024C28.8687 26.8509 28.5937 26.6627 28.5437 26.382L27.4461 20.2225Z" fill="#262626"/>
<path fill-rule="evenodd" clip-rule="evenodd" d="M25.7251 20.3684C26.0186 20.3684 26.2565 20.5993 26.2565 20.8842V30.5368C26.2565 30.8217 26.0186 31.0526 25.7251 31.0526H6.54037C6.10892 31.0526 5.75916 30.7132 5.75916 30.2944C5.75916 25.9926 9.35211 22.5053 13.7842 22.5053H19.0445C19.0912 22.5053 19.1376 22.5112 19.1827 22.523L21.1565 23.0388C21.3629 23.0927 21.5159 23.2614 21.5448 23.4669L22.4689 30.0211H25.1937V20.8842C25.1937 20.5993 25.4316 20.3684 25.7251 20.3684ZM21.3962 30.0211L20.5396 23.9459L18.9742 23.5368H13.7842C10.0334 23.5368 6.97536 26.4157 6.82758 30.0211H21.3962Z" fill="#262626"/>
<path fill-rule="evenodd" clip-rule="evenodd" d="M6.97382 18.3053C6.97382 18.0204 7.21174 17.7895 7.50524 17.7895H11.301C11.5945 17.7895 11.8325 18.0204 11.8325 18.3053C11.8325 18.5901 11.5945 18.8211 11.301 18.8211H7.50524C7.21174 18.8211 6.97382 18.5901 6.97382 18.3053Z" fill="#262626"/>
<path fill-rule="evenodd" clip-rule="evenodd" d="M9.85864 27.5895C9.85864 27.3046 10.0966 27.0737 10.3901 27.0737H14.1859C14.4794 27.0737 14.7173 27.3046 14.7173 27.5895C14.7173 27.8743 14.4794 28.1053 14.1859 28.1053H10.3901C10.0966 28.1053 9.85864 27.8743 9.85864 27.5895Z" fill="#262626"/>
<path fill-rule="evenodd" clip-rule="evenodd" d="M32.9372 30.6842C32.9372 29.9155 32.5464 29.2353 31.9448 28.8205L32.5604 27.9795C33.4305 28.5795 34 29.5673 34 30.6842C34 32.5155 32.4705 34 30.5838 34C28.697 34 27.1675 32.5155 27.1675 30.6842H28.2304C28.2304 31.9457 29.284 32.9684 30.5838 32.9684C31.8835 32.9684 32.9372 31.9457 32.9372 30.6842Z" fill="#262626"/>
<path fill-rule="evenodd" clip-rule="evenodd" d="M26.8959 29.9339C29.595 30.1497 31.3103 28.7878 32.1519 27.6152C31.6143 27.2726 30.9716 27.0737 30.2801 27.0737C28.5526 27.0737 27.1246 28.3182 26.8959 29.9339ZM25.801 30.3895C25.801 27.9885 27.8064 26.0421 30.2801 26.0421C31.3994 26.0421 32.4239 26.4412 33.2089 27.1002C33.4007 27.2612 33.4486 27.5313 33.3232 27.7453C32.4128 29.2994 30.0988 31.4554 26.2542 30.8996C25.9938 30.862 25.801 30.645 25.801 30.3895Z" fill="#262626"/>
<path fill-rule="evenodd" clip-rule="evenodd" d="M9.47906 30.1684C9.77255 30.1684 10.0105 30.3993 10.0105 30.6842C10.0105 31.28 10.2447 31.8214 10.6297 32.2284C11.0606 32.684 11.6776 32.9684 12.3639 32.9684C13.6636 32.9684 14.7173 31.9457 14.7173 30.6842C14.7173 30.3993 14.9552 30.1684 15.2487 30.1684C15.5422 30.1684 15.7801 30.3993 15.7801 30.6842C15.7801 32.5155 14.2506 34 12.3639 34C11.3677 34 10.4705 33.5855 9.84675 32.926C9.28888 32.3362 8.94764 31.5483 8.94764 30.6842C8.94764 30.3993 9.18557 30.1684 9.47906 30.1684Z" fill="#262626"/>
</svg>
