<svg width="40" height="40" viewBox="0 0 40 40" fill="none" xmlns="http://www.w3.org/2000/svg">
<path fill-rule="evenodd" clip-rule="evenodd" d="M16.3232 11.4366C16.3232 10.3819 17.178 9.52683 18.2323 9.52683H32.0909C33.1453 9.52683 34 10.3819 34 11.4366V32.0902C34 33.145 33.1453 34 32.0909 34H18.2323C17.178 34 16.3232 33.145 16.3232 32.0902V11.4366ZM18.2323 10.5171C17.7247 10.5171 17.3131 10.9288 17.3131 11.4366V32.0902C17.3131 32.5981 17.7247 33.0098 18.2323 33.0098H32.0909C32.5986 33.0098 33.0101 32.5981 33.0101 32.0902V11.4366C33.0101 10.9288 32.5986 10.5171 32.0909 10.5171H18.2323Z" fill="black"/>
<path fill-rule="evenodd" clip-rule="evenodd" d="M6 7.47561C6 6.10837 7.10798 5 8.47475 5H27.7071C29.0738 5 30.1818 6.10837 30.1818 7.47561V9.80976H29.1919V7.47561C29.1919 6.65526 28.5271 5.99024 27.7071 5.99024H8.47475C7.65469 5.99024 6.9899 6.65527 6.9899 7.47561V31.5244C6.9899 32.3447 7.65469 33.0098 8.47475 33.0098H18.0909V34H8.47475C7.10798 34 6 32.8916 6 31.5244V7.47561Z" fill="black"/>
<path fill-rule="evenodd" clip-rule="evenodd" d="M18.0202 11.7195C18.0202 11.4461 18.2418 11.2244 18.5152 11.2244H31.8081C32.0814 11.2244 32.303 11.4461 32.303 11.7195V15.9634C32.303 16.2369 32.0814 16.4585 31.8081 16.4585H18.5152C18.2418 16.4585 18.0202 16.2369 18.0202 15.9634V11.7195ZM19.0101 12.2146V15.4683H31.3131V12.2146H19.0101Z" fill="black"/>
<path fill-rule="evenodd" clip-rule="evenodd" d="M17.7374 17.661C17.7374 17.3875 17.959 17.1659 18.2323 17.1659H20.4949C20.7683 17.1659 20.9899 17.3875 20.9899 17.661V19.9244C20.9899 20.1978 20.7683 20.4195 20.4949 20.4195H18.2323C17.959 20.4195 17.7374 20.1978 17.7374 19.9244V17.661ZM18.7273 18.1561V19.4293H20V18.1561H18.7273Z" fill="black"/>
<path fill-rule="evenodd" clip-rule="evenodd" d="M17.7374 21.622C17.7374 21.3485 17.959 21.1268 18.2323 21.1268H20.4949C20.7683 21.1268 20.9899 21.3485 20.9899 21.622V23.8854C20.9899 24.1588 20.7683 24.3805 20.4949 24.3805H18.2323C17.959 24.3805 17.7374 24.1588 17.7374 23.8854V21.622ZM18.7273 22.1171V23.3902H20V22.1171H18.7273Z" fill="black"/>
<path fill-rule="evenodd" clip-rule="evenodd" d="M17.7374 25.5829C17.7374 25.3095 17.959 25.0878 18.2323 25.0878H20.4949C20.7683 25.0878 20.9899 25.3095 20.9899 25.5829V27.8463C20.9899 28.1198 20.7683 28.3415 20.4949 28.3415H18.2323C17.959 28.3415 17.7374 28.1198 17.7374 27.8463V25.5829ZM18.7273 26.078V27.3512H20V26.078H18.7273Z" fill="black"/>
<path fill-rule="evenodd" clip-rule="evenodd" d="M17.7374 29.5439C17.7374 29.2705 17.959 29.0488 18.2323 29.0488H20.4949C20.7683 29.0488 20.9899 29.2705 20.9899 29.5439V31.8073C20.9899 32.0808 20.7683 32.3024 20.4949 32.3024H18.2323C17.959 32.3024 17.7374 32.0808 17.7374 31.8073V29.5439ZM18.7273 30.039V31.3122H20V30.039H18.7273Z" fill="black"/>
<path fill-rule="evenodd" clip-rule="evenodd" d="M21.5556 17.661C21.5556 17.3875 21.7772 17.1659 22.0505 17.1659H24.3131C24.5865 17.1659 24.8081 17.3875 24.8081 17.661V19.9244C24.8081 20.1978 24.5865 20.4195 24.3131 20.4195H22.0505C21.7772 20.4195 21.5556 20.1978 21.5556 19.9244V17.661ZM22.5455 18.1561V19.4293H23.8182V18.1561H22.5455Z" fill="black"/>
<path fill-rule="evenodd" clip-rule="evenodd" d="M8.12121 15.3976C8.12121 15.1241 8.34281 14.9024 8.61616 14.9024H11.4444C11.7178 14.9024 11.9394 15.1241 11.9394 15.3976V18.2268C11.9394 18.5003 11.7178 18.722 11.4444 18.722H8.61616C8.34281 18.722 8.12121 18.5003 8.12121 18.2268V15.3976ZM9.11111 15.8927V17.7317H10.9495V15.8927H9.11111Z" fill="black"/>
<path fill-rule="evenodd" clip-rule="evenodd" d="M8.12121 21.339C8.12121 21.0656 8.34281 20.8439 8.61616 20.8439H11.4444C11.7178 20.8439 11.9394 21.0656 11.9394 21.339V24.1683C11.9394 24.4417 11.7178 24.6634 11.4444 24.6634H8.61616C8.34281 24.6634 8.12121 24.4417 8.12121 24.1683V21.339ZM9.11111 21.8341V23.6732H10.9495V21.8341H9.11111Z" fill="black"/>
<path fill-rule="evenodd" clip-rule="evenodd" d="M11.4937 10.2914C11.6964 10.4748 11.712 10.7879 11.5286 10.9907L10.1852 12.4761C10.0968 12.5739 9.97297 12.6323 9.84129 12.6385C9.70961 12.6446 9.58091 12.598 9.48373 12.5089L8.63525 11.7308C8.43374 11.5461 8.42013 11.2329 8.60484 11.0313C8.78955 10.8297 9.10264 10.8161 9.30415 11.0009L9.7854 11.4422L10.7946 10.3264C10.978 10.1236 11.291 10.1079 11.4937 10.2914Z" fill="black"/>
<path fill-rule="evenodd" clip-rule="evenodd" d="M13.2121 11.861C13.2121 11.5875 13.4337 11.3659 13.7071 11.3659H16.6768C16.9501 11.3659 17.1717 11.5875 17.1717 11.861C17.1717 12.1344 16.9501 12.3561 16.6768 12.3561H13.7071C13.4337 12.3561 13.2121 12.1344 13.2121 11.861Z" fill="black"/>
<path fill-rule="evenodd" clip-rule="evenodd" d="M13.2121 16.8122C13.2121 16.5387 13.4337 16.3171 13.7071 16.3171H16.6768C16.9501 16.3171 17.1717 16.5387 17.1717 16.8122C17.1717 17.0856 16.9501 17.3073 16.6768 17.3073H13.7071C13.4337 17.3073 13.2121 17.0856 13.2121 16.8122Z" fill="black"/>
<path fill-rule="evenodd" clip-rule="evenodd" d="M13.2121 22.7537C13.2121 22.4802 13.4337 22.2585 13.7071 22.2585H16.6768C16.9501 22.2585 17.1717 22.4802 17.1717 22.7537C17.1717 23.0271 16.9501 23.2488 16.6768 23.2488H13.7071C13.4337 23.2488 13.2121 23.0271 13.2121 22.7537Z" fill="black"/>
<path fill-rule="evenodd" clip-rule="evenodd" d="M13.2121 28.6951C13.2121 28.4217 13.4337 28.2 13.7071 28.2H16.6768C16.9501 28.2 17.1717 28.4217 17.1717 28.6951C17.1717 28.9686 16.9501 29.1902 16.6768 29.1902H13.7071C13.4337 29.1902 13.2121 28.9686 13.2121 28.6951Z" fill="black"/>
<path fill-rule="evenodd" clip-rule="evenodd" d="M8.12121 27.2805C8.12121 27.007 8.34281 26.7854 8.61616 26.7854H11.4444C11.7178 26.7854 11.9394 27.007 11.9394 27.2805V30.1098C11.9394 30.3832 11.7178 30.6049 11.4444 30.6049H8.61616C8.34281 30.6049 8.12121 30.3832 8.12121 30.1098V27.2805ZM9.11111 27.7756V29.6146H10.9495V27.7756H9.11111Z" fill="black"/>
<path fill-rule="evenodd" clip-rule="evenodd" d="M21.5556 25.5829C21.5556 25.3095 21.7772 25.0878 22.0505 25.0878H24.3131C24.5865 25.0878 24.8081 25.3095 24.8081 25.5829V27.8463C24.8081 28.1198 24.5865 28.3415 24.3131 28.3415H22.0505C21.7772 28.3415 21.5556 28.1198 21.5556 27.8463V25.5829ZM22.5455 26.078V27.3512H23.8182V26.078H22.5455Z" fill="black"/>
<path fill-rule="evenodd" clip-rule="evenodd" d="M21.5556 29.5439C21.5556 29.2705 21.7772 29.0488 22.0505 29.0488H24.3131C24.5865 29.0488 24.8081 29.2705 24.8081 29.5439V31.8073C24.8081 32.0808 24.5865 32.3024 24.3131 32.3024H22.0505C21.7772 32.3024 21.5556 32.0808 21.5556 31.8073V29.5439ZM22.5455 30.039V31.3122H23.8182V30.039H22.5455Z" fill="black"/>
<path fill-rule="evenodd" clip-rule="evenodd" d="M21.5556 21.622C21.5556 21.3485 21.7772 21.1268 22.0505 21.1268H24.3131C24.5865 21.1268 24.8081 21.3485 24.8081 21.622V23.8854C24.8081 24.1588 24.5865 24.3805 24.3131 24.3805H22.0505C21.7772 24.3805 21.5556 24.1588 21.5556 23.8854V21.622ZM22.5455 22.1171V23.3902H23.8182V22.1171H22.5455Z" fill="black"/>
<path fill-rule="evenodd" clip-rule="evenodd" d="M25.3737 25.5829C25.3737 25.3095 25.5953 25.0878 25.8687 25.0878H28.1313C28.4047 25.0878 28.6263 25.3095 28.6263 25.5829V27.8463C28.6263 28.1198 28.4047 28.3415 28.1313 28.3415H25.8687C25.5953 28.3415 25.3737 28.1198 25.3737 27.8463V25.5829ZM26.3636 26.078V27.3512H27.6364V26.078H26.3636Z" fill="black"/>
<path fill-rule="evenodd" clip-rule="evenodd" d="M25.3737 29.5439C25.3737 29.2705 25.5953 29.0488 25.8687 29.0488H28.1313C28.4047 29.0488 28.6263 29.2705 28.6263 29.5439V31.8073C28.6263 32.0808 28.4047 32.3024 28.1313 32.3024H25.8687C25.5953 32.3024 25.3737 32.0808 25.3737 31.8073V29.5439ZM26.3636 30.039V31.3122H27.6364V30.039H26.3636Z" fill="black"/>
<path fill-rule="evenodd" clip-rule="evenodd" d="M25.3737 17.661C25.3737 17.3875 25.5953 17.1659 25.8687 17.1659H28.1313C28.4047 17.1659 28.6263 17.3875 28.6263 17.661V19.9244C28.6263 20.1978 28.4047 20.4195 28.1313 20.4195H25.8687C25.5953 20.4195 25.3737 20.1978 25.3737 19.9244V17.661ZM26.3636 18.1561V19.4293H27.6364V18.1561H26.3636Z" fill="black"/>
<path fill-rule="evenodd" clip-rule="evenodd" d="M25.3737 21.622C25.3737 21.3485 25.5953 21.1268 25.8687 21.1268H28.1313C28.4047 21.1268 28.6263 21.3485 28.6263 21.622V23.8854C28.6263 24.1588 28.4047 24.3805 28.1313 24.3805H25.8687C25.5953 24.3805 25.3737 24.1588 25.3737 23.8854V21.622ZM26.3636 22.1171V23.3902H27.6364V22.1171H26.3636Z" fill="black"/>
<path fill-rule="evenodd" clip-rule="evenodd" d="M29.1919 17.661C29.1919 17.3875 29.4135 17.1659 29.6869 17.1659H31.9495C32.2228 17.1659 32.4444 17.3875 32.4444 17.661V19.9244C32.4444 20.1978 32.2228 20.4195 31.9495 20.4195H29.6869C29.4135 20.4195 29.1919 20.1978 29.1919 19.9244V17.661ZM30.1818 18.1561V19.4293H31.4545V18.1561H30.1818Z" fill="black"/>
<path fill-rule="evenodd" clip-rule="evenodd" d="M29.1919 21.622C29.1919 21.3485 29.4135 21.1268 29.6869 21.1268H31.9495C32.2228 21.1268 32.4444 21.3485 32.4444 21.622V23.8854C32.4444 24.1588 32.2228 24.3805 31.9495 24.3805H29.6869C29.4135 24.3805 29.1919 24.1588 29.1919 23.8854V21.622ZM30.1818 22.1171V23.3902H31.4545V22.1171H30.1818Z" fill="black"/>
<path fill-rule="evenodd" clip-rule="evenodd" d="M29.1919 25.5829C29.1919 25.3095 29.4135 25.0878 29.6869 25.0878H31.9495C32.2228 25.0878 32.4444 25.3095 32.4444 25.5829V31.8073C32.4444 32.0808 32.2228 32.3024 31.9495 32.3024H29.6869C29.4135 32.3024 29.1919 32.0808 29.1919 31.8073V25.5829ZM30.1818 26.078V31.3122H31.4545V26.078H30.1818Z" fill="black"/>
<path fill-rule="evenodd" clip-rule="evenodd" d="M25.5152 7.33415C25.5152 6.04503 26.5598 5 27.8485 5V5.99024C27.1065 5.99024 26.505 6.59193 26.505 7.33415V10.3049H25.5152V7.33415Z" fill="black"/>
</svg>
