<svg width="40" height="40" viewBox="0 0 40 40" fill="none" xmlns="http://www.w3.org/2000/svg">
<path fill-rule="evenodd" clip-rule="evenodd" d="M3.95652 22.902C3.95652 22.5987 4.20633 22.3529 4.51449 22.3529H23.3261C23.6342 22.3529 23.8841 22.5987 23.8841 22.902V33.4118C23.8841 33.715 23.6342 33.9608 23.3261 33.9608H4.51449C4.20633 33.9608 3.95652 33.715 3.95652 33.4118V22.902ZM5.07246 23.451V32.8627H22.7681V23.451H5.07246Z" fill="black"/>
<path fill-rule="evenodd" clip-rule="evenodd" d="M20.2214 6.04316C20.326 5.9402 20.468 5.88235 20.6159 5.88235H34.3261C34.6342 5.88235 34.8841 6.12816 34.8841 6.43137V33.4118H33.7681V6.98039H21.1739V10.0392H20.058V6.43137C20.058 6.28576 20.1168 6.14612 20.2214 6.04316Z" fill="black"/>
<path fill-rule="evenodd" clip-rule="evenodd" d="M7.46377 20.8627C7.46377 21.166 7.71358 21.4118 8.02174 21.4118H20.6159C20.9241 21.4118 21.1739 21.166 21.1739 20.8627V12.2353C21.1739 11.9321 20.9241 11.6863 20.6159 11.6863H8.02174C7.71358 11.6863 7.46377 11.9321 7.46377 12.2353V20.8627ZM8.57971 20.3137V12.7843H20.058V20.3137H8.57971Z" fill="black"/>
<path fill-rule="evenodd" clip-rule="evenodd" d="M6.50725 10.3529C6.50725 10.0497 6.75706 9.80392 7.06522 9.80392H21.5725C21.8806 9.80392 22.1304 10.0497 22.1304 10.3529V12.2353C22.1304 12.5385 21.8806 12.7843 21.5725 12.7843H7.06522C6.75706 12.7843 6.50725 12.5385 6.50725 12.2353V10.3529ZM7.62319 10.902V11.6863H21.0145V10.902H7.62319Z" fill="black"/>
<path fill-rule="evenodd" clip-rule="evenodd" d="M18.6232 4.54902C18.6232 4.2458 18.873 4 19.1812 4H35.442C35.7502 4 36 4.2458 36 4.54902V6.43137C36 6.73459 35.7502 6.98039 35.442 6.98039H19.1812C18.873 6.98039 18.6232 6.73459 18.6232 6.43137V4.54902ZM19.7391 5.09804V5.88235H34.8841V5.09804H19.7391Z" fill="black"/>
<path fill-rule="evenodd" clip-rule="evenodd" d="M23.7246 33.4118C23.7246 33.1086 23.9745 32.8627 24.2826 32.8627H35.442C35.7502 32.8627 36 33.1086 36 33.4118V35.451C36 35.7542 35.7502 36 35.442 36H24.2826C23.9745 36 23.7246 35.7542 23.7246 35.451V33.4118ZM24.8406 33.9608V34.902H34.8841V33.9608H24.8406Z" fill="black"/>
<path fill-rule="evenodd" clip-rule="evenodd" d="M3 22.902C3 23.2052 3.24981 23.451 3.55797 23.451H24.2826C24.5908 23.451 24.8406 23.2052 24.8406 22.902V20.8627C24.8406 20.5595 24.5908 20.3137 24.2826 20.3137H3.55797C3.24981 20.3137 3 20.5595 3 20.8627V22.902ZM4.11594 22.3529V21.4118H23.7246V22.3529H4.11594Z" fill="black"/>
<path fill-rule="evenodd" clip-rule="evenodd" d="M3 35.451C3 35.7542 3.24981 36 3.55797 36H24.2826C24.5908 36 24.8406 35.7542 24.8406 35.451V33.4118C24.8406 33.1086 24.5908 32.8627 24.2826 32.8627H3.55797C3.24981 32.8627 3 33.1086 3 33.4118V35.451ZM4.11594 34.902V33.9608H23.7246V34.902H4.11594Z" fill="black"/>
<path fill-rule="evenodd" clip-rule="evenodd" d="M9.58316 26.1233C8.45658 26.7109 7.94203 27.4287 7.94203 28.0784C7.94203 28.7282 8.45658 29.4459 9.58316 30.0336C10.685 30.6083 12.2456 30.9804 14 30.9804C15.7544 30.9804 17.315 30.6083 18.4168 30.0336C19.5434 29.4459 20.058 28.7282 20.058 28.0784C20.058 27.4287 19.5434 26.7109 18.4168 26.1233C17.315 25.5486 15.7544 25.1765 14 25.1765C12.2456 25.1765 10.685 25.5486 9.58316 26.1233ZM9.06048 25.1531C10.3532 24.4789 12.1005 24.0784 14 24.0784C15.8995 24.0784 17.6468 24.4789 18.9395 25.1531C20.2074 25.8145 21.1739 26.8223 21.1739 28.0784C21.1739 29.3346 20.2074 30.3424 18.9395 31.0037C17.6468 31.678 15.8995 32.0784 14 32.0784C12.1005 32.0784 10.3532 31.678 9.06048 31.0037C7.79256 30.3424 6.82609 29.3346 6.82609 28.0784C6.82609 26.8223 7.79256 25.8145 9.06048 25.1531Z" fill="black"/>
<path fill-rule="evenodd" clip-rule="evenodd" d="M24.4015 15.0245C23.6006 16.2723 23.087 18.03 23.087 20C23.087 20.2017 23.0923 20.4013 23.1029 20.5986C23.1191 20.9014 22.8828 21.1598 22.575 21.1757C22.2673 21.1917 22.0047 20.9591 21.9885 20.6563C21.9769 20.4398 21.971 20.2209 21.971 20C21.971 17.855 22.528 15.8871 23.458 14.4382C24.3835 12.9963 25.7319 12 27.3116 12C28.8912 12 30.2396 12.9963 31.1652 14.4382C32.0952 15.8871 32.6522 17.855 32.6522 20C32.6522 22.145 32.0952 24.1129 31.1652 25.5618C30.2396 27.0037 28.8912 28 27.3116 28C25.4118 28 23.8544 26.5687 22.9413 24.6223C22.8121 24.347 22.9342 24.0208 23.214 23.8937C23.4938 23.7666 23.8253 23.8868 23.9545 24.1621C24.7812 25.9243 26.0371 26.902 27.3116 26.902C28.3733 26.902 29.4162 26.2303 30.2217 24.9755C31.0226 23.7277 31.5362 21.97 31.5362 20C31.5362 18.03 31.0226 16.2723 30.2217 15.0245C29.4162 13.7697 28.3733 13.098 27.3116 13.098C26.2499 13.098 25.207 13.7697 24.4015 15.0245Z" fill="black"/>
<path fill-rule="evenodd" clip-rule="evenodd" d="M14.2391 17.0196C12.9484 17.0196 11.7681 18.2406 11.7681 19.9216C11.7681 20.1551 11.7916 20.3814 11.8358 20.5978L10.7417 20.8139C10.683 20.5264 10.6522 20.2277 10.6522 19.9216C10.6522 17.7907 12.1841 15.9216 14.2391 15.9216C16.2941 15.9216 17.8261 17.7907 17.8261 19.9216C17.8261 20.2277 17.7953 20.5264 17.7366 20.8139L16.6425 20.5978C16.6866 20.3814 16.7101 20.1551 16.7101 19.9216C16.7101 18.2406 15.5299 17.0196 14.2391 17.0196Z" fill="black"/>
</svg>
