<svg width="40" height="40" viewBox="0 0 40 40" fill="none" xmlns="http://www.w3.org/2000/svg">
<path fill-rule="evenodd" clip-rule="evenodd" d="M14.7126 26.4001L14.738 23.5249L13.7508 23.5161L13.7178 27.2515C13.7162 27.4283 13.8094 27.5924 13.9619 27.6818C14.1145 27.7712 14.3032 27.7721 14.4567 27.6842L15.7543 26.9413L17.0519 27.6842C17.2046 27.7717 17.3924 27.7712 17.5447 27.6829C17.697 27.5946 17.7908 27.4319 17.7908 27.2559V23.5205H16.8035V26.4044L15.9995 25.9441C15.8476 25.8571 15.6609 25.8571 15.509 25.9441L14.7126 26.4001Z" fill="#116565"/>
<path fill-rule="evenodd" clip-rule="evenodd" d="M33.5389 17.5179C32.8249 17.5179 32.246 18.0967 32.246 18.8107C32.246 19.5247 32.8249 20.1036 33.5389 20.1036C34.2529 20.1036 34.8317 19.5247 34.8317 18.8107C34.8317 18.0967 34.2529 17.5179 33.5389 17.5179ZM31.2588 18.8107C31.2588 17.5514 32.2796 16.5306 33.5389 16.5306C34.7982 16.5306 35.819 17.5514 35.819 18.8107C35.819 20.07 34.7982 21.0908 33.5389 21.0908C32.2796 21.0908 31.2588 20.07 31.2588 18.8107Z" fill="#116565"/>
<path fill-rule="evenodd" clip-rule="evenodd" d="M9.65918 14.5027C9.65918 14.23 9.88019 14.009 10.1528 14.009H27.8551C28.1277 14.009 28.3488 14.23 28.3488 14.5027V21.4861C28.3488 21.7588 28.1277 21.9798 27.8551 21.9798H10.1528C9.88019 21.9798 9.65918 21.7588 9.65918 21.4861V14.5027ZM10.6464 14.9963V20.9925H27.3615V14.9963H10.6464Z" fill="#116565"/>
<path fill-rule="evenodd" clip-rule="evenodd" d="M8.20342 22.0652C5.8749 22.0652 3.98726 23.9529 3.98726 26.2814C3.98726 28.6099 5.8749 30.4976 8.20341 30.4976H33.1328C33.5329 30.4976 33.8572 30.1732 33.8572 29.7731C33.8572 29.373 33.5329 29.0487 33.1328 29.0487H8.79625C7.2679 29.0487 6.02893 27.8097 6.02893 26.2814C6.02893 24.753 7.26791 23.5141 8.79626 23.5141H31.59V24.5013H8.79626C7.81316 24.5013 7.01619 25.2983 7.01619 26.2814C7.01619 27.2645 7.81315 28.0615 8.79625 28.0615H33.1328C34.0782 28.0615 34.8445 28.8278 34.8445 29.7731C34.8445 30.7185 34.0782 31.4848 33.1328 31.4848H8.20341C5.32964 31.4848 3 29.1552 3 26.2814C3 23.4076 5.32965 21.078 8.20342 21.078H32.0772V22.0652H8.20342Z" fill="#116565"/>
<path fill-rule="evenodd" clip-rule="evenodd" d="M33.081 23.8778C33.3321 23.9838 33.4498 24.2734 33.3438 24.5245C32.6888 26.0762 32.8215 27.4405 33.2924 28.1083C33.4495 28.3311 33.3963 28.639 33.1735 28.7961C32.9507 28.9533 32.6427 28.9 32.4856 28.6772C31.7452 27.6272 31.7049 25.8683 32.4342 24.1406C32.5402 23.8894 32.8298 23.7718 33.081 23.8778Z" fill="#116565"/>
<path fill-rule="evenodd" clip-rule="evenodd" d="M31.927 20.4616C31.9876 20.2496 32.1813 20.1035 32.4017 20.1035H34.6754C34.8958 20.1035 35.0894 20.2496 35.15 20.4616L36.1244 23.8721C36.167 24.021 36.1372 24.1813 36.0439 24.305C35.9506 24.4286 35.8047 24.5013 35.6498 24.5013H31.4272C31.2723 24.5013 31.1264 24.4286 31.0331 24.305C30.9399 24.1813 30.91 24.021 30.9526 23.8721L31.927 20.4616ZM32.774 21.0908L32.0816 23.5141H34.9954L34.303 21.0908H32.774Z" fill="#116565"/>
<path fill-rule="evenodd" clip-rule="evenodd" d="M18.9106 8.03164C19.0227 7.98945 19.1463 7.98945 19.2584 8.03164L33.7126 13.4723C33.905 13.5447 34.0323 13.7287 34.0323 13.9342C34.0323 14.1398 33.905 14.3238 33.7126 14.3962L28.1908 16.4747L27.843 15.5507L32.1374 13.9342L19.0845 9.02107L6.03161 13.9342L10.3261 15.5507L9.97828 16.4747L4.45646 14.3962C4.26409 14.3238 4.13672 14.1398 4.13672 13.9342C4.13672 13.7287 4.26409 13.5447 4.45646 13.4723L18.9106 8.03164Z" fill="#116565"/>
<path fill-rule="evenodd" clip-rule="evenodd" d="M9.73926 19.2125C9.73926 18.9398 9.96026 18.7188 10.2329 18.7188H27.7728C28.0454 18.7188 28.2664 18.9398 28.2664 19.2125C28.2664 19.4851 28.0454 19.7061 27.7728 19.7061H10.2329C9.96026 19.7061 9.73926 19.4851 9.73926 19.2125Z" fill="#116565"/>
<path fill-rule="evenodd" clip-rule="evenodd" d="M33.5396 13.5218C33.8122 13.5218 34.0332 13.7428 34.0332 14.0155L34.0332 16.8405C34.0332 17.1131 33.8122 17.3341 33.5396 17.3341C33.2669 17.3341 33.0459 17.1131 33.0459 16.8405L33.0459 14.0155C33.0459 13.7428 33.2669 13.5218 33.5396 13.5218Z" fill="#116565"/>
</svg>
