<svg width="40" height="40" viewBox="0 0 40 40" fill="none" xmlns="http://www.w3.org/2000/svg">
<path fill-rule="evenodd" clip-rule="evenodd" d="M23.9502 19.386C23.3393 19.386 22.844 19.8771 22.844 20.483V32.8632C22.844 33.0363 22.7025 33.1766 22.528 33.1766C22.3534 33.1766 22.2119 33.0363 22.2119 32.8632V20.483C22.2119 19.5309 22.9902 18.7592 23.9502 18.7592C24.9102 18.7592 25.6885 19.5309 25.6885 20.483V26.5622C25.6885 26.7353 25.547 26.8756 25.3724 26.8756C25.1979 26.8756 25.0564 26.7353 25.0564 26.5622V20.483C25.0564 19.8771 24.5611 19.386 23.9502 19.386Z" fill="#116565"/>
<path fill-rule="evenodd" clip-rule="evenodd" d="M26.7946 25.0276C26.1837 25.0276 25.6885 25.5188 25.6885 26.1246V28.8335C25.6885 29.0066 25.547 29.1469 25.3724 29.1469C25.1979 29.1469 25.0564 29.0066 25.0564 28.8335V26.1246C25.0564 25.1726 25.8346 24.4008 26.7946 24.4008C27.7547 24.4008 28.5329 25.1726 28.5329 26.1246V28.8335C28.5329 29.0066 28.3914 29.1469 28.2169 29.1469C28.0423 29.1469 27.9008 29.0066 27.9008 28.8335V26.1246C27.9008 25.5188 27.4056 25.0276 26.7946 25.0276Z" fill="#116565"/>
<path fill-rule="evenodd" clip-rule="evenodd" d="M29.6391 26.2813C29.0282 26.2813 28.5329 26.7725 28.5329 27.3783V28.7887C28.5329 28.9618 28.3914 29.1021 28.2169 29.1021C28.0423 29.1021 27.9008 28.9618 27.9008 28.7887V27.3783C27.9008 26.4263 28.6791 25.6545 29.6391 25.6545C30.5991 25.6545 31.3773 26.4263 31.3773 27.3783V28.7887C31.3773 28.9618 31.2358 29.1021 31.0613 29.1021C30.8867 29.1021 30.7452 28.9618 30.7452 28.7887V27.3783C30.7452 26.7725 30.25 26.2813 29.6391 26.2813Z" fill="#116565"/>
<path fill-rule="evenodd" clip-rule="evenodd" d="M32.4835 27.535C31.8726 27.535 31.3773 28.0261 31.3773 28.632V28.8467C31.3773 29.0198 31.2358 29.1602 31.0613 29.1602C30.8867 29.1602 30.7452 29.0198 30.7452 28.8467V28.632C30.7452 27.6799 31.5235 26.9082 32.4835 26.9082C33.4435 26.9082 34.2218 27.6799 34.2218 28.632V32.8632C34.2218 33.0363 34.0803 33.1766 33.9057 33.1766C33.7312 33.1766 33.5897 33.0363 33.5897 32.8632V28.632C33.5897 28.0261 33.0944 27.535 32.4835 27.535Z" fill="#116565"/>
<path fill-rule="evenodd" clip-rule="evenodd" d="M11.6243 8.10277C11.6243 7.06417 12.4733 6.22223 13.5206 6.22223H23.002C24.0493 6.22223 24.8983 7.06418 24.8983 8.10277V19.0726H24.2662V8.10277C24.2662 7.41037 23.7002 6.84908 23.002 6.84908H13.5206C12.8224 6.84908 12.2564 7.41037 12.2564 8.10277V22.0501H11.6243V8.10277ZM13.8366 27.2216H22.3699V27.8484H13.8366V27.2216Z" fill="#116565"/>
<path fill-rule="evenodd" clip-rule="evenodd" d="M15.1418 6.38123C15.1979 6.28297 15.303 6.22223 15.4169 6.22223H21.1057C21.2196 6.22223 21.3247 6.28297 21.3808 6.38123C21.4369 6.47949 21.4353 6.60008 21.3767 6.69691L20.4286 8.26402C20.3715 8.35843 20.2686 8.41619 20.1576 8.41619H16.365C16.254 8.41619 16.1511 8.35843 16.094 8.26402L15.1458 6.69691C15.0873 6.60008 15.0857 6.47949 15.1418 6.38123ZM15.9751 6.84908L16.5439 7.78935H19.9786L20.5475 6.84908H15.9751Z" fill="#116565"/>
<path fill-rule="evenodd" clip-rule="evenodd" d="M12.1908 16.2174C12.2972 16.3546 12.2714 16.5514 12.133 16.6569L10.1267 18.1874L6.72549 23.8601V33.0199C6.72549 33.193 6.58399 33.3333 6.40944 33.3333C6.23489 33.3333 6.09339 33.193 6.09339 33.0199V23.6878L9.64528 17.7638L11.7476 16.1601C11.886 16.0545 12.0844 16.0802 12.1908 16.2174Z" fill="#116565"/>
<path fill-rule="evenodd" clip-rule="evenodd" d="M16.9971 27.2216C17.1716 27.2216 17.3131 27.3619 17.3131 27.535V30.0424C17.3131 31.7734 15.8981 33.1766 14.1527 33.1766C13.9781 33.1766 13.8366 33.0363 13.8366 32.8632C13.8366 32.6901 13.9781 32.5498 14.1527 32.5498C15.549 32.5498 16.681 31.4272 16.681 30.0424V27.535C16.681 27.3619 16.8225 27.2216 16.9971 27.2216Z" fill="#116565"/>
<path fill-rule="evenodd" clip-rule="evenodd" d="M15.5314 18.2559C15.3413 18.2582 15.1069 18.3522 14.8735 18.6415C14.2462 19.4192 12.986 21.0983 11.8787 22.5887C11.3259 23.3326 10.8126 24.0277 10.4375 24.5367C10.2499 24.7913 10.0969 24.9993 9.99078 25.1437L9.8257 25.3685C9.8257 25.3685 9.82554 25.3687 9.56994 25.1843C9.31434 25 9.31438 24.9999 9.31438 24.9999L9.47996 24.7745C9.5862 24.6299 9.73936 24.4217 9.92711 24.1669C10.3026 23.6574 10.8164 22.9616 11.3698 22.2168C12.4748 20.7296 13.7431 19.0394 14.3799 18.2499C14.7049 17.8471 15.1053 17.6341 15.5237 17.6291C15.9372 17.6241 16.3111 17.8231 16.5856 18.1299C17.1347 18.7433 17.3281 19.8145 16.81 20.9278C16.3895 21.8312 15.937 22.5265 15.5314 23.1497C15.4688 23.2458 15.4074 23.3402 15.3474 23.4334C14.8964 24.1334 14.5234 24.7663 14.2995 25.5802C14.1898 25.9794 14.1517 26.3834 14.1171 26.8248C14.1144 26.8596 14.1117 26.8946 14.109 26.9299C14.0777 27.3351 14.0439 27.7715 13.9485 28.2258C13.7362 29.2365 13.2245 30.3139 11.8334 31.5311C11.7025 31.6457 11.5028 31.6333 11.3873 31.5035C11.2718 31.3737 11.2843 31.1756 11.4152 31.0611C12.7104 29.9277 13.1469 28.9679 13.3297 28.098C13.4164 27.685 13.4473 27.2875 13.4791 26.8763C13.4817 26.843 13.4843 26.8096 13.4869 26.7761C13.5215 26.336 13.5625 25.8781 13.6897 25.4153C13.94 24.5054 14.3571 23.8062 14.8147 23.0959C14.8766 22.9998 14.9392 22.9036 15.0023 22.8065C15.4079 22.1831 15.8355 21.5257 16.2361 20.6651C16.6661 19.7411 16.4697 18.9447 16.1129 18.546C15.9344 18.3466 15.7262 18.2535 15.5314 18.2559ZM9.38404 25.4378C9.24288 25.336 9.21172 25.1399 9.31438 24.9999L9.56994 25.1843L9.8257 25.3685C9.72304 25.5085 9.52521 25.5396 9.38404 25.4378Z" fill="#116565"/>
<path fill-rule="evenodd" clip-rule="evenodd" d="M18.4193 13.431C16.1502 13.431 14.3107 15.2552 14.3107 17.5055C14.3107 17.9402 14.3792 18.3585 14.506 18.7506L13.904 18.9419C13.7575 18.4887 13.6786 18.0059 13.6786 17.5055C13.6786 14.909 15.8011 12.8041 18.4193 12.8041C21.0376 12.8041 23.1601 14.909 23.1601 17.5055C23.1601 20.1019 21.0376 22.2068 18.4193 22.2068C17.5933 22.2068 16.8158 21.9971 16.1389 21.6281L16.4434 21.0788C17.0294 21.3982 17.7025 21.58 18.4193 21.58C20.6885 21.58 22.528 19.7558 22.528 17.5055C22.528 15.2552 20.6885 13.431 18.4193 13.431Z" fill="#116565"/>
<path d="M16.523 18.2229V17.4219H18.6957C18.7279 17.4219 18.7686 17.4207 18.8179 17.4184C18.8693 17.4138 18.9271 17.401 18.9914 17.3801C19.1521 17.3267 19.2657 17.2385 19.3321 17.1154C19.4007 16.9924 19.435 16.8461 19.435 16.6766C19.435 16.5791 19.4221 16.4781 19.3964 16.3737C19.3728 16.2692 19.3289 16.1763 19.2646 16.0951C19.2003 16.0115 19.1093 15.9523 18.9914 15.9175C18.9336 15.8989 18.8757 15.8884 18.8179 15.8861C18.76 15.8838 18.7193 15.8826 18.6957 15.8826H17.5258V14.9981H18.7343C18.7514 14.9981 18.7975 14.9992 18.8725 15.0016C18.9475 15.0039 19.03 15.012 19.12 15.0259C19.3964 15.0701 19.6224 15.1687 19.7982 15.3219C19.976 15.4729 20.1067 15.6632 20.1903 15.8931C20.2738 16.1229 20.3156 16.3748 20.3156 16.6488C20.3156 17.0736 20.2171 17.4219 20.0199 17.6935C19.8249 17.9652 19.525 18.1323 19.12 18.195C19.03 18.2089 18.9475 18.2171 18.8725 18.2194C18.7975 18.2217 18.7514 18.2229 18.7343 18.2229H16.523ZM16.523 19.386V18.6547H19.3514V19.386H16.523ZM16.973 20.0129V14.9981H17.8472V20.0129H16.973Z" fill="#116565"/>
<path fill-rule="evenodd" clip-rule="evenodd" d="M28.9415 9.29155C29.0649 9.16915 29.2651 9.16915 29.3885 9.29155L30.6527 10.5452C30.7761 10.6676 30.7761 10.8661 30.6527 10.9885C30.5293 11.1109 30.3291 11.1109 30.2057 10.9885L29.481 10.2698V20.1696C29.481 20.3427 29.3395 20.483 29.165 20.483C28.9904 20.483 28.8489 20.3427 28.8489 20.1696V10.2698L28.1243 10.9885C28.0009 11.1109 27.8007 11.1109 27.6773 10.9885C27.5539 10.8661 27.5539 10.6676 27.6773 10.5452L28.9415 9.29155Z" fill="#116565"/>
<path fill-rule="evenodd" clip-rule="evenodd" d="M7.13411 9.29155C7.25754 9.16915 7.45765 9.16915 7.58107 9.29155L8.84527 10.5452C8.96869 10.6676 8.96869 10.8661 8.84527 10.9885C8.72184 11.1109 8.52173 11.1109 8.39831 10.9885L7.67364 10.2698V20.1696C7.67364 20.3427 7.53214 20.483 7.35759 20.483C7.18304 20.483 7.04154 20.3427 7.04154 20.1696V10.2698L6.31687 10.9885C6.19345 11.1109 5.99334 11.1109 5.86991 10.9885C5.74649 10.8661 5.74649 10.6676 5.86991 10.5452L7.13411 9.29155Z" fill="#116565"/>
<path d="M24.8983 19.0726V19.2226C24.9812 19.2226 25.0483 19.1554 25.0483 19.0726H24.8983ZM24.2662 19.0726H24.1162C24.1162 19.1554 24.1834 19.2226 24.2662 19.2226V19.0726ZM12.2564 22.0501V22.2001C12.3392 22.2001 12.4064 22.1329 12.4064 22.0501H12.2564ZM11.6243 22.0501H11.4743C11.4743 22.1329 11.5414 22.2001 11.6243 22.2001V22.0501ZM22.3699 27.2216H22.5199C22.5199 27.1387 22.4528 27.0716 22.3699 27.0716V27.2216ZM13.8366 27.2216V27.0716C13.7538 27.0716 13.6866 27.1387 13.6866 27.2216H13.8366ZM22.3699 27.8484V27.9984C22.4528 27.9984 22.5199 27.9313 22.5199 27.8484H22.3699ZM13.8366 27.8484H13.6866C13.6866 27.9313 13.7538 27.9984 13.8366 27.9984V27.8484ZM15.1418 6.38123L15.0116 6.30686V6.30686L15.1418 6.38123ZM21.3808 6.38123L21.511 6.30686V6.30686L21.3808 6.38123ZM21.3767 6.69691L21.5051 6.77456V6.77456L21.3767 6.69691ZM20.4286 8.26402L20.5569 8.34167V8.34167L20.4286 8.26402ZM16.094 8.26402L15.9656 8.34167L16.094 8.26402ZM15.1458 6.69691L15.2742 6.61926V6.61926L15.1458 6.69691ZM16.5439 7.78935L16.4156 7.86699C16.4428 7.91191 16.4915 7.93935 16.5439 7.93935V7.78935ZM15.9751 6.84908V6.69908C15.9209 6.69908 15.871 6.72825 15.8444 6.77541C15.8178 6.82257 15.8187 6.8804 15.8467 6.92672L15.9751 6.84908ZM19.9786 7.78935V7.93935C20.0311 7.93935 20.0798 7.91191 20.107 7.86699L19.9786 7.78935ZM20.5475 6.84908L20.6759 6.92672C20.7039 6.8804 20.7048 6.82257 20.6782 6.77541C20.6516 6.72825 20.6017 6.69908 20.5475 6.69908V6.84908ZM12.133 16.6569L12.224 16.7762L12.133 16.6569ZM12.1908 16.2174L12.0723 16.3093L12.0723 16.3093L12.1908 16.2174ZM10.1267 18.1874L10.0357 18.0681L10.0128 18.0856L9.99804 18.1103L10.1267 18.1874ZM6.72549 23.8601L6.59684 23.7829L6.57549 23.8186V23.8601H6.72549ZM6.09339 23.6878L5.96475 23.6107L5.94339 23.6463V23.6878H6.09339ZM9.64528 17.7638L9.55431 17.6445L9.53143 17.662L9.51663 17.6867L9.64528 17.7638ZM11.7476 16.1601L11.8386 16.2793L11.7476 16.1601ZM14.8735 18.6415L14.9903 18.7357L14.8735 18.6415ZM15.5314 18.2559L15.5332 18.4058L15.5314 18.2559ZM11.8787 22.5887L11.7583 22.4992L11.8787 22.5887ZM10.4375 24.5367L10.3167 24.4478L10.4375 24.5367ZM9.99078 25.1437L9.86991 25.0548L9.86988 25.0549L9.99078 25.1437ZM9.31438 24.9999L9.19348 24.9112L9.19342 24.9112L9.31438 24.9999ZM9.47996 24.7745L9.35909 24.6856L9.35906 24.6857L9.47996 24.7745ZM9.92711 24.1669L10.0479 24.2559L9.92711 24.1669ZM11.3698 22.2168L11.2494 22.1273L11.3698 22.2168ZM14.3799 18.2499L14.4967 18.3441L14.3799 18.2499ZM15.5237 17.6291L15.5218 17.4791L15.5237 17.6291ZM16.5856 18.1299L16.4738 18.2299L16.5856 18.1299ZM15.5314 23.1497L15.4057 23.0679V23.0679L15.5314 23.1497ZM15.3474 23.4334L15.2213 23.3521L15.3474 23.4334ZM14.2995 25.5802L14.1549 25.5405L14.2995 25.5802ZM14.1171 26.8248L14.2667 26.8365L14.1171 26.8248ZM14.109 26.9299L13.9594 26.9183L14.109 26.9299ZM13.9485 28.2258L13.8017 28.195L13.9485 28.2258ZM11.8334 31.5311L11.7346 31.4182H11.7346L11.8334 31.5311ZM11.4152 31.0611L11.5139 31.174H11.5139L11.4152 31.0611ZM13.3297 28.098L13.4765 28.1288L13.3297 28.098ZM13.4791 26.8763L13.3296 26.8647V26.8647L13.4791 26.8763ZM13.4869 26.7761L13.6365 26.7879L13.4869 26.7761ZM13.6897 25.4153L13.5451 25.3755L13.6897 25.4153ZM14.8147 23.0959L14.6886 23.0146L14.8147 23.0959ZM15.0023 22.8065L15.1281 22.8883L15.0023 22.8065ZM16.2361 20.6651L16.3721 20.7284L16.2361 20.6651ZM16.1129 18.546L16.2246 18.446V18.446L16.1129 18.546ZM9.38404 25.4378L9.47179 25.3162H9.47179L9.38404 25.4378ZM14.506 18.7506L14.5514 18.8935L14.695 18.8478L14.6487 18.7044L14.506 18.7506ZM13.904 18.9419L13.7613 18.988L13.8072 19.1301L13.9495 19.0849L13.904 18.9419ZM16.1389 21.6281L16.0077 21.5554L15.9345 21.6875L16.0671 21.7598L16.1389 21.6281ZM16.4434 21.0788L16.5152 20.9471L16.3844 20.8758L16.3122 21.0061L16.4434 21.0788ZM16.523 18.2229H16.373V18.3729H16.523V18.2229ZM16.523 17.4219V17.2719H16.373V17.4219H16.523ZM18.8179 17.4184L18.8249 17.5684L18.8314 17.5678L18.8179 17.4184ZM18.9914 17.3801L19.0378 17.5228L19.0387 17.5224L18.9914 17.3801ZM19.3321 17.1154L19.2011 17.0424L19.2001 17.0442L19.3321 17.1154ZM19.3964 16.3737L19.25 16.4067L19.2507 16.4095L19.3964 16.3737ZM19.2646 16.0951L19.1457 16.1865L19.147 16.1881L19.2646 16.0951ZM18.9914 15.9175L18.9456 16.0603L18.9489 16.0613L18.9914 15.9175ZM17.5258 15.8826H17.3758V16.0326H17.5258V15.8826ZM17.5258 14.9981V14.8481H17.3758V14.9981H17.5258ZM18.8725 15.0016L18.8679 15.1515H18.8679L18.8725 15.0016ZM19.12 15.0259L19.1436 14.8778L19.1429 14.8777L19.12 15.0259ZM19.7982 15.3219L19.6996 15.435L19.7011 15.4363L19.7982 15.3219ZM20.1903 15.8931L20.0493 15.9443L20.1903 15.8931ZM20.0199 17.6935L19.8985 17.6054L19.8981 17.606L20.0199 17.6935ZM19.12 18.195L19.1429 18.3432L19.12 18.195ZM18.8725 18.2194L18.8679 18.0694L18.8725 18.2194ZM16.523 19.386H16.373V19.536H16.523V19.386ZM16.523 18.6547V18.5047H16.373V18.6547H16.523ZM19.3514 18.6547H19.5014V18.5047H19.3514V18.6547ZM19.3514 19.386V19.536H19.5014V19.386H19.3514ZM16.973 20.0129H16.823V20.1629H16.973V20.0129ZM16.973 14.9981V14.8481H16.823V14.9981H16.973ZM17.8472 14.9981H17.9972V14.8481H17.8472V14.9981ZM17.8472 20.0129V20.1629H17.9972V20.0129H17.8472ZM29.3885 9.29155L29.2829 9.39806L29.3885 9.29155ZM28.9415 9.29155L28.8359 9.18504L28.9415 9.29155ZM30.6527 10.5452L30.5471 10.6518L30.6527 10.5452ZM30.6527 10.9885L30.5471 10.882V10.882L30.6527 10.9885ZM30.2057 10.9885L30.3113 10.882L30.2057 10.9885ZM29.481 10.2698L29.5867 10.1633C29.5437 10.1207 29.4793 10.1081 29.4234 10.1314C29.3675 10.1547 29.331 10.2093 29.331 10.2698H29.481ZM28.8489 10.2698H28.9989C28.9989 10.2093 28.9625 10.1547 28.9066 10.1314C28.8507 10.1081 28.7863 10.1207 28.7433 10.1633L28.8489 10.2698ZM28.1243 10.9885L28.2299 11.095L28.1243 10.9885ZM27.6773 10.9885L27.7829 10.882V10.882L27.6773 10.9885ZM27.6773 10.5452L27.5717 10.4387L27.6773 10.5452ZM7.58107 9.29155L7.47545 9.39806L7.58107 9.29155ZM7.13411 9.29155L7.02849 9.18504L7.13411 9.29155ZM8.84527 10.5452L8.73965 10.6518L8.84527 10.5452ZM8.84527 10.9885L8.73965 10.882L8.73965 10.882L8.84527 10.9885ZM8.39831 10.9885L8.50393 10.882L8.39831 10.9885ZM7.67364 10.2698L7.77926 10.1633C7.73627 10.1207 7.67185 10.1081 7.61595 10.1314C7.56005 10.1547 7.52364 10.2093 7.52364 10.2698H7.67364ZM7.04154 10.2698H7.19154C7.19154 10.2093 7.15513 10.1547 7.09923 10.1314C7.04334 10.1081 6.97892 10.1207 6.93592 10.1633L7.04154 10.2698ZM6.31687 10.9885L6.21125 10.882L6.31687 10.9885ZM5.86991 10.9885L5.97554 10.882L5.97554 10.882L5.86991 10.9885ZM5.86991 10.5452L5.76429 10.4387H5.76429L5.86991 10.5452ZM22.994 20.483C22.994 19.9612 23.4209 19.536 23.9502 19.536V19.236C23.2576 19.236 22.694 19.7931 22.694 20.483H22.994ZM22.994 32.8632V20.483H22.694V32.8632H22.994ZM22.528 33.3266C22.7842 33.3266 22.994 33.1203 22.994 32.8632H22.694C22.694 32.9523 22.6209 33.0266 22.528 33.0266V33.3266ZM22.0619 32.8632C22.0619 33.1203 22.2718 33.3266 22.528 33.3266V33.0266C22.4351 33.0266 22.3619 32.9523 22.3619 32.8632H22.0619ZM22.0619 20.483V32.8632H22.3619V20.483H22.0619ZM23.9502 18.6092C22.9085 18.6092 22.0619 19.4469 22.0619 20.483H22.3619C22.3619 19.615 23.0718 18.9092 23.9502 18.9092V18.6092ZM25.8385 20.483C25.8385 19.4469 24.9919 18.6092 23.9502 18.6092V18.9092C24.8285 18.9092 25.5385 19.615 25.5385 20.483H25.8385ZM25.8385 26.5622V20.483H25.5385V26.5622H25.8385ZM25.3724 27.0256C25.6286 27.0256 25.8385 26.8193 25.8385 26.5622H25.5385C25.5385 26.6513 25.4653 26.7256 25.3724 26.7256V27.0256ZM24.9064 26.5622C24.9064 26.8193 25.1162 27.0256 25.3724 27.0256V26.7256C25.2795 26.7256 25.2064 26.6513 25.2064 26.5622H24.9064ZM24.9064 20.483V26.5622H25.2064V20.483H24.9064ZM23.9502 19.536C24.4794 19.536 24.9064 19.9612 24.9064 20.483H25.2064C25.2064 19.7931 24.6428 19.236 23.9502 19.236V19.536ZM25.8385 26.1246C25.8385 25.6028 26.2654 25.1776 26.7946 25.1776V24.8776C26.102 24.8776 25.5385 25.4347 25.5385 26.1246H25.8385ZM25.8385 28.8335V26.1246H25.5385V28.8335H25.8385ZM25.3724 29.2969C25.6286 29.2969 25.8385 29.0906 25.8385 28.8335H25.5385C25.5385 28.9226 25.4653 28.9969 25.3724 28.9969V29.2969ZM24.9064 28.8335C24.9064 29.0906 25.1162 29.2969 25.3724 29.2969V28.9969C25.2795 28.9969 25.2064 28.9226 25.2064 28.8335H24.9064ZM24.9064 26.1246V28.8335H25.2064V26.1246H24.9064ZM26.7946 24.2508C25.7529 24.2508 24.9064 25.0885 24.9064 26.1246H25.2064C25.2064 25.2566 25.9163 24.5508 26.7946 24.5508V24.2508ZM28.6829 26.1246C28.6829 25.0885 27.8363 24.2508 26.7946 24.2508V24.5508C27.673 24.5508 28.3829 25.2566 28.3829 26.1246H28.6829ZM28.6829 28.8335V26.1246H28.3829V28.8335H28.6829ZM28.2169 29.2969C28.4731 29.2969 28.6829 29.0906 28.6829 28.8335H28.3829C28.3829 28.9226 28.3097 28.9969 28.2169 28.9969V29.2969ZM27.7508 28.8335C27.7508 29.0906 27.9606 29.2969 28.2169 29.2969V28.9969C28.124 28.9969 28.0508 28.9226 28.0508 28.8335H27.7508ZM27.7508 26.1246V28.8335H28.0508V26.1246H27.7508ZM26.7946 25.1776C27.3239 25.1776 27.7508 25.6028 27.7508 26.1246H28.0508C28.0508 25.4347 27.4872 24.8776 26.7946 24.8776V25.1776ZM28.6829 27.3783C28.6829 26.8565 29.1098 26.4313 29.6391 26.4313V26.1313C28.9465 26.1313 28.3829 26.6884 28.3829 27.3783H28.6829ZM28.6829 28.7887V27.3783H28.3829V28.7887H28.6829ZM28.2169 29.2521C28.4731 29.2521 28.6829 29.0458 28.6829 28.7887H28.3829C28.3829 28.8778 28.3097 28.9521 28.2169 28.9521V29.2521ZM27.7508 28.7887C27.7508 29.0458 27.9606 29.2521 28.2169 29.2521V28.9521C28.124 28.9521 28.0508 28.8778 28.0508 28.7887H27.7508ZM27.7508 27.3783V28.7887H28.0508V27.3783H27.7508ZM29.6391 25.5045C28.5974 25.5045 27.7508 26.3422 27.7508 27.3783H28.0508C28.0508 26.5103 28.7607 25.8045 29.6391 25.8045V25.5045ZM31.5273 27.3783C31.5273 26.3422 30.6808 25.5045 29.6391 25.5045V25.8045C30.5174 25.8045 31.2273 26.5103 31.2273 27.3783H31.5273ZM31.5273 28.7887V27.3783H31.2273V28.7887H31.5273ZM31.0613 29.2521C31.3175 29.2521 31.5273 29.0458 31.5273 28.7887H31.2273C31.2273 28.8778 31.1542 28.9521 31.0613 28.9521V29.2521ZM30.5952 28.7887C30.5952 29.0458 30.8051 29.2521 31.0613 29.2521V28.9521C30.9684 28.9521 30.8952 28.8778 30.8952 28.7887H30.5952ZM30.5952 27.3783V28.7887H30.8952V27.3783H30.5952ZM29.6391 26.4313C30.1683 26.4313 30.5952 26.8565 30.5952 27.3783H30.8952C30.8952 26.6884 30.3317 26.1313 29.6391 26.1313V26.4313ZM31.5273 28.632C31.5273 28.1102 31.9543 27.685 32.4835 27.685V27.385C31.7909 27.385 31.2273 27.9421 31.2273 28.632H31.5273ZM31.5273 28.8467V28.632H31.2273V28.8467H31.5273ZM31.0613 29.3102C31.3175 29.3102 31.5273 29.1039 31.5273 28.8467H31.2273C31.2273 28.9358 31.1542 29.0102 31.0613 29.0102V29.3102ZM30.5952 28.8467C30.5952 29.1039 30.8051 29.3102 31.0613 29.3102V29.0102C30.9684 29.0102 30.8952 28.9358 30.8952 28.8467H30.5952ZM30.5952 28.632V28.8467H30.8952V28.632H30.5952ZM32.4835 26.7582C31.4418 26.7582 30.5952 27.5959 30.5952 28.632H30.8952C30.8952 27.764 31.6052 27.0582 32.4835 27.0582V26.7582ZM34.3718 28.632C34.3718 27.5959 33.5252 26.7582 32.4835 26.7582V27.0582C33.3619 27.0582 34.0718 27.764 34.0718 28.632H34.3718ZM34.3718 32.8632V28.632H34.0718V32.8632H34.3718ZM33.9057 33.3266C34.1619 33.3266 34.3718 33.1203 34.3718 32.8632H34.0718C34.0718 32.9523 33.9986 33.0266 33.9057 33.0266V33.3266ZM33.4397 32.8632C33.4397 33.1203 33.6495 33.3266 33.9057 33.3266V33.0266C33.8129 33.0266 33.7397 32.9523 33.7397 32.8632H33.4397ZM33.4397 28.632V32.8632H33.7397V28.632H33.4397ZM32.4835 27.685C33.0128 27.685 33.4397 28.1102 33.4397 28.632H33.7397C33.7397 27.9421 33.1761 27.385 32.4835 27.385V27.685ZM13.5206 6.07223C12.3916 6.07223 11.4743 6.98015 11.4743 8.10277H11.7743C11.7743 7.1482 12.5549 6.37223 13.5206 6.37223V6.07223ZM23.002 6.07223H13.5206V6.37223H23.002V6.07223ZM25.0483 8.10277C25.0483 6.98016 24.131 6.07223 23.002 6.07223V6.37223C23.9677 6.37223 24.7483 7.1482 24.7483 8.10277H25.0483ZM25.0483 19.0726V8.10277H24.7483V19.0726H25.0483ZM24.2662 19.2226H24.8983V18.9226H24.2662V19.2226ZM24.1162 8.10277V19.0726H24.4162V8.10277H24.1162ZM23.002 6.99908C23.6186 6.99908 24.1162 7.49439 24.1162 8.10277H24.4162C24.4162 7.32635 23.7819 6.69908 23.002 6.69908V6.99908ZM13.5206 6.99908H23.002V6.69908H13.5206V6.99908ZM12.4064 8.10277C12.4064 7.49439 12.904 6.99908 13.5206 6.99908V6.69908C12.7407 6.69908 12.1064 7.32635 12.1064 8.10277H12.4064ZM12.4064 22.0501V8.10277H12.1064V22.0501H12.4064ZM11.6243 22.2001H12.2564V21.9001H11.6243V22.2001ZM11.4743 8.10277V22.0501H11.7743V8.10277H11.4743ZM22.3699 27.0716H13.8366V27.3716H22.3699V27.0716ZM22.5199 27.8484V27.2216H22.2199V27.8484H22.5199ZM13.8366 27.9984H22.3699V27.6984H13.8366V27.9984ZM13.6866 27.2216V27.8484H13.9866V27.2216H13.6866ZM15.4169 6.07223C15.2496 6.07223 15.0946 6.16147 15.0116 6.30686L15.2721 6.4556C15.3013 6.40447 15.3564 6.37223 15.4169 6.37223V6.07223ZM21.1057 6.07223H15.4169V6.37223H21.1057V6.07223ZM21.511 6.30686C21.428 6.16146 21.273 6.07223 21.1057 6.07223V6.37223C21.1662 6.37223 21.2213 6.40447 21.2505 6.4556L21.511 6.30686ZM21.5051 6.77456C21.5918 6.63117 21.5941 6.4524 21.511 6.30686L21.2505 6.4556C21.2796 6.50658 21.2788 6.56899 21.2484 6.61926L21.5051 6.77456ZM20.5569 8.34167L21.5051 6.77456L21.2484 6.61926L20.3003 8.18638L20.5569 8.34167ZM20.1576 8.56619C20.3207 8.56619 20.4724 8.48133 20.5569 8.34167L20.3003 8.18637C20.2705 8.23553 20.2165 8.26619 20.1576 8.26619V8.56619ZM16.365 8.56619H20.1576V8.26619H16.365V8.56619ZM15.9656 8.34167C16.0501 8.48133 16.2019 8.56619 16.365 8.56619V8.26619C16.3061 8.26619 16.2521 8.23553 16.2223 8.18638L15.9656 8.34167ZM15.0175 6.77456L15.9656 8.34167L16.2223 8.18638L15.2742 6.61926L15.0175 6.77456ZM15.0116 6.30686C14.9285 6.4524 14.9307 6.63117 15.0175 6.77456L15.2742 6.61926C15.2438 6.56899 15.243 6.50658 15.2721 6.4556L15.0116 6.30686ZM16.6723 7.7117L16.1034 6.77143L15.8467 6.92672L16.4156 7.86699L16.6723 7.7117ZM19.9786 7.63935H16.5439V7.93935H19.9786V7.63935ZM20.4192 6.77143L19.8503 7.7117L20.107 7.86699L20.6759 6.92672L20.4192 6.77143ZM15.9751 6.99908H20.5475V6.69908H15.9751V6.99908ZM12.224 16.7762C12.4283 16.6203 12.467 16.3287 12.3093 16.1255L12.0723 16.3093C12.1275 16.3805 12.1144 16.4825 12.042 16.5377L12.224 16.7762ZM10.2177 18.3067L12.224 16.7762L12.042 16.5377L10.0357 18.0681L10.2177 18.3067ZM6.85414 23.9372L10.2553 18.2645L9.99804 18.1103L6.59684 23.7829L6.85414 23.9372ZM6.87549 33.0199V23.8601H6.57549V33.0199H6.87549ZM6.40944 33.4833C6.66565 33.4833 6.87549 33.277 6.87549 33.0199H6.57549C6.57549 33.109 6.50233 33.1833 6.40944 33.1833V33.4833ZM5.94339 33.0199C5.94339 33.277 6.15323 33.4833 6.40944 33.4833V33.1833C6.31655 33.1833 6.24339 33.109 6.24339 33.0199H5.94339ZM12.3093 16.1255C12.1522 15.9229 11.8602 15.8855 11.6566 16.0408L11.8386 16.2793C11.9117 16.2236 12.0165 16.2374 12.0723 16.3093L12.3093 16.1255ZM5.94339 23.6878V33.0199H6.24339V23.6878H5.94339ZM9.51663 17.6867L5.96475 23.6107L6.22204 23.7649L9.77393 17.8409L9.51663 17.6867ZM11.6566 16.0408L9.55431 17.6445L9.73626 17.8831L11.8386 16.2793L11.6566 16.0408ZM17.4631 27.535C17.4631 27.2779 17.2533 27.0716 16.9971 27.0716V27.3716C17.09 27.3716 17.1631 27.4459 17.1631 27.535H17.4631ZM17.4631 30.0424V27.535H17.1631V30.0424H17.4631ZM14.1527 33.3266C15.9798 33.3266 17.4631 31.8574 17.4631 30.0424H17.1631C17.1631 31.6894 15.8165 33.0266 14.1527 33.0266V33.3266ZM13.6866 32.8632C13.6866 33.1203 13.8964 33.3266 14.1527 33.3266V33.0266C14.0598 33.0266 13.9866 32.9523 13.9866 32.8632H13.6866ZM14.1527 32.3998C13.8964 32.3998 13.6866 32.6061 13.6866 32.8632H13.9866C13.9866 32.7741 14.0598 32.6998 14.1527 32.6998V32.3998ZM16.531 30.0424C16.531 31.3432 15.4674 32.3998 14.1527 32.3998V32.6998C15.6307 32.6998 16.831 31.5112 16.831 30.0424H16.531ZM16.531 27.535V30.0424H16.831V27.535H16.531ZM16.9971 27.0716C16.7409 27.0716 16.531 27.2779 16.531 27.535H16.831C16.831 27.4459 16.9042 27.3716 16.9971 27.3716V27.0716ZM14.9903 18.7357C15.2016 18.4737 15.3965 18.4075 15.5332 18.4058L15.5296 18.1059C15.2861 18.1088 15.0123 18.2306 14.7568 18.5473L14.9903 18.7357ZM11.9991 22.6781C13.107 21.187 14.3652 19.5106 14.9903 18.7357L14.7568 18.5473C14.1272 19.3279 12.8651 21.0096 11.7583 22.4992L11.9991 22.6781ZM10.5582 24.6257C10.9333 24.1168 11.4465 23.4219 11.9991 22.6781L11.7583 22.4992C11.2054 23.2433 10.6919 23.9386 10.3167 24.4478L10.5582 24.6257ZM10.1116 25.2325C10.2177 25.0882 10.3707 24.8802 10.5582 24.6257L10.3167 24.4478C10.1291 24.7024 9.97605 24.9104 9.86991 25.0548L10.1116 25.2325ZM9.48219 25.306C9.61001 25.3982 9.67404 25.4443 9.70615 25.4674C9.72217 25.4789 9.73036 25.4847 9.7346 25.4878C9.73667 25.4892 9.73804 25.4902 9.739 25.4909C9.73938 25.4911 9.74023 25.4917 9.74123 25.4924C9.74152 25.4926 9.743 25.4936 9.74489 25.4948C9.74545 25.4952 9.7484 25.4971 9.75228 25.4993C9.75347 25.4999 9.75939 25.5033 9.76737 25.5067C9.77023 25.5079 9.78152 25.5127 9.79682 25.5157C9.80963 25.5176 9.83302 25.5183 9.84344 25.5174C9.90147 25.4979 9.94689 25.4569 9.8257 25.3685C9.70452 25.2801 9.74994 25.239 9.80797 25.2195C9.81839 25.2186 9.84178 25.2193 9.85459 25.2213C9.86989 25.2243 9.88117 25.2291 9.88403 25.2303C9.89201 25.2336 9.89793 25.237 9.89913 25.2377C9.90301 25.2398 9.90595 25.2417 9.9065 25.2421C9.90838 25.2433 9.90982 25.2443 9.91005 25.2444C9.91056 25.2448 9.91094 25.245 9.9111 25.2451C9.91127 25.2453 9.91139 25.2453 9.9114 25.2454C9.91141 25.2454 9.91125 25.2453 9.91079 25.2449C9.91035 25.2446 9.9097 25.2442 9.90877 25.2435C9.90499 25.2408 9.89716 25.2352 9.8812 25.2237C9.84932 25.2008 9.78546 25.1549 9.65768 25.0627L9.48219 25.306ZM9.31438 24.9999C9.19242 24.9126 9.16449 25.0056 9.19931 25.0962C9.20228 25.0996 9.20862 25.1063 9.21198 25.1095C9.21557 25.1129 9.21856 25.1153 9.21912 25.1158C9.22103 25.1174 9.22257 25.1186 9.22286 25.1188C9.22384 25.1195 9.22463 25.1201 9.22477 25.1202C9.22528 25.1206 9.22569 25.1209 9.22579 25.121C9.2261 25.1212 9.22643 25.1214 9.22671 25.1217C9.22733 25.1221 9.22843 25.1229 9.23044 25.1244C9.23449 25.1273 9.24253 25.1331 9.2585 25.1446C9.29047 25.1677 9.35439 25.2138 9.48219 25.306L9.65768 25.0627C9.52989 24.9705 9.46602 24.9244 9.43411 24.9014C9.41815 24.8899 9.41022 24.8841 9.4063 24.8813C9.40432 24.8799 9.40342 24.8792 9.40305 24.879C9.40284 24.8788 9.40291 24.8788 9.4031 24.879C9.40314 24.879 9.40352 24.8793 9.40401 24.8797C9.40415 24.8798 9.40493 24.8803 9.40591 24.8811C9.40619 24.8813 9.40773 24.8825 9.40965 24.8841C9.41021 24.8845 9.41319 24.887 9.41678 24.8903C9.42014 24.8936 9.42648 24.9003 9.42946 24.9037C9.46428 24.9943 9.43635 25.0873 9.31438 24.9999ZM9.80635 24.0779C9.61857 24.3327 9.46536 24.541 9.35909 24.6856L9.60082 24.8633C9.70703 24.7188 9.86016 24.5106 10.0479 24.2559L9.80635 24.0779ZM11.2494 22.1273C10.6959 22.8724 10.1819 23.5683 9.80635 24.0779L10.0479 24.2559C10.4233 23.7465 10.937 23.0509 11.4902 22.3063L11.2494 22.1273ZM14.2632 18.1558C13.6241 18.9481 12.3538 20.6409 11.2494 22.1273L11.4902 22.3063C12.5958 20.8183 13.8621 19.1308 14.4967 18.3441L14.2632 18.1558ZM15.5218 17.4791C15.0497 17.4848 14.61 17.7258 14.2632 18.1558L14.4967 18.3441C14.7999 17.9683 15.1609 17.7835 15.5255 17.779L15.5218 17.4791ZM16.6974 18.0298C16.3999 17.6975 15.987 17.4734 15.5218 17.4791L15.5255 17.779C15.8875 17.7747 16.2222 17.9487 16.4738 18.2299L16.6974 18.0298ZM16.946 20.9911C17.4853 19.8323 17.2927 18.6949 16.6974 18.0298L16.4738 18.2299C16.9768 18.7918 17.1709 19.7967 16.674 20.8645L16.946 20.9911ZM15.6571 23.2316C16.0627 22.6083 16.5206 21.9051 16.946 20.9911L16.674 20.8645C16.2585 21.7572 15.8113 22.4446 15.4057 23.0679L15.6571 23.2316ZM15.4735 23.5146C15.5333 23.4218 15.5945 23.3277 15.6571 23.2316L15.4057 23.0679C15.3431 23.1639 15.2815 23.2586 15.2213 23.3521L15.4735 23.5146ZM14.4442 25.62C14.6616 24.8292 15.024 24.2122 15.4735 23.5146L15.2213 23.3521C14.7687 24.0546 14.3851 24.7034 14.1549 25.5405L14.4442 25.62ZM14.2667 26.8365C14.3013 26.3948 14.3386 26.0039 14.4442 25.62L14.1549 25.5405C14.0409 25.955 14.0022 26.372 13.9676 26.813L14.2667 26.8365ZM14.2585 26.9414C14.2613 26.9061 14.264 26.8712 14.2667 26.8365L13.9676 26.813C13.9649 26.8479 13.9621 26.883 13.9594 26.9183L14.2585 26.9414ZM14.0953 28.2566C14.193 27.7914 14.2273 27.3456 14.2585 26.9414L13.9594 26.9183C13.928 27.3246 13.8948 27.7516 13.8017 28.195L14.0953 28.2566ZM11.9321 31.644C13.3461 30.4068 13.8758 29.3012 14.0953 28.2566L13.8017 28.195C13.5965 29.1717 13.1029 30.2209 11.7346 31.4182L11.9321 31.644ZM11.2752 31.6032C11.4455 31.7946 11.7394 31.8127 11.9321 31.644L11.7346 31.4182C11.6656 31.4786 11.56 31.4719 11.4993 31.4038L11.2752 31.6032ZM11.3164 30.9482C11.1229 31.1175 11.1042 31.411 11.2752 31.6032L11.4993 31.4038C11.4393 31.3363 11.4456 31.2337 11.5139 31.174L11.3164 30.9482ZM13.1829 28.0671C13.0073 28.9031 12.5888 29.8348 11.3164 30.9482L11.5139 31.174C12.832 30.0206 13.2866 29.0326 13.4765 28.1288L13.1829 28.0671ZM13.3296 26.8647C13.2976 27.2772 13.2673 27.6652 13.1829 28.0671L13.4765 28.1288C13.5655 27.7049 13.5969 27.2977 13.6287 26.8879L13.3296 26.8647ZM13.3374 26.7644C13.3348 26.798 13.3322 26.8314 13.3296 26.8647L13.6287 26.8879C13.6313 26.8546 13.6339 26.8213 13.6365 26.7879L13.3374 26.7644ZM13.5451 25.3755C13.4136 25.8536 13.3719 26.3245 13.3374 26.7644L13.6365 26.7879C13.671 26.3475 13.7113 25.9025 13.8343 25.4551L13.5451 25.3755ZM14.6886 23.0146C14.2294 23.7275 13.8017 24.4425 13.5451 25.3755L13.8343 25.4551C14.0782 24.5682 14.4848 23.885 14.9408 23.1771L14.6886 23.0146ZM14.8766 22.7247C14.8135 22.8218 14.7507 22.9183 14.6886 23.0146L14.9408 23.1771C15.0025 23.0814 15.0649 22.9854 15.1281 22.8883L14.8766 22.7247ZM16.1001 20.6018C15.7045 21.4517 15.2822 22.1012 14.8766 22.7247L15.1281 22.8883C15.5335 22.265 15.9666 21.5996 16.3721 20.7284L16.1001 20.6018ZM16.0011 18.646C16.3121 18.9934 16.5087 19.7237 16.1001 20.6018L16.3721 20.7284C16.8234 19.7585 16.6274 18.8959 16.2246 18.446L16.0011 18.646ZM15.5332 18.4058C15.6768 18.4041 15.8458 18.4726 16.0011 18.646L16.2246 18.446C16.0231 18.2207 15.7756 18.1029 15.5296 18.1059L15.5332 18.4058ZM9.19342 24.9112C9.0413 25.1187 9.08783 25.4091 9.2963 25.5595L9.47179 25.3162C9.39793 25.2629 9.38213 25.1612 9.43534 25.0886L9.19342 24.9112ZM9.65771 25.0627L9.40216 24.8783L9.22661 25.1216L9.48216 25.306L9.65771 25.0627ZM9.91334 25.2467L9.65757 25.0626L9.4823 25.3061L9.73807 25.4902L9.91334 25.2467ZM9.2963 25.5595C9.50413 25.7094 9.79517 25.6637 9.94666 25.4572L9.70475 25.2798C9.65091 25.3532 9.54629 25.3699 9.47179 25.3162L9.2963 25.5595ZM9.94661 25.4573L10.1117 25.2325L9.86988 25.0549L9.7048 25.2797L9.94661 25.4573ZM9.35906 24.6857L9.19348 24.9112L9.43528 25.0887L9.60086 24.8633L9.35906 24.6857ZM14.4607 17.5055C14.4607 15.3392 16.2318 13.581 18.4193 13.581V13.281C16.0685 13.281 14.1607 15.1712 14.1607 17.5055H14.4607ZM14.6487 18.7044C14.5267 18.3271 14.4607 17.9244 14.4607 17.5055H14.1607C14.1607 17.9561 14.2317 18.3899 14.3632 18.7967L14.6487 18.7044ZM13.9495 19.0849L14.5514 18.8935L14.4605 18.6076L13.8586 18.799L13.9495 19.0849ZM13.5286 17.5055C13.5286 18.0218 13.6101 18.5201 13.7613 18.988L14.0468 18.8958C13.905 18.4573 13.8286 17.9901 13.8286 17.5055H13.5286ZM18.4193 12.6541C15.7194 12.6541 13.5286 14.825 13.5286 17.5055H13.8286C13.8286 14.993 15.8827 12.9541 18.4193 12.9541V12.6541ZM23.3101 17.5055C23.3101 14.825 21.1192 12.6541 18.4193 12.6541V12.9541C20.9559 12.9541 23.0101 14.993 23.0101 17.5055H23.3101ZM18.4193 22.3568C21.1192 22.3568 23.3101 20.186 23.3101 17.5055H23.0101C23.0101 20.0179 20.9559 22.0568 18.4193 22.0568V22.3568ZM16.0671 21.7598C16.7655 22.1405 17.5677 22.3568 18.4193 22.3568V22.0568C17.619 22.0568 16.8661 21.8536 16.2107 21.4964L16.0671 21.7598ZM16.3122 21.0061L16.0077 21.5554L16.2701 21.7008L16.5746 21.1515L16.3122 21.0061ZM18.4193 21.43C17.7281 21.43 17.0796 21.2547 16.5152 20.9471L16.3716 21.2105C16.9791 21.5416 17.6768 21.73 18.4193 21.73V21.43ZM22.378 17.5055C22.378 19.6717 20.6068 21.43 18.4193 21.43V21.73C20.7701 21.73 22.678 19.8398 22.678 17.5055H22.378ZM18.4193 13.581C20.6068 13.581 22.378 15.3392 22.378 17.5055H22.678C22.678 15.1712 20.7701 13.281 18.4193 13.281V13.581ZM16.673 18.2229V17.4219H16.373V18.2229H16.673ZM16.523 17.5719H18.6957V17.2719H16.523V17.5719ZM18.6957 17.5719C18.7311 17.5719 18.7744 17.5706 18.8249 17.5682L18.8108 17.2686C18.7628 17.2708 18.7246 17.2719 18.6957 17.2719V17.5719ZM18.8314 17.5678C18.8968 17.5619 18.9659 17.5461 19.0378 17.5227L18.9451 17.2374C18.8884 17.2559 18.8418 17.2656 18.8044 17.269L18.8314 17.5678ZM19.0387 17.5224C19.2276 17.4597 19.3759 17.3502 19.4641 17.1867L19.2001 17.0442C19.1555 17.1268 19.0767 17.1937 18.9441 17.2377L19.0387 17.5224ZM19.4631 17.1884C19.5464 17.0389 19.585 16.8665 19.585 16.6766H19.285C19.285 16.8257 19.2549 16.9458 19.2011 17.0424L19.4631 17.1884ZM19.585 16.6766C19.585 16.5659 19.5704 16.4528 19.542 16.3378L19.2507 16.4095C19.2739 16.5034 19.285 16.5924 19.285 16.6766H19.585ZM19.5427 16.3406C19.5144 16.215 19.461 16.1015 19.3823 16.002L19.147 16.1881C19.1968 16.2512 19.2313 16.3233 19.2501 16.4067L19.5427 16.3406ZM19.3835 16.0036C19.2969 15.891 19.1769 15.8159 19.0339 15.7736L18.9489 16.0613C19.0416 16.0887 19.1038 16.132 19.1457 16.1865L19.3835 16.0036ZM19.0373 15.7746C18.9672 15.7521 18.8959 15.7391 18.8239 15.7362L18.8118 16.036C18.8555 16.0377 18.9 16.0456 18.9456 16.0603L19.0373 15.7746ZM18.8239 15.7362C18.7661 15.7339 18.7226 15.7326 18.6957 15.7326V16.0326C18.716 16.0326 18.754 16.0337 18.8118 16.036L18.8239 15.7362ZM18.6957 15.7326H17.5258V16.0326H18.6957V15.7326ZM17.6758 15.8826V14.9981H17.3758V15.8826H17.6758ZM17.5258 15.1481H18.7343V14.8481H17.5258V15.1481ZM18.7343 15.1481C18.7486 15.1481 18.7919 15.1491 18.8679 15.1515L18.8771 14.8516C18.8032 14.8493 18.7543 14.8481 18.7343 14.8481V15.1481ZM18.8679 15.1515C18.9356 15.1536 19.0119 15.161 19.097 15.1742L19.1429 14.8777C19.0481 14.863 18.9594 14.8542 18.8771 14.8516L18.8679 15.1515ZM19.0963 15.1741C19.3506 15.2146 19.549 15.3037 19.6996 15.435L19.8967 15.2089C19.6959 15.0338 19.4422 14.9255 19.1436 14.8778L19.0963 15.1741ZM19.7011 15.4363C19.8581 15.5695 19.9742 15.7378 20.0493 15.9443L20.3312 15.8418C20.2392 15.5887 20.0939 15.3762 19.8952 15.2076L19.7011 15.4363ZM20.0493 15.9443C20.1262 16.1559 20.1656 16.3902 20.1656 16.6488H20.4656C20.4656 16.3594 20.4215 16.0899 20.3312 15.8418L20.0493 15.9443ZM20.1656 16.6488C20.1656 17.0505 20.0726 17.3655 19.8985 17.6054L20.1413 17.7816C20.3615 17.4783 20.4656 17.0968 20.4656 16.6488H20.1656ZM19.8981 17.606C19.7317 17.8379 19.4718 17.9888 19.097 18.0468L19.1429 18.3432C19.5781 18.2759 19.9182 18.0924 20.1418 17.781L19.8981 17.606ZM19.097 18.0468C19.0119 18.0599 18.9356 18.0673 18.8679 18.0694L18.8771 18.3693C18.9594 18.3668 19.0481 18.3579 19.1429 18.3432L19.097 18.0468ZM18.8679 18.0694C18.7919 18.0718 18.7486 18.0729 18.7343 18.0729V18.3729C18.7543 18.3729 18.8032 18.3716 18.8771 18.3693L18.8679 18.0694ZM18.7343 18.0729H16.523V18.3729H18.7343V18.0729ZM16.673 19.386V18.6547H16.373V19.386H16.673ZM16.523 18.8047H19.3514V18.5047H16.523V18.8047ZM19.2014 18.6547V19.386H19.5014V18.6547H19.2014ZM19.3514 19.236H16.523V19.536H19.3514V19.236ZM17.123 20.0129V14.9981H16.823V20.0129H17.123ZM16.973 15.1481H17.8472V14.8481H16.973V15.1481ZM17.6972 14.9981V20.0129H17.9972V14.9981H17.6972ZM17.8472 19.8629H16.973V20.1629H17.8472V19.8629ZM29.4941 9.18504C29.3122 9.00465 29.0178 9.00465 28.8359 9.18504L29.0471 9.39806C29.1121 9.33365 29.2179 9.33365 29.2829 9.39806L29.4941 9.18504ZM30.7583 10.4387L29.4941 9.18504L29.2829 9.39806L30.5471 10.6518L30.7583 10.4387ZM30.7583 11.095C30.9409 10.9139 30.9409 10.6198 30.7583 10.4387L30.5471 10.6518C30.6113 10.7155 30.6113 10.8183 30.5471 10.882L30.7583 11.095ZM30.1001 11.095C30.282 11.2754 30.5764 11.2754 30.7583 11.095L30.5471 10.882C30.4821 10.9464 30.3763 10.9464 30.3113 10.882L30.1001 11.095ZM29.3754 10.3764L30.1001 11.095L30.3113 10.882L29.5867 10.1633L29.3754 10.3764ZM29.631 20.1696V10.2698H29.331V20.1696H29.631ZM29.165 20.633C29.4212 20.633 29.631 20.4267 29.631 20.1696H29.331C29.331 20.2586 29.2579 20.333 29.165 20.333V20.633ZM28.6989 20.1696C28.6989 20.4267 28.9088 20.633 29.165 20.633V20.333C29.0721 20.333 28.9989 20.2586 28.9989 20.1696H28.6989ZM28.6989 10.2698V20.1696H28.9989V10.2698H28.6989ZM28.2299 11.095L28.9546 10.3764L28.7433 10.1633L28.0187 10.882L28.2299 11.095ZM27.5717 11.095C27.7536 11.2754 28.048 11.2754 28.2299 11.095L28.0187 10.882C27.9537 10.9464 27.8479 10.9464 27.7829 10.882L27.5717 11.095ZM27.5717 10.4387C27.3891 10.6198 27.3891 10.9139 27.5717 11.095L27.7829 10.882C27.7187 10.8183 27.7187 10.7155 27.7829 10.6518L27.5717 10.4387ZM28.8359 9.18504L27.5717 10.4387L27.7829 10.6518L29.0471 9.39806L28.8359 9.18504ZM7.68669 9.18504C7.50479 9.00465 7.21039 9.00465 7.02849 9.18504L7.23973 9.39806C7.30468 9.33365 7.4105 9.33365 7.47545 9.39806L7.68669 9.18504ZM8.95089 10.4387L7.68669 9.18504L7.47545 9.39806L8.73965 10.6518L8.95089 10.4387ZM8.95089 11.095C9.13349 10.9139 9.13349 10.6198 8.95089 10.4387L8.73965 10.6518C8.8039 10.7155 8.8039 10.8183 8.73965 10.882L8.95089 11.095ZM8.29269 11.095C8.47459 11.2754 8.76899 11.2754 8.95089 11.095L8.73965 10.882C8.6747 10.9464 8.56888 10.9464 8.50393 10.882L8.29269 11.095ZM7.56802 10.3764L8.29269 11.095L8.50393 10.882L7.77926 10.1633L7.56802 10.3764ZM7.82364 20.1696V10.2698H7.52364V20.1696H7.82364ZM7.35759 20.633C7.6138 20.633 7.82364 20.4267 7.82364 20.1696H7.52364C7.52364 20.2586 7.45048 20.333 7.35759 20.333V20.633ZM6.89154 20.1696C6.89154 20.4267 7.10138 20.633 7.35759 20.633V20.333C7.2647 20.333 7.19154 20.2586 7.19154 20.1696H6.89154ZM6.89154 10.2698V20.1696H7.19154V10.2698H6.89154ZM6.4225 11.095L7.14716 10.3764L6.93592 10.1633L6.21125 10.882L6.4225 11.095ZM5.76429 11.095C5.94619 11.2754 6.2406 11.2754 6.4225 11.095L6.21125 10.882C6.1463 10.9464 6.04048 10.9464 5.97554 10.882L5.76429 11.095ZM5.76429 10.4387C5.5817 10.6198 5.58169 10.9139 5.76429 11.095L5.97554 10.882C5.91128 10.8183 5.91128 10.7155 5.97554 10.6518L5.76429 10.4387ZM7.02849 9.18504L5.76429 10.4387L5.97554 10.6518L7.23973 9.39806L7.02849 9.18504Z" fill="#116565"/>
</svg>
