<svg width="40" height="40" viewBox="0 0 40 40" fill="none" xmlns="http://www.w3.org/2000/svg">
<path fill-rule="evenodd" clip-rule="evenodd" d="M8.83766 6.96808C12.5519 5.5437 17.4714 5.84948 22.964 6.86494C26.7287 7.56095 30.233 8.68124 32.7918 10.3682C35.3565 12.0591 37.0369 14.3711 36.9623 17.4215C37.127 20.7019 36.7437 23.128 35.9748 24.9285C35.1982 26.7472 34.041 27.8964 32.7289 28.6296C31.4315 29.3546 30.0043 29.661 28.6987 29.8412C28.1856 29.9121 27.6801 29.9647 27.2079 30.0139C27.0801 30.0272 26.9548 30.0402 26.8324 30.0533C26.2486 30.1157 25.7323 30.1789 25.2881 30.2739C24.3641 30.4713 23.4861 30.8368 22.5606 31.279C22.2507 31.427 21.9304 31.5865 21.6009 31.7504C20.9688 32.065 20.3031 32.3963 19.6141 32.6958C17.4664 33.6293 14.9274 34.3355 11.4031 33.8334C9.07834 33.5021 7.30083 32.6503 5.95477 31.4462C4.61214 30.2452 3.7296 28.7215 3.14833 27.0921C2.00001 23.8731 2 20.15 2 17.4701L2 17.429C2 17.408 2.00109 17.387 2.00327 17.3661C2.29922 14.5254 3.04935 12.2867 4.21831 10.5704C5.39137 8.84813 6.96234 7.68724 8.83766 6.96808ZM35.6399 21.8087C34.9486 22.7454 34.0252 23.4161 32.9551 23.9169C30.907 24.8753 28.2079 25.2541 25.3469 25.6556C25.025 25.7008 24.7011 25.7462 24.3757 25.7928C22.733 26.2291 21.3757 26.8156 20.0611 27.3837C19.5549 27.6025 19.055 27.8185 18.5477 28.0221C16.7313 28.7511 14.8905 29.283 12.572 29.0137C8.89807 28.587 5.30579 26.5307 3.40017 22.9965C3.55671 24.2531 3.81296 25.5092 4.23242 26.6851C4.7643 28.1761 5.55149 29.5143 6.71347 30.5537C7.87201 31.59 9.43398 32.3572 11.5619 32.6604C14.8288 33.1258 17.1547 32.4787 19.1637 31.6054C19.8289 31.3162 20.443 31.0104 21.0563 30.705C21.3927 30.5374 21.7289 30.37 22.0732 30.2055C23.0241 29.7511 23.9976 29.34 25.0527 29.1145C25.5604 29.006 26.1291 28.9378 26.7127 28.8755C26.8415 28.8617 26.9711 28.8482 27.1016 28.8346C27.5714 28.7857 28.0522 28.7356 28.5448 28.6676C29.8019 28.494 31.0639 28.2115 32.1766 27.5897C33.2746 26.9761 34.2482 26.0204 34.9174 24.4533C35.23 23.7213 35.4789 22.8494 35.6399 21.8087ZM3.15508 17.4544C3.29647 23.6602 7.85381 27.2739 12.7019 27.837C14.7535 28.0753 16.3905 27.6162 18.1271 26.9193C18.5855 26.7353 19.0562 26.5319 19.5452 26.3206C20.8904 25.7393 22.3739 25.0982 24.1195 24.6376C24.1406 24.6321 24.1619 24.6278 24.1834 24.6247C24.5161 24.577 24.8443 24.5307 25.1677 24.4851C28.0765 24.0752 30.5934 23.7205 32.476 22.8395C33.5014 22.3596 34.3017 21.7377 34.8601 20.8926C35.4181 20.0482 35.7659 18.9331 35.8077 17.4123C35.8766 14.9027 34.5299 12.9218 32.1677 11.3645C29.7929 9.79882 26.4592 8.71442 22.7593 8.03038C17.2851 7.01833 12.6395 6.77436 9.24189 8.07732C7.56126 8.72182 6.18954 9.74388 5.16461 11.2487C4.14036 12.7525 3.43893 14.7734 3.15508 17.4544ZM10.7172 9.46306C13.8333 8.61523 17.8086 9.06577 21.6065 9.50252C24.7885 9.86844 27.9037 10.6113 30.1857 11.7848C32.4399 12.9441 34.0928 14.6497 33.8244 16.9907C33.6491 18.5192 33.176 19.6593 32.4683 20.4961C31.7615 21.3319 30.8612 21.8173 29.9126 22.1093C28.9708 22.3991 27.958 22.5051 27.0032 22.5679C26.693 22.5882 26.3924 22.604 26.101 22.6193C25.4707 22.6523 24.8835 22.6831 24.3349 22.7535C23.5898 22.849 22.8338 23.1147 22.0145 23.4775C21.5404 23.6874 21.0826 23.9116 20.6012 24.1473C20.2216 24.3331 19.8274 24.5262 19.3993 24.7249C17.5209 25.5969 15.3364 26.4032 12.6004 26.2249C7.04211 25.8629 4.47778 21.3753 4.80542 17.3794C4.99803 15.0304 5.65132 13.2604 6.69597 11.9631C7.742 10.6641 9.13712 9.89295 10.7172 9.46306ZM7.58598 12.7173C6.72848 13.7821 6.13422 15.3022 5.95576 17.4786C5.67521 20.9003 7.84254 24.7284 12.6736 25.0431C15.1322 25.2033 17.1118 24.4869 18.9233 23.646C19.2974 23.4724 19.6818 23.2846 20.0642 23.0978C20.5751 22.8482 21.0825 22.6003 21.557 22.3902C22.4152 22.0102 23.2877 21.6943 24.1917 21.5784C24.7835 21.5025 25.4407 21.468 26.0934 21.4336C26.3748 21.4188 26.6554 21.4041 26.9295 21.3861C27.866 21.3245 28.7704 21.2244 29.5808 20.975C30.3844 20.7277 31.0714 20.3408 31.5963 19.7201C32.1203 19.1005 32.5233 18.1999 32.6779 16.8524C32.8571 15.29 31.8055 13.9425 29.6683 12.8435C27.559 11.7587 24.5958 11.0379 21.4779 10.6794C17.6104 10.2346 13.8759 9.82881 11.0131 10.6077C9.60373 10.9912 8.4421 11.6541 7.58598 12.7173ZM12.0959 13.1979C11.6589 13.6255 11.4398 14.1154 11.4398 14.4587C11.4398 14.9126 11.5751 15.44 11.9172 15.8446C12.2442 16.2316 12.8166 16.5734 13.8311 16.5734C14.6519 16.5734 15.168 16.253 15.4891 15.855C15.8257 15.4378 15.975 14.8996 15.975 14.4587C15.975 14.1191 15.7594 13.6329 15.3005 13.2098C14.8548 12.7988 14.2461 12.5132 13.5837 12.5132C13.0682 12.5132 12.5238 12.7791 12.0959 13.1979ZM11.2991 12.341C11.8813 11.7712 12.6974 11.329 13.5837 11.329C14.5705 11.329 15.446 11.7516 16.0722 12.3291C16.6853 12.8945 17.1294 13.6771 17.1294 14.4587C17.1294 15.1389 16.9076 15.9541 16.3784 16.6101C15.8337 17.2851 14.9892 17.7576 13.8311 17.7576C12.5368 17.7576 11.6249 17.3065 11.045 16.6204C10.4799 15.9519 10.2854 15.126 10.2854 14.4587C10.2854 13.6807 10.726 12.9018 11.2991 12.341Z" fill="black"/>
</svg>
