<svg width="40" height="40" viewBox="0 0 40 40" fill="none" xmlns="http://www.w3.org/2000/svg">
<path d="M22.3128 18.0953C22.623 17.7807 22.8131 17.3548 22.8131 16.8851C22.8131 16.4154 22.623 15.9895 22.3128 15.6749C22.191 15.5515 22.1954 15.3556 22.3225 15.2373C22.4495 15.1191 22.6513 15.1233 22.773 15.2467C23.1924 15.6719 23.4505 16.2495 23.4505 16.8851C23.4505 17.5207 23.1924 18.0983 22.773 18.5235C22.6513 18.6469 22.4495 18.6511 22.3225 18.5329C22.1954 18.4146 22.191 18.2187 22.3128 18.0953Z" fill="#116565"/>
<path d="M21.8709 16.8851C21.8709 17.1126 21.7775 17.3184 21.6253 17.4692C21.5021 17.5913 21.5041 17.7873 21.6298 17.9069C21.7555 18.0266 21.9572 18.0246 22.0804 17.9026C22.3447 17.6407 22.5082 17.2811 22.5082 16.8851C22.5082 16.4891 22.3447 16.1295 22.0804 15.8676C21.9572 15.7455 21.7555 15.7436 21.6298 15.8633C21.5041 15.9829 21.5021 16.1789 21.6253 16.301C21.7775 16.4518 21.8709 16.6576 21.8709 16.8851Z" fill="#116565"/>
<path d="M21.2473 16.6563C21.1172 16.6563 21.0117 16.7588 21.0117 16.8851C21.0117 17.0115 21.1172 17.1139 21.2473 17.1139C21.3774 17.1139 21.4828 17.0115 21.4828 16.8851C21.4828 16.7588 21.3774 16.6563 21.2473 16.6563Z" fill="#116565"/>
<path fill-rule="evenodd" clip-rule="evenodd" d="M33.0879 28.3571C34.1439 28.3571 35 27.5257 35 26.5V8.85714C35 7.83147 34.1439 7 33.0879 7L7.91209 7C6.85607 7 6 7.83147 6 8.85714L6 24.951L6 24.9524L6 24.9538L6 26.5C6 27.5257 6.85607 28.3571 7.91209 28.3571H16.8352V30.5238H13.967C13.791 30.5238 13.6484 30.6624 13.6484 30.8333V32.6905C13.6484 32.8614 13.791 33 13.967 33L27.033 33C27.209 33 27.3517 32.8614 27.3517 32.6905V30.8333C27.3517 30.6624 27.209 30.5238 27.033 30.5238H24.1648V28.3571H33.0879ZM6.63737 25.2619L6.63737 26.5C6.63737 27.1838 7.20808 27.7381 7.91209 27.7381H17.1528L17.1538 27.7381H33.0879C33.7919 27.7381 34.3626 27.1838 34.3626 26.5V25.2619H6.63737ZM34.3626 24.6429V8.85714C34.3626 8.17336 33.7919 7.61905 33.0879 7.61905L7.91209 7.61905C7.20808 7.61905 6.63736 8.17336 6.63736 8.85714L6.63737 14.7841L12.2803 11.6198C12.3293 11.5923 12.3849 11.578 12.4415 11.5783L17.4907 11.6069C17.542 11.6072 17.5926 11.6196 17.638 11.6429L19.3469 12.5219H23.7654C24.8214 12.5219 25.6775 13.3534 25.6775 14.3791V19.5892C25.6775 20.6148 24.8214 21.4463 23.7654 21.4463H15.8226C14.7666 21.4463 13.9105 20.6148 13.9105 19.5892V18.2787C13.7367 18.3066 13.5252 18.3518 13.2369 18.4256C12.9446 18.5003 12.6738 18.6208 12.3735 18.7602L12.3016 18.7937C12.0268 18.9217 11.7255 19.062 11.3889 19.1697C10.7887 19.3617 10.0904 19.4464 9.16288 19.2556L9.52417 19.8634C9.61217 20.0114 9.55994 20.2007 9.40752 20.2862L6.75541 21.7734C6.71789 21.7944 6.6778 21.8072 6.63737 21.8123L6.63737 24.6429H34.3626ZM6.63737 21.1248L6.63737 16.2451L8.22028 18.908C8.2216 18.9103 8.22294 18.9125 8.22432 18.9148L8.81285 19.9049L6.63737 21.1248ZM23.5275 30.5238H17.4725V28.3571H23.5275V30.5238ZM26.7143 31.1429V32.381L14.2857 32.381V31.1429H26.7143ZM17.4088 12.2255L17.985 12.5219H15.8226C14.7666 12.5219 13.9105 13.3534 13.9105 14.3791V15.1529L13.737 15.1343C13.1918 15.0763 12.6933 15.0252 12.3312 14.9886C12.1501 14.9703 12.003 14.9556 11.9012 14.9455L11.7428 14.9298C11.5677 14.9127 11.4114 15.0367 11.3937 15.2067C11.3761 15.3768 11.5039 15.5286 11.679 15.5458L11.8364 15.5613C11.9379 15.5714 12.0845 15.586 12.2652 15.6043C12.6265 15.6408 13.1238 15.6918 13.6675 15.7497C14.7574 15.8657 16.0262 16.0085 16.7642 16.1177C17.0204 16.1556 17.1444 16.2575 17.2014 16.3507C17.2609 16.448 17.2791 16.5874 17.2219 16.7545C17.1074 17.0887 16.6939 17.4851 15.9598 17.5503C15.3095 17.6081 14.9448 17.6102 14.6498 17.612C14.5705 17.6124 14.4963 17.6129 14.4229 17.6144C14.0566 17.6218 13.7428 17.6561 13.0746 17.8269C12.7176 17.9182 12.3978 18.0627 12.0986 18.2017L12.0313 18.233C11.7509 18.3635 11.4853 18.4871 11.1895 18.5817C10.5928 18.7726 9.85297 18.8513 8.71325 18.4992L6.85668 15.3759L12.5241 12.1979L17.4088 12.2255ZM11.679 15.5458L11.7108 15.2378C11.6788 15.5457 11.679 15.5458 11.679 15.5458ZM11.7108 15.2378L11.7428 14.9298C11.7427 14.9298 11.7427 14.9298 11.7108 15.2378ZM14.5479 18.2318V19.5892C14.5479 20.2729 15.1186 20.8272 15.8226 20.8272H23.7654C24.4694 20.8272 25.0401 20.2729 25.0401 19.5892V14.3791C25.0401 13.6953 24.4694 13.141 23.7654 13.141H15.8226C15.1186 13.141 14.5479 13.6953 14.5479 14.3791V15.2222C15.4126 15.3177 16.2885 15.4211 16.8601 15.5057C17.2625 15.5652 17.5749 15.7492 17.7495 16.0347C17.9215 16.3162 17.93 16.6483 17.8266 16.95C17.6199 17.5533 16.9631 18.0828 16.0178 18.1668C15.3382 18.2271 14.9449 18.2294 14.6486 18.2311L14.648 18.2311C14.6134 18.2313 14.5801 18.2315 14.5479 18.2318Z" fill="#116565"/>
<path d="M11.7428 14.9298L11.9012 14.9455C12.003 14.9556 12.1501 14.9703 12.3312 14.9886C12.6933 15.0252 13.1918 15.0763 13.737 15.1343L13.9105 15.1529V14.3791C13.9105 13.3534 14.7666 12.5219 15.8226 12.5219H17.985L17.4088 12.2255L12.5241 12.1979L6.85668 15.3759L8.71325 18.4992C9.85297 18.8513 10.5928 18.7726 11.1895 18.5817C11.4853 18.4871 11.7509 18.3635 12.0313 18.233L12.0986 18.2017C12.3978 18.0627 12.7176 17.9182 13.0746 17.8269C13.7428 17.6561 14.0566 17.6218 14.4229 17.6144C14.4963 17.6129 14.5705 17.6124 14.6498 17.612C14.9448 17.6102 15.3095 17.6081 15.9598 17.5503C16.6939 17.4851 17.1074 17.0887 17.2219 16.7545C17.2791 16.5874 17.2609 16.448 17.2014 16.3507C17.1444 16.2575 17.0204 16.1556 16.7642 16.1177C16.0262 16.0085 14.7574 15.8657 13.6675 15.7497C13.1238 15.6918 12.6265 15.6408 12.2652 15.6043C12.0845 15.586 11.9379 15.5714 11.8364 15.5613L11.679 15.5458M11.7428 14.9298C11.5677 14.9127 11.4114 15.0367 11.3937 15.2067C11.3761 15.3768 11.5039 15.5286 11.679 15.5458M11.7428 14.9298L11.7108 15.2378M11.7428 14.9298C11.7427 14.9298 11.7427 14.9298 11.7108 15.2378M11.679 15.5458L11.7108 15.2378M11.679 15.5458C11.679 15.5458 11.6788 15.5457 11.7108 15.2378M35 26.5C35 27.5257 34.1439 28.3571 33.0879 28.3571H24.1648V30.5238H27.033C27.209 30.5238 27.3517 30.6624 27.3517 30.8333V32.6905C27.3517 32.8614 27.209 33 27.033 33L13.967 33C13.791 33 13.6484 32.8614 13.6484 32.6905V30.8333C13.6484 30.6624 13.791 30.5238 13.967 30.5238H16.8352V28.3571H7.91209C6.85607 28.3571 6 27.5257 6 26.5L6 24.9538L6 24.9524L6 24.951L6 8.85714C6 7.83147 6.85607 7 7.91209 7L33.0879 7C34.1439 7 35 7.83147 35 8.85714V26.5ZM6.63737 26.5L6.63737 25.2619H34.3626V26.5C34.3626 27.1838 33.7919 27.7381 33.0879 27.7381H17.1538L17.1528 27.7381H7.91209C7.20808 27.7381 6.63737 27.1838 6.63737 26.5ZM34.3626 8.85714V24.6429H6.63737L6.63737 21.8123C6.6778 21.8072 6.71789 21.7944 6.75541 21.7734L9.40752 20.2862C9.55994 20.2007 9.61217 20.0114 9.52417 19.8634L9.16288 19.2556C10.0904 19.4464 10.7887 19.3617 11.3889 19.1697C11.7255 19.062 12.0268 18.9217 12.3016 18.7937L12.3735 18.7602C12.6738 18.6208 12.9446 18.5003 13.2369 18.4256C13.5252 18.3518 13.7367 18.3066 13.9105 18.2787V19.5892C13.9105 20.6148 14.7666 21.4463 15.8226 21.4463H23.7654C24.8214 21.4463 25.6775 20.6148 25.6775 19.5892V14.3791C25.6775 13.3534 24.8214 12.5219 23.7654 12.5219H19.3469L17.638 11.6429C17.5926 11.6196 17.542 11.6072 17.4907 11.6069L12.4415 11.5783C12.3849 11.578 12.3293 11.5923 12.2803 11.6198L6.63737 14.7841L6.63736 8.85714C6.63736 8.17336 7.20808 7.61905 7.91209 7.61905L33.0879 7.61905C33.7919 7.61905 34.3626 8.17336 34.3626 8.85714ZM6.63737 21.1248L6.63737 16.2451L8.22028 18.908C8.2216 18.9103 8.22294 18.9125 8.22432 18.9148L8.81285 19.9049L6.63737 21.1248ZM17.4725 30.5238H23.5275V28.3571H17.4725V30.5238ZM26.7143 31.1429V32.381L14.2857 32.381V31.1429H26.7143ZM14.5479 19.5892V18.2318C14.5801 18.2315 14.6134 18.2313 14.648 18.2311L14.6486 18.2311C14.9449 18.2294 15.3382 18.2271 16.0178 18.1668C16.9631 18.0828 17.6199 17.5533 17.8266 16.95C17.93 16.6483 17.9215 16.3162 17.7495 16.0347C17.5749 15.7492 17.2625 15.5652 16.8601 15.5057C16.2885 15.4211 15.4126 15.3177 14.5479 15.2222V14.3791C14.5479 13.6953 15.1186 13.141 15.8226 13.141H23.7654C24.4694 13.141 25.0401 13.6953 25.0401 14.3791V19.5892C25.0401 20.2729 24.4694 20.8272 23.7654 20.8272H15.8226C15.1186 20.8272 14.5479 20.2729 14.5479 19.5892ZM22.8131 16.8851C22.8131 17.3548 22.623 17.7807 22.3128 18.0953C22.191 18.2187 22.1954 18.4146 22.3225 18.5329C22.4495 18.6511 22.6513 18.6469 22.773 18.5235C23.1924 18.0983 23.4505 17.5207 23.4505 16.8851C23.4505 16.2495 23.1924 15.6719 22.773 15.2467C22.6513 15.1233 22.4495 15.1191 22.3225 15.2373C22.1954 15.3556 22.191 15.5515 22.3128 15.6749C22.623 15.9895 22.8131 16.4154 22.8131 16.8851ZM21.6253 17.4692C21.7775 17.3184 21.8709 17.1126 21.8709 16.8851C21.8709 16.6576 21.7775 16.4518 21.6253 16.301C21.5021 16.1789 21.5041 15.9829 21.6298 15.8633C21.7555 15.7436 21.9572 15.7455 22.0804 15.8676C22.3447 16.1295 22.5082 16.4891 22.5082 16.8851C22.5082 17.2811 22.3447 17.6407 22.0804 17.9026C21.9572 18.0246 21.7555 18.0266 21.6298 17.9069C21.5041 17.7873 21.5021 17.5913 21.6253 17.4692ZM21.0117 16.8851C21.0117 16.7588 21.1172 16.6563 21.2473 16.6563C21.3774 16.6563 21.4828 16.7588 21.4828 16.8851C21.4828 17.0115 21.3774 17.1139 21.2473 17.1139C21.1172 17.1139 21.0117 17.0115 21.0117 16.8851Z" stroke="#116565" stroke-width="0.3" stroke-linecap="round"/>
</svg>
