<svg width="40" height="40" viewBox="0 0 40 40" fill="none" xmlns="http://www.w3.org/2000/svg">
<path fill-rule="evenodd" clip-rule="evenodd" d="M11.6699 16.4343C6.50078 16.4343 2.31034 20.5277 2.31034 25.5771C2.31034 30.6266 6.50078 34.72 11.6699 34.72C16.8391 34.72 21.0295 30.6266 21.0295 25.5771C21.0295 20.5277 16.8391 16.4343 11.6699 16.4343ZM1 25.5771C1 19.8208 5.7771 15.1543 11.6699 15.1543C17.5628 15.1543 22.3399 19.8208 22.3399 25.5771C22.3399 31.3335 17.5628 36 11.6699 36C5.7771 36 1 31.3335 1 25.5771Z" fill="black"/>
<path fill-rule="evenodd" clip-rule="evenodd" d="M28.3301 16.4343C25.1446 16.4343 22.3305 17.9882 20.639 20.3653L19.5631 19.6347C21.489 16.9282 24.6974 15.1543 28.3301 15.1543C34.2229 15.1543 39 19.8208 39 25.5771C39 31.3335 34.2229 36 28.3301 36C24.6974 36 21.489 34.2261 19.5631 31.5196L20.639 30.789C22.3305 33.1661 25.1446 34.72 28.3301 34.72C33.4992 34.72 37.6897 30.6266 37.6897 25.5771C37.6897 20.5277 33.4992 16.4343 28.3301 16.4343Z" fill="black"/>
<path fill-rule="evenodd" clip-rule="evenodd" d="M22.5726 6.64503C22.776 6.75917 22.9015 6.97084 22.9015 7.2V9.25714L25.2601 10.9851C25.4754 11.1429 25.5701 11.4133 25.4987 11.6669C25.4273 11.9204 25.2044 12.1055 24.9368 12.1335L22.7504 12.3623L22.1257 14.4218C22.0579 14.6455 21.8708 14.8154 21.6376 14.8652C21.4043 14.9151 21.1617 14.837 21.0045 14.6614L19.2116 12.6599L16.384 12.4088C16.1339 12.3866 15.9187 12.2266 15.8302 11.997C15.7417 11.7674 15.7953 11.5085 15.9683 11.3306L17.4252 9.83265L16.3297 7.76889C16.2069 7.53757 16.2399 7.25662 16.4132 7.05852C16.5865 6.86042 16.8654 6.78473 17.1185 6.86713L19.9259 7.78127L21.9162 6.64718C22.1188 6.53171 22.3692 6.53089 22.5726 6.64503ZM21.5911 8.31426L20.3301 9.03282C20.1673 9.12557 19.9716 9.14537 19.7928 9.08716L18.2365 8.58039L18.8033 9.64825C18.9319 9.89052 18.8891 10.1858 18.6967 10.3837L17.8505 11.2537L19.5913 11.4083C19.7589 11.4232 19.9143 11.5005 20.0251 11.6243L21.2073 12.9441L21.6181 11.5896C21.6933 11.3419 21.9135 11.1626 22.1765 11.1351L23.1428 11.0339L21.8532 10.0891C21.6882 9.96828 21.5911 9.77859 21.5911 9.57714V8.31426ZM27.8271 17.7021C28.065 17.5743 28.3588 17.603 28.566 17.7743L30.7375 19.5691L32.8395 19.0163C33.0617 18.9579 33.299 19.0176 33.4647 19.1736C33.6303 19.3297 33.7 19.5592 33.6482 19.7782L33.1601 21.8442L34.9154 23.8855C35.0866 24.0846 35.1175 24.365 34.9936 24.5951C34.8697 24.8252 34.6156 24.9592 34.3507 24.9342L31.8548 24.6982L30.8526 26.2797C30.7248 26.4814 30.4933 26.5975 30.251 26.5814C30.0087 26.5652 29.7955 26.4195 29.6968 26.2028L28.6827 23.9737L25.8436 22.8812C25.6095 22.7911 25.4489 22.5781 25.4304 22.333C25.4118 22.088 25.5384 21.8542 25.7563 21.7314L27.808 20.5751L27.4938 18.3503C27.4567 18.0876 27.5893 17.8298 27.8271 17.7021ZM10.1521 17.6232C10.3688 17.6166 10.5748 17.7152 10.7023 17.8864L12.0245 19.6624L14.9098 19.911C15.1794 19.9343 15.4067 20.1171 15.4817 20.3711C15.5567 20.6252 15.4641 20.8981 15.2486 21.0581L13.2352 22.5529L13.6227 24.4459C13.6699 24.6762 13.5841 24.9133 13.3993 25.0635C13.2144 25.2137 12.9602 25.2529 12.737 25.1657L10.1724 24.1636L7.60785 25.1657C7.37232 25.2577 7.10356 25.2086 6.91794 25.0397C6.73232 24.8708 6.66321 24.6124 6.74053 24.3764L7.34815 22.5215L5.37696 21.0581C5.16172 20.8983 5.06906 20.6258 5.14367 20.3719C5.21828 20.1181 5.44484 19.9351 5.71408 19.9112L8.48215 19.6654L9.61967 17.9193C9.73606 17.7406 9.93539 17.6297 10.1521 17.6232ZM29.0256 19.8309L29.1663 20.8268C29.2027 21.0848 29.0755 21.3385 28.8446 21.4686L27.5881 22.1768L29.4125 22.8788C29.5725 22.9404 29.7013 23.0609 29.7711 23.2144L30.3909 24.5765L30.9552 23.686C31.0866 23.4787 31.327 23.3624 31.5754 23.3858L32.8806 23.5092L31.9466 22.4231C31.8142 22.2691 31.7636 22.0634 31.8099 21.8675L32.1259 20.5295L30.7467 20.8923C30.5391 20.9469 30.3173 20.8985 30.1531 20.7629L29.0256 19.8309ZM10.2085 19.3995L9.41481 20.6179C9.30581 20.7852 9.12357 20.8937 8.92138 20.9117L7.51364 21.0367L8.50973 21.7762C8.73072 21.9402 8.82189 22.2225 8.7373 22.4808L8.41235 23.4727L9.92908 22.8801C10.0853 22.819 10.2595 22.819 10.4157 22.8801L12.1006 23.5384L11.8699 22.4112C11.8207 22.171 11.9162 21.9244 12.1159 21.7762L13.1067 21.0406L11.6124 20.9118C11.4237 20.8955 11.2515 20.8003 11.1401 20.6507L10.2085 19.3995Z" fill="black"/>
<path fill-rule="evenodd" clip-rule="evenodd" d="M19.532 5.28C14.3628 5.28 10.1724 9.3734 10.1724 14.4229C10.1724 14.9179 10.2126 15.4033 10.2899 15.8763L8.99596 16.078C8.9078 15.5386 8.86206 14.9857 8.86206 14.4229C8.86206 8.66647 13.6392 4 19.532 4C25.4249 4 30.202 8.66647 30.202 14.4229C30.202 14.9857 30.1562 15.5386 30.0681 16.078L28.7741 15.8763C28.8514 15.4033 28.8916 14.9179 28.8916 14.4229C28.8916 9.3734 24.7012 5.28 19.532 5.28Z" fill="black"/>
</svg>
