<svg width="40" height="40" viewBox="0 0 40 40" fill="none" xmlns="http://www.w3.org/2000/svg">
<path fill-rule="evenodd" clip-rule="evenodd" d="M19.8082 8.55102C15.4656 8.55102 11.9452 12.0162 11.9452 16.2908C11.9452 20.5654 15.4656 24.0306 19.8082 24.0306C24.1508 24.0306 27.6712 20.5654 27.6712 16.2908C27.6712 12.0162 24.1508 8.55102 19.8082 8.55102ZM10.6027 16.2908C10.6027 11.2864 14.7242 7.22959 19.8082 7.22959C24.8923 7.22959 29.0137 11.2864 29.0137 16.2908C29.0137 21.2952 24.8923 25.352 19.8082 25.352C14.7242 25.352 10.6027 21.2952 10.6027 16.2908Z" fill="#0D0D0D"/>
<path fill-rule="evenodd" clip-rule="evenodd" d="M21.8311 10.4294C22.1011 10.6794 22.1142 11.0976 21.8602 11.3634L20.4027 12.8887V14.9719L22.1847 13.9089L22.8004 11.9195C22.9084 11.5704 23.2834 11.3736 23.6381 11.48C23.9927 11.5863 24.1926 11.9555 24.0846 12.3045L23.5976 13.878L25.2522 14.3045C25.6109 14.3969 25.8254 14.758 25.7315 15.111C25.6376 15.464 25.2708 15.6752 24.9121 15.5828L22.8569 15.053L21.0266 16.1449L22.8569 17.2369L24.9121 16.7071C25.2708 16.6146 25.6376 16.8259 25.7315 17.1789C25.8254 17.5319 25.6109 17.893 25.2522 17.9854L23.5976 18.4119L24.0846 19.9853C24.1926 20.3344 23.9927 20.7036 23.6381 20.8099C23.2834 20.9162 22.9084 20.7195 22.8004 20.3704L22.1847 18.381L20.4027 17.318V19.3153L21.8602 20.8407C22.1142 21.1065 22.1011 21.5247 21.8311 21.7747C21.5611 22.0247 21.1363 22.0118 20.8823 21.746L19.7076 20.5166L18.3845 21.7695C18.1174 22.0225 17.6925 22.0144 17.4354 21.7514C17.1784 21.4885 17.1867 21.0702 17.4538 20.8172L19.0603 19.296V17.318L17.29 18.3741L16.7554 20.348C16.66 20.7006 16.2922 20.9103 15.934 20.8163C15.5758 20.7223 15.3628 20.3603 15.4583 20.0077L15.8959 18.3915L14.5288 17.9778C14.1744 17.8706 13.9755 17.5009 14.0844 17.1521C14.1934 16.8033 14.5689 16.6075 14.9233 16.7147L16.6205 17.2283L18.4364 16.1449L16.6205 15.0616L14.9233 15.5752C14.5689 15.6824 14.1934 15.4866 14.0844 15.1378C13.9755 14.789 14.1744 14.4193 14.5288 14.3121L15.9391 13.8853L15.6201 12.2356C15.5507 11.8771 15.7897 11.5312 16.1539 11.463C16.5181 11.3947 16.8695 11.63 16.9388 11.9884L17.3145 13.9304L19.0603 14.9719V12.9081L17.4538 11.3869C17.1867 11.1339 17.1784 10.7156 17.4354 10.4527C17.6925 10.1897 18.1174 10.1816 18.3845 10.4346L19.7076 11.6874L20.8823 10.4581C21.1363 10.1922 21.5611 10.1794 21.8311 10.4294Z" fill="#0D0D0D"/>
<path fill-rule="evenodd" clip-rule="evenodd" d="M6 6.94643C6 5.33043 7.33088 4.02041 8.9726 4.02041H31.0274C32.6691 4.02041 34 5.33043 34 6.94643V32.0536C34 33.6696 32.6691 34.9796 31.0274 34.9796H8.9726C7.33088 34.9796 6 33.6696 6 32.0536V6.94643ZM8.9726 5.34184C8.0723 5.34184 7.34247 6.06024 7.34247 6.94643V32.0536C7.34247 32.9398 8.0723 33.6582 8.9726 33.6582H31.0274C31.9277 33.6582 32.6575 32.9398 32.6575 32.0536V6.94643C32.6575 6.06024 31.9277 5.34184 31.0274 5.34184H8.9726Z" fill="#0D0D0D"/>
<path fill-rule="evenodd" clip-rule="evenodd" d="M6 37.3393C6 37.7042 6.30052 38 6.67123 38H33.3288C33.6995 38 34 37.7042 34 37.3393V36.5842C34 34.9682 32.6691 33.6582 31.0274 33.6582H8.9726C7.33088 33.6582 6 34.9682 6 36.5842V37.3393ZM7.34247 36.6786V36.5842C7.34247 35.698 8.0723 34.9796 8.9726 34.9796H31.0274C31.9277 34.9796 32.6575 35.698 32.6575 36.5842V36.6786H7.34247Z" fill="#0D0D0D"/>
<path fill-rule="evenodd" clip-rule="evenodd" d="M6 2.41582C6 4.03181 7.33088 5.34184 8.9726 5.34184H31.0274C32.6691 5.34184 34 4.03181 34 2.41582V1.66071C34 1.29581 33.6995 1 33.3288 1H6.67123C6.30052 1 6 1.29581 6 1.66071V2.41582ZM8.9726 4.02041C8.0723 4.02041 7.34247 3.30201 7.34247 2.41582V2.32143H32.6575V2.41582C32.6575 3.30201 31.9277 4.02041 31.0274 4.02041H8.9726Z" fill="#0D0D0D"/>
<path fill-rule="evenodd" clip-rule="evenodd" d="M10.2192 28.2781C10.2192 27.9132 10.5197 27.6173 10.8904 27.6173H28.9178C29.2885 27.6173 29.589 27.9132 29.589 28.2781C29.589 28.643 29.2885 28.9388 28.9178 28.9388H10.8904C10.5197 28.9388 10.2192 28.643 10.2192 28.2781Z" fill="#0D0D0D"/>
<path fill-rule="evenodd" clip-rule="evenodd" d="M10.2192 30.7321C10.2192 30.3672 10.5197 30.0714 10.8904 30.0714H28.9178C29.2885 30.0714 29.589 30.3672 29.589 30.7321C29.589 31.097 29.2885 31.3929 28.9178 31.3929H10.8904C10.5197 31.3929 10.2192 31.097 10.2192 30.7321Z" fill="#0D0D0D"/>
</svg>
