<svg width="40" height="40" viewBox="0 0 40 40" fill="none" xmlns="http://www.w3.org/2000/svg">
<path fill-rule="evenodd" clip-rule="evenodd" d="M21.8625 15.4351C21.6238 15.5769 21.4628 15.8031 21.3941 16.0565C21.3567 16.1949 21.2173 16.2758 21.0828 16.2372C20.9484 16.1987 20.8697 16.0553 20.9072 15.917C21.0099 15.5377 21.2519 15.1973 21.6098 14.9848C21.9676 14.7722 22.3752 14.7269 22.7458 14.825C22.881 14.8607 22.9624 15.0025 22.9276 15.1416C22.8928 15.2806 22.7551 15.3643 22.6199 15.3286C22.3722 15.263 22.1012 15.2933 21.8625 15.4351Z" fill="#116565"/>
<path d="M22.4605 15.9806C22.5303 16.105 22.4889 16.264 22.368 16.3358C22.2471 16.4076 22.0925 16.365 22.0227 16.2406C21.9529 16.1163 21.9944 15.9572 22.1153 15.8854C22.2361 15.8137 22.3907 15.8563 22.4605 15.9806Z" fill="#116565"/>
<path fill-rule="evenodd" clip-rule="evenodd" d="M21.357 14.5344C20.887 14.8136 20.5674 15.257 20.4267 15.7541C20.3877 15.892 20.2474 15.9712 20.1134 15.9311C19.9794 15.8909 19.9023 15.7466 19.9414 15.6088C20.117 14.9882 20.517 14.4329 21.1043 14.0841C21.6916 13.7353 22.359 13.6566 22.9693 13.8104C23.1049 13.8446 23.1878 13.9854 23.1546 14.1248C23.1214 14.2643 22.9846 14.3497 22.849 14.3155C22.3602 14.1923 21.8271 14.2553 21.357 14.5344Z" fill="#116565"/>
<path fill-rule="evenodd" clip-rule="evenodd" d="M20.3736 25.46C20.3736 26.3216 19.6946 27.02 18.8571 27.02H10.5165C9.67895 27.02 9 26.3216 9 25.46L9 8.56C9 7.69844 9.67895 7 10.5165 7L18.8571 7C19.6946 7 20.3736 7.69844 20.3736 8.56V12.07H19.8681V8.56C19.8681 7.98562 19.4155 7.52 18.8571 7.52L10.5165 7.52C9.95813 7.52 9.50549 7.98563 9.50549 8.56L9.50549 25.46C9.50549 26.0344 9.95813 26.5 10.5165 26.5H18.8571C19.4155 26.5 19.8681 26.0344 19.8681 25.46V21.95H20.3736V25.46Z" fill="#116565"/>
<path fill-rule="evenodd" clip-rule="evenodd" d="M28.6637 20.9404C29.1473 20.6532 29.313 20.0171 29.0338 19.5197L24.3269 11.1332C24.0478 10.6358 23.4294 10.4654 22.9459 10.7526L17.1893 14.1715C16.7058 14.4587 16.5401 15.0948 16.8193 15.5922L21.5261 23.9787C21.8053 24.4761 22.4236 24.6465 22.9072 24.3593L24.923 23.1621L25.1758 23.6124L23.1599 24.8097C22.4346 25.2404 21.5071 24.9848 21.0884 24.2387L16.3815 15.8522C15.9627 15.106 16.2112 14.152 16.9366 13.7212L22.6932 10.3022C23.4185 9.87145 24.3459 10.1271 24.7647 10.8732L29.4716 19.2597C29.8903 20.0059 29.6418 20.9599 28.9165 21.3907L27.4505 22.2614L27.1978 21.8111L28.6637 20.9404Z" fill="#116565"/>
<path fill-rule="evenodd" clip-rule="evenodd" d="M11.022 15.84H16.8351V16.36H10.7692C10.6296 16.36 10.5165 16.2436 10.5165 16.1L10.5165 9.86C10.5165 9.71641 10.6296 9.6 10.7692 9.6L18.6044 9.6C18.744 9.6 18.8571 9.71641 18.8571 9.86V12.98H18.3516V10.12L11.022 10.12L11.022 15.84Z" fill="#116565"/>
<path fill-rule="evenodd" clip-rule="evenodd" d="M25.6813 33C25.5417 33 25.4286 32.8836 25.4286 32.74V29.36C25.4286 29.2164 25.5417 29.1 25.6813 29.1H31.7473C31.8868 29.1 32 29.2164 32 29.36V32.74C32 32.8836 31.8868 33 31.7473 33H25.6813ZM25.9341 32.48H31.4945V29.62H25.9341V32.48Z" fill="#116565"/>
<path fill-rule="evenodd" clip-rule="evenodd" d="M10.7692 25.46C10.6296 25.46 10.5165 25.3436 10.5165 25.2L10.5165 23.64C10.5165 23.4964 10.6296 23.38 10.7692 23.38H12.2857C12.4253 23.38 12.5385 23.4964 12.5385 23.64V25.2C12.5385 25.3436 12.4253 25.46 12.2857 25.46H10.7692ZM11.022 24.94H12.033V23.9H11.022V24.94Z" fill="#116565"/>
<path fill-rule="evenodd" clip-rule="evenodd" d="M13.5494 25.46C13.4098 25.46 13.2967 25.3436 13.2967 25.2V23.64C13.2967 23.4964 13.4098 23.38 13.5494 23.38H15.0659C15.2055 23.38 15.3187 23.4964 15.3187 23.64V25.2C15.3187 25.3436 15.2055 25.46 15.0659 25.46H13.5494ZM13.8022 24.94H14.8132V23.9H13.8022V24.94Z" fill="#116565"/>
<path fill-rule="evenodd" clip-rule="evenodd" d="M16.3296 25.46C16.1901 25.46 16.0769 25.3436 16.0769 25.2V23.64C16.0769 23.4964 16.1901 23.38 16.3296 23.38H17.8461C17.9857 23.38 18.0989 23.4964 18.0989 23.64V25.2C18.0989 25.3436 17.9857 25.46 17.8461 25.46H16.3296ZM16.5824 24.94H17.5934V23.9H16.5824V24.94Z" fill="#116565"/>
<path fill-rule="evenodd" clip-rule="evenodd" d="M10.7692 22.6C10.6296 22.6 10.5165 22.4836 10.5165 22.34L10.5165 20.78C10.5165 20.6364 10.6296 20.52 10.7692 20.52H12.2857C12.4253 20.52 12.5385 20.6364 12.5385 20.78V22.34C12.5385 22.4836 12.4253 22.6 12.2857 22.6H10.7692ZM11.022 22.08H12.033V21.04H11.022V22.08Z" fill="#116565"/>
<path fill-rule="evenodd" clip-rule="evenodd" d="M13.5494 22.6C13.4098 22.6 13.2967 22.4836 13.2967 22.34V20.78C13.2967 20.6364 13.4098 20.52 13.5494 20.52H15.0659C15.2055 20.52 15.3187 20.6364 15.3187 20.78V22.34C15.3187 22.4836 15.2055 22.6 15.0659 22.6H13.5494ZM13.8022 22.08H14.8132V21.04H13.8022V22.08Z" fill="#116565"/>
<path fill-rule="evenodd" clip-rule="evenodd" d="M16.3296 22.6C16.1901 22.6 16.0769 22.4836 16.0769 22.34V20.78C16.0769 20.6364 16.1901 20.52 16.3296 20.52H17.8461C17.9857 20.52 18.0989 20.6364 18.0989 20.78V22.34C18.0989 22.4836 17.9857 22.6 17.8461 22.6H16.3296ZM16.5824 22.08H17.5934V21.04H16.5824V22.08Z" fill="#116565"/>
<path fill-rule="evenodd" clip-rule="evenodd" d="M10.7692 19.74C10.6296 19.74 10.5165 19.6236 10.5165 19.48L10.5165 17.92C10.5165 17.7764 10.6296 17.66 10.7692 17.66H12.2857C12.4253 17.66 12.5385 17.7764 12.5385 17.92V19.48C12.5385 19.6236 12.4253 19.74 12.2857 19.74H10.7692ZM11.022 19.22H12.033V18.18H11.022V19.22Z" fill="#116565"/>
<path fill-rule="evenodd" clip-rule="evenodd" d="M13.5494 19.74C13.4098 19.74 13.2967 19.6236 13.2967 19.48V17.92C13.2967 17.7764 13.4098 17.66 13.5494 17.66H15.0659C15.2055 17.66 15.3187 17.7764 15.3187 17.92V19.48C15.3187 19.6236 15.2055 19.74 15.0659 19.74H13.5494ZM13.8022 19.22H14.8132V18.18H13.8022V19.22Z" fill="#116565"/>
<path fill-rule="evenodd" clip-rule="evenodd" d="M26.9836 15.5719C26.9095 15.6935 26.9452 15.854 27.0635 15.9303L28.8243 17.0664L31.4945 21.7605V29.36C31.4945 29.5036 31.6077 29.62 31.7473 29.62C31.8868 29.62 32 29.5036 32 29.36V21.69C32 21.6438 31.9881 21.5985 31.9654 21.5587L29.2293 16.7487C29.2087 16.7125 29.18 16.682 29.1455 16.6597L27.332 15.4897C27.2138 15.4134 27.0578 15.4502 26.9836 15.5719Z" fill="#116565"/>
<path fill-rule="evenodd" clip-rule="evenodd" d="M24.9243 19.5825C25.0763 19.5844 25.2637 19.6624 25.4504 19.9024C25.9521 20.5475 26.7704 21.6806 27.4659 22.6563C27.8131 23.1433 28.1288 23.5898 28.3576 23.9145C28.4721 24.0769 28.5648 24.2088 28.6289 24.3001L28.7283 24.4418C28.7283 24.4418 28.7284 24.4419 28.9335 24.29C29.1386 24.1381 29.1386 24.1381 29.1386 24.1381L29.0387 23.9956C28.9744 23.9041 28.8815 23.7719 28.7669 23.6093C28.5376 23.284 28.2214 22.8367 27.8736 22.3488C27.179 21.3744 26.3545 20.2325 25.8451 19.5776C25.5852 19.2434 25.265 19.0667 24.9305 19.0625C24.5997 19.0584 24.3008 19.2235 24.0812 19.478C23.6421 19.9869 23.4875 20.8754 23.9018 21.799C24.2069 22.479 24.4137 22.8526 24.571 23.1366C24.6116 23.2101 24.649 23.2776 24.6839 23.3428C24.846 23.6461 24.9657 23.9187 25.1512 24.6184C25.239 24.9496 25.2694 25.2847 25.2971 25.6508C25.2992 25.6797 25.3014 25.7087 25.3036 25.738C25.3286 26.0742 25.3556 26.4362 25.4319 26.8131C25.6017 27.6514 26.0109 28.5452 27.1234 29.555C27.2281 29.65 27.3878 29.6397 27.4801 29.532C27.5725 29.4244 27.5625 29.2601 27.4578 29.1651C26.422 28.2249 26.0729 27.4286 25.9268 26.707C25.8574 26.3645 25.8328 26.0346 25.8073 25.6936C25.8052 25.666 25.8031 25.6383 25.801 25.6105C25.7734 25.2453 25.7406 24.8655 25.6389 24.4816C25.4452 23.7513 25.3121 23.4389 25.1268 23.0922C25.0893 23.0221 25.0502 22.9514 25.0083 22.8758C24.8516 22.5926 24.6561 22.2393 24.3608 21.581C24.0169 20.8146 24.1739 20.1539 24.4593 19.8232C24.602 19.6578 24.7685 19.5805 24.9243 19.5825ZM29.0812 24.501C29.1944 24.4171 29.2201 24.2546 29.1386 24.1381L28.9335 24.29L28.7283 24.4418C28.8098 24.5583 28.9679 24.5849 29.0812 24.501Z" fill="#116565"/>
<path fill-rule="evenodd" clip-rule="evenodd" d="M18.4921 31.9162C18.4219 31.9644 18.333 31.9734 18.255 31.9402L16.5192 31.2014L14.7834 31.9402C14.7216 31.9666 14.652 31.9666 14.5902 31.9402L12.8544 31.2014L11.1186 31.9402C11.0406 31.9734 10.9517 31.9644 10.8815 31.9162C10.8114 31.8679 10.7692 31.7868 10.7692 31.7L10.7692 27.02C10.7692 26.8764 10.8824 26.76 11.022 26.76L18.3516 26.76C18.4912 26.76 18.6044 26.8764 18.6044 27.02L18.6044 31.7C18.6044 31.7868 18.5622 31.8679 18.4921 31.9162ZM18.0989 31.311L18.0989 27.28L11.2747 27.28L11.2747 31.311L12.7577 30.6798C12.8196 30.6534 12.8891 30.6534 12.951 30.6798L14.6868 31.4186L16.4226 30.6798C16.4845 30.6534 16.554 30.6534 16.6158 30.6798L18.0989 31.311Z" fill="#116565"/>
<path d="M21.3941 16.0565L21.2494 16.0173L21.3941 16.0565ZM21.0828 16.2372L21.1242 16.093L21.0828 16.2372ZM20.9072 15.917L20.7624 15.8778L20.9072 15.917ZM22.7458 14.825L22.7075 14.97L22.7458 14.825ZM22.9276 15.1416L22.7821 15.1052L22.9276 15.1416ZM22.6199 15.3286L22.6583 15.1835L22.6199 15.3286ZM20.4267 15.7541L20.2824 15.7133L20.4267 15.7541ZM21.357 14.5344L21.2804 14.4055L21.357 14.5344ZM20.1134 15.9311L20.1564 15.7874L20.1134 15.9311ZM19.9414 15.6088L19.797 15.5679L19.9414 15.6088ZM21.1043 14.0841L21.1809 14.2131L21.1043 14.0841ZM22.9693 13.8104L22.9326 13.9559L22.9693 13.8104ZM23.1546 14.1248L23.0087 14.0901H23.0087L23.1546 14.1248ZM22.849 14.3155L22.8856 14.17H22.8856L22.849 14.3155ZM18.8571 27.02V27.17V27.02ZM20.3736 25.46H20.2236H20.3736ZM10.5165 27.02V26.87V27.02ZM9 25.46H8.85H9ZM9 8.56H9.15H9ZM10.5165 7V6.85V7ZM18.8571 7V7.15V7ZM20.3736 8.56H20.5236H20.3736ZM20.3736 12.07V12.22C20.4564 12.22 20.5236 12.1528 20.5236 12.07H20.3736ZM19.8681 12.07H19.7181C19.7181 12.1528 19.7853 12.22 19.8681 12.22V12.07ZM19.8681 8.56H20.0181H19.8681ZM18.8571 7.52V7.67V7.52ZM10.5165 7.52V7.37V7.52ZM9.50549 8.56H9.35549H9.50549ZM9.50549 25.46H9.65549H9.50549ZM10.5165 26.5V26.35V26.5ZM18.8571 26.5V26.65V26.5ZM19.8681 25.46H19.7181H19.8681ZM19.8681 21.95V21.8C19.7853 21.8 19.7181 21.8672 19.7181 21.95H19.8681ZM20.3736 21.95H20.5236C20.5236 21.8672 20.4564 21.8 20.3736 21.8V21.95ZM29.0338 19.5197L29.1646 19.4463L29.0338 19.5197ZM28.6637 20.9404L28.7403 21.0694L28.6637 20.9404ZM24.3269 11.1332L24.1961 11.2066L24.3269 11.1332ZM22.9459 10.7526L22.8693 10.6236L22.9459 10.7526ZM17.1893 14.1715L17.2659 14.3005L17.1893 14.1715ZM16.8193 15.5922L16.6885 15.6656L16.8193 15.5922ZM21.5261 23.9787L21.6569 23.9053L21.5261 23.9787ZM22.9072 24.3593L22.9838 24.4883L22.9072 24.3593ZM24.923 23.1621L25.0538 23.0887C25.0341 23.0534 25.0009 23.0276 24.9618 23.0172C24.9228 23.0067 24.8812 23.0125 24.8464 23.0331L24.923 23.1621ZM25.1758 23.6124L25.2524 23.7414C25.3224 23.6998 25.3464 23.61 25.3066 23.539L25.1758 23.6124ZM23.1599 24.8097L23.0833 24.6807L23.1599 24.8097ZM21.0884 24.2387L20.9576 24.3121L21.0884 24.2387ZM16.3815 15.8522L16.5123 15.7788L16.3815 15.8522ZM16.9366 13.7212L17.0132 13.8501L16.9366 13.7212ZM22.6932 10.3022L22.7697 10.4312L22.6932 10.3022ZM24.7647 10.8732L24.6339 10.9466L24.7647 10.8732ZM29.4716 19.2597L29.6024 19.1863L29.4716 19.2597ZM28.9165 21.3907L28.9931 21.5197V21.5197L28.9165 21.3907ZM27.4505 22.2614L27.3197 22.3348C27.3395 22.3701 27.3726 22.3958 27.4117 22.4063C27.4507 22.4168 27.4923 22.411 27.5271 22.3904L27.4505 22.2614ZM27.1978 21.8111L27.1212 21.6821C27.0512 21.7237 27.0271 21.8135 27.0669 21.8845L27.1978 21.8111ZM16.8351 15.84H16.9851C16.9851 15.7572 16.918 15.69 16.8351 15.69V15.84ZM11.022 15.84H10.872C10.872 15.9228 10.9391 15.99 11.022 15.99V15.84ZM16.8351 16.36V16.51C16.918 16.51 16.9851 16.4428 16.9851 16.36H16.8351ZM10.7692 16.36V16.21V16.36ZM10.5165 16.1H10.6665H10.5165ZM10.5165 9.86H10.3665H10.5165ZM10.7692 9.6V9.45V9.6ZM18.6044 9.6V9.75V9.6ZM18.8571 9.86H19.0071H18.8571ZM18.8571 12.98V13.13C18.94 13.13 19.0071 13.0628 19.0071 12.98H18.8571ZM18.3516 12.98H18.2016C18.2016 13.0628 18.2688 13.13 18.3516 13.13V12.98ZM18.3516 10.12H18.5016C18.5016 10.0802 18.4858 10.0421 18.4577 10.0139C18.4296 9.9858 18.3914 9.97 18.3516 9.97V10.12ZM11.022 10.12V9.97C10.9391 9.97 10.872 10.0372 10.872 10.12H11.022ZM25.4286 32.74H25.2786H25.4286ZM25.6813 33V32.85V33ZM25.4286 29.36H25.5786H25.4286ZM25.6813 29.1V28.95V29.1ZM31.7473 29.1V29.25V29.1ZM32 29.36H32.15H32ZM32 32.74H31.85H32ZM31.7473 33V33.15V33ZM31.4945 32.48V32.63C31.5774 32.63 31.6445 32.5628 31.6445 32.48H31.4945ZM25.9341 32.48H25.7841C25.7841 32.5628 25.8512 32.63 25.9341 32.63V32.48ZM31.4945 29.62H31.6445C31.6445 29.5372 31.5774 29.47 31.4945 29.47V29.62ZM25.9341 29.62V29.47C25.8512 29.47 25.7841 29.5372 25.7841 29.62H25.9341ZM10.5165 25.2H10.6665H10.5165ZM10.7692 25.46V25.31V25.46ZM10.5165 23.64H10.3665H10.5165ZM10.7692 23.38V23.23V23.38ZM12.2857 23.38V23.53V23.38ZM12.5385 23.64H12.6885H12.5385ZM12.5385 25.2H12.3885H12.5385ZM12.2857 25.46V25.61V25.46ZM12.033 24.94V25.09C12.1158 25.09 12.183 25.0228 12.183 24.94H12.033ZM11.022 24.94H10.872C10.872 25.0228 10.9391 25.09 11.022 25.09V24.94ZM12.033 23.9H12.183C12.183 23.8172 12.1158 23.75 12.033 23.75V23.9ZM11.022 23.9V23.75C10.9822 23.75 10.944 23.7658 10.9159 23.7939C10.8878 23.8221 10.872 23.8602 10.872 23.9H11.022ZM13.2967 25.2H13.1467H13.2967ZM13.5494 25.46V25.31V25.46ZM13.2967 23.64H13.4467H13.2967ZM13.5494 23.38V23.23V23.38ZM15.0659 23.38V23.53V23.38ZM15.3187 23.64H15.4687H15.3187ZM15.3187 25.2H15.1687H15.3187ZM15.0659 25.46V25.61V25.46ZM14.8132 24.94V25.09C14.896 25.09 14.9632 25.0228 14.9632 24.94H14.8132ZM13.8022 24.94H13.6522C13.6522 25.0228 13.7193 25.09 13.8022 25.09V24.94ZM14.8132 23.9H14.9632C14.9632 23.8172 14.896 23.75 14.8132 23.75V23.9ZM13.8022 23.9V23.75C13.7193 23.75 13.6522 23.8172 13.6522 23.9H13.8022ZM16.0769 25.2H15.9269H16.0769ZM16.3296 25.46V25.31V25.46ZM16.0769 23.64H16.2269H16.0769ZM16.3296 23.38V23.23V23.38ZM17.8461 23.38V23.53V23.38ZM18.0989 23.64H18.2489H18.0989ZM18.0989 25.2H17.9489H18.0989ZM17.8461 25.46V25.61V25.46ZM17.5934 24.94V25.09C17.6762 25.09 17.7434 25.0228 17.7434 24.94H17.5934ZM16.5824 24.94H16.4324C16.4324 25.0228 16.4996 25.09 16.5824 25.09V24.94ZM17.5934 23.9H17.7434C17.7434 23.8172 17.6762 23.75 17.5934 23.75V23.9ZM16.5824 23.9V23.75C16.4996 23.75 16.4324 23.8172 16.4324 23.9H16.5824ZM10.5165 22.34H10.6665H10.5165ZM10.7692 22.6V22.45V22.6ZM10.5165 20.78H10.3665H10.5165ZM10.7692 20.52V20.37V20.52ZM12.2857 20.52V20.67V20.52ZM12.5385 20.78H12.6885H12.5385ZM12.5385 22.34H12.3885H12.5385ZM12.2857 22.6V22.75V22.6ZM12.033 22.08V22.23C12.1158 22.23 12.183 22.1628 12.183 22.08H12.033ZM11.022 22.08H10.872C10.872 22.1628 10.9391 22.23 11.022 22.23V22.08ZM12.033 21.04H12.183C12.183 20.9572 12.1158 20.89 12.033 20.89V21.04ZM11.022 21.04V20.89C10.9822 20.89 10.944 20.9058 10.9159 20.9339C10.8878 20.9621 10.872 21.0002 10.872 21.04L11.022 21.04ZM13.2967 22.34H13.1467H13.2967ZM13.5494 22.6V22.45V22.6ZM13.2967 20.78H13.4467H13.2967ZM13.5494 20.52V20.37V20.52ZM15.0659 20.52V20.67V20.52ZM15.3187 20.78H15.4687H15.3187ZM15.3187 22.34H15.1687H15.3187ZM15.0659 22.6V22.75V22.6ZM14.8132 22.08V22.23C14.896 22.23 14.9632 22.1628 14.9632 22.08H14.8132ZM13.8022 22.08H13.6522C13.6522 22.1628 13.7193 22.23 13.8022 22.23V22.08ZM14.8132 21.04H14.9632C14.9632 20.9572 14.896 20.89 14.8132 20.89V21.04ZM13.8022 21.04V20.89C13.7193 20.89 13.6522 20.9572 13.6522 21.04H13.8022ZM16.0769 22.34H15.9269H16.0769ZM16.3296 22.6V22.45V22.6ZM16.0769 20.78H16.2269H16.0769ZM16.3296 20.52V20.37V20.52ZM17.8461 20.52V20.67V20.52ZM18.0989 20.78H18.2489H18.0989ZM18.0989 22.34H17.9489H18.0989ZM17.8461 22.6V22.75V22.6ZM17.5934 22.08V22.23C17.6762 22.23 17.7434 22.1628 17.7434 22.08H17.5934ZM16.5824 22.08H16.4324C16.4324 22.1628 16.4996 22.23 16.5824 22.23V22.08ZM17.5934 21.04H17.7434C17.7434 20.9572 17.6762 20.89 17.5934 20.89V21.04ZM16.5824 21.04V20.89C16.4996 20.89 16.4324 20.9572 16.4324 21.04H16.5824ZM10.5165 19.48H10.6665H10.5165ZM10.7692 19.74V19.59V19.74ZM10.5165 17.92H10.3665H10.5165ZM10.7692 17.66V17.51V17.66ZM12.2857 17.66V17.81V17.66ZM12.5385 17.92L12.6885 17.92L12.5385 17.92ZM12.5385 19.48H12.3885H12.5385ZM12.2857 19.74V19.89V19.74ZM12.033 19.22V19.37C12.1158 19.37 12.183 19.3028 12.183 19.22H12.033ZM11.022 19.22H10.872C10.872 19.3028 10.9391 19.37 11.022 19.37V19.22ZM12.033 18.18H12.183C12.183 18.0972 12.1158 18.03 12.033 18.03V18.18ZM11.022 18.18V18.03C10.9822 18.03 10.944 18.0458 10.9159 18.0739C10.8878 18.1021 10.872 18.1402 10.872 18.18H11.022ZM13.2967 19.48H13.1467H13.2967ZM13.5494 19.74V19.59V19.74ZM13.2967 17.92L13.4467 17.92L13.2967 17.92ZM13.5494 17.66V17.51V17.66ZM15.0659 17.66V17.81V17.66ZM15.3187 17.92L15.4687 17.92L15.3187 17.92ZM15.3187 19.48H15.1687H15.3187ZM15.0659 19.74V19.89V19.74ZM14.8132 19.22V19.37C14.896 19.37 14.9632 19.3028 14.9632 19.22H14.8132ZM13.8022 19.22H13.6522C13.6522 19.3028 13.7193 19.37 13.8022 19.37V19.22ZM14.8132 18.18H14.9632C14.9632 18.0972 14.896 18.03 14.8132 18.03V18.18ZM13.8022 18.18V18.03C13.7193 18.03 13.6522 18.0972 13.6522 18.18H13.8022ZM27.0635 15.9303L26.9821 16.0563L27.0635 15.9303ZM26.9836 15.5719L27.1117 15.6499V15.6499L26.9836 15.5719ZM28.8243 17.0664L28.9547 16.9922C28.9428 16.9712 28.926 16.9534 28.9057 16.9403L28.8243 17.0664ZM31.4945 21.7605H31.6445C31.6445 21.7345 31.6377 21.7089 31.6249 21.6863L31.4945 21.7605ZM31.9654 21.5587L32.0958 21.4845L31.9654 21.5587ZM29.2293 16.7487L29.3597 16.6745V16.6745L29.2293 16.7487ZM29.1455 16.6597L29.0641 16.7858L29.1455 16.6597ZM27.332 15.4897L27.4134 15.3637L27.332 15.4897ZM25.4504 19.9024L25.5688 19.8103L25.4504 19.9024ZM24.9243 19.5825L24.9224 19.7325L24.9243 19.5825ZM27.4659 22.6563L27.3438 22.7433L27.4659 22.6563ZM28.3576 23.9145L28.235 24.0009L28.3576 23.9145ZM28.6289 24.3001L28.7517 24.2139L28.7516 24.2139L28.6289 24.3001ZM29.1386 24.1381L29.2614 24.052L29.2614 24.0519L29.1386 24.1381ZM29.0387 23.9956L29.1615 23.9095L29.1614 23.9094L29.0387 23.9956ZM28.7669 23.6093L28.6443 23.6957L28.7669 23.6093ZM27.8736 22.3488L27.9957 22.2617L27.8736 22.3488ZM25.8451 19.5776L25.7267 19.6697L25.8451 19.5776ZM24.9305 19.0625L24.9324 18.9125L24.9305 19.0625ZM24.0812 19.478L23.9677 19.38L24.0812 19.478ZM23.9018 21.799L24.0387 21.7376L23.9018 21.799ZM24.571 23.1366L24.4397 23.2093L24.571 23.1366ZM24.6839 23.3428L24.5516 23.4135H24.5516L24.6839 23.3428ZM25.1512 24.6184L25.0062 24.6569L25.1512 24.6184ZM25.2971 25.6508L25.1475 25.6621L25.2971 25.6508ZM25.3036 25.738L25.4532 25.7269L25.3036 25.738ZM25.4319 26.8131L25.2849 26.8428L25.4319 26.8131ZM27.1234 29.555L27.2242 29.4439H27.2242L27.1234 29.555ZM27.4578 29.1651L27.357 29.2761L27.4578 29.1651ZM25.9268 26.707L25.7798 26.7368L25.9268 26.707ZM25.8073 25.6936L25.9568 25.6824L25.8073 25.6936ZM25.801 25.6105L25.6515 25.6218L25.801 25.6105ZM25.6389 24.4816L25.7839 24.4432L25.6389 24.4816ZM25.1268 23.0922L25.2591 23.0215L25.1268 23.0922ZM25.0083 22.8758L24.8771 22.9484L25.0083 22.8758ZM24.3608 21.581L24.2239 21.6424L24.3608 21.581ZM24.4593 19.8232L24.5728 19.9212V19.9212L24.4593 19.8232ZM29.0812 24.501L29.1704 24.6216L29.0812 24.501ZM18.255 31.9402L18.3137 31.8022L18.255 31.9402ZM18.4921 31.9162L18.4071 31.7926L18.4921 31.9162ZM16.5192 31.2014L16.578 31.0634C16.5404 31.0474 16.498 31.0474 16.4605 31.0634L16.5192 31.2014ZM14.7834 31.9402L14.7247 31.8022L14.7834 31.9402ZM14.5902 31.9402L14.5314 32.0783L14.5902 31.9402ZM12.8544 31.2014L12.9131 31.0634C12.8756 31.0474 12.8332 31.0474 12.7956 31.0634L12.8544 31.2014ZM11.1186 31.9402L11.0599 31.8022H11.0599L11.1186 31.9402ZM10.8815 31.9162L10.9665 31.7926L10.8815 31.9162ZM10.7692 31.7H10.6192H10.7692ZM10.7692 27.02H10.9192H10.7692ZM11.022 26.76L11.022 26.91L11.022 26.76ZM18.3516 26.76V26.61V26.76ZM18.6044 27.02H18.4544H18.6044ZM18.6044 31.7H18.7544H18.6044ZM18.0989 27.28H18.2489C18.2489 27.2402 18.2331 27.2021 18.2049 27.1739C18.1768 27.1458 18.1387 27.13 18.0989 27.13V27.28ZM18.0989 31.311L18.0401 31.449C18.0865 31.4688 18.1396 31.4639 18.1816 31.4362C18.2236 31.4084 18.2489 31.3614 18.2489 31.311H18.0989ZM11.2747 27.28V27.13C11.1919 27.13 11.1247 27.1972 11.1247 27.28H11.2747ZM11.2747 31.311H11.1247C11.1247 31.3614 11.15 31.4084 11.192 31.4362C11.234 31.4639 11.2871 31.4688 11.3335 31.4491L11.2747 31.311ZM12.7577 30.6798L12.8165 30.8178H12.8165L12.7577 30.6798ZM12.951 30.6798L12.8923 30.8178H12.8923L12.951 30.6798ZM14.6868 31.4186L14.628 31.5566C14.6656 31.5726 14.708 31.5726 14.7455 31.5566L14.6868 31.4186ZM16.4226 30.6798L16.4813 30.8178L16.4226 30.6798ZM16.6158 30.6798L16.5571 30.8178H16.5571L16.6158 30.6798ZM21.5389 16.0958C21.598 15.8777 21.736 15.6847 21.9391 15.5641L21.7859 15.3061C21.5117 15.469 21.3276 15.7286 21.2494 16.0173L21.5389 16.0958ZM21.0415 16.3814C21.2598 16.444 21.4805 16.3115 21.5389 16.0958L21.2494 16.0173C21.2329 16.0783 21.1748 16.1075 21.1242 16.093L21.0415 16.3814ZM20.7624 15.8778C20.7044 16.092 20.825 16.3194 21.0415 16.3814L21.1242 16.093C21.0717 16.078 21.0351 16.0186 21.052 15.9562L20.7624 15.8778ZM21.5332 14.8558C21.1397 15.0895 20.8747 15.4633 20.7624 15.8778L21.052 15.9562C21.1451 15.6122 21.3641 15.3051 21.6864 15.1137L21.5332 14.8558ZM22.7842 14.68C22.3761 14.5719 21.9268 14.622 21.5332 14.8558L21.6864 15.1137C22.0084 14.9225 22.3744 14.8818 22.7075 14.97L22.7842 14.68ZM23.0732 15.178C23.127 14.9626 23.002 14.7376 22.7842 14.68L22.7075 14.97C22.76 14.9839 22.7978 15.0423 22.7821 15.1052L23.0732 15.178ZM22.5815 15.4736C22.801 15.5317 23.0189 15.3947 23.0732 15.178L22.7821 15.1052C22.7668 15.1666 22.7091 15.197 22.6583 15.1835L22.5815 15.4736ZM21.9391 15.5641C22.142 15.4435 22.3714 15.418 22.5815 15.4736L22.6583 15.1835C22.373 15.108 22.0604 15.1431 21.7859 15.3061L21.9391 15.5641ZM22.3297 16.054C22.3606 16.1091 22.3406 16.1776 22.2914 16.2068L22.4446 16.4648C22.6371 16.3504 22.7 16.1009 22.5913 15.9072L22.3297 16.054ZM22.2914 16.2068C22.2448 16.2345 22.1831 16.2199 22.1535 16.1672L21.8919 16.314C22.002 16.5101 22.2495 16.5806 22.4446 16.4648L22.2914 16.2068ZM22.1535 16.1672C22.1227 16.1122 22.1426 16.0437 22.1919 16.0144L22.0387 15.7565C21.8461 15.8708 21.7832 16.1204 21.8919 16.314L22.1535 16.1672ZM22.1919 16.0144C22.2385 15.9867 22.3001 16.0014 22.3297 16.054L22.5913 15.9072C22.4813 15.7112 22.2338 15.6406 22.0387 15.7565L22.1919 16.0144ZM20.571 15.795C20.7019 15.3326 20.9986 14.9218 21.4336 14.6634L21.2804 14.4055C20.7754 14.7054 20.4329 15.1815 20.2824 15.7133L20.571 15.795ZM20.0704 16.0748C20.2879 16.1399 20.5102 16.0101 20.571 15.795L20.2824 15.7133C20.2652 15.7739 20.2069 15.8025 20.1564 15.7874L20.0704 16.0748ZM19.797 15.5679C19.7366 15.7815 19.8547 16.0102 20.0704 16.0748L20.1564 15.7874C20.1041 15.7717 20.0681 15.7118 20.0857 15.6496L19.797 15.5679ZM21.0277 13.9551C20.4053 14.3248 19.9825 14.9127 19.797 15.5679L20.0857 15.6496C20.2515 15.0637 20.6286 14.5411 21.1809 14.2131L21.0277 13.9551ZM23.006 13.665C22.3586 13.5018 21.6503 13.5854 21.0277 13.9551L21.1809 14.2131C21.733 13.8852 22.3595 13.8114 22.9326 13.9559L23.006 13.665ZM23.3005 14.1596C23.352 13.9437 23.2245 13.7201 23.006 13.665L22.9326 13.9559C22.9853 13.9691 23.0237 14.027 23.0087 14.0901L23.3005 14.1596ZM22.8123 14.4609C23.0325 14.5164 23.2488 14.3769 23.3005 14.1596L23.0087 14.0901C22.994 14.1517 22.9367 14.1829 22.8856 14.17L22.8123 14.4609ZM21.4336 14.6634C21.8684 14.4052 22.3607 14.3471 22.8123 14.4609L22.8856 14.17C22.3597 14.0374 21.7857 14.1054 21.2804 14.4055L21.4336 14.6634ZM18.8571 27.17C19.7815 27.17 20.5236 26.4004 20.5236 25.46H20.2236C20.2236 26.2428 19.6078 26.87 18.8571 26.87V27.17ZM10.5165 27.17H18.8571V26.87H10.5165V27.17ZM8.85 25.46C8.85 26.4004 9.59214 27.17 10.5165 27.17V26.87C9.76577 26.87 9.15 26.2428 9.15 25.46H8.85ZM8.85 8.56L8.85 25.46H9.15L9.15 8.56H8.85ZM10.5165 6.85C9.59214 6.85 8.85 7.61962 8.85 8.56H9.15C9.15 7.77725 9.76577 7.15 10.5165 7.15V6.85ZM18.8571 6.85L10.5165 6.85V7.15L18.8571 7.15V6.85ZM20.5236 8.56C20.5236 7.61962 19.7815 6.85 18.8571 6.85V7.15C19.6078 7.15 20.2236 7.77725 20.2236 8.56H20.5236ZM20.5236 12.07V8.56H20.2236V12.07H20.5236ZM19.8681 12.22H20.3736V11.92H19.8681V12.22ZM19.7181 8.56V12.07H20.0181V8.56H19.7181ZM18.8571 7.67C19.3287 7.67 19.7181 8.06444 19.7181 8.56H20.0181C20.0181 7.90681 19.5023 7.37 18.8571 7.37V7.67ZM10.5165 7.67L18.8571 7.67V7.37L10.5165 7.37V7.67ZM9.65549 8.56C9.65549 8.06444 10.0449 7.67 10.5165 7.67V7.37C9.87131 7.37 9.35549 7.90681 9.35549 8.56H9.65549ZM9.65549 25.46L9.65549 8.56H9.35549L9.35549 25.46H9.65549ZM10.5165 26.35C10.0449 26.35 9.65549 25.9556 9.65549 25.46H9.35549C9.35549 26.1132 9.87131 26.65 10.5165 26.65V26.35ZM18.8571 26.35H10.5165V26.65H18.8571V26.35ZM19.7181 25.46C19.7181 25.9556 19.3287 26.35 18.8571 26.35V26.65C19.5023 26.65 20.0181 26.1132 20.0181 25.46H19.7181ZM19.7181 21.95V25.46H20.0181V21.95H19.7181ZM20.3736 21.8H19.8681V22.1H20.3736V21.8ZM20.5236 25.46V21.95H20.2236V25.46H20.5236ZM28.903 19.5931C29.1433 20.0213 28.999 20.5668 28.5871 20.8114L28.7403 21.0694C29.2955 20.7396 29.4827 20.013 29.1646 19.4463L28.903 19.5931ZM24.1961 11.2066L28.903 19.5931L29.1646 19.4463L24.4577 11.0598L24.1961 11.2066ZM23.0225 10.8815C23.4318 10.6384 23.9572 10.7809 24.1961 11.2066L24.4577 11.0598C24.1383 10.4907 23.4271 10.2923 22.8693 10.6236L23.0225 10.8815ZM17.2659 14.3005L23.0225 10.8815L22.8693 10.6236L17.1127 14.0425L17.2659 14.3005ZM16.9501 15.5188C16.7098 15.0906 16.854 14.5451 17.2659 14.3005L17.1127 14.0425C16.5575 14.3723 16.3704 15.0989 16.6885 15.6656L16.9501 15.5188ZM21.6569 23.9053L16.9501 15.5188L16.6885 15.6656L21.3953 24.0521L21.6569 23.9053ZM22.8306 24.2304C22.4213 24.4735 21.8959 24.331 21.6569 23.9053L21.3953 24.0521C21.7147 24.6212 22.426 24.8196 22.9838 24.4883L22.8306 24.2304ZM24.8464 23.0331L22.8306 24.2304L22.9838 24.4883L24.9996 23.291L24.8464 23.0331ZM25.3066 23.539L25.0538 23.0887L24.7922 23.2355L25.045 23.6858L25.3066 23.539ZM23.2365 24.9386L25.2524 23.7414L25.0992 23.4834L23.0833 24.6807L23.2365 24.9386ZM20.9576 24.3121C21.4166 25.1299 22.4369 25.4135 23.2365 24.9386L23.0833 24.6807C22.4322 25.0674 21.5977 24.8397 21.2192 24.1653L20.9576 24.3121ZM16.2507 15.9256L20.9576 24.3121L21.2192 24.1653L16.5123 15.7788L16.2507 15.9256ZM16.86 13.5922C16.063 14.0655 15.793 15.1101 16.2507 15.9256L16.5123 15.7788C16.1324 15.1019 16.3595 14.2384 17.0132 13.8501L16.86 13.5922ZM22.6166 10.1733L16.86 13.5922L17.0132 13.8501L22.7697 10.4312L22.6166 10.1733ZM24.8955 10.7998C24.4365 9.982 23.4161 9.69839 22.6166 10.1733L22.7697 10.4312C23.4208 10.0445 24.2554 10.2722 24.6339 10.9466L24.8955 10.7998ZM29.6024 19.1863L24.8955 10.7998L24.6339 10.9466L29.3408 19.3331L29.6024 19.1863ZM28.9931 21.5197C29.7901 21.0464 30.06 20.0018 29.6024 19.1863L29.3408 19.3331C29.7206 20.01 29.4936 20.8735 28.8399 21.2618L28.9931 21.5197ZM27.5271 22.3904L28.9931 21.5197L28.8399 21.2618L27.3739 22.1324L27.5271 22.3904ZM27.0669 21.8845L27.3197 22.3348L27.5813 22.188L27.3286 21.7377L27.0669 21.8845ZM28.5871 20.8114L27.1212 21.6821L27.2744 21.94L28.7403 21.0694L28.5871 20.8114ZM16.8351 15.69H11.022V15.99H16.8351V15.69ZM16.9851 16.36V15.84H16.6851V16.36H16.9851ZM10.7692 16.51H16.8351V16.21H10.7692V16.51ZM10.3665 16.1C10.3665 16.3224 10.5428 16.51 10.7692 16.51V16.21C10.7165 16.21 10.6665 16.1648 10.6665 16.1H10.3665ZM10.3665 9.86L10.3665 16.1H10.6665L10.6665 9.86H10.3665ZM10.7692 9.45C10.5428 9.45 10.3665 9.63759 10.3665 9.86H10.6665C10.6665 9.79522 10.7165 9.75 10.7692 9.75V9.45ZM18.6044 9.45L10.7692 9.45V9.75L18.6044 9.75V9.45ZM19.0071 9.86C19.0071 9.63759 18.8308 9.45 18.6044 9.45V9.75C18.6571 9.75 18.7071 9.79522 18.7071 9.86H19.0071ZM19.0071 12.98V9.86H18.7071V12.98H19.0071ZM18.3516 13.13H18.8571V12.83H18.3516V13.13ZM18.2016 10.12V12.98H18.5016V10.12H18.2016ZM11.022 10.27L18.3516 10.27V9.97L11.022 9.97L11.022 10.27ZM11.172 15.84L11.172 10.12H10.872L10.872 15.84L11.172 15.84ZM25.2786 32.74C25.2786 32.9624 25.4549 33.15 25.6813 33.15V32.85C25.6286 32.85 25.5786 32.8048 25.5786 32.74H25.2786ZM25.2786 29.36V32.74H25.5786V29.36H25.2786ZM25.6813 28.95C25.4549 28.95 25.2786 29.1376 25.2786 29.36H25.5786C25.5786 29.2952 25.6286 29.25 25.6813 29.25V28.95ZM31.7473 28.95H25.6813V29.25H31.7473V28.95ZM32.15 29.36C32.15 29.1376 31.9737 28.95 31.7473 28.95V29.25C31.8 29.25 31.85 29.2952 31.85 29.36H32.15ZM32.15 32.74V29.36H31.85V32.74H32.15ZM31.7473 33.15C31.9737 33.15 32.15 32.9624 32.15 32.74H31.85C31.85 32.8048 31.8 32.85 31.7473 32.85V33.15ZM25.6813 33.15H31.7473V32.85H25.6813V33.15ZM31.4945 32.33H25.9341V32.63H31.4945V32.33ZM31.3445 29.62V32.48H31.6445V29.62H31.3445ZM25.9341 29.77H31.4945V29.47H25.9341V29.77ZM26.0841 32.48V29.62H25.7841V32.48H26.0841ZM10.3665 25.2C10.3665 25.4224 10.5428 25.61 10.7692 25.61V25.31C10.7165 25.31 10.6665 25.2648 10.6665 25.2H10.3665ZM10.3665 23.64L10.3665 25.2H10.6665L10.6665 23.64H10.3665ZM10.7692 23.23C10.5428 23.23 10.3665 23.4176 10.3665 23.64H10.6665C10.6665 23.5752 10.7165 23.53 10.7692 23.53V23.23ZM12.2857 23.23H10.7692V23.53H12.2857V23.23ZM12.6885 23.64C12.6885 23.4176 12.5121 23.23 12.2857 23.23V23.53C12.3385 23.53 12.3885 23.5752 12.3885 23.64H12.6885ZM12.6885 25.2V23.64H12.3885V25.2H12.6885ZM12.2857 25.61C12.5121 25.61 12.6885 25.4224 12.6885 25.2H12.3885C12.3885 25.2648 12.3385 25.31 12.2857 25.31V25.61ZM10.7692 25.61H12.2857V25.31H10.7692V25.61ZM12.033 24.79H11.022V25.09H12.033V24.79ZM11.883 23.9V24.94H12.183V23.9H11.883ZM11.022 24.05H12.033V23.75H11.022V24.05ZM11.172 24.94V23.9H10.872L10.872 24.94H11.172ZM13.1467 25.2C13.1467 25.4224 13.323 25.61 13.5494 25.61V25.31C13.4967 25.31 13.4467 25.2648 13.4467 25.2H13.1467ZM13.1467 23.64V25.2H13.4467V23.64H13.1467ZM13.5494 23.23C13.323 23.23 13.1467 23.4176 13.1467 23.64H13.4467C13.4467 23.5752 13.4967 23.53 13.5494 23.53V23.23ZM15.0659 23.23H13.5494V23.53H15.0659V23.23ZM15.4687 23.64C15.4687 23.4176 15.2923 23.23 15.0659 23.23V23.53C15.1187 23.53 15.1687 23.5752 15.1687 23.64H15.4687ZM15.4687 25.2V23.64H15.1687V25.2H15.4687ZM15.0659 25.61C15.2923 25.61 15.4687 25.4224 15.4687 25.2H15.1687C15.1687 25.2648 15.1187 25.31 15.0659 25.31V25.61ZM13.5494 25.61H15.0659V25.31H13.5494V25.61ZM14.8132 24.79H13.8022V25.09H14.8132V24.79ZM14.6632 23.9V24.94H14.9632V23.9H14.6632ZM13.8022 24.05H14.8132V23.75H13.8022V24.05ZM13.9522 24.94V23.9H13.6522V24.94H13.9522ZM15.9269 25.2C15.9269 25.4224 16.1032 25.61 16.3296 25.61V25.31C16.2769 25.31 16.2269 25.2648 16.2269 25.2H15.9269ZM15.9269 23.64V25.2H16.2269V23.64H15.9269ZM16.3296 23.23C16.1032 23.23 15.9269 23.4176 15.9269 23.64H16.2269C16.2269 23.5752 16.2769 23.53 16.3296 23.53V23.23ZM17.8461 23.23H16.3296V23.53H17.8461V23.23ZM18.2489 23.64C18.2489 23.4176 18.0725 23.23 17.8461 23.23V23.53C17.8989 23.53 17.9489 23.5752 17.9489 23.64H18.2489ZM18.2489 25.2V23.64H17.9489V25.2H18.2489ZM17.8461 25.61C18.0725 25.61 18.2489 25.4224 18.2489 25.2H17.9489C17.9489 25.2648 17.8989 25.31 17.8461 25.31V25.61ZM16.3296 25.61H17.8461V25.31H16.3296V25.61ZM17.5934 24.79H16.5824V25.09H17.5934V24.79ZM17.4434 23.9V24.94H17.7434V23.9H17.4434ZM16.5824 24.05H17.5934V23.75H16.5824V24.05ZM16.7324 24.94V23.9H16.4324V24.94H16.7324ZM10.3665 22.34C10.3665 22.5624 10.5428 22.75 10.7692 22.75V22.45C10.7165 22.45 10.6665 22.4048 10.6665 22.34H10.3665ZM10.3665 20.78L10.3665 22.34H10.6665L10.6665 20.78H10.3665ZM10.7692 20.37C10.5428 20.37 10.3665 20.5576 10.3665 20.78H10.6665C10.6665 20.7152 10.7165 20.67 10.7692 20.67V20.37ZM12.2857 20.37H10.7692V20.67H12.2857V20.37ZM12.6885 20.78C12.6885 20.5576 12.5121 20.37 12.2857 20.37V20.67C12.3385 20.67 12.3885 20.7152 12.3885 20.78H12.6885ZM12.6885 22.34V20.78H12.3885V22.34H12.6885ZM12.2857 22.75C12.5121 22.75 12.6885 22.5624 12.6885 22.34H12.3885C12.3885 22.4048 12.3385 22.45 12.2857 22.45V22.75ZM10.7692 22.75H12.2857V22.45H10.7692V22.75ZM12.033 21.93H11.022V22.23H12.033V21.93ZM11.883 21.04V22.08H12.183V21.04H11.883ZM11.022 21.19H12.033V20.89H11.022V21.19ZM11.172 22.08V21.04L10.872 21.04L10.872 22.08L11.172 22.08ZM13.1467 22.34C13.1467 22.5624 13.323 22.75 13.5494 22.75V22.45C13.4967 22.45 13.4467 22.4048 13.4467 22.34H13.1467ZM13.1467 20.78V22.34H13.4467V20.78H13.1467ZM13.5494 20.37C13.323 20.37 13.1467 20.5576 13.1467 20.78H13.4467C13.4467 20.7152 13.4967 20.67 13.5494 20.67V20.37ZM15.0659 20.37H13.5494V20.67H15.0659V20.37ZM15.4687 20.78C15.4687 20.5576 15.2923 20.37 15.0659 20.37V20.67C15.1187 20.67 15.1687 20.7152 15.1687 20.78H15.4687ZM15.4687 22.34V20.78H15.1687V22.34H15.4687ZM15.0659 22.75C15.2923 22.75 15.4687 22.5624 15.4687 22.34H15.1687C15.1687 22.4048 15.1187 22.45 15.0659 22.45V22.75ZM13.5494 22.75H15.0659V22.45H13.5494V22.75ZM14.8132 21.93H13.8022V22.23H14.8132V21.93ZM14.6632 21.04V22.08H14.9632V21.04H14.6632ZM13.8022 21.19H14.8132V20.89H13.8022V21.19ZM13.9522 22.08V21.04H13.6522V22.08H13.9522ZM15.9269 22.34C15.9269 22.5624 16.1032 22.75 16.3296 22.75V22.45C16.2769 22.45 16.2269 22.4048 16.2269 22.34H15.9269ZM15.9269 20.78V22.34H16.2269V20.78H15.9269ZM16.3296 20.37C16.1032 20.37 15.9269 20.5576 15.9269 20.78H16.2269C16.2269 20.7152 16.2769 20.67 16.3296 20.67V20.37ZM17.8461 20.37H16.3296V20.67H17.8461V20.37ZM18.2489 20.78C18.2489 20.5576 18.0725 20.37 17.8461 20.37V20.67C17.8989 20.67 17.9489 20.7152 17.9489 20.78H18.2489ZM18.2489 22.34V20.78H17.9489V22.34H18.2489ZM17.8461 22.75C18.0725 22.75 18.2489 22.5624 18.2489 22.34H17.9489C17.9489 22.4048 17.8989 22.45 17.8461 22.45V22.75ZM16.3296 22.75H17.8461V22.45H16.3296V22.75ZM17.5934 21.93H16.5824V22.23H17.5934V21.93ZM17.4434 21.04V22.08H17.7434V21.04H17.4434ZM16.5824 21.19H17.5934V20.89H16.5824V21.19ZM16.7324 22.08V21.04H16.4324V22.08H16.7324ZM10.3665 19.48C10.3665 19.7024 10.5428 19.89 10.7692 19.89V19.59C10.7165 19.59 10.6665 19.5448 10.6665 19.48H10.3665ZM10.3665 17.92L10.3665 19.48H10.6665L10.6665 17.92L10.3665 17.92ZM10.7692 17.51C10.5428 17.51 10.3665 17.6976 10.3665 17.92L10.6665 17.92C10.6665 17.8552 10.7165 17.81 10.7692 17.81V17.51ZM12.2857 17.51H10.7692V17.81H12.2857V17.51ZM12.6885 17.92C12.6885 17.6976 12.5121 17.51 12.2857 17.51V17.81C12.3385 17.81 12.3885 17.8552 12.3885 17.92L12.6885 17.92ZM12.6885 19.48V17.92H12.3885V19.48H12.6885ZM12.2857 19.89C12.5121 19.89 12.6885 19.7024 12.6885 19.48H12.3885C12.3885 19.5448 12.3385 19.59 12.2857 19.59V19.89ZM10.7692 19.89H12.2857V19.59H10.7692V19.89ZM12.033 19.07H11.022V19.37H12.033V19.07ZM11.883 18.18V19.22H12.183V18.18H11.883ZM11.022 18.33H12.033V18.03H11.022V18.33ZM11.172 19.22V18.18H10.872L10.872 19.22H11.172ZM13.1467 19.48C13.1467 19.7024 13.323 19.89 13.5494 19.89V19.59C13.4967 19.59 13.4467 19.5448 13.4467 19.48H13.1467ZM13.1467 17.92V19.48H13.4467V17.92H13.1467ZM13.5494 17.51C13.323 17.51 13.1467 17.6976 13.1467 17.92L13.4467 17.92C13.4467 17.8552 13.4967 17.81 13.5494 17.81V17.51ZM15.0659 17.51H13.5494V17.81H15.0659V17.51ZM15.4687 17.92C15.4687 17.6976 15.2923 17.51 15.0659 17.51V17.81C15.1187 17.81 15.1687 17.8552 15.1687 17.92L15.4687 17.92ZM15.4687 19.48V17.92H15.1687V19.48H15.4687ZM15.0659 19.89C15.2923 19.89 15.4687 19.7024 15.4687 19.48H15.1687C15.1687 19.5448 15.1187 19.59 15.0659 19.59V19.89ZM13.5494 19.89H15.0659V19.59H13.5494V19.89ZM14.8132 19.07H13.8022V19.37H14.8132V19.07ZM14.6632 18.18V19.22H14.9632V18.18H14.6632ZM13.8022 18.33H14.8132V18.03H13.8022V18.33ZM13.9522 19.22V18.18H13.6522V19.22H13.9522ZM27.1448 15.8042C27.0963 15.7729 27.079 15.7036 27.1117 15.6499L26.8556 15.4938C26.7399 15.6834 26.7941 15.935 26.9821 16.0563L27.1448 15.8042ZM28.9057 16.9403L27.1448 15.8042L26.9821 16.0563L28.743 17.1924L28.9057 16.9403ZM31.6249 21.6863L28.9547 16.9922L28.694 17.1405L31.3641 21.8346L31.6249 21.6863ZM31.6445 29.36V21.7605H31.3445V29.36H31.6445ZM31.7473 29.47C31.6945 29.47 31.6445 29.4248 31.6445 29.36H31.3445C31.3445 29.5824 31.5209 29.77 31.7473 29.77V29.47ZM31.85 29.36C31.85 29.4248 31.8 29.47 31.7473 29.47V29.77C31.9737 29.77 32.15 29.5824 32.15 29.36H31.85ZM31.85 21.69V29.36H32.15V21.69H31.85ZM31.835 21.6329C31.8447 21.6499 31.85 21.6697 31.85 21.69H32.15C32.15 21.618 32.1314 21.5471 32.0958 21.4845L31.835 21.6329ZM29.0989 16.8229L31.835 21.6329L32.0958 21.4845L29.3597 16.6745L29.0989 16.8229ZM29.0641 16.7858C29.0781 16.7948 29.0901 16.8074 29.0989 16.8229L29.3597 16.6745C29.3273 16.6177 29.2819 16.5692 29.2268 16.5337L29.0641 16.7858ZM27.2507 15.6158L29.0641 16.7858L29.2268 16.5337L27.4134 15.3637L27.2507 15.6158ZM27.1117 15.6499C27.1429 15.5988 27.2049 15.5862 27.2507 15.6158L27.4134 15.3637C27.2227 15.2407 26.9727 15.3017 26.8556 15.4938L27.1117 15.6499ZM25.5688 19.8103C25.3609 19.543 25.1339 19.4351 24.9262 19.4325L24.9224 19.7325C25.0188 19.7337 25.1665 19.7817 25.332 19.9945L25.5688 19.8103ZM27.5881 22.5692C26.8928 21.5939 26.0727 20.4583 25.5688 19.8103L25.332 19.9945C25.8314 20.6367 26.648 21.7674 27.3438 22.7433L27.5881 22.5692ZM28.4802 23.8281C28.2513 23.5032 27.9354 23.0565 27.5881 22.5692L27.3438 22.7433C27.6908 23.2301 28.0063 23.6763 28.235 24.0009L28.4802 23.8281ZM28.7516 24.2139C28.6875 24.1225 28.5947 23.9905 28.4802 23.8281L28.235 24.0009C28.3494 24.1632 28.442 24.295 28.5061 24.3862L28.7516 24.2139ZM28.8442 24.1695C28.7416 24.2454 28.6904 24.2833 28.6648 24.3022C28.652 24.3117 28.6457 24.3163 28.6427 24.3185C28.6411 24.3197 28.6408 24.32 28.641 24.3198C28.6411 24.3198 28.6413 24.3196 28.6417 24.3193C28.6419 24.3191 28.6428 24.3185 28.644 24.3177C28.6446 24.3173 28.6458 24.3165 28.6473 24.3155C28.6483 24.3149 28.6518 24.3127 28.6563 24.3102C28.6586 24.3089 28.663 24.3066 28.6688 24.3041C28.6734 24.3021 28.6857 24.297 28.7024 24.294C28.7195 24.2911 28.7554 24.2879 28.7947 24.3073C28.833 24.3262 28.8523 24.3574 28.8507 24.3551L28.6059 24.5285C28.6042 24.5262 28.6235 24.5573 28.6618 24.5763C28.7011 24.5957 28.737 24.5925 28.7541 24.5896C28.7708 24.5866 28.7832 24.5815 28.7878 24.5795C28.7935 24.577 28.7979 24.5747 28.8002 24.5734C28.8048 24.5709 28.8082 24.5687 28.8093 24.568C28.8108 24.5671 28.812 24.5663 28.8126 24.5659C28.8146 24.5645 28.8163 24.5633 28.8164 24.5632C28.8174 24.5625 28.8186 24.5616 28.8202 24.5604C28.8237 24.5579 28.8302 24.553 28.8431 24.5435C28.8688 24.5245 28.9202 24.4865 29.0228 24.4106L28.8442 24.1695ZM29.0152 24.2233C29.0172 24.2262 28.9971 24.2006 28.9907 24.1633C28.9837 24.1222 28.9953 24.0895 29.004 24.0718C29.012 24.0556 29.0211 24.0446 29.0246 24.0405C29.0289 24.0355 29.0327 24.0317 29.0346 24.0299C29.0385 24.0262 29.0417 24.0235 29.0426 24.0227C29.0439 24.0216 29.045 24.0208 29.0455 24.0204C29.0465 24.0196 29.0473 24.019 29.0475 24.0189C29.0478 24.0186 29.048 24.0185 29.048 24.0185C29.048 24.0185 29.0476 24.0188 29.0459 24.0201C29.0428 24.0224 29.0365 24.0271 29.0236 24.0366C28.998 24.0555 28.9468 24.0935 28.8442 24.1695L29.0228 24.4106C29.1253 24.3346 29.1766 24.2966 29.2022 24.2776C29.2151 24.2681 29.2215 24.2633 29.2248 24.2608C29.2264 24.2597 29.2275 24.2588 29.2283 24.2582C29.2285 24.2581 29.2289 24.2578 29.2293 24.2575C29.2296 24.2573 29.2304 24.2566 29.2315 24.2558C29.232 24.2554 29.2331 24.2545 29.2345 24.2534C29.2354 24.2526 29.2386 24.25 29.2425 24.2462C29.2444 24.2444 29.2482 24.2407 29.2525 24.2356C29.256 24.2315 29.2651 24.2205 29.2731 24.2043C29.2819 24.1866 29.2934 24.1539 29.2864 24.1128C29.2801 24.0755 29.2599 24.0499 29.262 24.0528L29.0152 24.2233ZM28.6443 23.6957C28.7588 23.8583 28.8517 23.9903 28.9159 24.0818L29.1614 23.9094C29.0971 23.8178 29.0042 23.6856 28.8895 23.5229L28.6443 23.6957ZM27.7514 22.4358C28.0991 22.9235 28.4151 23.3706 28.6443 23.6957L28.8895 23.5229C28.6601 23.1975 28.3438 22.75 27.9957 22.2617L27.7514 22.4358ZM25.7267 19.6697C26.2338 20.3218 27.0566 21.4611 27.7514 22.4358L27.9957 22.2617C27.3014 21.2877 26.4751 20.1433 25.9635 19.4855L25.7267 19.6697ZM24.9286 19.2125C25.2071 19.216 25.4878 19.3624 25.7267 19.6697L25.9635 19.4855C25.6827 19.1244 25.3229 18.9174 24.9324 18.9125L24.9286 19.2125ZM24.1948 19.5759C24.3922 19.3471 24.6516 19.209 24.9286 19.2125L24.9324 18.9125C24.5479 18.9077 24.2094 19.0999 23.9677 19.38L24.1948 19.5759ZM24.0387 21.7376C23.644 20.8579 23.7999 20.0336 24.1948 19.5759L23.9677 19.38C23.4843 19.9402 23.3309 20.8929 23.7649 21.8604L24.0387 21.7376ZM24.7022 23.064C24.546 22.7818 24.3414 22.4123 24.0387 21.7376L23.7649 21.8604C24.0725 22.5458 24.2815 22.9234 24.4397 23.2093L24.7022 23.064ZM24.8161 23.2721C24.7807 23.2057 24.7428 23.1372 24.7022 23.064L24.4397 23.2093C24.4805 23.283 24.5173 23.3494 24.5516 23.4135L24.8161 23.2721ZM25.2962 24.58C25.1084 23.8717 24.9849 23.5878 24.8161 23.2721L24.5516 23.4135C24.7072 23.7045 24.823 23.9658 25.0062 24.6569L25.2962 24.58ZM25.4466 25.6395C25.419 25.2737 25.3879 24.926 25.2962 24.58L25.0062 24.6569C25.09 24.9731 25.1198 25.2957 25.1475 25.6621L25.4466 25.6395ZM25.4532 25.7269C25.451 25.6976 25.4488 25.6685 25.4466 25.6395L25.1475 25.6621C25.1497 25.6909 25.1518 25.7199 25.154 25.7492L25.4532 25.7269ZM25.5789 26.7833C25.5048 26.417 25.4783 26.064 25.4532 25.7269L25.154 25.7492C25.179 26.0843 25.2064 26.4554 25.2849 26.8428L25.5789 26.7833ZM27.2242 29.4439C26.1343 28.4546 25.7421 27.5889 25.5789 26.7833L25.2849 26.8428C25.4613 27.714 25.8875 28.6358 27.0226 29.6661L27.2242 29.4439ZM27.3663 29.4344C27.3286 29.4783 27.2659 29.4818 27.2242 29.4439L27.0226 29.6661C27.1902 29.8182 27.447 29.8011 27.594 29.6297L27.3663 29.4344ZM27.357 29.2761C27.4012 29.3162 27.4061 29.388 27.3663 29.4344L27.594 29.6297C27.7389 29.4608 27.7238 29.2039 27.5587 29.054L27.357 29.2761ZM25.7798 26.7368C25.9326 27.4912 26.2986 28.3155 27.357 29.2761L27.5587 29.054C26.5454 28.1343 26.2133 27.3661 26.0738 26.6772L25.7798 26.7368ZM25.6577 25.7048C25.6831 26.0446 25.7083 26.3836 25.7798 26.7368L26.0738 26.6772C26.0066 26.3453 25.9824 26.0247 25.9568 25.6824L25.6577 25.7048ZM25.6515 25.6218C25.6535 25.6495 25.6556 25.6771 25.6577 25.7048L25.9568 25.6824C25.9548 25.6548 25.9527 25.627 25.9506 25.5992L25.6515 25.6218ZM25.4939 24.52C25.5917 24.8891 25.6238 25.2564 25.6515 25.6218L25.9506 25.5992C25.923 25.2343 25.8896 24.8419 25.7839 24.4432L25.4939 24.52ZM24.9945 23.1629C25.1732 23.4972 25.3025 23.7983 25.4939 24.52L25.7839 24.4432C25.588 23.7042 25.451 23.3805 25.2591 23.0215L24.9945 23.1629ZM24.8771 22.9484C24.9191 23.0243 24.9576 23.0939 24.9945 23.1629L25.2591 23.0215C25.221 22.9502 25.1813 22.8786 25.1396 22.8032L24.8771 22.9484ZM24.2239 21.6424C24.5216 22.306 24.7193 22.6634 24.8771 22.9484L25.1396 22.8032C24.9839 22.5218 24.7906 22.1725 24.4976 21.5196L24.2239 21.6424ZM24.3457 19.7252C24.0163 20.1069 23.8602 20.8317 24.2239 21.6424L24.4976 21.5196C24.1736 20.7974 24.3315 20.2008 24.5728 19.9212L24.3457 19.7252ZM24.9262 19.4325C24.717 19.4299 24.5108 19.5338 24.3457 19.7252L24.5728 19.9212C24.6931 19.7818 24.82 19.7312 24.9224 19.7325L24.9262 19.4325ZM29.0157 24.2241C29.0513 24.275 29.0388 24.3457 28.9919 24.3805L29.1704 24.6216C29.35 24.4885 29.3889 24.2341 29.2614 24.052L29.0157 24.2241ZM29.0228 24.4105L29.2279 24.2586L29.0493 24.0175L28.8442 24.1695L29.0228 24.4105ZM28.8175 24.5624L29.0227 24.4106L28.8443 24.1694L28.6391 24.3212L28.8175 24.5624ZM28.9919 24.3805C28.9476 24.4133 28.8851 24.4044 28.8512 24.3558L28.6054 24.5278C28.7345 24.7123 28.9881 24.7566 29.1704 24.6216L28.9919 24.3805ZM28.8511 24.3557L28.7517 24.2139L28.5061 24.3862L28.6055 24.5279L28.8511 24.3557ZM28.9158 24.0817L29.0157 24.2242L29.2614 24.0519L29.1615 23.9095L28.9158 24.0817ZM18.1962 32.0783C18.3217 32.1317 18.4649 32.1169 18.5771 32.0398L18.4071 31.7926C18.379 31.8119 18.3442 31.8152 18.3137 31.8022L18.1962 32.0783ZM16.4605 31.3394L18.1962 32.0783L18.3137 31.8022L16.578 31.0634L16.4605 31.3394ZM14.8422 32.0783L16.578 31.3394L16.4605 31.0634L14.7247 31.8022L14.8422 32.0783ZM14.5314 32.0783C14.6308 32.1206 14.7428 32.1206 14.8422 32.0783L14.7247 31.8022C14.7003 31.8126 14.6733 31.8126 14.6489 31.8022L14.5314 32.0783ZM12.7956 31.3394L14.5314 32.0783L14.6489 31.8022L12.9131 31.0634L12.7956 31.3394ZM11.1774 32.0783L12.9131 31.3394L12.7956 31.0634L11.0599 31.8022L11.1774 32.0783ZM10.7965 32.0398C10.9087 32.1169 11.0519 32.1317 11.1774 32.0783L11.0599 31.8022C11.0294 31.8152 10.9946 31.8119 10.9665 31.7926L10.7965 32.0398ZM10.6192 31.7C10.6192 31.8351 10.6847 31.9629 10.7965 32.0398L10.9665 31.7926C10.938 31.7729 10.9192 31.7386 10.9192 31.7H10.6192ZM10.6192 27.02L10.6192 31.7H10.9192L10.9192 27.02H10.6192ZM11.022 26.61C10.7956 26.61 10.6192 26.7976 10.6192 27.02H10.9192C10.9192 26.9552 10.9692 26.91 11.022 26.91L11.022 26.61ZM18.3516 26.61L11.022 26.61L11.022 26.91L18.3516 26.91V26.61ZM18.7544 27.02C18.7544 26.7976 18.578 26.61 18.3516 26.61V26.91C18.4044 26.91 18.4544 26.9552 18.4544 27.02H18.7544ZM18.7544 31.7L18.7544 27.02H18.4544L18.4544 31.7H18.7544ZM18.5771 32.0398C18.6889 31.9629 18.7544 31.8351 18.7544 31.7H18.4544C18.4544 31.7386 18.4356 31.7729 18.4071 31.7926L18.5771 32.0398ZM17.9489 27.28L17.9489 31.311H18.2489L18.2489 27.28H17.9489ZM11.2747 27.43L18.0989 27.43V27.13L11.2747 27.13V27.43ZM11.4247 31.311L11.4247 27.28H11.1247L11.1247 31.311H11.4247ZM12.699 30.5417L11.216 31.173L11.3335 31.4491L12.8165 30.8178L12.699 30.5417ZM13.0098 30.5417C12.9104 30.4994 12.7984 30.4994 12.699 30.5417L12.8165 30.8178C12.8408 30.8074 12.8679 30.8074 12.8923 30.8178L13.0098 30.5417ZM14.7455 31.2806L13.0098 30.5417L12.8923 30.8178L14.628 31.5566L14.7455 31.2806ZM16.3638 30.5417L14.628 31.2806L14.7455 31.5566L16.4813 30.8178L16.3638 30.5417ZM16.6746 30.5417C16.5752 30.4994 16.4632 30.4994 16.3638 30.5417L16.4813 30.8178C16.5057 30.8074 16.5328 30.8074 16.5571 30.8178L16.6746 30.5417ZM18.1576 31.173L16.6746 30.5417L16.5571 30.8178L18.0401 31.449L18.1576 31.173Z" fill="#116565"/>
</svg>
