<svg width="40" height="40" viewBox="0 0 40 40" fill="none" xmlns="http://www.w3.org/2000/svg">
<path fill-rule="evenodd" clip-rule="evenodd" d="M3.21891 23.6385V24.3142C3.21891 26.4599 5.01199 28.1993 7.22388 28.1993H31.7761C33.988 28.1993 35.7811 26.4599 35.7811 24.3142V23.6385H3.21891ZM2.69652 22.4561C2.31184 22.4561 2 22.7586 2 23.1318V24.3142C2 27.1129 4.33881 29.3818 7.22388 29.3818H31.7761C34.6612 29.3818 37 27.1129 37 24.3142V23.1318C37 22.7586 36.6882 22.4561 36.3035 22.4561H2.69652Z" fill="black"/>
<path fill-rule="evenodd" clip-rule="evenodd" d="M5.22139 28.875C5.22139 28.5485 5.49425 28.2838 5.83085 28.2838H32.6468C32.9834 28.2838 33.2562 28.5485 33.2562 28.875V31.4088C33.2562 31.7353 32.9834 32 32.6468 32H5.83085C5.49425 32 5.22139 31.7353 5.22139 31.4088V28.875ZM6.4403 29.4662V30.8176H32.0373V29.4662H6.4403Z" fill="black"/>
<path fill-rule="evenodd" clip-rule="evenodd" d="M22.2563 17.4838C21.8225 19.2438 21.7645 21.44 21.8498 22.9301C21.8685 23.2561 21.6112 23.535 21.2751 23.5532C20.939 23.5713 20.6514 23.3217 20.6328 22.9956C20.544 21.4451 20.5991 19.1228 21.0708 17.2088C21.3054 16.2569 21.6567 15.3475 22.1924 14.6871C22.7486 14.0013 23.5289 13.563 24.5331 13.6763C25.5041 13.7858 26.2075 14.3301 26.6902 15.0572C27.1625 15.7686 27.4413 16.6758 27.6017 17.6079C27.9232 19.4762 27.7992 21.6319 27.5909 23.0465C27.5433 23.3697 27.2346 23.5943 26.9014 23.5481C26.5682 23.5019 26.3366 23.2025 26.3842 22.8792C26.5822 21.5348 26.6933 19.5098 26.3995 17.8026C26.2522 16.947 26.0109 16.2178 25.6655 15.6974C25.3305 15.1928 24.9188 14.9102 24.3923 14.8508C23.8989 14.7951 23.506 14.9797 23.1503 15.4183C22.7739 15.8822 22.4744 16.5987 22.2563 17.4838ZM24.9072 15.6223C25.2396 15.6739 25.4659 15.9771 25.4127 16.2995C25.2843 17.0781 25.4075 17.8622 25.5517 18.7794C25.5819 18.9717 25.613 19.1698 25.6429 19.3749C25.8095 20.5166 25.9165 21.8025 25.3808 23.1725C25.2614 23.4778 24.9095 23.6314 24.5948 23.5156C24.2801 23.3998 24.1217 23.0585 24.2411 22.7532C24.6631 21.6739 24.596 20.6371 24.436 19.5406C24.411 19.3687 24.3829 19.1928 24.3543 19.0137C24.2077 18.0945 24.0477 17.0916 24.2091 16.1127C24.2623 15.7903 24.5749 15.5707 24.9072 15.6223Z" fill="black"/>
<path fill-rule="evenodd" clip-rule="evenodd" d="M29.9869 16.1385C29.1377 16.9623 28.3445 18.1878 27.6989 19.3569C27.54 19.6447 27.1706 19.753 26.8739 19.5989C26.5772 19.4447 26.4655 19.0863 26.6245 18.7985C27.2848 17.6027 28.1459 16.2522 29.125 15.3024C30.0809 14.3752 31.349 13.6517 32.7156 14.2281C33.457 14.5408 33.8447 15.2065 34.0382 15.9098C34.2321 16.6142 34.2616 17.4543 34.213 18.2978C34.1159 19.9814 33.6941 21.855 33.4202 23.0717L33.4163 23.089C33.3445 23.408 33.0197 23.6101 32.6909 23.5404C32.362 23.4708 32.1537 23.1557 32.2255 22.8367C32.5031 21.6035 32.9048 19.813 32.996 18.2318C33.0417 17.4389 33.0059 16.7429 32.8606 16.2147C32.7149 15.6854 32.4895 15.4221 32.2296 15.3125C31.5938 15.0443 30.8594 15.2921 29.9869 16.1385ZM29.8383 20.6317C29.3374 21.4122 28.9252 22.4328 28.7019 23.1367C28.6029 23.4488 28.2619 23.6239 27.9402 23.5279C27.6185 23.4319 27.4379 23.1011 27.5369 22.789C27.778 22.0289 28.2277 20.9042 28.8035 20.0068C29.0893 19.5615 29.4314 19.1317 29.8275 18.8381C30.2307 18.5392 30.7627 18.334 31.3502 18.5139C31.9072 18.6846 32.1128 19.1564 32.17 19.5473C32.2255 19.9267 32.1708 20.3636 32.0919 20.7658C32.0108 21.179 31.8905 21.618 31.7795 22.0167C31.7708 22.0482 31.7621 22.0794 31.7535 22.1102C31.6499 22.4817 31.5588 22.8087 31.5031 23.0788C31.4371 23.399 31.116 23.6066 30.7859 23.5426C30.4559 23.4785 30.2418 23.1671 30.3079 22.8469C30.372 22.5357 30.4741 22.1699 30.5742 21.811C30.5837 21.7767 30.5933 21.7425 30.6028 21.7084C30.7149 21.3057 30.8232 20.9077 30.8945 20.5446C30.9679 20.1706 30.9893 19.8921 30.9632 19.7134C30.9577 19.6754 30.9516 19.6497 30.9465 19.633C30.8703 19.6213 30.7544 19.6391 30.5676 19.7776C30.3408 19.9457 30.0909 20.2381 29.8383 20.6317ZM30.9345 19.6059C30.9348 19.6053 30.937 19.6078 30.9403 19.6155C30.9359 19.6104 30.9343 19.6066 30.9345 19.6059Z" fill="black"/>
<path fill-rule="evenodd" clip-rule="evenodd" d="M14.6679 16.4633C13.9904 16.4 13.6174 16.5705 13.4133 16.9199C13.0073 17.615 13.2569 18.6191 14.039 19.7911C14.7886 20.9145 15.8848 21.9684 16.6654 22.5905C16.9255 22.7977 16.9632 23.1703 16.7495 23.4226C16.5359 23.6749 16.1518 23.7114 15.8918 23.5042C15.0472 22.8311 13.8536 21.6892 13.0157 20.4336C12.2103 19.2266 11.5748 17.6688 12.3528 16.3369C12.8888 15.4194 13.8544 15.1993 14.7849 15.2864C15.702 15.3722 16.7213 15.757 17.6542 16.2176C18.5981 16.6837 19.5051 17.2534 20.2101 17.7551C20.563 18.0063 20.8706 18.2441 21.1107 18.4477C21.3327 18.636 21.5458 18.8351 21.6613 19.0031C21.848 19.2748 21.7724 19.6419 21.4923 19.823C21.2122 20.0041 20.8338 19.9307 20.6471 19.659C20.6474 19.6594 20.6476 19.6597 20.6476 19.6597C20.6476 19.6597 20.6417 19.6518 20.6268 19.635C20.6105 19.6165 20.5876 19.5923 20.5571 19.5623C20.4958 19.5019 20.4129 19.4265 20.3084 19.3379C20.0999 19.1611 19.8205 18.9443 19.4891 18.7085C18.8256 18.2363 17.9749 17.7028 17.1013 17.2714C16.2168 16.8347 15.3588 16.528 14.6679 16.4633ZM14.4389 16.8597C14.7399 16.7137 15.106 16.8321 15.2566 17.1241C15.5401 17.6743 16.0751 17.9601 16.9615 18.3628C17.0024 18.3814 17.0438 18.4001 17.0857 18.4191C17.9123 18.7933 18.9392 19.2581 19.8543 20.1902C20.0864 20.4267 20.077 20.8009 19.8332 21.0261C19.5895 21.2513 19.2037 21.2422 18.9716 21.0057C18.2183 20.2384 17.3771 19.8568 16.5337 19.4741C16.504 19.4606 16.4743 19.4471 16.4446 19.4336C15.6115 19.0551 14.6663 18.623 14.1663 17.6529C14.0158 17.3609 14.1378 17.0057 14.4389 16.8597Z" fill="black"/>
<path fill-rule="evenodd" clip-rule="evenodd" d="M18.8204 13.1054C17.7884 13.6445 17.1066 14.9836 17.396 16.2468C17.469 16.5655 17.2618 16.8813 16.9332 16.9521C16.6047 17.023 16.2791 16.822 16.2061 16.5033C15.7989 14.7259 16.7278 12.8555 18.2425 12.0643C19.0195 11.6585 19.9503 11.5382 20.9072 11.8616C21.8537 12.1815 22.7665 12.9142 23.5783 14.1066C23.7637 14.3791 23.6864 14.7459 23.4055 14.9258C23.1247 15.1057 22.7466 15.0307 22.5611 14.7582C21.8492 13.7125 21.1296 13.1889 20.5062 12.9782C19.8932 12.7711 19.3167 12.8462 18.8204 13.1054Z" fill="black"/>
<path fill-rule="evenodd" clip-rule="evenodd" d="M19.6564 16.2149C19.6624 16.7061 19.7687 17.2293 19.967 17.6489C20.1072 17.9457 19.9729 18.2967 19.6669 18.4327C19.3609 18.5688 18.9992 18.4384 18.8589 18.1416C18.5783 17.5477 18.4452 16.8568 18.4376 16.2289C18.4302 15.6191 18.5403 14.9699 18.8475 14.5114C19.0078 14.2722 19.2503 14.0451 19.594 13.9534C19.9436 13.8602 20.2915 13.9352 20.5993 14.0986C21.1771 14.4053 21.764 15.0992 22.3825 16.1706C22.547 16.4555 22.4422 16.8157 22.1486 16.9753C21.8549 17.1348 21.4835 17.0332 21.319 16.7483C20.7186 15.7083 20.2717 15.2725 20.0142 15.1358C19.9656 15.11 19.9345 15.1005 19.9179 15.0971C19.9079 15.106 19.8912 15.1234 19.8695 15.1558C19.7523 15.3308 19.6502 15.7056 19.6564 16.2149ZM19.9287 15.0892C19.9287 15.0892 19.9281 15.0896 19.9268 15.0902C19.928 15.0894 19.9287 15.0892 19.9287 15.0892ZM19.9071 15.0955C19.9043 15.0958 19.9028 15.0956 19.9028 15.0956C19.9028 15.0956 19.9041 15.0953 19.9071 15.0955Z" fill="black"/>
<path fill-rule="evenodd" clip-rule="evenodd" d="M12.9238 7.08619C13.1412 7.0701 13.3509 7.16789 13.4737 7.34264C14.196 8.3704 14.6302 9.7098 14.8769 11.113C15.1249 12.5238 15.1909 14.0428 15.1465 15.4639C15.1363 15.7902 14.8553 16.0468 14.5189 16.0369C14.1824 16.027 13.9179 15.7544 13.9281 15.4281C13.9708 14.062 13.9062 12.6249 13.6753 11.3118C13.5325 10.4995 13.3289 9.75091 13.0574 9.10174C12.44 11.0553 12.1812 13.9271 13.1958 16.6829C13.309 16.9904 13.1438 17.3287 12.8268 17.4385C12.5099 17.5484 12.1611 17.3881 12.0479 17.0806C10.6797 13.3641 11.403 9.48407 12.4203 7.42061C12.5144 7.22981 12.7064 7.10228 12.9238 7.08619Z" fill="black"/>
<path fill-rule="evenodd" clip-rule="evenodd" d="M7.51284 15.4815C7.26308 15.395 6.97785 15.3892 6.61618 15.557C5.88267 15.8973 5.511 16.5926 5.41528 17.8846C5.32656 19.0822 5.48904 20.614 5.68712 22.4814C5.70473 22.6474 5.72262 22.816 5.74063 22.9873C5.7748 23.3121 5.53105 23.6023 5.1962 23.6354C4.86134 23.6686 4.56219 23.4321 4.52802 23.1073C4.50903 22.9267 4.49 22.7478 4.47115 22.5706C4.27701 20.7458 4.10267 19.107 4.19951 17.7998C4.30666 16.3537 4.7621 15.1065 6.09029 14.4903C6.72986 14.1936 7.35155 14.1702 7.92256 14.3679C8.47078 14.5577 8.92106 14.9331 9.28627 15.3461C9.98889 16.1406 10.5141 17.2389 10.8808 18.0055C10.891 18.0268 10.9011 18.0478 10.911 18.0686C11.0527 18.3647 10.9202 18.7163 10.6149 18.8538C10.3096 18.9913 9.94718 18.8627 9.80544 18.5665C9.41867 17.7584 8.95221 16.7844 8.36112 16.1159C8.06972 15.7864 7.78539 15.5758 7.51284 15.4815ZM7.6046 16.1331C7.93465 16.1971 8.1487 16.5086 8.08269 16.8288C8.03118 17.0786 8.10493 17.4284 8.2658 17.8654C8.31959 18.0115 8.37477 18.1468 8.43045 18.2833C8.45569 18.3452 8.48103 18.4074 8.5064 18.4709C8.57839 18.6512 8.6621 18.8694 8.69569 19.065C8.75102 19.3871 8.52673 19.6917 8.19472 19.7453C7.86271 19.799 7.5487 19.5814 7.49337 19.2594C7.48343 19.2015 7.44742 19.0925 7.36977 18.898C7.35041 18.8495 7.32863 18.796 7.30541 18.7391C7.24671 18.5951 7.17887 18.4286 7.11791 18.263C6.95229 17.8132 6.76484 17.1916 6.88746 16.5969C6.95347 16.2767 7.27454 16.0691 7.6046 16.1331Z" fill="black"/>
<path fill-rule="evenodd" clip-rule="evenodd" d="M10.4874 17.8215C11.3184 17.7655 12.1859 17.8551 12.9076 18.0965C13.2258 18.2029 13.3948 18.5395 13.2851 18.8481C13.1754 19.1568 12.8285 19.3208 12.5103 19.2143C11.9696 19.0335 11.2699 18.9541 10.5718 19.0011C9.86989 19.0483 9.22971 19.2191 8.78482 19.4857C8.35383 19.7439 8.15327 20.0552 8.15167 20.4275C8.14989 20.8431 8.39186 21.491 9.24157 22.3957C9.46826 22.6371 9.45033 23.011 9.20153 23.2309C8.95272 23.4508 8.56725 23.4334 8.34056 23.1921C7.40545 22.1964 6.92913 21.2713 6.93278 20.4226C6.93661 19.5308 7.46522 18.8866 8.14429 18.4797C8.80947 18.0811 9.66026 17.8772 10.4874 17.8215Z" fill="black"/>
<path fill-rule="evenodd" clip-rule="evenodd" d="M9.05781 20.0313C9.23621 19.7544 9.61221 19.6702 9.89764 19.8433C10.4187 20.1592 11.1344 20.1975 11.9554 20.1656C12.0757 20.1609 12.2023 20.1546 12.3303 20.1481C12.6001 20.1346 12.8765 20.1206 13.1155 20.1216C13.4575 20.1229 13.8805 20.1495 14.2238 20.3345C14.5181 20.4931 14.6241 20.853 14.4606 21.1385C14.2972 21.4239 13.9261 21.5267 13.6319 21.3682C13.5834 21.3421 13.4405 21.3053 13.1105 21.304C12.9045 21.3032 12.6883 21.3142 12.4421 21.3267C12.3063 21.3336 12.1614 21.341 12.0041 21.3471C11.1927 21.3786 10.1236 21.3746 9.25162 20.846C8.96619 20.6729 8.87942 20.3081 9.05781 20.0313Z" fill="black"/>
<path fill-rule="evenodd" clip-rule="evenodd" d="M9.21089 7.02936C9.42916 6.96004 9.66906 7.01564 9.83145 7.17318C10.4095 7.73391 11.7416 9.23315 12.4802 10.8094C12.6195 11.1067 12.484 11.4572 12.1776 11.5923C11.8712 11.7274 11.5098 11.596 11.3706 11.2987C10.9845 10.4748 10.401 9.65536 9.87959 9.01736C9.86562 9.35446 9.86191 9.72195 9.87469 10.1037C9.90847 11.1134 10.0562 12.1774 10.4031 13.0338C10.5262 13.3377 10.372 13.6809 10.0587 13.8003C9.74539 13.9197 9.39165 13.7701 9.26858 13.4662C8.84924 12.4307 8.6923 11.2143 8.65642 10.1421C8.62036 9.06415 8.70543 8.08592 8.79814 7.50133C8.83306 7.28113 8.99262 7.09867 9.21089 7.02936Z" fill="black"/>
<path fill-rule="evenodd" clip-rule="evenodd" d="M6.94006 11.0072C7.10595 10.8838 7.32547 10.8515 7.52164 10.9216C8.50107 11.2716 9.62592 12.2315 10.5955 13.3221C11.5819 14.4315 12.4928 15.7729 13.0113 16.9945C13.1395 17.2964 12.991 17.642 12.6798 17.7663C12.3686 17.8906 12.0124 17.7466 11.8842 17.4447C11.4276 16.369 10.5972 15.1344 9.6725 14.0943C9.15411 13.5113 8.63131 13.0179 8.15347 12.6519C8.33383 13.3519 8.62716 14.2283 9.07496 15.0971C9.22549 15.3891 9.10346 15.7443 8.80241 15.8903C8.50135 16.0363 8.13527 15.9179 7.98474 15.6259C7.11042 13.9296 6.76794 12.2123 6.704 11.5299C6.68507 11.3279 6.77417 11.1306 6.94006 11.0072Z" fill="black"/>
</svg>
