<svg width="40" height="40" viewBox="0 0 40 40" fill="none" xmlns="http://www.w3.org/2000/svg">
<path fill-rule="evenodd" clip-rule="evenodd" d="M4.46378 8.59049C3.84541 7.97427 3.84541 6.97518 4.46378 6.35896L6.36722 4.46216C6.98559 3.84595 7.98818 3.84595 8.60655 4.46216C9.22493 5.07838 9.22493 6.07747 8.60655 6.69369L6.70312 8.59049C6.08474 9.20671 5.08216 9.20671 4.46378 8.59049ZM5.24755 7.14C5.06204 7.32486 5.06204 7.62459 5.24755 7.80946C5.43306 7.99432 5.73384 7.99432 5.91935 7.80946L7.82278 5.91266C8.0083 5.72779 8.0083 5.42806 7.82278 5.2432C7.63727 5.05833 7.3365 5.05833 7.15098 5.2432L5.24755 7.14Z" fill="black"/>
<path fill-rule="evenodd" clip-rule="evenodd" d="M7.93476 14.0577C7.62557 14.3659 7.62557 14.8654 7.93476 15.1735C8.24395 15.4816 8.74524 15.4816 9.05443 15.1735L15.2126 9.0368C15.5218 8.72869 15.5218 8.22915 15.2126 7.92104C14.9034 7.61293 14.4021 7.61293 14.0929 7.92104L13.0292 8.98102C12.8128 9.19669 12.4619 9.19669 12.2455 8.98102C12.029 8.76534 12.029 8.41566 12.2455 8.19998L13.3092 7.14001C14.0512 6.40054 15.2543 6.40054 15.9964 7.14001C16.7384 7.87947 16.7384 9.07838 15.9964 9.81784L9.83819 15.9545C9.09614 16.694 7.89304 16.694 7.15099 15.9545C6.40894 15.2151 6.40894 14.0162 7.15099 13.2767L8.21468 12.2167C8.43111 12.0011 8.78201 12.0011 8.99844 12.2167C9.21487 12.4324 9.21487 12.7821 8.99844 12.9978L7.93476 14.0577Z" fill="black"/>
<path fill-rule="evenodd" clip-rule="evenodd" d="M9.28079 18.0769C8.41372 17.2129 8.41372 15.812 9.28079 14.9479L15.0077 9.24093C15.8629 8.38873 17.2495 8.38873 18.1046 9.24093C18.639 9.77344 18.8327 10.5173 18.7558 11.2079C18.7238 11.4958 18.7074 11.794 18.7267 12.0406C18.7442 12.2655 18.7853 12.3577 18.7951 12.3799C18.7957 12.3811 18.7961 12.3821 18.7965 12.3829C18.797 12.3832 18.7976 12.3834 18.7982 12.3837C18.8167 12.3925 18.8948 12.4291 19.0964 12.4574C19.3216 12.4891 19.5936 12.4981 19.9098 12.5087L19.942 12.5098C20.2541 12.5202 20.61 12.533 20.926 12.5838C21.2224 12.6315 21.6047 12.7288 21.8746 12.9978L25.1217 16.2335C25.8946 17.0037 25.8946 18.2526 25.1217 19.0229L19.0754 25.048C18.3025 25.8183 17.0492 25.8183 16.2763 25.048L13.0292 21.8123C12.7707 21.5547 12.6608 21.1967 12.6008 20.9086C12.5377 20.6055 12.5093 20.2658 12.4851 19.9683L12.4826 19.9376C12.4581 19.6364 12.4371 19.3778 12.3966 19.1625C12.3538 18.9346 12.3064 18.8631 12.3018 18.8561C12.3015 18.8556 12.3013 18.8554 12.3015 18.8555C12.3015 18.8555 12.3014 18.8555 12.3013 18.8554C12.2971 18.8526 12.2139 18.7969 11.9609 18.7644C11.7299 18.7347 11.4516 18.7356 11.181 18.7519C10.5117 18.7924 9.7981 18.5924 9.28079 18.0769ZM10.0646 15.7289C9.63035 16.1616 9.63035 16.8632 10.0646 17.2959C10.3161 17.5465 10.6977 17.6746 11.1138 17.6494C11.4164 17.6311 11.7729 17.6265 12.1026 17.6689C12.4029 17.7075 12.8087 17.7989 13.0852 18.0745C13.3388 18.3272 13.4352 18.6881 13.4861 18.9592C13.5376 19.2334 13.5629 19.5454 13.5855 19.8247C13.5869 19.8429 13.5884 19.8611 13.5899 19.8791C13.6151 20.1887 13.6393 20.4594 13.6861 20.6842C13.7361 20.9241 13.7933 21.0116 13.813 21.0313L17.06 24.267C17.4001 24.6059 17.9516 24.6059 18.2917 24.267L24.3379 18.2418C24.678 17.9029 24.678 17.3534 24.3379 17.0145L21.0908 13.7788C21.0909 13.7789 21.091 13.7789 21.091 13.7789C21.0909 13.7789 21.0721 13.7616 21.0124 13.7387C20.9506 13.7151 20.8644 13.6928 20.7494 13.6742C20.5146 13.6365 20.23 13.6246 19.9048 13.6137C19.8859 13.6131 19.8669 13.6125 19.8477 13.6118C19.5546 13.6021 19.2277 13.5913 18.9417 13.5512C18.664 13.5122 18.2773 13.4297 18.0118 13.1651C17.7192 12.8736 17.6457 12.4352 17.6216 12.1263C17.5946 11.7802 17.6188 11.404 17.6542 11.086C17.7006 10.6689 17.5774 10.2776 17.3209 10.022C16.8986 9.60112 16.2138 9.60112 15.7915 10.022L10.0646 15.7289Z" fill="black"/>
<path fill-rule="evenodd" clip-rule="evenodd" d="M18.2917 27.0564C17.5187 26.2861 17.5187 25.0372 18.2917 24.267L24.3379 18.2418C25.1109 17.4716 26.3641 17.4716 27.1371 18.2419C27.91 19.0121 27.91 20.261 27.1371 21.0313L21.0909 27.0564C20.3179 27.8267 19.0647 27.8267 18.2917 27.0564ZM19.0754 25.048C18.7353 25.3869 18.7354 25.9364 19.0755 26.2753C19.4156 26.6143 19.967 26.6143 20.3071 26.2753L26.3533 20.2502C26.6934 19.9113 26.6934 19.3618 26.3533 19.0229C26.0132 18.684 25.4618 18.684 25.1217 19.0229L19.0754 25.048Z" fill="black"/>
<path fill-rule="evenodd" clip-rule="evenodd" d="M19.6353 28.3953C19.2333 27.9948 19.2333 27.3453 19.6353 26.9448L27.0251 19.5808C27.427 19.1802 28.0787 19.1802 28.4807 19.5808L30.832 21.9239C31.2339 22.3244 31.2339 22.9738 30.832 23.3744L23.4422 30.7384C23.0402 31.1389 22.3885 31.1389 21.9866 30.7384L19.6353 28.3953ZM20.475 27.6701L22.7144 29.9016L29.9922 22.6491L27.7529 20.4176L20.475 27.6701Z" fill="black"/>
<path fill-rule="evenodd" clip-rule="evenodd" d="M5.5638 14.3729C3.84321 12.6583 3.84321 9.87837 5.5638 8.16379L8.17837 5.55833C9.89896 3.84374 12.6886 3.84374 14.4092 5.55833C14.9766 6.12375 14.9766 7.04048 14.4092 7.6059L13.0292 8.98102C12.8128 9.19669 12.4619 9.19669 12.2455 8.98102C12.029 8.76534 12.029 8.41566 12.2455 8.19998L13.6254 6.82487C13.7599 6.6908 13.7599 6.47343 13.6254 6.33936C12.3377 5.05613 10.2499 5.05613 8.96214 6.33936L6.34756 8.94482C5.05984 10.2281 5.05984 12.3086 6.34757 13.5918C6.4821 13.7259 6.70023 13.7259 6.83477 13.5918L8.21468 12.2167C8.43111 12.0011 8.78201 12.0011 8.99844 12.2167C9.21487 12.4324 9.21487 12.7821 8.99844 12.9978L7.61854 14.3729C7.05114 14.9383 6.1312 14.9383 5.5638 14.3729Z" fill="black"/>
<path d="M35.8145 31.4636C36.0618 31.7101 36.0618 32.1098 35.8145 32.3563C35.5671 32.6027 35.1661 32.6027 34.9188 32.3563C34.6714 32.1098 34.6714 31.7101 34.9188 31.4636C35.1661 31.2172 35.5671 31.2172 35.8145 31.4636Z" fill="black"/>
<path d="M32.9034 31.91C33.1507 32.1564 33.1507 32.5561 32.9034 32.8026C32.656 33.0491 32.255 33.0491 32.0076 32.8026C31.7603 32.5561 31.7603 32.1564 32.0076 31.91C32.255 31.6635 32.656 31.6635 32.9034 31.91Z" fill="black"/>
<path d="M30.2162 29.2321C30.4635 29.4786 30.4635 29.8782 30.2162 30.1247C29.9688 30.3712 29.5678 30.3712 29.3204 30.1247C29.0731 29.8782 29.0731 29.4786 29.3204 29.2321C29.5678 28.9856 29.9688 28.9856 30.2162 29.2321Z" fill="black"/>
<path d="M32.3435 34.9225C32.5909 35.169 32.5909 35.5686 32.3435 35.8151C32.0961 36.0616 31.6951 36.0616 31.4478 35.8151C31.2004 35.5686 31.2004 35.169 31.4478 34.9225C31.6951 34.676 32.0961 34.676 32.3435 34.9225Z" fill="black"/>
<path d="M29.7683 32.3563C30.0156 32.6027 30.0156 33.0024 29.7683 33.2489C29.5209 33.4953 29.1199 33.4953 28.8725 33.2489C28.6252 33.0024 28.6252 32.6027 28.8725 32.3563C29.1199 32.1098 29.5209 32.1098 29.7683 32.3563Z" fill="black"/>
<path d="M27.0811 29.6784C27.3284 29.9249 27.3284 30.3246 27.0811 30.571C26.8337 30.8175 26.4327 30.8175 26.1854 30.571C25.938 30.3246 25.938 29.9249 26.1854 29.6784C26.4327 29.4319 26.8337 29.4319 27.0811 29.6784Z" fill="black"/>
<path d="M30.5521 26.2196C30.7994 26.466 30.7994 26.8657 30.5521 27.1122C30.3047 27.3587 29.9037 27.3587 29.6563 27.1122C29.409 26.8657 29.409 26.466 29.6563 26.2196C29.9037 25.9731 30.3047 25.9731 30.5521 26.2196Z" fill="black"/>
<path d="M33.2393 28.8974C33.4866 29.1439 33.4866 29.5435 33.2393 29.79C32.9919 30.0365 32.5909 30.0365 32.3435 29.79C32.0962 29.5435 32.0962 29.1439 32.3435 28.8974C32.5909 28.6509 32.9919 28.6509 33.2393 28.8974Z" fill="black"/>
</svg>
