<svg width="40" height="40" viewBox="0 0 40 40" fill="none" xmlns="http://www.w3.org/2000/svg">
<path fill-rule="evenodd" clip-rule="evenodd" d="M12.5226 30.9447L14.7753 22.9426L13.757 22.6684L11.1918 31.7806C11.1366 31.9767 11.2042 32.1863 11.3646 32.3158C11.5251 32.4454 11.7483 32.4708 11.9348 32.3807L15.2099 30.7988L17.2374 33.7702C17.3521 33.9383 17.5565 34.0255 17.7605 33.9934C17.9646 33.9613 18.1307 33.8158 18.1857 33.621L20.6599 24.8613L19.6418 24.5863L17.475 32.2576L15.8311 29.8483C15.6838 29.6325 15.3957 29.557 15.1579 29.6719L12.5226 30.9447Z" fill="#116565"/>
<path fill-rule="evenodd" clip-rule="evenodd" d="M28.0431 30.9494L25.7675 22.644L26.7877 22.3767L29.3652 31.784C29.4189 31.9799 29.3504 32.1884 29.19 32.317C29.0297 32.4456 28.8072 32.4705 28.6212 32.3807L25.3462 30.7988L23.3187 33.7702C23.2032 33.9394 22.9968 34.0266 22.7917 33.9928C22.5865 33.959 22.4207 33.8105 22.3683 33.6136L20.017 24.7801L21.0392 24.5199L23.0938 32.2388L24.725 29.8483C24.8722 29.6325 25.1603 29.557 25.3981 29.6719L28.0431 30.9494Z" fill="#116565"/>
<path fill-rule="evenodd" clip-rule="evenodd" d="M20 8.8608C16.3854 8.8608 13.4363 11.7904 13.4363 15.4273C13.4363 19.0642 16.3854 21.9939 20 21.9939C23.6146 21.9939 26.5637 19.0642 26.5637 15.4273C26.5637 11.7904 23.6146 8.8608 20 8.8608ZM12.38 15.4273C12.38 11.2406 15.7812 7.82786 20 7.82786C24.2188 7.82786 27.62 11.2406 27.62 15.4273C27.62 19.6141 24.2188 23.0268 20 23.0268C15.7812 23.0268 12.38 19.6141 12.38 15.4273Z" fill="#116565"/>
<path fill-rule="evenodd" clip-rule="evenodd" d="M14.7163 6.52119C15.605 5.28987 17.2053 4.76095 18.6756 5.21254L19.1048 5.34435C19.6095 5.49936 20.1516 5.49313 20.6524 5.32655L21.0783 5.18491C22.5374 4.69962 24.15 5.19159 25.0681 6.40213L25.3361 6.75546C25.6512 7.17099 26.0935 7.47754 26.5988 7.63067L27.0285 7.76088C28.5006 8.207 29.5095 9.53194 29.5247 11.039L29.5291 11.4789C29.5343 11.9963 29.7079 12.4985 30.0247 12.9128L30.294 13.2652C31.2169 14.4723 31.2367 16.1241 30.3432 17.3521L30.0824 17.7106C29.7757 18.1321 29.6142 18.6382 29.6215 19.1555L29.6276 19.5954C29.6487 21.1024 28.6719 22.4502 27.2109 22.93L26.7845 23.0701C26.283 23.2348 25.8482 23.5514 25.5432 23.9741L25.2837 24.3335C24.395 25.5648 22.7947 26.0937 21.3244 25.6421L20.8952 25.5103C20.3905 25.3553 19.8484 25.3616 19.3476 25.5281L18.9217 25.6698C17.4626 26.1551 15.85 25.6631 14.9319 24.4526L14.6639 24.0992C14.3488 23.6837 13.9065 23.3771 13.4012 23.224L12.9715 23.0938C11.4994 22.6477 10.4905 21.3228 10.4753 19.8156L10.4709 19.3757C10.4657 18.8584 10.2921 18.3562 9.97532 17.9418L9.70596 17.5895C8.78313 16.3824 8.76327 14.7306 9.65681 13.5026L9.91762 13.1441C10.2243 12.7226 10.3858 12.2165 10.3785 11.6992L10.3724 11.2593C10.3513 9.75229 11.3281 8.40451 12.7891 7.92466L13.2155 7.7846C13.717 7.61989 14.1518 7.30325 14.4568 6.8806L14.7163 6.52119ZM18.3592 6.19802C17.3268 5.88095 16.2032 6.25232 15.5792 7.11687L15.3198 7.47627C14.8853 8.07823 14.266 8.52921 13.5518 8.76379L13.1253 8.90385C12.0996 9.24077 11.4137 10.1871 11.4285 11.2452L11.4347 11.6851C11.445 12.4218 11.215 13.1427 10.7782 13.743L10.5174 14.1014C9.89002 14.9636 9.90397 16.1234 10.5519 16.971L10.8213 17.3233C11.2724 17.9135 11.5196 18.6288 11.5271 19.3656L11.5315 19.8055C11.5422 20.8636 12.2505 21.7939 13.2841 22.1071L13.7138 22.2374C14.4335 22.4555 15.0634 22.8921 15.5123 23.4839L15.7803 23.8372C16.4249 24.6872 17.5571 25.0326 18.5816 24.6918L19.0075 24.5502C19.7208 24.313 20.4928 24.3041 21.2117 24.5248L21.6408 24.6567C22.6732 24.9737 23.7968 24.6024 24.4208 23.7378L24.6802 23.3784C25.1147 22.7765 25.734 22.3255 26.4482 22.0909L26.8747 21.9508C27.9004 21.6139 28.5863 20.6676 28.5715 19.6095L28.5653 19.1696C28.555 18.4328 28.785 17.712 29.2218 17.1117L29.4826 16.7533C30.11 15.891 30.096 14.7312 29.4481 13.8837L29.1787 13.5314C28.7276 12.9412 28.4804 12.2259 28.4729 11.4891L28.4685 11.0492C28.4578 9.99104 27.7495 9.06076 26.7159 8.74753L26.2862 8.61732C25.5665 8.39923 24.9366 7.96262 24.4877 7.37082L24.2197 7.01748C23.5751 6.16753 22.4429 5.8221 21.4184 6.16284L20.9925 6.30448C20.2792 6.54173 19.5072 6.55061 18.7883 6.32984L18.3592 6.19802Z" fill="#116565"/>
<path fill-rule="evenodd" clip-rule="evenodd" d="M20.084 10.4841C20.305 10.4876 20.5003 10.6252 20.5736 10.829L21.8296 14.32L24.4207 13.3929C24.6123 13.3244 24.8271 13.3698 24.9725 13.5097C25.1179 13.6496 25.168 13.8589 25.1011 14.0473L23.2149 19.3596C23.1412 19.5674 22.9409 19.7067 22.716 19.7067H17.0576C16.8179 19.7067 16.6082 19.5487 16.547 19.322L15.1135 14.0097C15.0627 13.8214 15.1245 13.6212 15.2734 13.4918C15.4223 13.3625 15.6329 13.326 15.8181 13.3975L18.1913 14.3137L19.5832 10.8133C19.6633 10.6119 19.8631 10.4805 20.084 10.4841ZM20.0507 12.4877L18.9833 15.1718C18.9324 15.2999 18.8313 15.4029 18.7026 15.4579C18.5738 15.5129 18.4279 15.5155 18.2972 15.4651L16.4011 14.7331L17.4645 18.6737H22.3404L23.7381 14.737L21.6904 15.4697C21.5578 15.5171 21.4112 15.5107 21.2835 15.4517C21.1558 15.3928 21.0576 15.2863 21.0107 15.1561L20.0507 12.4877Z" fill="#116565"/>
</svg>
