<svg width="40" height="40" viewBox="0 0 40 40" fill="none" xmlns="http://www.w3.org/2000/svg">
<path d="M21.0434 33.5744C21.0434 33.9435 20.7422 34.2428 20.3706 34.2428C19.999 34.2428 19.6977 33.9435 19.6977 33.5744C19.6977 33.2052 19.999 32.9059 20.3706 32.9059C20.7422 32.9059 21.0434 33.2052 21.0434 33.5744Z" fill="black"/>
<path d="M23.7349 32.2375C23.7349 32.6067 23.4336 32.9059 23.062 32.9059C22.6904 32.9059 22.3892 32.6067 22.3892 32.2375C22.3892 31.8684 22.6904 31.5691 23.062 31.5691C23.4336 31.5691 23.7349 31.8684 23.7349 32.2375Z" fill="black"/>
<path d="M24.7442 29.3967C24.7442 29.7659 24.4429 30.0652 24.0713 30.0652C23.6997 30.0652 23.3984 29.7659 23.3984 29.3967C23.3984 29.0276 23.6997 28.7283 24.0713 28.7283C24.4429 28.7283 24.7442 29.0276 24.7442 29.3967Z" fill="black"/>
<path fill-rule="evenodd" clip-rule="evenodd" d="M7.40318 19.8472C7.5562 19.5622 7.91282 19.4544 8.19973 19.6064C9.34829 20.2149 10.5901 21.5749 10.8487 23.2683C11.5047 22.9222 12.2466 22.7256 12.982 22.7025C14.1212 22.6667 15.2985 23.0487 16.1109 24.007C16.3203 24.254 16.2885 24.623 16.0398 24.8311C15.791 25.0391 15.4196 25.0075 15.2102 24.7604C14.6768 24.1312 13.8776 23.8447 13.0192 23.8716C12.1551 23.8987 11.2853 24.2448 10.6812 24.8096C10.4795 24.9981 10.1728 25.0216 9.9445 24.8659C8.93112 24.175 8.08489 23.8868 7.40239 23.8491C6.73254 23.8121 6.18198 24.0134 5.72943 24.38C4.79295 25.1386 4.21979 26.6649 4.17972 28.3868C4.13993 30.0962 4.63244 31.8188 5.60672 32.8996C6.08642 33.4318 6.68101 33.8082 7.39846 33.9682C8.11826 34.1287 9.00391 34.0806 10.0764 33.6932C10.2502 33.6304 10.4435 33.6524 10.5985 33.7525C11.276 34.19 12.0101 34.2321 12.6765 34.089C13.3559 33.943 13.9174 33.6127 14.1795 33.3849C14.4242 33.1722 14.7961 33.1969 15.0102 33.44C15.2243 33.6831 15.1995 34.0525 14.9548 34.2653C14.5441 34.6223 13.8018 35.044 12.9253 35.2323C12.1104 35.4073 11.1407 35.3873 10.2114 34.8842C9.07742 35.2517 8.05028 35.3124 7.14053 35.1095C6.15744 34.8903 5.35375 34.3724 4.72954 33.68C3.49601 32.3116 2.9582 30.2639 3.00252 28.3597C3.04656 26.4679 3.67193 24.5373 4.98531 23.4734C5.6577 22.9288 6.4949 22.6275 7.46777 22.6812C8.15429 22.7191 8.88745 22.9323 9.66311 23.3327C9.43273 22.1275 8.53035 21.1072 7.64561 20.6385C7.3587 20.4865 7.25016 20.1322 7.40318 19.8472Z" fill="black"/>
<path fill-rule="evenodd" clip-rule="evenodd" d="M19.95 23.4645C16.5126 23.4645 13.7261 26.2327 13.7261 29.6474C13.7261 33.0621 16.5126 35.8303 19.95 35.8303C23.3874 35.8303 26.174 33.0621 26.174 29.6474C26.174 26.2327 23.3874 23.4645 19.95 23.4645ZM12.5486 29.6474C12.5486 25.5867 15.8623 22.2948 19.95 22.2948C24.0378 22.2948 27.3515 25.5867 27.3515 29.6474C27.3515 33.7081 24.0378 37 19.95 37C15.8623 37 12.5486 33.7081 12.5486 29.6474Z" fill="black"/>
<path fill-rule="evenodd" clip-rule="evenodd" d="M24.6227 22.1632C25.0024 19.3182 27.8142 17.4537 30.6047 18.1965C33.3953 18.9393 34.8919 21.9506 33.7888 24.6031L29.8638 34.0409C29.204 35.6277 27.4618 36.4821 25.7924 36.0378C25.1872 35.8767 24.6586 35.5623 24.2423 35.1459L25.0778 34.3217C25.3513 34.5952 25.6981 34.8017 26.0972 34.9079C27.1954 35.2002 28.3414 34.6381 28.7756 33.5943L32.7005 24.1564C33.5322 22.1566 32.4039 19.8864 30.3 19.3264C28.1961 18.7664 26.0763 20.172 25.79 22.317L25.4593 24.7947L24.292 24.6409L24.6227 22.1632Z" fill="black"/>
<path fill-rule="evenodd" clip-rule="evenodd" d="M30.1457 22.9842C30.227 22.6714 30.5481 22.4833 30.8629 22.564L33.4703 23.2324C33.7851 23.3131 33.9745 23.6321 33.8932 23.9449C33.812 24.2576 33.4909 24.4457 33.176 24.365L30.5687 23.6966C30.2538 23.6159 30.0645 23.2969 30.1457 22.9842Z" fill="black"/>
<path fill-rule="evenodd" clip-rule="evenodd" d="M24.5105 25.073C24.5918 24.7602 24.9129 24.5721 25.2277 24.6528L27.835 25.3212C28.1499 25.4019 28.3393 25.7209 28.258 26.0337C28.1768 26.3464 27.8557 26.5346 27.5408 26.4538L24.9335 25.7854C24.6186 25.7047 24.4293 25.3857 24.5105 25.073Z" fill="black"/>
<path fill-rule="evenodd" clip-rule="evenodd" d="M26.3609 31.0887C26.4421 30.776 26.7632 30.5879 27.0781 30.6686L29.6854 31.337C30.0003 31.4177 30.1896 31.7367 30.1084 32.0494C30.0271 32.3622 29.706 32.5503 29.3912 32.4696L26.7838 31.8012C26.469 31.7205 26.2796 31.4015 26.3609 31.0887Z" fill="black"/>
<path fill-rule="evenodd" clip-rule="evenodd" d="M30.2024 13.3155C30.4714 12.318 31.5036 11.7259 32.5078 11.9932C33.512 12.2605 34.108 13.2859 33.8389 14.2835L32.426 19.5218L31.2886 19.2191L32.7015 13.9807C32.8023 13.6072 32.5791 13.2232 32.2031 13.1231C31.827 13.023 31.4405 13.2447 31.3397 13.6183L29.9502 18.7698L28.8128 18.4671L30.2024 13.3155Z" fill="black"/>
<path fill-rule="evenodd" clip-rule="evenodd" d="M29.0562 14.1936C29.0146 13.809 28.6671 13.5308 28.2801 13.5721C27.893 13.6134 27.6129 13.9585 27.6545 14.3431L28.155 18.9738L26.9842 19.0987L26.4837 14.4679C26.3727 13.4411 27.1207 12.5193 28.1544 12.409C29.186 12.299 30.1123 13.0389 30.2263 14.0625L30.5429 16.5395L29.3748 16.6869L29.0575 14.2048C29.057 14.201 29.0566 14.1973 29.0562 14.1936ZM33.676 14.9653C34.3445 14.1744 35.5319 14.0717 36.3281 14.7358C37.1242 15.3999 37.2277 16.5795 36.5591 17.3704L33.4912 20.9998L32.5894 20.2476L35.6574 16.6182C35.9077 16.322 35.869 15.8803 35.5708 15.6316C35.2727 15.3829 34.8281 15.4214 34.5777 15.7176L32.8256 17.7904L31.9238 17.0382L33.676 14.9653Z" fill="black"/>
<path fill-rule="evenodd" clip-rule="evenodd" d="M14.5467 4.30949C13.3769 4.63377 12.4447 5.50053 12.0042 6.63096C11.9465 6.77898 11.8308 6.89735 11.6835 6.95891C11.5362 7.02047 11.3701 7.01992 11.2232 6.9574C10.9327 6.8337 10.4997 6.80538 10.0076 6.9334C9.52288 7.05948 9.0259 7.32678 8.6251 7.72931C7.85638 8.50136 7.36767 9.85146 8.21411 11.8772C8.26625 12.0019 8.27329 12.1408 8.23405 12.2701C7.80366 13.6888 7.89736 14.8023 8.2594 15.6344C8.62221 16.4684 9.27818 17.0751 10.0727 17.4401C11.6973 18.1864 13.7712 17.878 14.8728 16.5718C15.0095 16.4098 15.2235 16.3336 15.4326 16.3726C16.0704 16.4914 16.5714 16.5194 17.0511 16.4173C17.5264 16.3162 18.0324 16.0758 18.6536 15.5744C18.8003 15.456 18.9953 15.4148 19.1779 15.4636C20.7263 15.8777 21.894 15.7877 22.7437 15.4458C23.5896 15.1055 24.1749 14.4942 24.5285 13.7602C25.2585 12.2448 24.965 10.3071 23.9914 9.33997C23.864 9.2134 23.8019 9.03584 23.823 8.85807C23.9662 7.64885 23.4272 6.46097 22.5397 5.73225C21.6671 5.01573 20.4852 4.76089 19.2881 5.35546C19.0894 5.45414 18.8518 5.43334 18.6735 5.30167C17.1596 4.18337 15.705 3.98837 14.5467 4.30949ZM19.0908 4.16118C17.4143 3.02747 15.7007 2.77511 14.2301 3.18281C12.864 3.56154 11.7568 4.49768 11.1262 5.72067C10.6709 5.64413 10.1801 5.67935 9.7093 5.80181C9.02964 5.97861 8.34386 6.3484 7.78794 6.90672C6.67413 8.02534 6.15122 9.82279 7.04859 12.1322C6.61866 13.6783 6.70654 15.0136 7.17852 16.0985C7.66993 17.228 8.55418 18.0313 9.57848 18.5018C11.4918 19.3807 14.0059 19.1368 15.5431 17.5777C16.134 17.6664 16.7084 17.6866 17.2978 17.5611C17.9231 17.428 18.524 17.1402 19.1597 16.6659C20.7637 17.0476 22.1071 16.964 23.1857 16.53C24.3321 16.0687 25.1241 15.2335 25.5906 14.2651C26.4568 12.467 26.2311 10.1242 25.0165 8.71921C25.1026 7.18799 24.3968 5.73948 23.2899 4.83062C22.1803 3.91958 20.6435 3.5351 19.0908 4.16118Z" fill="black"/>
<path fill-rule="evenodd" clip-rule="evenodd" d="M19.8572 15.663C20.1533 15.7967 20.2841 16.1434 20.1496 16.4375L18.4674 20.1138C18.3915 20.2796 18.2422 20.4009 18.0635 20.4417C17.8847 20.4826 17.697 20.4384 17.5558 20.3221L14.6121 17.8991C14.3617 17.693 14.3269 17.3243 14.5343 17.0756C14.7418 16.8269 15.113 16.7923 15.3633 16.9984L17.7141 18.9333L19.0776 15.9534C19.2122 15.6594 19.5612 15.5293 19.8572 15.663ZM22.7442 15.6762C23.0329 15.8249 23.1456 16.1779 22.9959 16.4647C22.4014 17.6036 21.9532 18.4819 21.7204 19.426C21.493 20.3486 21.4665 21.3625 21.7856 22.7493C21.8581 23.0642 21.6598 23.3778 21.3428 23.4498C21.0259 23.5218 20.7102 23.3249 20.6377 23.01C20.2839 21.4725 20.2995 20.2722 20.5767 19.1478C20.8486 18.0449 21.3675 17.0432 21.9506 15.9262C22.1002 15.6395 22.4556 15.5275 22.7442 15.6762ZM11.5079 18.2093C11.6425 17.9153 11.9915 17.7853 12.2876 17.9189C13.3212 18.3856 14.463 19.3542 15.3222 20.4266C15.7558 20.9678 16.1326 21.554 16.3916 22.1409C16.6482 22.7222 16.8058 23.3421 16.7515 23.9352C16.7221 24.2569 16.4357 24.494 16.1119 24.4647C15.7881 24.4355 15.5494 24.151 15.5789 23.8293C15.6087 23.5033 15.5245 23.0893 15.3132 22.6106C15.1044 22.1374 14.7873 21.6374 14.4009 21.1551C13.62 20.1804 12.6171 19.3526 11.8003 18.9838C11.5043 18.8501 11.3734 18.5034 11.5079 18.2093Z" fill="black"/>
</svg>
