<svg width="40" height="40" viewBox="0 0 40 40" fill="none" xmlns="http://www.w3.org/2000/svg">
<path fill-rule="evenodd" clip-rule="evenodd" d="M7.123 23.0209C7.23397 22.8781 7.40483 22.7945 7.58585 22.7945H31.1033C31.28 22.7945 31.4472 22.8741 31.5584 23.0111C31.6697 23.1481 31.713 23.328 31.6765 23.5005L28.9146 36.5361C28.8573 36.8065 28.6183 37 28.3415 37H10.9335C10.666 37 10.4325 36.8191 10.366 36.5603L7.01836 23.5247C6.9734 23.3497 7.01203 23.1637 7.123 23.0209ZM8.34086 23.9644L11.3881 35.8301H11.9951L9.93822 23.9644H8.34086ZM11.1273 23.9644L13.1842 35.8301H14.2976L13.0025 23.9644H11.1273ZM14.1811 23.9644L15.4762 35.8301H16.4264L15.8169 23.9644H14.1811ZM16.9902 23.9644L17.5996 35.8301H18.8006V23.9644H16.9902ZM19.9723 23.9644V35.8301H21.0094L21.695 23.9644H19.9723ZM22.8687 23.9644L22.183 35.8301H23.1326L24.5039 23.9644H22.8687ZM25.6833 23.9644L24.3121 35.8301H25.5002L27.4429 23.9644H25.6833ZM28.6301 23.9644L26.6875 35.8301H27.8666L30.3806 23.9644H28.6301Z" fill="black"/>
<path fill-rule="evenodd" clip-rule="evenodd" d="M20.8092 7.25206C19.7461 7.25206 18.8843 8.11253 18.8843 9.17398C18.8843 10.2354 19.7461 11.0959 20.8092 11.0959C21.8723 11.0959 22.7341 10.2354 22.7341 9.17398C22.7341 8.11253 21.8723 7.25206 20.8092 7.25206ZM17.7126 9.17398C17.7126 7.46643 19.099 6.0822 20.8092 6.0822C22.5194 6.0822 23.9058 7.46643 23.9058 9.17398C23.9058 10.8815 22.5194 12.2658 20.8092 12.2658C19.099 12.2658 17.7126 10.8815 17.7126 9.17398Z" fill="black"/>
<path fill-rule="evenodd" clip-rule="evenodd" d="M23.3272 4.78859C22.6095 5.38132 22.1993 6.29325 22.0506 6.96116C21.9804 7.27651 21.6675 7.47535 21.3516 7.40527C21.0358 7.33519 20.8366 7.02273 20.9068 6.70738C21.0929 5.87117 21.6033 4.69407 22.5804 3.88714C23.5988 3.04607 25.0547 2.66701 26.9526 3.36029C27.2565 3.47128 27.4127 3.8072 27.3015 4.11058C27.1903 4.41396 26.8539 4.56993 26.55 4.45893C25.0166 3.89878 24.0036 4.23 23.3272 4.78859Z" fill="black"/>
<path fill-rule="evenodd" clip-rule="evenodd" d="M17.0434 6.44094C17.2037 6.48876 17.3358 6.60269 17.4065 6.75401C17.8062 7.60903 18.404 7.90513 18.5363 7.94116C18.8484 8.02616 19.0325 8.34772 18.9473 8.65939C18.8622 8.97105 18.5401 9.1548 18.228 9.0698C17.8363 8.96316 17.1915 8.58623 16.6751 7.82998C15.5871 8.57854 14.8251 9.3834 14.3409 10.2355C13.8898 11.0294 13.6667 11.8872 13.6624 12.8206L17.0188 12.1922C17.3368 12.1327 17.6429 12.3418 17.7026 12.6593C17.7622 12.9768 17.5527 13.2825 17.2347 13.342L13.2551 14.0871C12.1386 14.4563 11.4863 15.1462 11.1594 15.9193C10.8912 16.5535 10.8335 17.2659 10.9498 17.9346C11.8583 17.7532 13.0634 17.5006 14.2229 17.2338C15.6516 16.9051 16.9587 16.5662 17.5787 16.3186C17.8791 16.1986 18.2201 16.3445 18.3402 16.6444C18.4604 16.9444 18.3143 17.2848 18.0139 17.4047C17.2948 17.6919 15.8959 18.0494 14.486 18.3738C13.0797 18.6974 11.6103 18.9996 10.6685 19.1826C9.73804 19.5095 9.25887 19.8184 9.0486 20.2722C8.82815 20.7479 8.815 21.5753 9.39261 23.1818C9.50193 23.4859 9.34368 23.8208 9.03916 23.93C8.73463 24.0391 8.39914 23.8811 8.28983 23.5771C7.69575 21.9247 7.55707 20.7048 7.98522 19.7809C8.34412 19.0065 9.04115 18.5708 9.81759 18.2532C9.63833 17.3509 9.69962 16.3637 10.08 15.4643C10.4968 14.4785 11.2862 13.626 12.4958 13.1221C12.4495 11.8879 12.7139 10.7282 13.3218 9.6583C13.9999 8.46486 15.0854 7.41788 16.5678 6.50371C16.7101 6.41596 16.8832 6.39312 17.0434 6.44094ZM22.6563 10.2611C22.7021 9.94131 22.9988 9.7191 23.3191 9.76479C24.1486 9.88309 25.6974 10.2448 27.0426 11.0146C27.8764 11.4917 28.6774 12.1516 29.1537 13.0525C29.5817 13.8623 29.7219 14.8193 29.4512 15.9168C31.0428 16.906 31.8446 18.2748 31.9795 19.6999C32.1233 21.2201 31.5005 22.7238 30.4296 23.7931C30.2008 24.0215 29.8299 24.0215 29.6011 23.7931C29.3723 23.5646 29.3723 23.1943 29.6011 22.9658C30.4551 22.1132 30.9202 20.9429 30.813 19.81C30.7182 18.8088 30.1701 17.7707 28.9143 16.9619C28.2161 17.8394 27.0601 19.0259 25.6042 20.2087C23.8874 21.6034 21.7205 23.0201 19.3443 23.9259C19.0421 24.0411 18.7035 23.8899 18.588 23.5881C18.4726 23.2863 18.6241 22.9482 18.9264 22.833C21.1533 21.984 23.2128 20.6432 24.8647 19.3013C26.4733 17.9944 27.664 16.7122 28.2313 15.9261C28.5458 14.9473 28.4328 14.1952 28.1175 13.5985C27.9086 13.2035 27.598 12.8526 27.2178 12.5437C27.1167 12.8175 26.9663 13.075 26.7837 13.3132C26.3742 13.8475 25.7775 14.3219 25.1037 14.739C23.7536 15.5748 21.9609 16.261 20.3072 16.7537C19.9971 16.846 19.6708 16.67 19.5783 16.3604C19.4858 16.0509 19.6621 15.725 19.9721 15.6326C21.5824 15.1529 23.263 14.502 24.4863 13.7447C25.0994 13.3652 25.5645 12.979 25.8532 12.6022C26.0554 12.3385 26.1571 12.0998 26.181 11.8782C25.0725 11.3078 23.8365 11.0203 23.1534 10.9229C22.8331 10.8772 22.6105 10.5809 22.6563 10.2611Z" fill="black"/>
</svg>
