<svg width="40" height="40" viewBox="0 0 40 40" fill="none" xmlns="http://www.w3.org/2000/svg">
<path fill-rule="evenodd" clip-rule="evenodd" d="M5 4.5425C5 4.24289 5.23863 4 5.53299 4H22.4365C22.7309 4 22.9695 4.24289 22.9695 4.5425V8.8825C22.9695 9.18211 22.7309 9.425 22.4365 9.425H5.53299C5.23863 9.425 5 9.18211 5 8.8825V4.5425ZM6.06599 5.085V8.34H21.9036V5.085H6.06599Z" fill="black"/>
<path fill-rule="evenodd" clip-rule="evenodd" d="M28.6203 26.0875L28.9084 16.3388L27.8429 16.3062L27.5384 26.6111L27.3424 31.6482C27.2712 33.4775 28.709 35 30.5076 35C32.3063 35 33.744 33.4775 33.6728 31.6482L33.4768 26.6111L33.1723 16.3062L32.1068 16.3388L32.3949 26.0875H28.6203ZM32.4319 27.1725H28.5834L28.4076 31.6912C28.3603 32.9049 29.3142 33.915 30.5076 33.915C31.701 33.915 32.6549 32.9048 32.6077 31.6912L32.4319 27.1725Z" fill="black"/>
<path fill-rule="evenodd" clip-rule="evenodd" d="M5 32.1325C5 33.4594 6.05679 34.535 7.36041 34.535H20.6091C21.9128 34.535 22.9695 33.4594 22.9695 32.1325V13.9975C22.9695 13.9067 22.9472 13.8174 22.9045 13.7377L20.1633 8.62272C20.0699 8.44844 19.8905 8.34 19.6954 8.34H8.4264C8.23575 8.34 8.05962 8.44365 7.96449 8.61181L5.07109 13.7268C5.02451 13.8091 5 13.9025 5 13.9975V32.1325ZM7.36041 33.45C6.64552 33.45 6.06599 32.8601 6.06599 32.1325V29.11H21.9036V32.1325C21.9036 32.8601 21.324 33.45 20.6091 33.45H7.36041ZM21.9036 28.025H6.06599V14.54H21.9036V28.025ZM21.5387 13.455H6.4549L8.73454 9.425H19.379L21.5387 13.455Z" fill="black"/>
<path fill-rule="evenodd" clip-rule="evenodd" d="M13.9086 19.655C12.5209 19.655 11.3959 20.8 11.3959 22.2125C11.3959 23.625 12.5209 24.77 13.9086 24.77C15.2963 24.77 16.4213 23.625 16.4213 22.2125C16.4213 20.8 15.2963 19.655 13.9086 19.655ZM10.3299 22.2125C10.3299 20.2008 11.9322 18.57 13.9086 18.57C15.8851 18.57 17.4873 20.2008 17.4873 22.2125C17.4873 24.2242 15.8851 25.855 13.9086 25.855C11.9322 25.855 10.3299 24.2242 10.3299 22.2125Z" fill="black"/>
<path fill-rule="evenodd" clip-rule="evenodd" d="M27.8914 6.68206C27.2134 7.71728 26.7766 9.17868 26.7766 10.82C26.7766 12.4613 27.2134 13.9227 27.8914 14.9579C28.572 15.997 29.4536 16.555 30.3553 16.555C31.2571 16.555 32.1387 15.997 32.8192 14.9579C33.4973 13.9227 33.934 12.4613 33.934 10.82C33.934 9.17868 33.4973 7.71728 32.8192 6.68206C32.1387 5.64305 31.2571 5.085 30.3553 5.085C29.4536 5.085 28.572 5.64305 27.8914 6.68206ZM27.0045 6.08021C27.8121 4.84722 28.9863 4 30.3553 4C31.7244 4 32.8986 4.84722 33.7062 6.08021C34.5163 7.317 35 8.99435 35 10.82C35 12.6456 34.5163 14.323 33.7062 15.5598C32.8986 16.7928 31.7244 17.64 30.3553 17.64C28.9863 17.64 27.8121 16.7928 27.0045 15.5598C26.1944 14.323 25.7107 12.6456 25.7107 10.82C25.7107 8.99435 26.1944 7.317 27.0045 6.08021Z" fill="black"/>
<path fill-rule="evenodd" clip-rule="evenodd" d="M14.0609 17.02C14.3553 17.02 14.5939 17.2629 14.5939 17.5625V19.1125C14.5939 19.4121 14.3553 19.655 14.0609 19.655C13.7665 19.655 13.5279 19.4121 13.5279 19.1125V17.5625C13.5279 17.2629 13.7665 17.02 14.0609 17.02Z" fill="black"/>
</svg>
