<svg width="40" height="40" viewBox="0 0 40 40" fill="none" xmlns="http://www.w3.org/2000/svg">
<path fill-rule="evenodd" clip-rule="evenodd" d="M19.5209 3.05757C19.6878 2.97991 19.8814 2.98086 20.0475 3.06016L36.6558 10.9895C36.8663 11.0901 37 11.3004 37 11.5309V26.8682C37 27.0924 36.8735 27.298 36.6717 27.4017L20.0635 35.9319C19.8846 36.0238 19.6713 36.0226 19.4935 35.9288L3.32233 27.3986C3.12388 27.2939 3 27.09 3 26.8682V11.5309C3 11.306 3.12733 11.0998 3.33006 10.9965L12.4839 6.33278C12.4904 6.32947 12.497 6.32628 12.5036 6.3232L19.5209 3.05757ZM12.7691 7.54178L27.8379 14.9443L19.7851 18.788L4.95968 11.5206L12.7691 7.54178ZM4.22051 12.5019L19.1712 19.8307V34.3943L4.22051 26.5078V12.5019ZM20.3917 34.4067L35.7795 26.5033V12.4906L29.8322 15.3292V20.3197C29.8322 20.6519 29.559 20.9213 29.222 20.9213C28.8849 20.9213 28.6117 20.6519 28.6117 20.3197V15.9118L20.3917 19.8351V34.4067ZM34.9896 11.5309L29.2258 14.2819L14.1621 6.88183L19.7781 4.26836L34.9896 11.5309Z" fill="black"/>
</svg>
