<svg width="40" height="40" viewBox="0 0 40 40" fill="none" xmlns="http://www.w3.org/2000/svg">
<path fill-rule="evenodd" clip-rule="evenodd" d="M12.0611 17.1527C12.0611 15.4414 13.4382 14.0542 15.1369 14.0542H24.6137C26.3124 14.0542 27.6895 15.4414 27.6895 17.1527V22.6798H26.5257V17.1527C26.5257 16.0889 25.6696 15.2266 24.6137 15.2266H15.1369C14.081 15.2266 13.2249 16.0889 13.2249 17.1527V33.9015C13.2249 34.9652 14.081 35.8276 15.1369 35.8276H26.3594V37H15.1369C13.4382 37 12.0611 35.6127 12.0611 33.9015V17.1527Z" fill="black"/>
<path fill-rule="evenodd" clip-rule="evenodd" d="M12.3936 21.1724C12.3936 20.8487 12.6542 20.5862 12.9755 20.5862H26.6088C26.9302 20.5862 27.1907 20.8487 27.1907 21.1724C27.1907 21.4962 26.9302 21.7586 26.6088 21.7586H12.9755C12.6542 21.7586 12.3936 21.4962 12.3936 21.1724Z" fill="black"/>
<path fill-rule="evenodd" clip-rule="evenodd" d="M16.2176 8.69458C16.2176 7.76957 16.962 7.0197 17.8802 7.0197H21.7041C22.6224 7.0197 23.3667 7.76957 23.3667 8.69458C23.3667 9.61959 22.6224 10.3695 21.7041 10.3695H17.8802C16.962 10.3695 16.2176 9.61959 16.2176 8.69458ZM17.8802 8.19212C17.6047 8.19212 17.3814 8.41708 17.3814 8.69458C17.3814 8.97208 17.6047 9.19704 17.8802 9.19704H21.7041C21.9796 9.19704 22.2029 8.97208 22.2029 8.69458C22.2029 8.41708 21.9796 8.19212 21.7041 8.19212H17.8802Z" fill="black"/>
<path fill-rule="evenodd" clip-rule="evenodd" d="M17.3502 7.10415C17.5652 7.75387 18.1687 8.19212 18.8486 8.19212H20.7358C21.4156 8.19212 22.0192 7.75387 22.2342 7.10415L22.8992 5.09429C23.2401 4.06399 22.4789 3 21.4008 3H18.1835C17.1055 3 16.3442 4.06399 16.6851 5.09429L17.3502 7.10415ZM18.8486 7.0197C18.6697 7.0197 18.5108 6.90438 18.4543 6.7334L17.7892 4.72354C17.6995 4.45241 17.8998 4.17241 18.1835 4.17241H21.4008C21.6845 4.17241 21.8848 4.45241 21.7951 4.72354L21.1301 6.7334C21.0735 6.90438 20.9147 7.0197 20.7358 7.0197H18.8486Z" fill="black"/>
<path fill-rule="evenodd" clip-rule="evenodd" d="M12.3936 30.7192C12.3936 30.3955 12.6542 30.133 12.9755 30.133H26.6088C26.9302 30.133 27.1907 30.3955 27.1907 30.7192C27.1907 31.043 26.9302 31.3054 26.6088 31.3054H12.9755C12.6542 31.3054 12.3936 31.043 12.3936 30.7192Z" fill="black"/>
<path fill-rule="evenodd" clip-rule="evenodd" d="M18.9357 10.3695C18.855 11.2776 18.5839 11.9977 18.174 12.5836C17.6866 13.2802 17.035 13.74 16.4015 14.1031C16.1185 14.2653 15.8284 14.4139 15.5554 14.5539C15.5236 14.5701 15.4921 14.5863 15.4609 14.6023C15.1551 14.7593 14.8726 14.9069 14.6126 15.0657C14.0929 15.3832 13.7163 15.7149 13.496 16.1587L12.4551 15.6344C12.8167 14.9058 13.4065 14.4314 14.0091 14.0633C14.3102 13.8793 14.6278 13.7141 14.9325 13.5577C14.964 13.5416 14.9953 13.5255 15.0265 13.5095C15.3029 13.3678 15.5681 13.2318 15.8259 13.0841C16.3977 12.7563 16.8788 12.3996 17.2227 11.9081C17.5596 11.4267 17.7971 10.769 17.7971 9.78325C17.7971 9.4595 18.0576 9.19704 18.379 9.19704H21.5379C21.8593 9.19704 22.1198 9.4595 22.1198 9.78325C22.1198 10.7582 22.3364 11.3988 22.6407 11.8597C22.9495 12.3274 23.3829 12.6627 23.9093 12.9721C24.1571 13.1177 24.4147 13.2516 24.6872 13.3932C24.7059 13.403 24.7247 13.4128 24.7436 13.4226C25.0315 13.5723 25.3353 13.7316 25.6275 13.9103C26.2149 14.2696 26.7959 14.7308 27.1972 15.4382L26.1867 16.0199C25.9229 15.555 25.5271 15.2205 25.0235 14.9125C24.7701 14.7575 24.4998 14.6152 24.2097 14.4643C24.1892 14.4537 24.1686 14.443 24.1479 14.4322C23.8811 14.2936 23.5979 14.1464 23.3229 13.9848C22.7271 13.6347 22.1214 13.1901 21.6716 12.509C21.2973 11.942 21.0538 11.2463 20.9798 10.3695H18.9357Z" fill="black"/>
<path fill-rule="evenodd" clip-rule="evenodd" d="M24.2507 32.0246C23.6685 32.4581 23.3667 33.0098 23.3667 33.5665C23.3667 34.1232 23.6685 34.6749 24.2507 35.1084C24.8328 35.5418 25.6646 35.8276 26.6088 35.8276C27.553 35.8276 28.3848 35.5418 28.9669 35.1084C29.5491 34.6749 29.8508 34.1232 29.8508 33.5665C29.8508 33.0098 29.5491 32.4581 28.9669 32.0246C28.3848 31.5912 27.553 31.3054 26.6088 31.3054C25.6646 31.3054 24.8328 31.5912 24.2507 32.0246ZM23.559 31.0817C24.3609 30.4846 25.4411 30.133 26.6088 30.133C27.7765 30.133 28.8567 30.4846 29.6586 31.0817C30.4604 31.6787 31.0147 32.5506 31.0147 33.5665C31.0147 34.5824 30.4604 35.4543 29.6586 36.0513C28.8567 36.6484 27.7765 37 26.6088 37C25.4411 37 24.3609 36.6484 23.559 36.0513C22.7572 35.4543 22.2029 34.5824 22.2029 33.5665C22.2029 32.5506 22.7572 31.6787 23.559 31.0817Z" fill="black"/>
<path fill-rule="evenodd" clip-rule="evenodd" d="M32.5941 31.3054C31.5477 31.3054 30.6428 31.656 30.0605 32.1664L29.2965 31.2819C30.1171 30.5627 31.304 30.133 32.5941 30.133C33.7619 30.133 34.842 30.4846 35.644 31.0817C36.4457 31.6787 37 32.5506 37 33.5665C37 34.5824 36.4457 35.4543 35.644 36.0513C34.842 36.6484 33.7619 37 32.5941 37C31.304 37 30.1171 36.5703 29.2965 35.8511L30.0605 34.9666C30.6428 35.477 31.5477 35.8276 32.5941 35.8276C33.5383 35.8276 34.3701 35.5418 34.9522 35.1084C35.5344 34.6749 35.8362 34.1232 35.8362 33.5665C35.8362 33.0098 35.5344 32.4581 34.9522 32.0246C34.3701 31.5912 33.5383 31.3054 32.5941 31.3054Z" fill="black"/>
<path fill-rule="evenodd" clip-rule="evenodd" d="M20.3061 23.0471L19.9584 23.5172L19.6108 23.0471C19.8171 22.8923 20.0998 22.8923 20.3061 23.0471ZM19.9584 24.2777C19.7941 24.4241 19.5922 24.6166 19.3917 24.8391C19.1608 25.0954 18.9427 25.3795 18.7847 25.6683C18.6251 25.9603 18.5452 26.2235 18.5452 26.4483C18.5452 27.0405 18.7276 27.454 18.9712 27.7145C19.2145 27.9747 19.5562 28.1232 19.9584 28.1232C20.3607 28.1232 20.7023 27.9747 20.9456 27.7145C21.1893 27.454 21.3716 27.0405 21.3716 26.4483C21.3716 26.2235 21.2918 25.9603 21.1321 25.6683C20.9742 25.3795 20.756 25.0954 20.5251 24.8391C20.3247 24.6166 20.1227 24.4241 19.9584 24.2777ZM19.6106 23.0473C19.6107 23.0472 19.6108 23.0471 19.9584 23.5172C20.3061 23.0471 20.3062 23.0472 20.3063 23.0473L20.3073 23.048L20.3092 23.0495L20.3152 23.0541C20.3202 23.0578 20.327 23.063 20.3355 23.0697C20.3525 23.0829 20.3766 23.1017 20.4065 23.1257C20.4664 23.1737 20.5504 23.2429 20.6506 23.33C20.85 23.5035 21.1175 23.7521 21.3869 24.0511C21.6547 24.3484 21.9353 24.7074 22.1515 25.1025C22.3659 25.4946 22.5354 25.9562 22.5354 26.4483C22.5354 27.2898 22.2712 28.0069 21.7927 28.5185C21.314 29.0304 20.658 29.2956 19.9584 29.2956C19.2588 29.2956 18.6029 29.0304 18.1241 28.5185C17.6457 28.0069 17.3814 27.2898 17.3814 26.4483C17.3814 25.9562 17.551 25.4946 17.7654 25.1025C17.9815 24.7074 18.2621 24.3484 18.53 24.0511C18.7994 23.7521 19.0669 23.5035 19.2663 23.33C19.3664 23.2429 19.4504 23.1737 19.5103 23.1257C19.5403 23.1017 19.5643 23.0829 19.5814 23.0697C19.5899 23.063 19.5967 23.0578 19.6016 23.0541L19.6077 23.0495L19.6096 23.048L19.6106 23.0473Z" fill="black"/>
<path fill-rule="evenodd" clip-rule="evenodd" d="M29.1446 18.462C29.3905 18.2544 29.7568 18.2865 29.9634 18.5337C30.7065 19.4227 31.0974 20.4583 31.347 21.3977C31.4657 21.8444 31.5547 22.2787 31.6323 22.6685C32.7199 21.5351 34.1512 20.6245 36.0134 20.105C36.181 20.0582 36.3606 20.0895 36.503 20.1901C36.6453 20.2908 36.7355 20.4503 36.7489 20.625C36.8788 22.3259 36.7056 24.2956 36.2335 26.1442C35.7628 27.9869 34.9821 29.7592 33.8595 31.0259C33.6454 31.2674 33.2776 31.2884 33.0379 31.0727C32.7981 30.8571 32.7773 30.4865 32.9913 30.245C33.9469 29.1669 34.6626 27.5895 35.1064 25.8521C35.4802 24.3883 35.652 22.8464 35.6239 21.459C31.1508 23.0848 29.7617 27.5 29.6845 31.2339C29.6778 31.5576 29.4119 31.8145 29.0906 31.8078C28.7692 31.801 28.5142 31.5331 28.5209 31.2095C28.5698 28.847 29.1273 26.0703 30.6851 23.828C30.6259 23.5782 30.5724 23.3083 30.5185 23.0364C30.5134 23.0108 30.5084 22.9853 30.5033 22.9597C30.4227 22.5538 30.337 22.1308 30.2228 21.7009C30.0462 21.0365 29.8072 20.3795 29.4376 19.7915C28.3042 20.9921 27.5684 22.7826 27.2665 24.6878C26.926 26.8367 27.1577 29.007 27.8774 30.4571C28.0212 30.7466 27.9046 31.0987 27.6172 31.2435C27.3297 31.3883 26.9802 31.2709 26.8365 30.9814C25.9767 29.2491 25.7512 26.8135 26.1173 24.503C26.4834 22.1927 27.4613 19.8828 29.1446 18.462ZM7.41651 21.354C7.57892 21.2454 7.78453 21.2259 7.9642 21.3021C9.02434 21.7518 11.5446 22.9559 13.0092 24.1503C13.259 24.354 13.2975 24.7231 13.0953 24.9748C12.8931 25.2264 12.5267 25.2652 12.2769 25.0615C11.2465 24.2213 9.57771 23.3398 8.39265 22.7796C8.51275 23.6561 8.77004 24.685 9.07091 25.671C9.44351 26.892 9.86276 27.9832 10.112 28.5394C11.2102 29.1546 12.2035 29.8167 12.9941 30.4192C13.2504 30.6145 13.301 30.9821 13.1071 31.2403C12.9132 31.4985 12.5483 31.5495 12.292 31.3542C11.5059 30.7552 10.5017 30.0894 9.3921 29.4783C9.38778 29.476 9.3835 29.4737 9.37924 29.4713C9.00857 29.2674 8.62621 29.0697 8.23637 28.8827C6.93935 28.2605 5.58467 27.7688 4.31726 27.5508C5.03283 30.5146 6.70446 32.3942 8.47222 33.5572C10.4123 34.8336 12.4627 35.2414 13.4743 35.2414C13.7957 35.2414 14.0562 35.5038 14.0562 35.8276C14.0562 36.1513 13.7957 36.4138 13.4743 36.4138C12.2414 36.4138 9.96911 35.9423 7.83586 34.5388C5.68147 33.1215 3.6632 30.7481 3.00866 26.9677C2.97776 26.7892 3.03052 26.6064 3.15158 26.4724C3.27265 26.3384 3.44842 26.2683 3.62771 26.2826C5.2371 26.4106 6.95607 26.9903 8.53401 27.7282C8.3458 27.2159 8.14562 26.6287 7.95848 26.0155C7.53703 24.6344 7.15648 23.0415 7.15648 21.8424C7.15648 21.646 7.2541 21.4626 7.41651 21.354Z" fill="black"/>
</svg>
