<svg width="40" height="40" viewBox="0 0 40 40" fill="none" xmlns="http://www.w3.org/2000/svg">
<path fill-rule="evenodd" clip-rule="evenodd" d="M21.4131 4.00001C21.4322 3.99989 21.4513 4.00071 21.4704 4.00248C29.7732 4.77077 36 11.6129 36 19.9678C36 28.8222 28.8366 36 20.0001 36C11.1635 36 4.00011 28.8222 4.00011 19.9678C4.00011 19.645 4.26128 19.3833 4.58344 19.3833H10.0001C11.8234 19.3833 13.1268 20.8883 13.6766 22.3836C14.63 24.9763 17.0781 26.8149 20.0001 26.8149C23.774 26.8149 26.8334 23.7494 26.8334 19.9678C26.8334 16.1863 23.774 13.1207 20.0001 13.1207C11.6498 13.1207 6.60777 7.91374 4.52734 5.02954C4.39938 4.85215 4.38106 4.61798 4.47986 4.42277C4.57866 4.22756 4.77803 4.10402 4.99647 4.10265L21.4131 4.00001ZM6.1823 5.26428C8.47063 8.04669 12.9999 11.9517 20.0001 11.9517C24.4183 11.9517 28 15.5407 28 19.9678C28 24.395 24.4183 27.9839 20.0001 27.9839C16.5689 27.9839 13.697 25.8204 12.5819 22.7877C12.1134 21.5136 11.1222 20.5523 10.0001 20.5523H5.17804C5.48438 28.4901 12.0032 34.831 20.0001 34.831C28.1923 34.831 34.8333 28.1765 34.8333 19.9678C34.8333 12.2264 29.0798 5.89483 21.3914 5.16918L6.1823 5.26428Z" fill="black"/>
<path fill-rule="evenodd" clip-rule="evenodd" d="M14.8334 6.60767C14.5573 6.60767 14.3334 6.83198 14.3334 7.10868C14.3334 7.38537 14.5573 7.60968 14.8334 7.60968C15.1096 7.60968 15.3334 7.38537 15.3334 7.10868C15.3334 6.83198 15.1096 6.60767 14.8334 6.60767ZM13.1667 7.10868C13.1667 6.18635 13.9129 5.43866 14.8334 5.43866C15.7539 5.43866 16.5001 6.18635 16.5001 7.10868C16.5001 8.031 15.7539 8.77869 14.8334 8.77869C13.9129 8.77869 13.1667 8.031 13.1667 7.10868Z" fill="black"/>
<path fill-rule="evenodd" clip-rule="evenodd" d="M9.25009 6.60767C9.25009 6.28486 9.51126 6.02316 9.83343 6.02316H11.0001C11.3223 6.02316 11.5834 6.28486 11.5834 6.60767C11.5834 6.93048 11.3223 7.19218 11.0001 7.19218H9.83343C9.51126 7.19218 9.25009 6.93048 9.25009 6.60767Z" fill="black"/>
<path fill-rule="evenodd" clip-rule="evenodd" d="M20.8376 4.19034C21.0654 3.96208 21.4347 3.96208 21.6625 4.19034C22.0133 4.54177 22.303 5.14698 22.5118 5.80583C22.7277 6.48743 22.8829 7.30895 22.9163 8.16085C22.9818 9.83463 22.5766 11.797 21.0072 12.9274C20.7456 13.1158 20.3811 13.056 20.193 12.7939C20.005 12.5317 20.0647 12.1665 20.3263 11.9781C21.4235 11.1879 21.81 9.72678 21.7505 8.20666C21.7213 7.46159 21.5849 6.74357 21.3998 6.15961C21.2075 5.5529 20.9869 5.16653 20.8376 5.01696C20.6098 4.78869 20.6098 4.4186 20.8376 4.19034Z" fill="black"/>
<path fill-rule="evenodd" clip-rule="evenodd" d="M28.2926 6.74377C28.6 6.64717 28.9274 6.81857 29.0238 7.12659C29.1713 7.59799 29.147 8.25995 29.0265 8.92867C28.9019 9.62057 28.6587 10.4045 28.2938 11.1569C27.5763 12.6365 26.3082 14.1414 24.4 14.373C24.0802 14.4118 23.7895 14.1834 23.7508 13.863C23.712 13.5425 23.9399 13.2512 24.2597 13.2124C25.5879 13.0513 26.5978 11.9794 27.2445 10.646C27.5617 9.99188 27.7723 9.31023 27.8784 8.72099C27.9888 8.10857 27.9724 7.67381 27.9106 7.4764C27.8142 7.16838 27.9852 6.84037 28.2926 6.74377Z" fill="black"/>
<path fill-rule="evenodd" clip-rule="evenodd" d="M34.0175 12.7736C34.3269 12.8635 34.5051 13.1877 34.4154 13.4977C34.277 13.976 33.8864 14.5248 33.4092 15.0292C32.9156 15.551 32.2696 16.0879 31.5379 16.533C30.1007 17.4072 28.1821 18.0107 26.4284 17.1884C26.1366 17.0516 26.0108 16.7036 26.1473 16.4112C26.2838 16.1189 26.6311 15.9927 26.9229 16.1296C28.1506 16.7052 29.6242 16.3295 30.9325 15.5337C31.5736 15.1437 32.1388 14.6729 32.5625 14.225C33.0027 13.7597 33.2356 13.3768 33.2948 13.1722C33.3845 12.8622 33.7081 12.6837 34.0175 12.7736Z" fill="black"/>
<path fill-rule="evenodd" clip-rule="evenodd" d="M35.5912 19.8102C35.8563 19.9937 35.9228 20.3577 35.7397 20.6233C35.43 21.0727 34.8572 21.4778 34.213 21.7877C33.5512 22.1061 32.7429 22.3584 31.8918 22.4593C30.1943 22.6604 28.2134 22.2611 26.9888 20.4237C26.8099 20.1553 26.882 19.7923 27.1499 19.613C27.4179 19.4338 27.7801 19.506 27.959 19.7745C28.8541 21.1176 30.3149 21.469 31.7548 21.2984C32.4723 21.2134 33.1566 20.9992 33.708 20.7339C34.2771 20.4601 34.6382 20.1643 34.7798 19.959C34.9628 19.6934 35.3262 19.6268 35.5912 19.8102Z" fill="black"/>
<path fill-rule="evenodd" clip-rule="evenodd" d="M33.4816 27.9562C33.6163 28.2494 33.4884 28.5966 33.1957 28.7316C32.7007 28.9601 32.0018 29.0161 31.2899 28.9538C30.5586 28.8898 29.7348 28.6941 28.9512 28.3462C27.3885 27.6523 25.8872 26.2972 25.7682 24.0909C25.7508 23.7686 25.9975 23.4931 26.3192 23.4757C26.6409 23.4583 26.9157 23.7055 26.9331 24.0278C27.0202 25.6405 28.0982 26.6888 29.4238 27.2774C30.0844 27.5706 30.7821 27.7359 31.3915 27.7892C32.0204 27.8443 32.4815 27.7742 32.7077 27.6698C33.0003 27.5348 33.3468 27.663 33.4816 27.9562Z" fill="black"/>
<path fill-rule="evenodd" clip-rule="evenodd" d="M28.1329 33.4935C28.1132 33.8157 27.8365 34.0609 27.515 34.0411C26.967 34.0074 26.3143 33.7218 25.7032 33.3241C25.0751 32.9153 24.4237 32.3446 23.8773 31.6574C22.7897 30.2896 22.0509 28.3585 22.943 26.3232C23.0725 26.0277 23.4167 25.8933 23.7116 26.0231C24.0066 26.1529 24.1407 26.4978 24.0111 26.7933C23.3579 28.2837 23.8547 29.753 24.7897 30.9289C25.2546 31.5135 25.8112 32.0004 26.3387 32.3437C26.883 32.6979 27.3333 32.8587 27.5864 32.8743C27.908 32.894 28.1527 33.1713 28.1329 33.4935Z" fill="black"/>
<path fill-rule="evenodd" clip-rule="evenodd" d="M19.9751 35.7591C19.7803 36.0162 19.4144 36.0665 19.1578 35.8713C18.7461 35.5583 18.3693 34.9798 18.0734 34.3338C17.7679 33.6671 17.5133 32.8512 17.3875 31.9904C17.1393 30.2924 17.3774 28.2615 18.9425 26.9509C19.1897 26.7439 19.5576 26.7769 19.7642 27.0246C19.9708 27.2723 19.9378 27.6409 19.6906 27.8479C18.5773 28.7802 18.3198 30.3019 18.5418 31.821C18.6511 32.5687 18.8732 33.2776 19.1336 33.8461C19.4036 34.4353 19.6821 34.8025 19.863 34.9401C20.1197 35.1353 20.1698 35.5019 19.9751 35.7591Z" fill="black"/>
<path fill-rule="evenodd" clip-rule="evenodd" d="M11.972 33.369C11.6765 33.4977 11.3329 33.3621 11.2044 33.0661C10.9996 32.5943 10.9558 31.9145 11.0153 31.219C11.0767 30.5011 11.2555 29.6823 11.5685 28.8895C12.1866 27.324 13.3922 25.7211 15.3936 25.3929C15.7115 25.3408 16.0115 25.5568 16.0635 25.8754C16.1155 26.194 15.8999 26.4945 15.582 26.5466C14.1634 26.7792 13.2013 27.9317 12.6534 29.3195C12.3834 30.0034 12.2297 30.7107 12.1777 31.3188C12.1237 31.9493 12.1856 32.3954 12.2743 32.5998C12.4028 32.8959 12.2674 33.2402 11.972 33.369Z" fill="black"/>
<path fill-rule="evenodd" clip-rule="evenodd" d="M6.35958 27.5401C6.04142 27.4893 5.82455 27.1898 5.87519 26.871C5.95342 26.3784 6.27291 25.7895 6.68344 25.2366C7.10804 24.6647 7.68159 24.0625 8.35139 23.5435C9.66857 22.523 11.4951 21.7276 13.3285 22.3734C13.6324 22.4805 13.7922 22.8142 13.6853 23.1187C13.5785 23.4232 13.2455 23.5833 12.9415 23.4763C11.6589 23.0244 10.255 23.5463 9.06505 24.4683C8.48127 24.9206 7.98208 25.446 7.61946 25.9344C7.24277 26.4417 7.06058 26.8455 7.02735 27.0547C6.97671 27.3735 6.67774 27.5908 6.35958 27.5401Z" fill="black"/>
<path fill-rule="evenodd" clip-rule="evenodd" d="M4.4144 9.13778C4.66043 9.06314 4.92622 9.15867 5.06881 9.37298L7.5688 13.1305C7.7475 13.3991 7.67507 13.762 7.40701 13.9411C7.13895 14.1201 6.77678 14.0476 6.59807 13.779L5.16678 11.6277V19.8008C5.16678 20.1236 4.90561 20.3853 4.58344 20.3853C4.26128 20.3853 4.00011 20.1236 4.00011 19.8008V9.6972C4.00011 9.43963 4.16838 9.21242 4.4144 9.13778Z" fill="black"/>
<path fill-rule="evenodd" clip-rule="evenodd" d="M10.3748 11.6708C10.5578 11.8245 10.6289 12.0745 10.5541 12.3017L8.0541 19.9003C7.95324 20.2069 7.62343 20.3735 7.31746 20.2724C7.0115 20.1714 6.84523 19.8409 6.9461 19.5343L8.98776 13.3288L4.86 15.5559C4.57634 15.709 4.22258 15.6026 4.06984 15.3184C3.9171 15.0341 4.02323 14.6797 4.30689 14.5266L9.72354 11.6041C9.93379 11.4906 10.1918 11.5171 10.3748 11.6708Z" fill="black"/>
<path fill-rule="evenodd" clip-rule="evenodd" d="M20.3921 12.3683C20.4847 12.6775 20.3096 13.0033 20.001 13.0961C19.8826 13.1317 19.6403 13.3531 19.5656 13.8189C19.4979 14.2407 19.6019 14.7342 19.9959 15.129C20.2237 15.3572 20.2237 15.7273 19.9959 15.9556C19.7681 16.1838 19.3987 16.1838 19.1709 15.9556C18.4816 15.2649 18.2939 14.3806 18.4137 13.6334C18.5265 12.9302 18.9509 12.1913 19.6658 11.9764C19.9743 11.8836 20.2995 12.0591 20.3921 12.3683Z" fill="black"/>
<path fill-rule="evenodd" clip-rule="evenodd" d="M23.546 13.2971C23.5439 13.6199 23.281 13.8799 22.9589 13.8777C22.8353 13.8769 22.5388 14.0173 22.3309 14.4406C22.1426 14.8239 22.0974 15.3262 22.3583 15.8195C22.5092 16.1047 22.4007 16.4585 22.1161 16.6097C21.8314 16.7609 21.4784 16.6522 21.3275 16.367C20.8709 15.5039 20.9506 14.6034 21.2841 13.9244C21.598 13.2853 22.2202 12.7039 22.9665 12.7088C23.2887 12.7109 23.5481 12.9743 23.546 13.2971Z" fill="black"/>
<path fill-rule="evenodd" clip-rule="evenodd" d="M26.3888 15.9676C26.2253 16.2457 25.8678 16.3384 25.5902 16.1746C25.4759 16.1071 25.1696 16.0835 24.824 16.3175C24.5121 16.5288 24.2571 16.9045 24.2624 17.4368C24.2656 17.7596 24.007 18.0239 23.6849 18.0271C23.3627 18.0303 23.099 17.7712 23.0958 17.4484C23.0862 16.4917 23.5618 15.7614 24.1707 15.349C24.7459 14.9594 25.5505 14.7944 26.1823 15.1673C26.4599 15.3311 26.5523 15.6894 26.3888 15.9676Z" fill="black"/>
<path fill-rule="evenodd" clip-rule="evenodd" d="M27.6191 19.5877C27.3335 19.7372 26.9811 19.6263 26.832 19.3402C26.7817 19.2437 26.5459 19.0615 26.1172 19.0756C25.7316 19.0883 25.3104 19.2689 25.0274 19.7024C24.851 19.9726 24.4895 20.0483 24.2199 19.8716C23.9503 19.6948 23.8747 19.3326 24.0511 19.0624C24.564 18.2768 25.355 17.9311 26.0789 17.9072C26.7598 17.8848 27.5309 18.1558 27.8661 18.7991C28.0153 19.0852 27.9047 19.4383 27.6191 19.5877Z" fill="black"/>
<path fill-rule="evenodd" clip-rule="evenodd" d="M26.6468 23.5738C26.327 23.5349 26.0992 23.2436 26.1379 22.9232C26.1989 22.4191 25.3836 21.4714 24.2248 22.1051C23.942 22.2597 23.5876 22.1554 23.4333 21.872C23.279 21.5886 23.3831 21.2336 23.6659 21.0789C25.5401 20.054 27.4871 21.4853 27.2961 23.0639C27.2573 23.3843 26.9666 23.6126 26.6468 23.5738Z" fill="black"/>
<path fill-rule="evenodd" clip-rule="evenodd" d="M23.4609 26.6437C23.2574 26.3935 23.2949 26.0253 23.5446 25.8214C23.728 25.6716 23.8735 25.2934 23.7569 24.8256C23.6495 24.3948 23.3259 23.9574 22.6889 23.7607C22.381 23.6656 22.2084 23.3384 22.3033 23.0299C22.3982 22.7214 22.7247 22.5484 23.0325 22.6435C24.0776 22.9663 24.687 23.7329 24.8888 24.5423C25.0813 25.3147 24.9119 26.2129 24.2816 26.7276C24.0319 26.9315 23.6644 26.894 23.4609 26.6437Z" fill="black"/>
<path fill-rule="evenodd" clip-rule="evenodd" d="M19.3571 27.4693C19.3136 27.1495 19.5372 26.8549 19.8564 26.8113C20.0859 26.78 20.4165 26.5277 20.5699 26.0414C20.7114 25.5924 20.6647 25.0234 20.2268 24.5032C20.0191 24.2565 20.0503 23.8877 20.2965 23.6796C20.5428 23.4714 20.9108 23.5027 21.1185 23.7495C21.8309 24.5956 21.9365 25.5876 21.6823 26.3936C21.4399 27.1622 20.8265 27.8588 20.0138 27.9697C19.6945 28.0132 19.4005 27.7892 19.3571 27.4693Z" fill="black"/>
<path fill-rule="evenodd" clip-rule="evenodd" d="M15.373 25.7609C15.5434 25.4869 15.9031 25.4031 16.1766 25.5738C16.8064 25.9669 18.1878 25.5084 18.0068 23.9509C17.9695 23.6302 18.1987 23.34 18.5187 23.3027C18.8387 23.2653 19.1283 23.495 19.1656 23.8156C19.4533 26.29 17.0664 27.5065 15.5597 26.5661C15.2863 26.3954 15.2027 26.0349 15.373 25.7609Z" fill="black"/>
<path fill-rule="evenodd" clip-rule="evenodd" d="M13.1439 23.026C13.3557 22.7827 13.7242 22.7576 13.9669 22.9699C14.526 23.4587 15.9628 23.2272 16.0324 21.6607C16.0467 21.3382 16.3192 21.0884 16.641 21.1027C16.9629 21.1171 17.2122 21.3901 17.1979 21.7126C17.0874 24.2013 14.5373 25.0202 13.1999 23.8507C12.9571 23.6384 12.9321 23.2692 13.1439 23.026Z" fill="black"/>
</svg>
