<svg width="40" height="40" viewBox="0 0 40 40" fill="none" xmlns="http://www.w3.org/2000/svg">
<path fill-rule="evenodd" clip-rule="evenodd" d="M19.9314 9.62553C13.9859 9.62553 9.16602 14.4454 9.16602 20.3909C9.16602 26.3365 13.9859 31.1564 19.9314 31.1564C25.877 31.1564 30.6969 26.3365 30.6969 20.3909C30.6969 14.4454 25.877 9.62553 19.9314 9.62553ZM8.08174 20.3909C8.08174 13.8465 13.387 8.54124 19.9314 8.54124C26.4759 8.54124 31.7812 13.8465 31.7812 20.3909C31.7812 26.9354 26.4759 32.2407 19.9314 32.2407C13.387 32.2407 8.08174 26.9354 8.08174 20.3909Z" fill="#116565"/>
<path fill-rule="evenodd" clip-rule="evenodd" d="M12.8961 6.31885C13.8084 5.02632 15.4512 4.4711 16.9606 4.94514L18.9023 5.55496C19.4204 5.71767 19.9769 5.71113 20.4911 5.53627L22.4179 4.88096C23.9157 4.37155 25.5711 4.88797 26.5136 6.15869L27.7261 7.79335C28.0496 8.22953 28.5036 8.55132 29.0224 8.71207L30.9664 9.31448C32.4776 9.78277 33.5133 11.1736 33.5289 12.7556L33.549 14.7907C33.5543 15.3338 33.7325 15.861 34.0577 16.2959L35.2763 17.926C36.2237 19.1931 36.2441 20.927 35.3268 22.2161L34.1468 23.8743C33.8319 24.3168 33.6662 24.8481 33.6736 25.3911L33.7014 27.4261C33.7231 29.0081 32.7204 30.4228 31.2206 30.9265L29.2913 31.5745C28.7765 31.7474 28.3301 32.0798 28.0169 32.5235L26.8433 34.1862C25.9309 35.4787 24.2881 36.0339 22.7787 35.5599L20.837 34.9501C20.3189 34.7874 19.7624 34.7939 19.2483 34.9688L17.3214 35.6241C15.8236 36.1335 14.1682 35.6171 13.2257 34.3463L12.0132 32.7117C11.6897 32.2755 11.2357 31.9537 10.717 31.793L8.77292 31.1906C7.26171 30.7223 6.22603 29.3315 6.21043 27.7494L6.19037 25.7143C6.18502 25.1713 6.00684 24.6441 5.68166 24.2091L4.46299 22.5791C3.51565 21.312 3.49526 19.578 4.41253 18.289L5.59253 16.6307C5.90738 16.1882 6.07312 15.657 6.0657 15.114L6.03789 13.0789C6.01627 11.497 7.01896 10.0822 8.51873 9.5785L10.4481 8.93053C10.9629 8.75763 11.4092 8.42525 11.7224 7.98158L12.8961 6.31885ZM16.6357 5.97961C15.5759 5.64678 14.4225 6.03661 13.7819 6.94413L12.6082 8.60686C12.1622 9.23875 11.5265 9.71214 10.7933 9.95839L8.86394 10.6064C7.81091 10.96 7.10689 11.9534 7.12207 13.0641L7.14988 15.0992C7.16045 15.8725 6.92441 16.6292 6.47597 17.2594L5.29598 18.9176C4.65194 19.8227 4.66626 21.0401 5.33141 21.9298L6.55007 23.5599C7.01321 24.1793 7.26698 24.9302 7.27461 25.7036L7.29467 27.7388C7.30562 28.8495 8.0328 29.8261 9.09386 30.1549L11.0379 30.7573C11.7767 30.9862 12.4234 31.4445 12.8841 32.0657L14.0966 33.7004C14.7583 34.5926 15.9206 34.9552 16.9723 34.5975L18.8991 33.9422C19.6314 33.6932 20.424 33.6839 21.1619 33.9156L23.1036 34.5254C24.1634 34.8583 25.3168 34.4684 25.9574 33.5609L27.1311 31.8982C27.5771 31.2663 28.2128 30.7929 28.9461 30.5466L30.8754 29.8987C31.9284 29.545 32.6324 28.5517 32.6173 27.4409L32.5894 25.4059C32.5789 24.6325 32.8149 23.8759 33.2634 23.2457L34.4433 21.5874C35.0874 20.6823 35.0731 19.4649 34.4079 18.5752L33.1892 16.9452C32.7261 16.3257 32.4723 15.5748 32.4647 14.8014L32.4447 12.7663C32.4337 11.6555 31.7065 10.679 30.6455 10.3502L28.7014 9.74777C27.9626 9.51883 27.316 9.06052 26.8552 8.4393L25.6427 6.80463C24.981 5.91243 23.8187 5.54983 22.767 5.9075L20.8402 6.56281C20.1079 6.81185 19.3154 6.82117 18.5774 6.58943L16.6357 5.97961Z" fill="#116565"/>
<path fill-rule="evenodd" clip-rule="evenodd" d="M16.838 17.9901C17.0672 17.9921 17.2702 18.138 17.3453 18.3545L18.662 22.1495C18.7601 22.4324 18.6103 22.7412 18.3275 22.8394C18.0446 22.9375 17.7357 22.7878 17.6376 22.5049L17.4416 21.9399H16.1589L15.9479 22.5141C15.8447 22.7952 15.5332 22.9393 15.2521 22.8361C14.9711 22.7328 14.8269 22.4213 14.9302 22.1402L16.3242 18.3452C16.4032 18.1302 16.6089 17.988 16.838 17.9901ZM16.5572 20.8556H17.0654L16.8185 20.1441L16.5572 20.8556ZM24.1957 17.9901C24.4248 17.9921 24.6279 18.138 24.703 18.3545L26.0196 22.1495C26.1178 22.4324 25.968 22.7412 25.6851 22.8394C25.4023 22.9375 25.0934 22.7878 24.9952 22.5049L24.7992 21.9399H23.5165L23.3056 22.5141C23.2024 22.7952 22.8908 22.9393 22.6098 22.8361C22.3287 22.7328 22.1846 22.4213 22.2878 22.1402L23.6819 18.3452C23.7609 18.1302 23.9666 17.988 24.1957 17.9901ZM23.9148 20.8556H24.423L24.1762 20.1441L23.9148 20.8556ZM11.4117 17.99C11.7111 17.99 11.9538 18.2328 11.9538 18.5322V19.8875H13.3479V18.5322C13.3479 18.2328 13.5906 17.99 13.8901 17.99C14.1895 17.99 14.4322 18.2328 14.4322 18.5322V22.3272C14.4322 22.6266 14.1895 22.8693 13.8901 22.8693C13.5906 22.8693 13.3479 22.6266 13.3479 22.3272V20.9718H11.9538V22.3272C11.9538 22.6266 11.7111 22.8693 11.4117 22.8693C11.1123 22.8693 10.8696 22.6266 10.8696 22.3272V18.5322C10.8696 18.2328 11.1123 17.99 11.4117 17.99ZM19.8536 17.99C20.1531 17.99 20.3958 18.2328 20.3958 18.5322V21.785H21.3252C21.6246 21.785 21.8673 22.0278 21.8673 22.3272C21.8673 22.6266 21.6246 22.8693 21.3252 22.8693H19.8536C19.5542 22.8693 19.3115 22.6266 19.3115 22.3272V18.5322C19.3115 18.2328 19.5542 17.99 19.8536 17.99ZM26.979 17.99C27.2784 17.99 27.5211 18.2328 27.5211 18.5322V21.785H28.4505C28.7499 21.785 28.9926 22.0278 28.9926 22.3272C28.9926 22.6266 28.7499 22.8693 28.4505 22.8693H26.979C26.6795 22.8693 26.4368 22.6266 26.4368 22.3272V18.5322C26.4368 18.2328 26.6795 17.99 26.979 17.99Z" fill="#116565"/>
</svg>
