<svg width="40" height="40" viewBox="0 0 40 40" fill="none" xmlns="http://www.w3.org/2000/svg">
<path fill-rule="evenodd" clip-rule="evenodd" d="M10.1835 30.056C10.3221 30.1437 10.4958 30.1542 10.6439 30.084L12.744 29.0884L14.8441 30.084C14.9737 30.1454 15.124 30.1454 15.2537 30.084L17.3537 29.0884L19.4538 30.084C19.5835 30.1454 19.7338 30.1454 19.8634 30.084L22.1683 28.9913L21.7587 28.1274L19.6586 29.123L17.5585 28.1274C17.4289 28.0659 17.2786 28.0659 17.149 28.1274L15.0489 29.123L12.9488 28.1274C12.8192 28.0659 12.6688 28.0659 12.5392 28.1274L10.9172 28.8964L10.9171 8.45853C10.9171 7.89274 10.7259 7.37157 10.4047 6.9561H26.1464C27.3911 6.9561 28.4001 7.96509 28.4001 9.20976V21.8439H29.3562V9.20976C29.3562 7.43706 27.9191 6 26.1464 6H8.50415V6.00041C8.48898 6.00014 8.47378 6 8.45854 6C7.10072 6 6 7.10072 6 8.45853V23.6423C6 23.9063 6.21403 24.1203 6.47805 24.1203C6.74207 24.1203 6.9561 23.9063 6.9561 23.6423V8.45853C6.9561 7.62876 7.62876 6.9561 8.45854 6.9561C9.28831 6.9561 9.96098 7.62876 9.96098 8.45854L9.96106 29.652C9.96107 29.8159 10.045 29.9684 10.1835 30.056Z" fill="#262626"/>
<path fill-rule="evenodd" clip-rule="evenodd" d="M27.7171 22.3902C24.7751 22.3902 22.3902 24.7751 22.3902 27.7171C22.3902 30.659 24.7751 33.0439 27.7171 33.0439C30.659 33.0439 33.0439 30.659 33.0439 27.7171C33.0439 24.7751 30.659 22.3902 27.7171 22.3902ZM21.4341 27.7171C21.4341 24.2471 24.2471 21.4341 27.7171 21.4341C31.187 21.4341 34 24.2471 34 27.7171C34 31.187 31.187 34 27.7171 34C24.2471 34 21.4341 31.187 21.4341 27.7171Z" fill="#262626"/>
<path fill-rule="evenodd" clip-rule="evenodd" d="M30.6807 25.3646C30.8862 25.5304 30.9183 25.8314 30.7525 26.0368L27.611 29.9295C27.5226 30.0391 27.3903 30.1041 27.2495 30.1072C27.1087 30.1103 26.9737 30.0512 26.8806 29.9456L24.8318 27.6236C24.6571 27.4256 24.676 27.1235 24.874 26.9489C25.0719 26.7742 25.374 26.7931 25.5487 26.991L27.2227 28.8883L30.0085 25.4364C30.1743 25.2309 30.4753 25.1988 30.6807 25.3646Z" fill="#262626"/>
<path fill-rule="evenodd" clip-rule="evenodd" d="M12.0098 20.5463C12.0098 20.8104 12.2238 21.0244 12.4878 21.0244H26.5561C26.8201 21.0244 27.0341 20.8104 27.0341 20.5463C27.0341 20.2823 26.8201 20.0683 26.5561 20.0683H12.4878C12.2238 20.0683 12.0098 20.2823 12.0098 20.5463Z" fill="#262626"/>
<path fill-rule="evenodd" clip-rule="evenodd" d="M12.0098 24.6439C12.0098 24.9079 12.2238 25.122 12.4878 25.122H20.2732C20.5372 25.122 20.7512 24.9079 20.7512 24.6439C20.7512 24.3799 20.5372 24.1659 20.2732 24.1659H12.4878C12.2238 24.1659 12.0098 24.3799 12.0098 24.6439Z" fill="#262626"/>
<path fill-rule="evenodd" clip-rule="evenodd" d="M12.0098 18.4976C12.0098 18.7616 12.2238 18.9756 12.4878 18.9756H26.5561C26.8201 18.9756 27.0341 18.7616 27.0341 18.4976C27.0341 18.2335 26.8201 18.0195 26.5561 18.0195H12.4878C12.2238 18.0195 12.0098 18.2335 12.0098 18.4976Z" fill="#262626"/>
<path fill-rule="evenodd" clip-rule="evenodd" d="M12.0098 22.5951C12.0098 22.8591 12.2238 23.0732 12.4878 23.0732H20.2732C20.5372 23.0732 20.7512 22.8591 20.7512 22.5951C20.7512 22.3311 20.5372 22.1171 20.2732 22.1171H12.4878C12.2238 22.1171 12.0098 22.3311 12.0098 22.5951Z" fill="#262626"/>
<path fill-rule="evenodd" clip-rule="evenodd" d="M12.0098 16.4488C12.0098 16.7128 12.2238 16.9268 12.4878 16.9268H26.5561C26.8201 16.9268 27.0341 16.7128 27.0341 16.4488C27.0341 16.1848 26.8201 15.9707 26.5561 15.9707H12.4878C12.2238 15.9707 12.0098 16.1848 12.0098 16.4488Z" fill="#262626"/>
<path fill-rule="evenodd" clip-rule="evenodd" d="M18.0195 14.4C18.0195 14.664 18.2335 14.878 18.4976 14.878H26.5561C26.8201 14.878 27.0341 14.664 27.0341 14.4C27.0341 14.136 26.8201 13.922 26.5561 13.922L18.4976 13.922C18.2335 13.922 18.0195 14.136 18.0195 14.4Z" fill="#262626"/>
<path fill-rule="evenodd" clip-rule="evenodd" d="M18.0195 12.3512C18.0195 12.6152 18.2335 12.8293 18.4976 12.8293L26.5561 12.8293C26.8201 12.8293 27.0341 12.6152 27.0341 12.3512C27.0341 12.0872 26.8201 11.8732 26.5561 11.8732L18.4976 11.8732C18.2335 11.8732 18.0195 12.0872 18.0195 12.3512Z" fill="#262626"/>
<path fill-rule="evenodd" clip-rule="evenodd" d="M18.0195 10.3024C18.0195 10.0384 18.2335 9.82439 18.4976 9.82439L26.5561 9.82439C26.8201 9.82439 27.0341 10.0384 27.0341 10.3024C27.0341 10.5665 26.8201 10.7805 26.5561 10.7805L18.4976 10.7805C18.2335 10.7805 18.0195 10.5665 18.0195 10.3024Z" fill="#262626"/>
<path d="M12.4878 12.7598V12.115H14.6248C14.6585 12.115 14.6994 12.114 14.7478 12.1119C14.7982 12.1077 14.8539 12.0973 14.9148 12.0806C15.0892 12.0326 15.2153 11.946 15.2931 11.8208C15.3708 11.6935 15.4097 11.5454 15.4097 11.3763C15.4097 11.2741 15.3939 11.1718 15.3624 11.0696C15.333 10.9653 15.2815 10.8734 15.208 10.7941C15.1365 10.7149 15.0388 10.6596 14.9148 10.6283C14.8602 10.6136 14.8045 10.6053 14.7478 10.6032C14.6931 10.6011 14.6522 10.6001 14.6248 10.6001H13.4365V9.89268H14.6564C14.6795 9.89268 14.7247 9.89373 14.7919 9.89581C14.8612 9.8979 14.9379 9.9052 15.022 9.91772C15.2826 9.95737 15.4979 10.044 15.6681 10.1775C15.8405 10.3111 15.9676 10.4801 16.0495 10.6846C16.1336 10.887 16.1756 11.1103 16.1756 11.3544C16.1756 11.728 16.08 12.0368 15.8888 12.2809C15.6976 12.5251 15.4086 12.6764 15.022 12.7348C14.9379 12.7452 14.8612 12.7525 14.7919 12.7567C14.7247 12.7588 14.6795 12.7598 14.6564 12.7598H12.4878ZM12.4878 13.7865V13.1949H15.1764V13.7865H12.4878ZM12.9385 14.4V9.89268H13.6982V14.4H12.9385Z" fill="#262626"/>
</svg>
