<svg width="40" height="40" viewBox="0 0 40 40" fill="none" xmlns="http://www.w3.org/2000/svg">
<path fill-rule="evenodd" clip-rule="evenodd" d="M13.8824 7.08092C13.8824 5.93166 14.7853 5 15.8992 5H25.9832C27.097 5 28 5.93166 28 7.08092V26.8497C28 27.999 27.097 28.9306 25.9832 28.9306H19.9328V31.3584C19.9328 33.2738 18.4278 34.8266 16.5714 34.8266C16.3858 34.8266 16.2353 34.6713 16.2353 34.4798C16.2353 34.2882 16.3858 34.1329 16.5714 34.1329C18.0566 34.1329 19.2605 32.8907 19.2605 31.3584V28.9306H16.4255C16.406 29.0681 16.3827 29.2074 16.3543 29.3482C16.1285 30.4666 15.5843 31.6588 14.1047 33.0058C13.9655 33.1325 13.7531 33.1188 13.6303 32.9752C13.5075 32.8315 13.5208 32.6124 13.66 32.4856C15.0376 31.2315 15.5018 30.1693 15.6961 29.2068C15.7884 28.7498 15.8212 28.3099 15.8551 27.8549C15.8579 27.8181 15.8606 27.7811 15.8634 27.7441C15.9001 27.257 15.9437 26.7503 16.0791 26.2382C16.3452 25.2313 16.7888 24.4577 17.2756 23.6717C17.3414 23.5654 17.408 23.4589 17.4751 23.3515C17.9064 22.6616 18.3613 21.9341 18.7872 20.9818C19.2446 19.9594 19.0358 19.0781 18.6562 18.637C18.4665 18.4164 18.245 18.3133 18.0378 18.3159C17.8356 18.3184 17.5864 18.4225 17.3381 18.7427C16.6709 19.6032 15.3307 21.4612 14.153 23.1104C13.5651 23.9336 13.0191 24.7027 12.6201 25.2661C12.4206 25.5477 12.2579 25.7779 12.1451 25.9377L11.9695 26.1864C11.9695 26.1864 11.9693 26.1867 11.6975 25.9827C11.4256 25.7787 11.4257 25.7786 11.4257 25.7786L11.6018 25.5291C11.7148 25.3692 11.8777 25.1387 12.0773 24.8568C12.4767 24.293 13.0232 23.5231 13.6117 22.6989C13.7011 22.5738 13.7914 22.4475 13.8824 22.3203V16.976L12.2896 18.2402L8.67227 24.5173V34.6532C8.67227 34.8447 8.52178 35 8.33613 35C8.15049 35 8 34.8447 8 34.6532V24.3266L11.7776 17.7714L13.8824 16.1009V7.08092ZM14.5546 16.2749C14.5546 16.2726 14.5546 16.2703 14.5546 16.268V7.08092C14.5546 6.31475 15.1566 5.69364 15.8992 5.69364H17.7257L18.6361 7.25936C18.6969 7.36383 18.8063 7.42775 18.9244 7.42775H22.958C23.0761 7.42775 23.1855 7.36383 23.2462 7.25936L24.1567 5.69364H25.9832C26.7258 5.69364 27.3277 6.31475 27.3277 7.08092V26.8497C27.3277 27.6159 26.7258 28.237 25.9832 28.237H16.5001C16.5091 28.1276 16.5171 28.0199 16.525 27.9142C16.5279 27.8752 16.5307 27.8364 16.5337 27.7979C16.5705 27.3095 16.6109 26.8625 16.7277 26.4207C16.9657 25.5201 17.3624 24.8198 17.8421 24.0451C17.9059 23.942 17.9712 23.8376 18.0378 23.7313C18.4692 23.0416 18.9505 22.2722 19.3976 21.2725C19.9487 20.0406 19.743 18.8553 19.159 18.1765C18.867 17.8371 18.4694 17.6168 18.0296 17.6223C17.5847 17.6279 17.1588 17.8635 16.8131 18.3094C16.313 18.9544 15.4468 20.1429 14.5546 21.3831V16.2749ZM23.3727 5.69364H18.5096L19.1147 6.7341H22.7677L23.3727 5.69364ZM11.6975 25.9827L11.4257 25.7786C11.3165 25.9335 11.3496 26.1505 11.4998 26.2632C11.6499 26.3758 11.8603 26.3413 11.9695 26.1864L11.6975 25.9827ZM20.9412 11.9364C21.1268 11.9364 21.2773 12.0917 21.2773 12.2832V15.4046C21.2773 15.5962 21.1268 15.7514 20.9412 15.7514C20.7555 15.7514 20.605 15.5962 20.605 15.4046V12.2832C20.605 12.0917 20.7555 11.9364 20.9412 11.9364ZM16.2353 12.6301C16.2353 12.4385 16.3858 12.2832 16.5714 12.2832H19.2605C19.4461 12.2832 19.5966 12.4385 19.5966 12.6301V15.4046C19.5966 15.5962 19.4461 15.7514 19.2605 15.7514H16.5714C16.3858 15.7514 16.2353 15.5962 16.2353 15.4046V12.6301ZM16.9076 12.9769V15.0578H18.9244V12.9769H16.9076ZM22.2857 12.6301C22.2857 12.4385 22.4362 12.2832 22.6218 12.2832H25.3109C25.4966 12.2832 25.6471 12.4385 25.6471 12.6301V15.4046C25.6471 15.5962 25.4966 15.7514 25.3109 15.7514H22.6218C22.4362 15.7514 22.2857 15.5962 22.2857 15.4046V12.6301ZM22.958 12.9769V15.0578H24.9748V12.9769H22.958ZM20.605 17.1387C20.605 16.9472 20.7555 16.7919 20.9412 16.7919H24.9748C25.1604 16.7919 25.3109 16.9472 25.3109 17.1387C25.3109 17.3303 25.1604 17.4855 24.9748 17.4855H21.2773V21.3006C21.2773 21.4921 21.1268 21.6474 20.9412 21.6474C20.7555 21.6474 20.605 21.4921 20.605 21.3006V17.1387ZM22.2857 18.8728C22.2857 18.6813 22.4362 18.526 22.6218 18.526H25.3109C25.4966 18.526 25.6471 18.6813 25.6471 18.8728V21.6474C25.6471 21.8389 25.4966 21.9942 25.3109 21.9942H22.6218C22.4362 21.9942 22.2857 21.8389 22.2857 21.6474V18.8728ZM22.958 19.2197V21.3006H24.9748V19.2197H22.958Z" fill="#116565"/>
<path d="M11.9695 26.1864C11.9695 26.1864 11.9693 26.1867 11.6975 25.9827M11.9695 26.1864C11.8603 26.3413 11.6499 26.3758 11.4998 26.2632C11.3496 26.1505 11.3165 25.9335 11.4257 25.7786M11.9695 26.1864L11.6975 25.9827M11.9695 26.1864L12.1451 25.9377C12.2579 25.7779 12.4206 25.5477 12.6201 25.2661C13.0191 24.7027 13.5651 23.9336 14.153 23.1104C15.3307 21.4612 16.6709 19.6032 17.3381 18.7427C17.5864 18.4225 17.8356 18.3184 18.0378 18.3159C18.245 18.3133 18.4665 18.4164 18.6562 18.637C19.0358 19.0781 19.2446 19.9594 18.7872 20.9818C18.3613 21.9341 17.9064 22.6616 17.4751 23.3515C17.408 23.4589 17.3414 23.5654 17.2756 23.6717C16.7888 24.4577 16.3452 25.2313 16.0791 26.2382C15.9437 26.7503 15.9001 27.257 15.8634 27.7441C15.8606 27.7811 15.8579 27.8181 15.8551 27.8549C15.8212 28.3099 15.7884 28.7498 15.6961 29.2068C15.5018 30.1693 15.0376 31.2315 13.66 32.4856C13.5208 32.6124 13.5075 32.8315 13.6303 32.9752C13.7531 33.1188 13.9655 33.1325 14.1047 33.0058C15.5843 31.6588 16.1285 30.4666 16.3543 29.3482C16.3827 29.2074 16.406 29.0681 16.4255 28.9306H19.2605V31.3584C19.2605 32.8907 18.0566 34.1329 16.5714 34.1329C16.3858 34.1329 16.2353 34.2882 16.2353 34.4798C16.2353 34.6713 16.3858 34.8266 16.5714 34.8266C18.4278 34.8266 19.9328 33.2738 19.9328 31.3584V28.9306H25.9832C27.097 28.9306 28 27.999 28 26.8497V7.08092C28 5.93166 27.097 5 25.9832 5H15.8992C14.7853 5 13.8824 5.93166 13.8824 7.08092V16.1009L11.7776 17.7714L8 24.3266V34.6532C8 34.8447 8.15049 35 8.33613 35C8.52178 35 8.67227 34.8447 8.67227 34.6532V24.5173L12.2896 18.2402L13.8824 16.976V22.3203C13.7914 22.4475 13.7011 22.5738 13.6117 22.6989C13.0232 23.5231 12.4767 24.293 12.0773 24.8568C11.8777 25.1387 11.7148 25.3692 11.6018 25.5291L11.4257 25.7786M11.6975 25.9827C11.4256 25.7787 11.4257 25.7786 11.4257 25.7786M11.6975 25.9827L11.4257 25.7786M14.5546 16.2749C14.5546 16.2726 14.5546 16.2703 14.5546 16.268V7.08092C14.5546 6.31475 15.1566 5.69364 15.8992 5.69364H17.7257L18.6361 7.25936C18.6969 7.36383 18.8063 7.42775 18.9244 7.42775H22.958C23.0761 7.42775 23.1855 7.36383 23.2462 7.25936L24.1567 5.69364H25.9832C26.7258 5.69364 27.3277 6.31475 27.3277 7.08092V26.8497C27.3277 27.6159 26.7258 28.237 25.9832 28.237H16.5001C16.5091 28.1276 16.5171 28.0199 16.525 27.9142C16.5279 27.8752 16.5307 27.8364 16.5337 27.7979C16.5705 27.3095 16.6109 26.8625 16.7277 26.4207C16.9657 25.5201 17.3624 24.8198 17.8421 24.0451C17.9059 23.942 17.9712 23.8376 18.0378 23.7313C18.4692 23.0416 18.9505 22.2722 19.3976 21.2725C19.9487 20.0406 19.743 18.8553 19.159 18.1765C18.867 17.8371 18.4694 17.6168 18.0296 17.6223C17.5847 17.6279 17.1588 17.8635 16.8131 18.3094C16.313 18.9544 15.4468 20.1429 14.5546 21.3831V16.2749ZM18.5096 5.69364H23.3727L22.7677 6.7341H19.1147L18.5096 5.69364ZM21.2773 12.2832C21.2773 12.0917 21.1268 11.9364 20.9412 11.9364C20.7555 11.9364 20.605 12.0917 20.605 12.2832V15.4046C20.605 15.5962 20.7555 15.7514 20.9412 15.7514C21.1268 15.7514 21.2773 15.5962 21.2773 15.4046V12.2832ZM16.5714 12.2832C16.3858 12.2832 16.2353 12.4385 16.2353 12.6301V15.4046C16.2353 15.5962 16.3858 15.7514 16.5714 15.7514H19.2605C19.4461 15.7514 19.5966 15.5962 19.5966 15.4046V12.6301C19.5966 12.4385 19.4461 12.2832 19.2605 12.2832H16.5714ZM16.9076 15.0578V12.9769H18.9244V15.0578H16.9076ZM22.6218 12.2832C22.4362 12.2832 22.2857 12.4385 22.2857 12.6301V15.4046C22.2857 15.5962 22.4362 15.7514 22.6218 15.7514H25.3109C25.4966 15.7514 25.6471 15.5962 25.6471 15.4046V12.6301C25.6471 12.4385 25.4966 12.2832 25.3109 12.2832H22.6218ZM22.958 15.0578V12.9769H24.9748V15.0578H22.958ZM20.9412 16.7919C20.7555 16.7919 20.605 16.9472 20.605 17.1387V21.3006C20.605 21.4921 20.7555 21.6474 20.9412 21.6474C21.1268 21.6474 21.2773 21.4921 21.2773 21.3006V17.4855H24.9748C25.1604 17.4855 25.3109 17.3303 25.3109 17.1387C25.3109 16.9472 25.1604 16.7919 24.9748 16.7919H20.9412ZM22.6218 18.526C22.4362 18.526 22.2857 18.6813 22.2857 18.8728V21.6474C22.2857 21.8389 22.4362 21.9942 22.6218 21.9942H25.3109C25.4966 21.9942 25.6471 21.8389 25.6471 21.6474V18.8728C25.6471 18.6813 25.4966 18.526 25.3109 18.526H22.6218ZM22.958 21.3006V19.2197H24.9748V21.3006H22.958Z" stroke="#116565" stroke-width="0.3" stroke-linecap="round" stroke-linejoin="round"/>
</svg>
