<svg width="40" height="40" viewBox="0 0 40 40" fill="none" xmlns="http://www.w3.org/2000/svg">
<path fill-rule="evenodd" clip-rule="evenodd" d="M16.9053 21.732C12.5088 21.732 8.94737 25.2118 8.94737 29.5012C8.94737 29.9483 8.986 30.3863 9.06007 30.8121L8.04315 30.9818C7.95937 30.5001 7.91579 30.0054 7.91579 29.5012C7.91579 24.651 11.942 20.7217 16.9053 20.7217C21.8686 20.7217 25.8947 24.651 25.8947 29.5012C25.8947 30.0054 25.8512 30.5001 25.7674 30.9818L24.7505 30.8121C24.8245 30.3863 24.8632 29.9483 24.8632 29.5012C24.8632 25.2118 21.3017 21.732 16.9053 21.732Z" fill="#262626"/>
<path fill-rule="evenodd" clip-rule="evenodd" d="M16.3895 23.6082C13.256 23.6082 10.7158 26.0961 10.7158 29.1649C10.7158 29.4439 10.4849 29.6701 10.2 29.6701C9.91514 29.6701 9.68421 29.4439 9.68421 29.1649C9.68421 25.5381 12.6863 22.5979 16.3895 22.5979C16.6743 22.5979 16.9053 22.8241 16.9053 23.1031C16.9053 23.3821 16.6743 23.6082 16.3895 23.6082Z" fill="#262626"/>
<path fill-rule="evenodd" clip-rule="evenodd" d="M16.8316 19.2784C16.2094 19.2784 15.7263 19.7575 15.7263 20.3231C15.7263 20.548 15.801 20.756 15.9298 20.9273L15.0992 21.5264C14.8454 21.1888 14.6947 20.7726 14.6947 20.3231C14.6947 19.1767 15.6632 18.268 16.8316 18.268C18 18.268 18.9684 19.1767 18.9684 20.3231C18.9684 20.7726 18.8178 21.1888 18.564 21.5264L17.7334 20.9273C17.8622 20.756 17.9368 20.548 17.9368 20.3231C17.9368 19.7575 17.4538 19.2784 16.8316 19.2784Z" fill="#262626"/>
<path fill-rule="evenodd" clip-rule="evenodd" d="M6 32.1959C6 31.1995 6.82474 30.3918 7.84211 30.3918H25.8211C26.8384 30.3918 27.6632 31.1995 27.6632 32.1959C27.6632 33.1923 26.8384 34 25.8211 34H7.8421C6.82474 34 6 33.1923 6 32.1959ZM7.84211 31.4021C7.39446 31.4021 7.03158 31.7575 7.03158 32.1959C7.03158 32.6343 7.39446 32.9897 7.8421 32.9897H25.8211C26.2687 32.9897 26.6316 32.6343 26.6316 32.1959C26.6316 31.7575 26.2687 31.4021 25.8211 31.4021H7.84211Z" fill="#262626"/>
<path fill-rule="evenodd" clip-rule="evenodd" d="M25.1579 24.2577C25.1579 23.9787 25.3888 23.7526 25.6737 23.7526H31.4211C31.7059 23.7526 31.9368 23.9787 31.9368 24.2577C31.9368 24.5367 31.7059 24.7629 31.4211 24.7629H25.6737C25.3888 24.7629 25.1579 24.5367 25.1579 24.2577Z" fill="#262626"/>
<path fill-rule="evenodd" clip-rule="evenodd" d="M26.7789 25.9897C26.7789 25.7107 27.0099 25.4845 27.2947 25.4845H31.4211C31.7059 25.4845 31.9368 25.7107 31.9368 25.9897C31.9368 26.2687 31.7059 26.4948 31.4211 26.4948H27.2947C27.0099 26.4948 26.7789 26.2687 26.7789 25.9897Z" fill="#262626"/>
<path fill-rule="evenodd" clip-rule="evenodd" d="M26.7789 27.7217C26.7789 27.4427 27.0099 27.2165 27.2947 27.2165H31.4211C31.7059 27.2165 31.9368 27.4427 31.9368 27.7217C31.9368 28.0006 31.7059 28.2268 31.4211 28.2268H27.2947C27.0099 28.2268 26.7789 28.0006 26.7789 27.7217Z" fill="#262626"/>
<path fill-rule="evenodd" clip-rule="evenodd" d="M15.8737 9.24743C15.8737 8.96844 16.1046 8.74227 16.3895 8.74227H33.4842C33.7691 8.74227 34 8.96844 34 9.24743V33.4948C34 33.7738 33.7691 34 33.4842 34H25.7474V32.9897H32.9684V9.75258H16.9053V18.4845H15.8737V9.24743Z" fill="#262626"/>
<path fill-rule="evenodd" clip-rule="evenodd" d="M31.8245 6.11677C31.9424 6.21274 32.0105 6.35507 32.0105 6.50516V9.24743H30.9789V7.11256L16.4835 9.74412L16.2955 8.75073L31.4007 6.00847C31.5514 5.98111 31.7067 6.0208 31.8245 6.11677Z" fill="#262626"/>
<path fill-rule="evenodd" clip-rule="evenodd" d="M27.3782 14.9756C27.5797 15.1729 27.5797 15.4927 27.3782 15.69L22.2204 20.7415C22.0189 20.9388 21.6923 20.9388 21.4909 20.7415C21.2895 20.5443 21.2895 20.2244 21.4909 20.0271L26.6488 14.9756C26.8502 14.7783 27.1768 14.7783 27.3782 14.9756Z" fill="#262626"/>
<path fill-rule="evenodd" clip-rule="evenodd" d="M20.0141 12.5087C20.2155 12.3115 20.5421 12.3115 20.7435 12.5087L28.7014 20.3025C28.9028 20.4998 28.9028 20.8197 28.7014 21.0169C28.5 21.2142 28.1734 21.2142 27.972 21.0169L20.0141 13.2231C19.8126 13.0259 19.8126 12.706 20.0141 12.5087Z" fill="#262626"/>
<path fill-rule="evenodd" clip-rule="evenodd" d="M18.9721 13.5293C19.1736 13.332 19.5001 13.332 19.7016 13.5293L21.3688 15.1622C21.7429 15.5286 22.3494 15.5286 22.7235 15.1622C23.0976 14.7958 23.0976 14.2018 22.7235 13.8355L21.0562 12.2026C20.8548 12.0053 20.8548 11.6854 21.0562 11.4882C21.2577 11.2909 21.5842 11.2909 21.7857 11.4882L23.4529 13.1211C24.2299 13.882 24.2299 15.1157 23.4529 15.8766C22.676 16.6375 21.4163 16.6375 20.6394 15.8766L18.9721 14.2437C18.7707 14.0464 18.7707 13.7266 18.9721 13.5293Z" fill="#262626"/>
<path fill-rule="evenodd" clip-rule="evenodd" d="M28.5519 12.7451C28.2403 12.7849 27.8874 12.9462 27.5868 13.2406C27.2862 13.535 27.1215 13.8807 27.0808 14.1858C27.0403 14.4903 27.123 14.7255 27.2742 14.8735C27.4253 15.0216 27.6655 15.1026 27.9763 15.0629C28.2879 15.0231 28.6408 14.8618 28.9414 14.5674C29.2421 14.273 29.4068 13.9273 29.4474 13.6222C29.4879 13.3177 29.4052 13.0825 29.2541 12.9345C29.1029 12.7864 28.8627 12.7054 28.5519 12.7451ZM28.4185 11.7433C28.9751 11.6722 29.5592 11.8045 29.9835 12.2201C30.4078 12.6357 30.5429 13.2077 30.4703 13.7528C30.3978 14.2973 30.1184 14.8434 29.6709 15.2818C29.2233 15.7201 28.6657 15.9937 28.1098 16.0647C27.5532 16.1358 26.9691 16.0035 26.5447 15.5879C26.1204 15.1723 25.9853 14.6003 26.0579 14.0552C26.1304 13.5107 26.4098 12.9646 26.8573 12.5262C27.3049 12.0879 27.8625 11.8143 28.4185 11.7433Z" fill="#262626"/>
</svg>
