<svg width="40" height="40" viewBox="0 0 40 40" fill="none" xmlns="http://www.w3.org/2000/svg">
<path fill-rule="evenodd" clip-rule="evenodd" d="M20 5.12563C11.7851 5.12563 5.12563 11.7851 5.12563 20C5.12563 28.2149 11.7851 34.8744 20 34.8744C28.2149 34.8744 34.8744 28.2149 34.8744 20C34.8744 11.7851 28.2149 5.12563 20 5.12563ZM4 20C4 11.1634 11.1634 4 20 4C28.8366 4 36 11.1634 36 20C36 28.8366 28.8366 36 20 36C11.1634 36 4 28.8366 4 20Z" fill="black"/>
<path fill-rule="evenodd" clip-rule="evenodd" d="M21.3668 23.7789C19.9459 23.7789 18.794 24.9308 18.794 26.3518C18.794 27.7727 19.9459 28.9246 21.3668 28.9246C22.7878 28.9246 23.9397 27.7727 23.9397 26.3518C23.9397 24.9308 22.7878 23.7789 21.3668 23.7789ZM17.6683 26.3518C17.6683 24.3091 19.3242 22.6533 21.3668 22.6533C23.4095 22.6533 25.0653 24.3091 25.0653 26.3518C25.0653 28.3944 23.4095 30.0503 21.3668 30.0503C19.3242 30.0503 17.6683 28.3944 17.6683 26.3518Z" fill="black"/>
<path fill-rule="evenodd" clip-rule="evenodd" d="M31.0151 20C31.0151 14.3306 26.7315 9.66094 21.2246 9.05218L21.3483 7.93337C27.4191 8.60448 32.1407 13.7505 32.1407 20C32.1407 22.9751 30.6045 26.3197 28.875 28.4L28.0094 27.6804C29.6154 25.7487 31.0151 22.6501 31.0151 20ZM18.3929 9.10124C17.7075 9.20138 17.0428 9.36462 16.4047 9.58485L16.0375 8.52081C16.7414 8.27787 17.4746 8.09784 18.2302 7.98744L18.3929 9.10124ZM10.9437 26.2721C11.4743 27.0367 12.0993 27.7309 12.8018 28.338L12.0658 29.1897C11.292 28.521 10.6036 27.7563 10.019 26.9138L10.9437 26.2721Z" fill="black"/>
<path fill-rule="evenodd" clip-rule="evenodd" d="M18.3316 5.49252C18.5388 5.40396 18.7789 5.44754 18.9417 5.60328L31.8061 17.9048C31.9722 18.0637 32.025 18.3077 31.9394 18.5211C31.8538 18.7345 31.647 18.8744 31.4171 18.8744H18.5528C18.2419 18.8744 17.9899 18.6224 17.9899 18.3116V6.01005C17.9899 5.7847 18.1244 5.58108 18.3316 5.49252ZM19.1156 7.32696V17.7487H30.0142L19.1156 7.32696Z" fill="black"/>
<path fill-rule="evenodd" clip-rule="evenodd" d="M22.4884 11.1598C22.7082 11.3796 22.7082 11.736 22.4884 11.9558L20.5588 13.8854C20.339 14.1052 19.9826 14.1052 19.7628 13.8854C19.543 13.6656 19.543 13.3093 19.7628 13.0895L21.6925 11.1598C21.9123 10.94 22.2686 10.94 22.4884 11.1598Z" fill="black"/>
<path fill-rule="evenodd" clip-rule="evenodd" d="M23.9357 13.0091C24.1554 13.2289 24.1554 13.5852 23.9357 13.805L22.006 15.7347C21.7862 15.9544 21.4299 15.9544 21.2101 15.7347C20.9903 15.5149 20.9903 15.1585 21.2101 14.9387L23.1397 13.0091C23.3595 12.7893 23.7159 12.7893 23.9357 13.0091Z" fill="black"/>
<path fill-rule="evenodd" clip-rule="evenodd" d="M25.8653 14.6171C26.0851 14.8369 26.0851 15.1933 25.8653 15.413L23.9357 17.3427C23.7159 17.5625 23.3595 17.5625 23.1397 17.3427C22.9199 17.1229 22.9199 16.7665 23.1397 16.5468L25.0694 14.6171C25.2892 14.3973 25.6455 14.3973 25.8653 14.6171Z" fill="black"/>
<path fill-rule="evenodd" clip-rule="evenodd" d="M12.3504 9.06503C12.9941 8.07743 14.2079 7.72173 15.2858 8.07856C17.0244 8.65412 17.6858 10.7404 16.7918 12.2674C15.8964 13.7966 14.8119 15.8902 14.0762 18.1126C13.3405 20.335 12.9615 22.6621 12.7675 24.4235C12.5738 26.1823 10.7982 27.4618 9.05956 26.8863C7.98167 26.5295 7.2199 25.5198 7.29268 24.3432C7.3998 22.6114 7.74022 19.6056 8.81144 16.3697C9.88265 13.1338 11.403 10.5186 12.3504 9.06503ZM14.932 9.14715C14.2975 8.9371 13.6347 9.15605 13.2934 9.67964C12.3783 11.0838 10.9108 13.6097 9.88003 16.7235C8.84924 19.8372 8.51963 22.7398 8.41616 24.4127C8.37757 25.0365 8.77879 25.6076 9.41331 25.8177C10.4139 26.1489 11.5265 25.4095 11.6487 24.3003C11.8473 22.4965 12.2378 20.0841 13.0076 17.7588C13.7773 15.4336 14.9035 13.2647 15.8204 11.6986C16.3842 10.7356 15.9326 9.47839 14.932 9.14715Z" fill="black"/>
<path fill-rule="evenodd" clip-rule="evenodd" d="M20.6446 19.5002C21.3616 19.3448 22.1377 19.3617 23.5094 19.6942C24.949 20.0432 25.7229 20.63 26.2577 21.2957C26.4738 21.5646 26.648 21.844 26.7988 22.0857C26.8238 22.1258 26.8482 22.1649 26.872 22.2027C27.0465 22.48 27.1994 22.705 27.3929 22.8985C27.6099 23.1155 27.8234 23.2936 28.042 23.476L28.0527 23.4849C28.268 23.6646 28.5004 23.8584 28.7054 24.081C29.1486 24.5623 29.4401 25.1505 29.4867 26.0824C29.5354 27.0572 29.0637 28.3294 28.3114 29.4824C27.5479 30.6526 26.434 31.7961 25.0781 32.4821C22.8246 33.6222 20.8289 33.1489 19.0198 32.7199C18.74 32.6536 18.4647 32.5883 18.1936 32.5302C17.6915 32.4226 17.1736 32.4021 16.6385 32.4082C16.4602 32.4103 16.2719 32.4157 16.0806 32.4212C15.7276 32.4314 15.3645 32.4419 15.0352 32.4319C14.5098 32.4159 13.9624 32.3491 13.46 32.1181C12.9411 31.8795 12.5072 31.4832 12.186 30.8764C11.8619 30.2642 11.7905 29.6785 11.906 29.1271C12.0177 28.5935 12.2953 28.1357 12.5908 27.7488C12.8093 27.4629 13.0642 27.1835 13.2919 26.934C13.3665 26.8523 13.4381 26.7738 13.5045 26.6993C13.7956 26.3733 13.9964 26.1157 14.0974 25.885C14.2102 25.627 14.2342 25.4518 14.2312 25.3217C14.2281 25.1841 14.1953 25.0587 14.1366 24.873C14.1313 24.8562 14.1257 24.8387 14.1199 24.8206C14.0656 24.6508 13.9927 24.4226 13.9633 24.1608C13.9291 23.8566 13.9529 23.5218 14.0758 23.1286C14.3291 22.3181 14.9439 21.6609 15.7157 21.1647C16.4913 20.6662 17.4655 20.3028 18.5227 20.0913C18.9956 19.9968 19.3548 19.8883 19.6767 19.7846C19.7262 19.7687 19.7758 19.7525 19.8256 19.7363C20.0913 19.6496 20.3614 19.5615 20.6446 19.5002ZM20.0217 20.8561C19.6803 20.966 19.2757 21.0886 18.7435 21.1951C17.7907 21.3857 16.9558 21.7057 16.3244 22.1116C15.6891 22.52 15.2989 22.9884 15.1502 23.4643C15.0721 23.7143 15.0658 23.8921 15.0818 24.0351C15.0983 24.1812 15.1379 24.3064 15.196 24.4897C15.2005 24.5041 15.2052 24.5189 15.21 24.534C15.2719 24.7302 15.3496 24.9868 15.3566 25.2964C15.3637 25.6135 15.2972 25.9509 15.1286 26.3361C14.9482 26.7486 14.6341 27.1242 14.3443 27.4489C14.2598 27.5435 14.1768 27.6346 14.0954 27.7237C13.877 27.9632 13.6713 28.1887 13.4854 28.4321C13.2358 28.7587 13.0701 29.0598 13.0077 29.3578C12.949 29.6381 12.9728 29.9569 13.1808 30.3497C13.3916 30.748 13.6459 30.9647 13.9302 31.0954C14.2311 31.2338 14.6022 31.2926 15.0694 31.3068C15.3704 31.3159 15.669 31.307 15.994 31.2974C16.1925 31.2915 16.4008 31.2853 16.6257 31.2827C17.1907 31.2762 17.806 31.296 18.4295 31.4296C18.7346 31.495 19.0314 31.5641 19.322 31.6317C21.1354 32.0539 22.7074 32.42 24.57 31.4777C25.7091 30.9014 26.6856 29.9142 27.3687 28.8673C28.063 27.8033 28.3941 26.7719 28.3624 26.1386C28.3286 25.4625 28.1377 25.1262 27.8774 24.8436C27.7307 24.6843 27.5559 24.5364 27.3316 24.3492L27.3103 24.3314C27.0976 24.1541 26.8503 23.9478 26.5969 23.6944C26.308 23.4055 26.0991 23.0878 25.9194 22.8023C25.8916 22.7583 25.8647 22.7152 25.8382 22.6728C25.6863 22.4297 25.551 22.2131 25.3803 22.0008C25.0107 21.5408 24.4579 21.0824 23.2442 20.7882C21.9627 20.4775 21.372 20.4943 20.8829 20.6003C20.6605 20.6485 20.4531 20.7159 20.1876 20.8023C20.1348 20.8195 20.0797 20.8374 20.0217 20.8561Z" fill="black"/>
<path fill-rule="evenodd" clip-rule="evenodd" d="M11.3565 22.4433C10.5553 22.2978 10.0236 21.5304 10.1691 20.7292C10.3145 19.9279 11.082 19.3963 11.8832 19.5418L12.7839 19.7053L12.5829 20.8128L11.6821 20.6493C11.4926 20.6149 11.311 20.7407 11.2766 20.9302C11.2422 21.1198 11.368 21.3013 11.5575 21.3357L12.5427 21.5146L12.3417 22.6221L11.3565 22.4433Z" fill="black"/>
<path fill-rule="evenodd" clip-rule="evenodd" d="M12.1594 18.9578C11.3582 18.8124 10.8266 18.045 10.972 17.2437C11.1175 16.4425 11.8849 15.9109 12.6861 16.0563L13.9096 16.2784L13.7085 17.386L12.4851 17.1639C12.2955 17.1295 12.114 17.2552 12.0795 17.4448C12.0451 17.6343 12.1709 17.8159 12.3605 17.8503L13.3468 18.0294L13.1457 19.1369L12.1594 18.9578Z" fill="black"/>
<path fill-rule="evenodd" clip-rule="evenodd" d="M13.7119 15.8197C12.9146 15.654 12.4026 14.8734 12.5683 14.0761C12.734 13.2788 13.5146 12.7668 14.3119 12.9325L15.3708 13.1525L15.1418 14.2546L14.0829 14.0346C13.8942 13.9954 13.7096 14.1165 13.6704 14.3051C13.6312 14.4937 13.7523 14.6784 13.9409 14.7176L14.4864 14.831L14.2574 15.9331L13.7119 15.8197Z" fill="black"/>
</svg>
