<svg width="40" height="40" viewBox="0 0 40 40" fill="none" xmlns="http://www.w3.org/2000/svg">
<path fill-rule="evenodd" clip-rule="evenodd" d="M4 11.1724C4 8.69121 6.05184 6.6798 8.58291 6.6798C11.114 6.6798 13.1658 8.69121 13.1658 11.1724V28.8276C13.1658 31.3088 11.114 33.3202 8.58291 33.3202C6.05184 33.3202 4 31.3088 4 28.8276V11.1724ZM8.58291 7.78325C6.67351 7.78325 5.12563 9.30063 5.12563 11.1724V12.3547H7.9397C8.25053 12.3547 8.50251 12.6017 8.50251 12.9064C8.50251 13.2111 8.25053 13.4581 7.9397 13.4581H5.12563V19.4483H7.9397C8.25053 19.4483 8.50251 19.6953 8.50251 20C8.50251 20.3047 8.25053 20.5517 7.9397 20.5517H5.12563V26.4631H7.9397C8.25053 26.4631 8.50251 26.7101 8.50251 27.0148C8.50251 27.3195 8.25053 27.5665 7.9397 27.5665H5.12563V28.8276C5.12563 30.6994 6.67351 32.2167 8.58291 32.2167C10.4923 32.2167 12.0402 30.6994 12.0402 28.8276V24.0197H9.38693C9.0761 24.0197 8.82412 23.7727 8.82412 23.468C8.82412 23.1633 9.0761 22.9163 9.38693 22.9163H12.0402V17.0837H9.38693C9.0761 17.0837 8.82412 16.8367 8.82412 16.532C8.82412 16.2273 9.0761 15.9803 9.38693 15.9803H12.0402V11.1724C12.0402 9.30063 10.4923 7.78325 8.58291 7.78325Z" fill="black"/>
<path fill-rule="evenodd" clip-rule="evenodd" d="M26.8342 11.1724C26.8342 8.69121 28.886 6.6798 31.4171 6.6798C33.9482 6.6798 36 8.69121 36 11.1724V15.9015C36 18.3827 33.9482 20.3941 31.4171 20.3941C28.886 20.3941 26.8342 18.3827 26.8342 15.9015V11.1724ZM31.4171 7.78325C29.5077 7.78325 27.9598 9.30063 27.9598 11.1724V15.9015C27.9598 17.7733 29.5077 19.2906 31.4171 19.2906C33.3265 19.2906 34.8744 17.7733 34.8744 15.9015V11.1724C34.8744 9.30063 33.3265 7.78325 31.4171 7.78325Z" fill="black"/>
<path fill-rule="evenodd" clip-rule="evenodd" d="M26.8342 23.7833C26.8342 21.3021 28.886 19.2906 31.4171 19.2906C33.9482 19.2906 36 21.3021 36 23.7833V28.8276C36 31.3088 33.9482 33.3202 31.4171 33.3202C28.886 33.3202 26.8342 31.3088 26.8342 28.8276V23.7833ZM31.4171 20.3941C29.5077 20.3941 27.9598 21.9115 27.9598 23.7833V28.8276C27.9598 30.6994 29.5077 32.2167 31.4171 32.2167C33.3265 32.2167 34.8744 30.6994 34.8744 28.8276V23.7833C34.8744 21.9115 33.3265 20.3941 31.4171 20.3941Z" fill="black"/>
<path fill-rule="evenodd" clip-rule="evenodd" d="M30.2915 32.3744C30.6023 32.3744 30.8543 32.6214 30.8543 32.9261V34.3448C30.8543 34.6495 31.1063 34.8966 31.4171 34.8966C31.7279 34.8966 31.9799 34.6495 31.9799 34.3448V32.9261C31.9799 32.6214 32.2319 32.3744 32.5427 32.3744C32.8535 32.3744 33.1055 32.6214 33.1055 32.9261V34.3448C33.1055 35.259 32.3496 36 31.4171 36C30.4846 36 29.7286 35.259 29.7286 34.3448V32.9261C29.7286 32.6214 29.9806 32.3744 30.2915 32.3744Z" fill="black"/>
<path fill-rule="evenodd" clip-rule="evenodd" d="M32.5427 7.62562C32.2319 7.62562 31.9799 7.3786 31.9799 7.07389V5.65517C31.9799 5.35046 31.7279 5.10345 31.4171 5.10345C31.1063 5.10345 30.8543 5.35046 30.8543 5.65517V7.07389C30.8543 7.3786 30.6023 7.62562 30.2915 7.62562C29.9806 7.62562 29.7286 7.3786 29.7286 7.07389V5.65517C29.7286 4.74105 30.4846 4 31.4171 4C32.3496 4 33.1055 4.74105 33.1055 5.65517V7.07389C33.1055 7.3786 32.8535 7.62562 32.5427 7.62562Z" fill="black"/>
<path fill-rule="evenodd" clip-rule="evenodd" d="M17.4458 6.59547C17.8061 5.03341 19.2348 4 20.8334 4C23.2221 4 24.956 6.21621 24.5159 8.4733C23.9431 11.4114 23.2965 15.6864 23.2965 20C23.2965 24.3136 23.9431 28.5886 24.5159 31.5267C24.956 33.7838 23.2221 36 20.8334 36C19.2348 36 17.8061 34.9666 17.4458 33.4045C16.8209 30.696 15.8995 25.7323 15.8995 20C15.8995 14.2677 16.8209 9.30403 17.4458 6.59547ZM20.8334 5.10345C19.7253 5.10345 18.7804 5.81293 18.5437 6.83888C17.93 9.49857 17.0251 14.3762 17.0251 20C17.0251 25.6238 17.93 30.5014 18.5437 33.1611C18.7804 34.1871 19.7253 34.8966 20.8334 34.8966C22.4715 34.8966 23.7262 33.354 23.4103 31.7338C22.8308 28.7611 22.1709 24.4105 22.1709 20C22.1709 15.5895 22.8308 11.2389 23.4103 8.26617C23.7262 6.64599 22.4715 5.10345 20.8334 5.10345Z" fill="black"/>
<path fill-rule="evenodd" clip-rule="evenodd" d="M21.0307 6.96298C21.3152 7.0857 21.4444 7.41128 21.3192 7.69018C20.9052 8.61259 20.4922 10.1749 20.1626 12.0353C19.8349 13.8844 19.5965 15.9882 19.5172 17.9724C19.505 18.2768 19.2433 18.514 18.9327 18.502C18.6221 18.4901 18.3802 18.2336 18.3924 17.9291C18.4738 15.8936 18.7178 13.7412 19.0535 11.8465C19.3872 9.96299 19.8185 8.29381 20.2889 7.24578C20.4141 6.96688 20.7462 6.84026 21.0307 6.96298Z" fill="black"/>
<path fill-rule="evenodd" clip-rule="evenodd" d="M10.5686 28.121C10.8779 28.1513 11.1035 28.4217 11.0726 28.7248C11.0245 29.1963 10.8595 29.7225 10.5914 30.1911C10.3245 30.6575 9.93056 31.109 9.39743 31.3703C9.11941 31.5066 8.78134 31.3961 8.64233 31.1236C8.50332 30.851 8.61601 30.5196 8.89403 30.3834C9.16492 30.2506 9.41423 29.9927 9.60965 29.6513C9.80379 29.312 9.92023 28.9318 9.95254 28.6151C9.98347 28.3119 10.2593 28.0906 10.5686 28.121Z" fill="black"/>
<path fill-rule="evenodd" clip-rule="evenodd" d="M32.8643 26.936C33.1752 26.936 33.4271 27.183 33.4271 27.4877C33.4271 27.5 33.4271 27.5122 33.4271 27.5245C33.4272 28.283 33.4272 28.9935 33.3182 29.6027C33.2038 30.242 32.9612 30.8243 32.4368 31.2869C32.2058 31.4908 31.8499 31.4724 31.642 31.2459C31.434 31.0194 31.4528 30.6706 31.6838 30.4668C31.9634 30.22 32.1229 29.8959 32.2095 29.4121C32.2997 28.9079 32.3015 28.2917 32.3015 27.4877C32.3015 27.183 32.5535 26.936 32.8643 26.936Z" fill="black"/>
<path fill-rule="evenodd" clip-rule="evenodd" d="M32.8643 14.0887C33.1752 14.0887 33.4271 14.3357 33.4271 14.6404C33.4271 14.6527 33.4271 14.6649 33.4271 14.6772C33.4272 15.4357 33.4272 16.1462 33.3182 16.7554C33.2038 17.3947 32.9612 17.977 32.4368 18.4397C32.2058 18.6435 31.8499 18.6251 31.642 18.3986C31.434 18.1722 31.4528 17.8233 31.6838 17.6195C31.9634 17.3728 32.1229 17.0486 32.2095 16.5648C32.2997 16.0606 32.3015 15.4444 32.3015 14.6404C32.3015 14.3357 32.5535 14.0887 32.8643 14.0887Z" fill="black"/>
<path fill-rule="evenodd" clip-rule="evenodd" d="M7.08736 7.41515C7.16678 7.63574 7.37947 7.78325 7.61809 7.78325H9.54774C9.78636 7.78325 9.99905 7.63574 10.0785 7.41515L11.0433 4.73535C11.1041 4.5665 11.0775 4.37923 10.972 4.23306C10.8665 4.08689 10.6952 4 10.5126 4H6.65327C6.47061 4 6.29932 4.08689 6.19382 4.23306C6.08832 4.37923 6.06175 4.5665 6.12254 4.73535L7.08736 7.41515ZM8.01629 6.6798L7.44875 5.10345H9.71708L9.14954 6.6798H8.01629Z" fill="black"/>
<path fill-rule="evenodd" clip-rule="evenodd" d="M10.0785 32.5848C9.99905 32.3643 9.78636 32.2167 9.54774 32.2167H7.61809C7.37947 32.2167 7.16678 32.3643 7.08736 32.5848L6.12254 35.2647C6.06175 35.4335 6.08832 35.6208 6.19382 35.7669C6.29932 35.9131 6.47061 36 6.65327 36H10.5126C10.6952 36 10.8665 35.9131 10.972 35.7669C11.0775 35.6208 11.1041 35.4335 11.0433 35.2647L10.0785 32.5848ZM9.14954 33.3202L9.71708 34.8966H7.44875L8.01629 33.3202H9.14954Z" fill="black"/>
</svg>
