<svg width="40" height="40" viewBox="0 0 40 40" fill="none" xmlns="http://www.w3.org/2000/svg">
<path fill-rule="evenodd" clip-rule="evenodd" d="M15.0889 13.1608V18.2613C15.0889 20.9978 17.2877 23.2161 20 23.2161C22.7123 23.2161 24.9111 20.9978 24.9111 18.2613V13.1608H25.9222V18.2613C25.9222 21.5611 23.2708 24.2362 20 24.2362C16.7292 24.2362 14.0778 21.5611 14.0778 18.2613V13.1608H15.0889Z" fill="#262626"/>
<path fill-rule="evenodd" clip-rule="evenodd" d="M23.5195 22.4304C23.669 22.4689 23.7929 22.5742 23.8559 22.7163C24.0557 23.1668 24.3257 23.7225 24.553 24.1657C24.6668 24.3875 24.7675 24.5763 24.8416 24.7073C24.8729 24.7625 24.8966 24.8024 24.9128 24.8282C24.9705 24.8881 25.014 24.9627 25.0372 25.0473C25.0979 25.2682 25.005 25.5028 24.8101 25.6208L21.5601 27.5881C21.3368 27.7233 21.0482 27.6652 20.8934 27.4539L20.361 26.7271L18.1222 29.5173V33.4171H17.1111V29.3367C17.1111 29.2199 17.1509 29.1066 17.2237 29.0158L18.4783 27.4522L15.1376 25.6322C15.0091 25.5622 14.9169 25.4396 14.8847 25.2959C14.8525 25.1522 14.8834 25.0014 14.9696 24.8825L16.3418 22.988C16.5004 22.7691 16.801 22.7136 17.0262 22.8617L20.0498 24.8512L23.0883 22.5187C23.2111 22.4244 23.3699 22.3919 23.5195 22.4304ZM19.3726 25.6235L16.8753 23.9804L16.1278 25.0124L18.8196 26.4789L19.3726 25.6235ZM20.7751 25.5762L23.2007 23.7142C23.3516 24.0317 23.5118 24.3553 23.655 24.6346C23.7251 24.7711 23.7919 24.8987 23.8523 25.0109L21.4336 26.475L20.7751 25.5762Z" fill="#262626"/>
<path fill-rule="evenodd" clip-rule="evenodd" d="M24.9111 15.1281C24.9111 14.2831 25.5901 13.598 26.4278 13.598C27.2654 13.598 27.9444 14.2831 27.9444 15.1281V16.294C27.9444 17.139 27.2654 17.8241 26.4278 17.8241C25.5901 17.8241 24.9111 17.139 24.9111 16.294V15.1281ZM26.4278 14.6181C26.1486 14.6181 25.9222 14.8464 25.9222 15.1281V16.294C25.9222 16.5757 26.1486 16.804 26.4278 16.804C26.707 16.804 26.9333 16.5757 26.9333 16.294V15.1281C26.9333 14.8464 26.707 14.6181 26.4278 14.6181Z" fill="#262626"/>
<path fill-rule="evenodd" clip-rule="evenodd" d="M8.01512 32.9799C8.14415 29.0141 11.3713 25.8392 15.3335 25.8392H15.45V24.8191H15.3335C10.731 24.8191 7 28.5833 7 33.2267C7 33.6538 7.34317 34 7.76649 34H32.2335C32.6568 34 33 33.6538 33 33.2267C33 28.5833 29.269 24.8191 24.6665 24.8191H24.4778V25.8392H24.6665C28.6287 25.8392 31.8559 29.0141 31.9849 32.9799H8.01512Z" fill="#262626"/>
<path fill-rule="evenodd" clip-rule="evenodd" d="M12.0556 15.1281C12.0556 14.2831 12.7346 13.598 13.5722 13.598C14.4099 13.598 15.0889 14.2831 15.0889 15.1281V16.294C15.0889 17.139 14.4099 17.8241 13.5722 17.8241C12.7346 17.8241 12.0556 17.139 12.0556 16.294V15.1281ZM13.5722 14.6181C13.293 14.6181 13.0667 14.8464 13.0667 15.1281V16.294C13.0667 16.5757 13.293 16.804 13.5722 16.804C13.8514 16.804 14.0778 16.5757 14.0778 16.294V15.1281C14.0778 14.8464 13.8514 14.6181 13.5722 14.6181Z" fill="#262626"/>
<path fill-rule="evenodd" clip-rule="evenodd" d="M17.7803 7.4359C17.626 7.76183 17.5395 8.12715 17.5395 8.51318C17.5395 8.79487 17.3131 9.02323 17.0339 9.02323C16.7547 9.02323 16.5284 8.79487 16.5284 8.51318C16.5284 8.18434 16.573 7.86598 16.6566 7.56399C16.5882 7.55713 16.5188 7.55361 16.4484 7.55361C15.3004 7.55361 14.3667 8.49642 14.3667 9.66332C14.3667 10.2212 14.5797 10.7273 14.9283 11.1047C15.0155 11.1991 15.064 11.3234 15.064 11.4524V13.3065H24.936V11.2516L25.0717 11.1047C25.4203 10.7273 25.6333 10.2212 25.6333 9.66332C25.6333 8.49642 24.6996 7.55361 23.5516 7.55361C23.4811 7.55361 23.4116 7.55714 23.3431 7.56402C23.4267 7.866 23.4714 8.18435 23.4714 8.51318C23.4714 8.79487 23.245 9.02323 22.9658 9.02323C22.6866 9.02323 22.4603 8.79487 22.4603 8.51318C22.4603 7.13455 21.357 6.0201 19.9999 6.0201C19.0326 6.0201 18.1943 6.5862 17.7925 7.41057C17.7887 7.41917 17.7846 7.42761 17.7803 7.4359ZM17.0875 6.60051C16.881 6.55658 16.6672 6.53351 16.4484 6.53351C14.7386 6.53351 13.3556 7.93651 13.3556 9.66332C13.3556 10.4139 13.6172 11.1038 14.0529 11.6431V13.8166C14.0529 14.0983 14.2792 14.3266 14.5584 14.3266H25.4416C25.7208 14.3266 25.9471 14.0983 25.9471 13.8166V11.6431C26.3828 11.1038 26.6444 10.4139 26.6444 9.66332C26.6444 7.93651 25.2614 6.53351 23.5516 6.53351C23.3327 6.53351 23.1188 6.55659 22.9122 6.60057C22.2935 5.63748 21.2209 5 19.9999 5C18.7789 5 17.7063 5.63746 17.0875 6.60051Z" fill="#262626"/>
<path fill-rule="evenodd" clip-rule="evenodd" d="M16.6056 11.4121C16.8848 11.4121 17.1111 11.6404 17.1111 11.9221V13.6709C17.1111 13.9525 16.8848 14.1809 16.6056 14.1809C16.3263 14.1809 16.1 13.9525 16.1 13.6709V11.9221C16.1 11.6404 16.3263 11.4121 16.6056 11.4121Z" fill="#262626"/>
<path fill-rule="evenodd" clip-rule="evenodd" d="M18.9167 11.4121C19.1959 11.4121 19.4222 11.6404 19.4222 11.9221V13.6709C19.4222 13.9525 19.1959 14.1809 18.9167 14.1809C18.6375 14.1809 18.4111 13.9525 18.4111 13.6709V11.9221C18.4111 11.6404 18.6375 11.4121 18.9167 11.4121Z" fill="#262626"/>
<path fill-rule="evenodd" clip-rule="evenodd" d="M21.2278 11.4121C21.507 11.4121 21.7333 11.6404 21.7333 11.9221V13.6709C21.7333 13.9525 21.507 14.1809 21.2278 14.1809C20.9486 14.1809 20.7222 13.9525 20.7222 13.6709V11.9221C20.7222 11.6404 20.9486 11.4121 21.2278 11.4121Z" fill="#262626"/>
<path fill-rule="evenodd" clip-rule="evenodd" d="M23.5389 11.4121C23.8181 11.4121 24.0444 11.6404 24.0444 11.9221V13.6709C24.0444 13.9525 23.8181 14.1809 23.5389 14.1809C23.2597 14.1809 23.0333 13.9525 23.0333 13.6709V11.9221C23.0333 11.6404 23.2597 11.4121 23.5389 11.4121Z" fill="#262626"/>
</svg>
