<svg width="40" height="40" viewBox="0 0 40 40" fill="none" xmlns="http://www.w3.org/2000/svg">
<path fill-rule="evenodd" clip-rule="evenodd" d="M11.841 15.2604C11.841 13.8509 13.0062 12.7083 14.4436 12.7083H24.259C25.6963 12.7083 26.8615 13.8509 26.8615 15.2604V21.3854C26.8615 22.7949 25.6963 23.9375 24.259 23.9375H19.5764L16.7498 26.8861C16.2423 27.4156 15.3359 27.0634 15.3359 26.3368V23.9375H14.4436C13.0062 23.9375 11.841 22.7949 11.841 21.3854V15.2604ZM14.4436 13.7292C13.5812 13.7292 12.8821 14.4147 12.8821 15.2604V21.3854C12.8821 22.2311 13.5812 22.9167 14.4436 22.9167H15.559C16.0107 22.9167 16.3769 23.2758 16.3769 23.7188V25.7847L18.8839 23.1694C19.0385 23.0081 19.2542 22.9167 19.4799 22.9167H24.259C25.1214 22.9167 25.8205 22.2311 25.8205 21.3854V15.2604C25.8205 14.4147 25.1214 13.7292 24.259 13.7292H14.4436Z" fill="#116565"/>
<path fill-rule="evenodd" clip-rule="evenodd" d="M5 20.2187C5 18.9704 6.03204 17.9583 7.30513 17.9583C8.57822 17.9583 9.61026 18.9704 9.61026 20.2187V24.5938C9.61026 25.8421 8.57822 26.8542 7.30513 26.8542C6.03204 26.8542 5 25.8421 5 24.5938V20.2187ZM7.30513 18.9792C6.60698 18.9792 6.04103 19.5341 6.04103 20.2187V24.5938C6.04103 25.2784 6.60698 25.8333 7.30513 25.8333C8.00327 25.8333 8.56923 25.2784 8.56923 24.5938V20.2187C8.56923 19.5341 8.00327 18.9792 7.30513 18.9792Z" fill="#116565"/>
<path fill-rule="evenodd" clip-rule="evenodd" d="M24.5564 30.3542C25.5831 30.3542 26.4154 31.1703 26.4154 32.1771C26.4154 33.1839 25.5831 34 24.5564 34H21.8795C20.8528 34 20.0205 33.1839 20.0205 32.1771C20.0205 31.1703 20.8528 30.3542 21.8795 30.3542H24.5564ZM25.3744 32.1771C25.3744 31.7341 25.0082 31.375 24.5564 31.375H21.8795C21.4277 31.375 21.0615 31.7341 21.0615 32.1771C21.0615 32.6201 21.4277 32.9792 21.8795 32.9792H24.5564C25.0082 32.9792 25.3744 32.6201 25.3744 32.1771Z" fill="#116565"/>
<path fill-rule="evenodd" clip-rule="evenodd" d="M29.3897 20.2187C29.3897 18.9704 30.4218 17.9583 31.6949 17.9583C32.968 17.9583 34 18.9704 34 20.2187V24.5938C34 25.8421 32.968 26.8542 31.6949 26.8542C30.4218 26.8542 29.3897 25.8421 29.3897 24.5938V20.2187ZM31.6949 18.9792C30.9967 18.9792 30.4308 19.5341 30.4308 20.2187V24.5938C30.4308 25.2784 30.9967 25.8333 31.6949 25.8333C32.393 25.8333 32.959 25.2784 32.959 24.5938V20.2187C32.959 19.5341 32.393 18.9792 31.6949 18.9792Z" fill="#116565"/>
<path d="M16.8231 18.4688C16.8231 19.0325 16.357 19.4896 15.7821 19.4896C15.2071 19.4896 14.741 19.0325 14.741 18.4688C14.741 17.905 15.2071 17.4479 15.7821 17.4479C16.357 17.4479 16.8231 17.905 16.8231 18.4688Z" fill="#116565"/>
<path d="M20.3923 18.4688C20.3923 19.0325 19.9262 19.4896 19.3513 19.4896C18.7763 19.4896 18.3103 19.0325 18.3103 18.4688C18.3103 17.905 18.7763 17.4479 19.3513 17.4479C19.9262 17.4479 20.3923 17.905 20.3923 18.4688Z" fill="#116565"/>
<path d="M23.9615 18.4688C23.9615 19.0325 23.4955 19.4896 22.9205 19.4896C22.3456 19.4896 21.8795 19.0325 21.8795 18.4688C21.8795 17.905 22.3456 17.4479 22.9205 17.4479C23.4955 17.4479 23.9615 17.905 23.9615 18.4688Z" fill="#116565"/>
<path fill-rule="evenodd" clip-rule="evenodd" d="M6.78462 18.4688C6.78462 11.5824 12.4775 6 19.5 6C26.5225 6 32.2154 11.5824 32.2154 18.4688H31.1744C31.1744 12.1462 25.9476 7.02083 19.5 7.02083C13.0524 7.02083 7.82564 12.1462 7.82564 18.4688H6.78462ZM31.1744 27.8021V26.3438H32.2154V27.8021C32.2154 30.5002 29.9848 32.6875 27.2333 32.6875H25.6718V31.6667H27.2333C29.4099 31.6667 31.1744 29.9364 31.1744 27.8021Z" fill="#116565"/>
</svg>
