<svg width="40" height="40" viewBox="0 0 40 40" fill="none" xmlns="http://www.w3.org/2000/svg">
<path fill-rule="evenodd" clip-rule="evenodd" d="M25.809 20.14C22.3621 20.14 19.5678 23.0233 19.5678 26.58C19.5678 30.1367 22.3621 33.02 25.809 33.02C29.256 33.02 32.0503 30.1367 32.0503 26.58C32.0503 23.0233 29.256 20.14 25.809 20.14ZM18.6181 26.58C18.6181 22.482 21.8376 19.16 25.809 19.16C29.7805 19.16 33 22.482 33 26.58C33 30.678 29.7805 34 25.809 34C21.8376 34 18.6181 30.678 18.6181 26.58Z" fill="black"/>
<path fill-rule="evenodd" clip-rule="evenodd" d="M27.4251 21.8148C27.6152 22.0011 27.6229 22.3113 27.4423 22.5075L26.2839 23.7656V25.5746L27.7831 24.6464L28.2723 23.0059C28.3494 22.7472 28.6151 22.6021 28.8658 22.6817C29.1165 22.7613 29.2571 23.0354 29.18 23.2941L28.7834 24.6243L30.1343 24.9857C30.3881 25.0536 30.5406 25.321 30.4748 25.583C30.4089 25.8449 30.1498 26.0022 29.8959 25.9343L28.257 25.4959L26.732 26.44L28.257 27.3841L29.8959 26.9457C30.1498 26.8778 30.4089 27.0351 30.4748 27.297C30.5406 27.559 30.3881 27.8264 30.1343 27.8943L28.7834 28.2557L29.18 29.5859C29.2571 29.8446 29.1165 30.1187 28.8658 30.1983C28.6151 30.2779 28.3494 30.1328 28.2723 29.8741L27.7831 28.2336L26.2839 27.3054V29.0444L27.4423 30.3025C27.6229 30.4987 27.6152 30.8089 27.4251 30.9953C27.2349 31.1816 26.9343 31.1737 26.7537 30.9775L25.7922 29.9332L24.7119 30.9948C24.522 31.1815 24.2214 31.1739 24.0405 30.9779C23.8597 30.782 23.867 30.4718 24.0569 30.2852L25.3342 29.03V27.3054L23.8434 28.2284L23.4183 29.8574C23.3502 30.1187 23.0896 30.2735 22.8363 30.2032C22.5831 30.1328 22.4331 29.8639 22.5013 29.6026L22.8566 28.2407L21.7361 27.8888C21.4852 27.81 21.3437 27.5362 21.4201 27.2773C21.4964 27.0184 21.7617 26.8724 22.0126 26.9512L23.3712 27.3779L24.8861 26.44L23.3712 25.5021L22.0126 25.9288C21.7617 26.0076 21.4964 25.8616 21.4201 25.6027C21.3437 25.3438 21.4852 25.07 21.7361 24.9912L22.8877 24.6296L22.6291 23.2425C22.5796 22.9768 22.7483 22.7199 23.0058 22.6688C23.2633 22.6177 23.5123 22.7917 23.5618 23.0575L23.8609 24.6625L25.3342 25.5746V23.78L24.0569 22.5248C23.867 22.3382 23.8597 22.028 24.0405 21.8321C24.2214 21.6361 24.522 21.6285 24.7119 21.8152L25.7922 22.8768L26.7537 21.8325C26.9343 21.6363 27.2349 21.6284 27.4251 21.8148Z" fill="black"/>
<path fill-rule="evenodd" clip-rule="evenodd" d="M6 8.45C6 7.0969 7.06304 6 8.37437 6H18.8216C20.1329 6 21.196 7.0969 21.196 8.45V18.67C21.196 20.0231 20.1329 21.12 18.8216 21.12H8.37437C7.06304 21.12 6 20.0231 6 18.67V8.45ZM8.37437 6.98C7.58757 6.98 6.94975 7.63814 6.94975 8.45V18.67C6.94975 19.4819 7.58757 20.14 8.37437 20.14H18.8216C19.6084 20.14 20.2462 19.4819 20.2462 18.67V8.45C20.2462 7.63814 19.6084 6.98 18.8216 6.98H8.37437Z" fill="black"/>
<path fill-rule="evenodd" clip-rule="evenodd" d="M6 22.59C6 21.2369 7.06304 20.14 8.37437 20.14H18.8216C19.8349 20.14 20.6988 20.7948 21.0399 21.715L20.1528 22.065C19.9477 21.5117 19.4284 21.12 18.8216 21.12H8.37437C7.58757 21.12 6.94975 21.7781 6.94975 22.59V29.73C6.94975 30.5419 7.58757 31.2 8.37437 31.2H18.8216C19.2828 31.2 19.6928 30.9744 19.9539 30.6222L20.7082 31.2178C20.2751 31.8018 19.5911 32.18 18.8216 32.18H8.37437C7.06304 32.18 6 31.0831 6 29.73V22.59Z" fill="black"/>
<path fill-rule="evenodd" clip-rule="evenodd" d="M7.35678 33.51C7.35678 33.7806 7.56939 34 7.83166 34H19.3643C19.6266 34 19.8392 33.7806 19.8392 33.51V31.69C19.8392 31.4194 19.6266 31.2 19.3643 31.2H7.83166C7.56939 31.2 7.35678 31.4194 7.35678 31.69V33.51ZM8.30653 33.02V32.18H18.8894V33.02H8.30653Z" fill="black"/>
<path fill-rule="evenodd" clip-rule="evenodd" d="M10.8844 23.43V22.73H11.8342V23.43C11.8342 23.6233 11.986 23.78 12.1734 23.78H15.0226C15.2099 23.78 15.3618 23.6233 15.3618 23.43V22.73H16.3116V23.43C16.3116 24.1645 15.7345 24.76 15.0226 24.76H12.1734C11.4615 24.76 10.8844 24.1645 10.8844 23.43Z" fill="black"/>
<path fill-rule="evenodd" clip-rule="evenodd" d="M18.2789 18.0874H17.6005V17.1074H18.2789C18.4662 17.1074 18.6181 16.9507 18.6181 16.7574V10.0374C18.6181 9.84409 18.4662 9.68739 18.2789 9.68739H17.6005V8.70739H18.2789C18.9908 8.70739 19.5678 9.30285 19.5678 10.0374V16.7574C19.5678 17.4919 18.9908 18.0874 18.2789 18.0874Z" fill="black"/>
<path fill-rule="evenodd" clip-rule="evenodd" d="M10.206 22.31C10.206 22.0394 10.4186 21.82 10.6809 21.82H12.0836C12.3459 21.82 12.5585 22.0394 12.5585 22.31C12.5585 22.5806 12.3459 22.8 12.0836 22.8H10.6809C10.4186 22.8 10.206 22.5806 10.206 22.31Z" fill="black"/>
<path fill-rule="evenodd" clip-rule="evenodd" d="M17.1935 18.9274C16.9312 18.9274 16.7186 18.708 16.7186 18.4374V16.99C16.7186 16.7194 16.9312 16.5 17.1935 16.5C17.4557 16.5 17.6683 16.7194 17.6683 16.99V18.4374C17.6683 18.708 17.4557 18.9274 17.1935 18.9274Z" fill="black"/>
<path fill-rule="evenodd" clip-rule="evenodd" d="M14.6834 22.31C14.6834 22.0394 14.896 21.82 15.1583 21.82H16.561C16.8233 21.82 17.0359 22.0394 17.0359 22.31C17.0359 22.5806 16.8233 22.8 16.561 22.8H15.1583C14.896 22.8 14.6834 22.5806 14.6834 22.31Z" fill="black"/>
<path fill-rule="evenodd" clip-rule="evenodd" d="M17.1935 10.3874C16.9312 10.3874 16.7186 10.168 16.7186 9.89739V8.45001C16.7186 8.17939 16.9312 7.96001 17.1935 7.96001C17.4557 7.96001 17.6683 8.17939 17.6683 8.45001V9.89739C17.6683 10.168 17.4557 10.3874 17.1935 10.3874Z" fill="black"/>
</svg>
