<svg width="40" height="40" viewBox="0 0 40 40" fill="none" xmlns="http://www.w3.org/2000/svg">
<path fill-rule="evenodd" clip-rule="evenodd" d="M13.3684 3.27586H3.29529V2H13.3684C14.0259 2 14.6564 2.25924 15.1213 2.72069L16.3816 3.97167C16.3993 3.98924 16.4235 3.99888 16.4485 3.99834L34.9583 3.60065C36.6274 3.56479 38 4.89804 38 6.55522C38 8.25767 36.5546 9.60805 34.8426 9.50506L16.44 8.39799C16.4138 8.39642 16.3881 8.40607 16.3695 8.42452L15.1213 9.66355C14.6564 10.125 14.0259 10.3842 13.3684 10.3842H3.29529V9.10837H13.3684C13.685 9.10837 13.9886 8.98355 14.2124 8.76137L15.4607 7.52235C15.7394 7.24565 16.1243 7.1008 16.5178 7.12447L34.9204 8.23154C35.8933 8.29007 36.7146 7.52268 36.7146 6.55522C36.7146 5.61349 35.9346 4.85584 34.9861 4.87622L16.4763 5.2739C16.1008 5.28197 15.7383 5.13746 15.4727 4.87384L14.2124 3.62286C13.9886 3.40068 13.685 3.27586 13.3684 3.27586ZM4.12159 5.73645H3.29529V4.46059H4.12159V5.73645ZM11.7419 5.73645H6.87593V4.46059H11.7419V5.73645ZM4.94789 6.83005V8.10591H3.29529V6.83005H4.94789ZM11.7419 8.10591H7.88586V6.83005H11.7419V8.10591Z" fill="black"/>
<path fill-rule="evenodd" clip-rule="evenodd" d="M2.33149 32.803C2.68875 35.5787 5.07739 37.7241 7.97087 37.7241H30.9373C33.8308 37.7241 36.2194 35.5787 36.5767 32.803H2.33149ZM1.55767 31.5271C1.24968 31.5271 1 31.7749 1 32.0806C1 35.9021 4.12096 39 7.97087 39H30.9373C34.7872 39 37.9082 35.9021 37.9082 32.0806C37.9082 31.7749 37.6585 31.5271 37.3505 31.5271H1.55767Z" fill="black"/>
<path fill-rule="evenodd" clip-rule="evenodd" d="M4.28159 2.2609C4.28159 2.2609 4.28166 2.26077 4.85612 2.5468C5.43058 2.83282 5.43063 2.83272 5.43063 2.83272L5.42974 2.8345L5.42549 2.84303C5.42156 2.85094 5.4155 2.86321 5.40758 2.87945C5.39173 2.91197 5.3685 2.96027 5.34007 3.02127C5.28306 3.14357 5.20591 3.31526 5.12574 3.51181C4.95937 3.91969 4.80304 4.37968 4.75921 4.72305C4.67928 5.34926 4.89962 5.80783 5.24471 6.42378C5.26493 6.45987 5.28566 6.49659 5.30676 6.53397C5.6337 7.11326 6.04967 7.85028 6.04967 8.83498C6.04967 9.85424 5.67329 10.5944 5.35839 11.2137L5.35585 11.2187C5.03642 11.8469 4.78336 12.3493 4.76407 13.0447C4.74269 13.8151 5.00511 14.3804 5.33994 15.0758C5.34562 15.0876 5.35132 15.0994 5.35704 15.1113C5.684 15.79 6.07325 16.5979 6.04952 17.6887C6.0276 18.6962 5.65924 19.4366 5.35078 20.0566C5.34378 20.0707 5.33681 20.0847 5.32987 20.0986C5.01382 20.7344 4.76807 21.2506 4.7643 21.9615C4.76122 22.5439 4.92446 23.3169 5.10643 23.9821C5.1952 24.3067 5.28436 24.5913 5.35125 24.7945C5.38463 24.8959 5.41233 24.9766 5.43146 25.0314C5.44102 25.0587 5.44843 25.0796 5.45333 25.0933L5.45875 25.1083L5.45996 25.1116L5.46016 25.1122C5.46016 25.1122 5.46012 25.1121 4.85612 25.33C4.25212 25.548 4.25207 25.5479 4.25207 25.5479L4.25121 25.5455L4.24924 25.5401L4.24226 25.5207C4.2363 25.5041 4.22778 25.4801 4.21708 25.4495C4.19568 25.3882 4.16549 25.3002 4.12946 25.1908C4.05752 24.9722 3.96171 24.6665 3.86597 24.3165C3.6789 23.6325 3.47491 22.7196 3.47896 21.9548C3.4844 20.9276 3.8571 20.1779 4.17057 19.5474L4.17721 19.5341C4.49562 18.8936 4.74891 18.3756 4.76446 17.6611C4.78126 16.8891 4.51589 16.3231 4.18024 15.626L4.16827 15.6011C3.83953 14.9186 3.44874 14.1072 3.47919 13.0095C3.50658 12.0223 3.87576 11.2971 4.18243 10.6948C4.19113 10.6777 4.19978 10.6607 4.20836 10.6438C4.52377 10.0236 4.76431 9.52424 4.76431 8.83498C4.76431 8.19049 4.50008 7.71927 4.15166 7.09789C4.14163 7.08001 4.13154 7.06201 4.12137 7.04387C3.76961 6.416 3.34727 5.63415 3.48405 4.56267C3.54997 4.04624 3.76089 3.4582 3.93433 3.033C4.02406 2.81301 4.10995 2.6219 4.17351 2.48553C4.20537 2.41719 4.2318 2.3622 4.25055 2.32374C4.25992 2.30451 4.26739 2.28938 4.27267 2.27876L4.27891 2.26624L4.28073 2.26261L4.28159 2.2609Z" fill="black"/>
<path fill-rule="evenodd" clip-rule="evenodd" d="M7.05728 2.2609C7.05728 2.2609 7.05734 2.26077 7.6318 2.5468C8.20626 2.83282 8.20631 2.83272 8.20631 2.83272L8.20542 2.8345L8.20117 2.84303C8.19724 2.85094 8.19118 2.86321 8.18326 2.87945C8.16741 2.91197 8.14418 2.96027 8.11575 3.02127C8.05874 3.14357 7.98159 3.31526 7.90142 3.51181C7.73505 3.91969 7.57872 4.37968 7.53489 4.72305C7.45496 5.34926 7.6753 5.80783 8.02039 6.42378C8.04061 6.45987 8.06134 6.49659 8.08244 6.53397C8.40938 7.11326 8.82535 7.85028 8.82535 8.83498C8.82535 9.85424 8.44897 10.5944 8.13407 11.2137L8.13153 11.2187C7.8121 11.8469 7.55904 12.3493 7.53975 13.0447C7.51837 13.8151 7.78079 14.3804 8.11562 15.0758C8.1213 15.0876 8.127 15.0994 8.13272 15.1113C8.45968 15.79 8.84893 16.5979 8.8252 17.6887C8.80328 18.6962 8.43492 19.4366 8.12646 20.0566C8.11946 20.0707 8.11249 20.0847 8.10555 20.0986C7.7895 20.7344 7.54375 21.2506 7.53998 21.9615C7.5369 22.5439 7.70015 23.3169 7.88211 23.9821C7.97088 24.3067 8.06004 24.5913 8.12693 24.7945C8.16032 24.8959 8.18801 24.9766 8.20714 25.0314C8.2167 25.0587 8.22411 25.0796 8.22901 25.0933L8.23443 25.1083L8.23564 25.1116L8.23584 25.1122C8.23584 25.1122 8.2358 25.1121 7.6318 25.33C7.02781 25.548 7.02775 25.5479 7.02775 25.5479L7.02689 25.5455L7.02492 25.5401L7.01794 25.5207C7.01198 25.5041 7.00346 25.4801 6.99276 25.4495C6.97136 25.3882 6.94117 25.3002 6.90514 25.1908C6.8332 24.9722 6.73739 24.6665 6.64165 24.3165C6.45459 23.6325 6.25059 22.7196 6.25464 21.9548C6.26008 20.9276 6.63278 20.1779 6.94625 19.5474L6.95289 19.5341C7.2713 18.8936 7.5246 18.3756 7.54014 17.6611C7.55694 16.8891 7.29157 16.3231 6.95592 15.626L6.94395 15.6011C6.61521 14.9186 6.22442 14.1072 6.25487 13.0095C6.28226 12.0223 6.65144 11.2971 6.95811 10.6948C6.96681 10.6777 6.97546 10.6607 6.98405 10.6438C7.29945 10.0236 7.53999 9.52424 7.53999 8.83498C7.53999 8.19049 7.27576 7.71927 6.92734 7.09789C6.91731 7.08001 6.90722 7.06201 6.89706 7.04387C6.54529 6.416 6.12296 5.63415 6.25973 4.56267C6.32565 4.04624 6.53657 3.4582 6.71001 3.033C6.79974 2.81301 6.88563 2.6219 6.9492 2.48553C6.98105 2.41719 7.00748 2.3622 7.02623 2.32374C7.03561 2.30451 7.04307 2.28938 7.04835 2.27876L7.05459 2.26624L7.05642 2.26261L7.05728 2.2609Z" fill="black"/>
<path fill-rule="evenodd" clip-rule="evenodd" d="M9.628 2.2609C9.628 2.2609 9.62806 2.26077 10.2025 2.5468C10.777 2.83282 10.777 2.83272 10.777 2.83272L10.7761 2.8345L10.7719 2.84303C10.768 2.85094 10.7619 2.86321 10.754 2.87945C10.7381 2.91197 10.7149 2.96027 10.6865 3.02127C10.6295 3.14357 10.5523 3.31526 10.4721 3.51181C10.3058 3.91969 10.1494 4.37968 10.1056 4.72305C10.0257 5.34926 10.246 5.80783 10.5911 6.42378C10.6113 6.45987 10.6321 6.49659 10.6532 6.53397C10.9801 7.11326 11.3961 7.85028 11.3961 8.83498C11.3961 9.85424 11.0197 10.5944 10.7048 11.2137L10.7022 11.2187C10.3828 11.8469 10.1298 12.3493 10.1105 13.0447C10.0891 13.8151 10.3515 14.3804 10.6863 15.0758C10.692 15.0876 10.6977 15.0994 10.7034 15.1113C11.0304 15.79 11.4197 16.5979 11.3959 17.6887C11.374 18.6962 11.0056 19.4366 10.6972 20.0566C10.6902 20.0707 10.6832 20.0847 10.6763 20.0986C10.3602 20.7344 10.1145 21.2506 10.1107 21.9615C10.1076 22.5439 10.2709 23.3169 10.4528 23.9821C10.5416 24.3067 10.6308 24.5913 10.6976 24.7945C10.731 24.8959 10.7587 24.9766 10.7779 25.0314C10.7874 25.0587 10.7948 25.0796 10.7997 25.0933L10.8051 25.1083L10.8064 25.1116L10.8066 25.1122C10.8066 25.1122 10.8065 25.1121 10.2025 25.33C9.59853 25.548 9.59847 25.5479 9.59847 25.5479L9.59761 25.5455L9.59564 25.5401L9.58866 25.5207C9.5827 25.5041 9.57418 25.4801 9.56348 25.4495C9.54208 25.3882 9.51189 25.3002 9.47586 25.1908C9.40392 24.9722 9.30811 24.6665 9.21237 24.3165C9.0253 23.6325 8.82131 22.7196 8.82536 21.9548C8.8308 20.9276 9.2035 20.1779 9.51697 19.5474L9.52361 19.5341C9.84202 18.8936 10.0953 18.3756 10.1109 17.6611C10.1277 16.8891 9.86229 16.3231 9.52664 15.626L9.51467 15.6011C9.18593 14.9186 8.79514 14.1072 8.82559 13.0095C8.85298 12.0223 9.22216 11.2971 9.52883 10.6948C9.53753 10.6777 9.54618 10.6607 9.55476 10.6438C9.87017 10.0236 10.1107 9.52424 10.1107 8.83498C10.1107 8.19049 9.84648 7.71927 9.49806 7.09789C9.48803 7.08001 9.47793 7.06201 9.46777 7.04387C9.11601 6.416 8.69367 5.63415 8.83045 4.56267C8.89637 4.04624 9.10729 3.4582 9.28073 3.033C9.37046 2.81301 9.45635 2.6219 9.51991 2.48553C9.55177 2.41719 9.5782 2.3622 9.59695 2.32374C9.60633 2.30451 9.61379 2.28938 9.61907 2.27876L9.62531 2.26624L9.62713 2.26261L9.628 2.2609Z" fill="black"/>
<path fill-rule="evenodd" clip-rule="evenodd" d="M12.4764 31.0714C11.6527 31.0714 10.9541 31.6103 10.7221 32.3538L9.49426 31.9763C9.88828 30.7138 11.0735 29.7956 12.4764 29.7956C13.8794 29.7956 15.0646 30.7138 15.4586 31.9763L14.2308 32.3538C13.9988 31.6103 13.3002 31.0714 12.4764 31.0714Z" fill="black"/>
<path fill-rule="evenodd" clip-rule="evenodd" d="M26.0645 31.0714C25.5207 31.0714 25.0328 31.3052 24.6957 31.6791L23.7379 30.8283C24.3086 30.1954 25.1399 29.7956 26.0645 29.7956C27.5095 29.7956 28.7237 30.7696 29.0801 32.0912L27.8385 32.4211C27.6287 31.6434 26.9131 31.0714 26.0645 31.0714Z" fill="black"/>
<path fill-rule="evenodd" clip-rule="evenodd" d="M19.5271 31.0714C18.7034 31.0714 18.0048 31.6103 17.7727 32.3538L16.5449 31.9763C16.9389 30.7138 18.1241 29.7956 19.5271 29.7956C20.93 29.7956 22.1153 30.7138 22.5093 31.9763L21.2815 32.3538C21.0494 31.6103 20.3508 31.0714 19.5271 31.0714Z" fill="black"/>
<path fill-rule="evenodd" clip-rule="evenodd" d="M12.4764 28.5197C10.3451 28.5197 8.5659 30.0221 8.15764 32.0185L6.89797 31.7647C7.42544 29.1854 9.72178 27.2438 12.4764 27.2438C15.2311 27.2438 17.5274 29.1854 18.0549 31.7647L16.7952 32.0185C16.3869 30.0221 14.6077 28.5197 12.4764 28.5197Z" fill="black"/>
<path fill-rule="evenodd" clip-rule="evenodd" d="M26.0645 28.5197C24.9609 28.5197 23.9535 28.9215 23.1802 29.5867L22.3384 28.6224C23.3366 27.764 24.6401 27.2438 26.0645 27.2438C28.8917 27.2438 31.2364 29.2891 31.681 31.9703L30.4127 32.1775C30.0686 30.1026 28.2522 28.5197 26.0645 28.5197Z" fill="black"/>
<path fill-rule="evenodd" clip-rule="evenodd" d="M19.2705 28.5197C18.1415 28.5197 17.1131 28.9402 16.3331 29.633L15.476 28.6822C16.4826 27.7882 17.8132 27.2438 19.2705 27.2438C22.0976 27.2438 24.4423 29.2891 24.8869 31.9703L23.6187 32.1775C23.2746 30.1026 21.4581 28.5197 19.2705 28.5197Z" fill="black"/>
<path fill-rule="evenodd" clip-rule="evenodd" d="M12.4764 26.1502C8.97975 26.1502 6.0993 28.7728 5.72386 32.144L4.44628 32.0038C4.89292 27.9933 8.31728 24.8744 12.4764 24.8744C13.7651 24.8744 14.9851 25.1743 16.0676 25.7083L15.4956 26.8509C14.5868 26.4026 13.5622 26.1502 12.4764 26.1502Z" fill="black"/>
<path fill-rule="evenodd" clip-rule="evenodd" d="M32.8258 32.2273C32.4908 28.8353 29.4261 26.1502 25.8809 26.1502V24.8744C30.0544 24.8744 33.7023 28.0255 34.105 32.1028L32.8258 32.2273Z" fill="black"/>
<path fill-rule="evenodd" clip-rule="evenodd" d="M19.2705 26.1502C17.2584 26.1502 15.4512 27.0177 14.2062 28.3984L13.2485 27.5475C14.7269 25.9078 16.8775 24.8744 19.2705 24.8744C21.6634 24.8744 23.814 25.9078 25.2924 27.5475L24.3347 28.3984C23.0897 27.0177 21.2826 26.1502 19.2705 26.1502Z" fill="black"/>
<path fill-rule="evenodd" clip-rule="evenodd" d="M19.2705 23.7808C16.9733 23.7808 14.8747 24.6174 13.2643 26.0012L12.423 25.0366C14.2581 23.4596 16.6528 22.5049 19.2705 22.5049C23.1323 22.5049 26.5517 24.6712 28.3635 27.7416L27.2544 28.3865C25.6561 25.6779 22.643 23.7808 19.2705 23.7808Z" fill="black"/>
</svg>
