<svg width="40" height="40" viewBox="0 0 40 40" fill="none" xmlns="http://www.w3.org/2000/svg">
<path fill-rule="evenodd" clip-rule="evenodd" d="M25.0769 8.42211C25.0769 8.11128 25.318 7.8593 25.6154 7.8593H29.6154C29.9128 7.8593 30.1538 8.11128 30.1538 8.42211V17.3467H29.0769V8.98492H26.1538V18.8744H25.0769V8.42211Z" fill="black"/>
<path fill-rule="evenodd" clip-rule="evenodd" d="M9.15999 16.5444C9.28258 16.4178 9.45575 16.3601 9.62581 16.3894C12.4112 16.8679 16.3333 18.4909 19.958 20.7406L30.2611 16.4223C30.4405 16.3472 30.6446 16.3782 30.796 16.5037C30.9474 16.6291 31.0229 16.8297 30.9939 17.0294L28.3016 35.5219C28.2615 35.7968 28.0353 36 27.7692 36H12.2308C11.9647 36 11.7385 35.7968 11.6984 35.5219L9.00613 17.0294C8.98021 16.8513 9.0374 16.671 9.15999 16.5444ZM21.0977 21.4757C24.0006 23.4214 26.6704 25.7946 28.2578 28.3401L29.7875 17.8336L21.0977 21.4757ZM27.9965 30.1348C26.6398 27.1905 23.4512 24.288 19.8324 21.9757C16.4822 19.835 12.8591 18.2607 10.1855 17.6482L12.6935 34.8744H27.3065L27.9965 30.1348Z" fill="black"/>
<path fill-rule="evenodd" clip-rule="evenodd" d="M21.5385 10.5126C21.5385 10.2017 21.7795 9.94975 22.0769 9.94975H25.6154C25.9128 9.94975 26.1538 10.2017 26.1538 10.5126V18.9548H25.0769V11.0754H22.6154V20.2412H21.5385V10.5126Z" fill="black"/>
<path fill-rule="evenodd" clip-rule="evenodd" d="M18.1577 4.16484C18.2587 4.0593 18.3957 4 18.5385 4H22.0769C22.3743 4 22.6154 4.25198 22.6154 4.56281V20.402H21.5385V5.12563H19.0769V20.402H18V4.56281C18 4.41355 18.0567 4.27039 18.1577 4.16484Z" fill="black"/>
<path fill-rule="evenodd" clip-rule="evenodd" d="M14.1538 6.65327C14.1538 6.34243 14.3949 6.09045 14.6923 6.09045H18.5385C18.8358 6.09045 19.0769 6.34243 19.0769 6.65327V20.4824H18V7.21608H15.2308V18.4724H14.1538V6.65327Z" fill="black"/>
<path fill-rule="evenodd" clip-rule="evenodd" d="M10.6154 10.5126C10.6154 10.2017 10.8565 9.94975 11.1539 9.94975H14.6923C14.9897 9.94975 15.2308 10.2017 15.2308 10.5126L15.2308 18.4724H14.1538L14.1538 11.0754H11.6923V17.1055H10.6154V10.5126Z" fill="black"/>
</svg>
