<svg width="40" height="40" viewBox="0 0 40 40" fill="none" xmlns="http://www.w3.org/2000/svg">
<path fill-rule="evenodd" clip-rule="evenodd" d="M2.34483 25.3135C2.34483 24.983 2.615 24.715 2.94828 24.715H35.1896C35.5229 24.715 35.7931 24.983 35.7931 25.3135V35.4016C35.7931 35.7321 35.5229 36 35.1896 36H2.94828C2.615 36 2.34483 35.7321 2.34483 35.4016V25.3135ZM3.55172 25.9119V34.8031H34.5862V25.9119H3.55172Z" fill="black"/>
<path fill-rule="evenodd" clip-rule="evenodd" d="M4.41379 25.3135C4.41379 25.644 4.68397 25.9119 5.01724 25.9119H20.3621C20.6953 25.9119 20.9655 25.644 20.9655 25.3135V20.013C20.9655 19.6824 20.6953 19.4145 20.3621 19.4145H5.01724C4.68397 19.4145 4.41379 19.6824 4.41379 20.013V25.3135ZM5.62069 24.715V20.6114H19.7586V24.715H5.62069Z" fill="black"/>
<path fill-rule="evenodd" clip-rule="evenodd" d="M34.1326 16.4983L30.9834 25.0221L32.1166 25.4339L35.4734 16.3482C35.5881 16.0378 35.4273 15.6941 35.1144 15.5804L29.297 13.4666C28.984 13.3529 28.6374 13.5123 28.5227 13.8226L24.385 25.0221L25.5182 25.4339L29.4484 14.7963L34.1326 16.4983Z" fill="black"/>
<path fill-rule="evenodd" clip-rule="evenodd" d="M36.9711 13.1616C37.0207 13.3149 37.006 13.4816 36.9302 13.624L35.4404 16.4216C35.2994 16.6865 34.9827 16.8071 34.6992 16.7041L28.8817 14.5903C28.611 14.492 28.4483 14.2175 28.4933 13.9351L28.9901 10.8146C29.0184 10.637 29.1257 10.4815 29.2823 10.3909C29.439 10.3004 29.6284 10.2845 29.7981 10.3477C29.9696 10.4114 30.0887 10.3965 30.3269 10.3438C30.342 10.3405 30.3577 10.3369 30.3741 10.3332C30.6194 10.2778 31.0096 10.1896 31.4743 10.3385C31.9935 10.5049 32.3144 10.8166 32.544 11.0397C32.5501 11.0457 32.5562 11.0515 32.5622 11.0574C32.7994 11.2876 32.9435 11.4179 33.1769 11.4927C33.3711 11.5549 33.5313 11.5482 33.8 11.5293C33.8066 11.5288 33.8133 11.5284 33.82 11.5279C34.084 11.5092 34.4501 11.4833 34.8795 11.6209C35.3852 11.7829 35.715 12.0545 35.9753 12.2843C36.0059 12.3113 36.0352 12.3374 36.0634 12.3625C36.2821 12.557 36.4391 12.6965 36.6664 12.8092C36.8116 12.8812 36.9215 13.0082 36.9711 13.1616ZM35.6052 13.549C35.4698 13.4442 35.3536 13.34 35.2528 13.2497C35.225 13.2247 35.1983 13.2008 35.1728 13.1783C34.9458 12.9779 34.7691 12.8433 34.5085 12.7598C34.3142 12.6976 34.154 12.7043 33.8853 12.7232C33.8787 12.7237 33.8721 12.7241 33.8653 12.7246C33.6013 12.7433 33.2352 12.7691 32.8059 12.6316C32.2867 12.4653 31.9658 12.1535 31.7362 11.9304C31.73 11.9244 31.724 11.9186 31.718 11.9128C31.4807 11.6825 31.3366 11.5522 31.1033 11.4775C30.9645 11.433 30.869 11.4503 30.5894 11.5121C30.4528 11.5423 30.2849 11.5782 30.0893 11.5852L29.7628 13.6357L34.6193 15.4004L35.6052 13.549Z" fill="black"/>
<path fill-rule="evenodd" clip-rule="evenodd" d="M31.065 19.0824L28.9008 25.0247L30.0359 25.4313L32.3089 19.1904C32.3769 19.0036 32.3471 18.7955 32.2293 18.635L30.6157 16.4356C30.4846 16.2569 30.2649 16.1644 30.0442 16.195C29.8235 16.2256 29.6378 16.3743 29.5611 16.5818L26.4428 25.0221L27.576 25.4339L30.3052 18.0468L31.065 19.0824Z" fill="black"/>
<path fill-rule="evenodd" clip-rule="evenodd" d="M14.7586 5.99223C14.7586 6.32274 15.0288 6.59067 15.3621 6.59067H32.431C32.7643 6.59067 33.0345 6.32274 33.0345 5.99223V3.59845C33.0345 3.26793 32.7643 3 32.431 3H15.3621C15.0288 3 14.7586 3.26793 14.7586 3.59845V5.99223ZM15.9655 5.39378V4.19689H31.8276V5.39378H15.9655Z" fill="black"/>
<path fill-rule="evenodd" clip-rule="evenodd" d="M14.7586 5.99223C14.7586 5.66172 15.0288 5.39378 15.3621 5.39378H32.431C32.7643 5.39378 33.0345 5.66172 33.0345 5.99223V7.77464C33.0345 8.16462 32.9348 8.54825 32.7449 8.88972L31.5801 10.9834L30.5234 10.4052L31.6881 8.31153C31.7796 8.14712 31.8276 7.96241 31.8276 7.77464V6.59067H15.9655V7.77464C15.9655 7.96241 16.0135 8.14712 16.105 8.31153L17.0552 10.0196C17.2452 10.3611 17.3448 10.7447 17.3448 11.1347V20.013H16.1379V11.1347C16.1379 10.9469 16.09 10.7622 15.9985 10.5978L15.0482 8.88972C14.8583 8.54825 14.7586 8.16462 14.7586 7.77464V5.99223Z" fill="black"/>
<path fill-rule="evenodd" clip-rule="evenodd" d="M24.1513 12.7585C23.5613 12.9844 22.929 13.4666 22.4267 14.1729C21.9245 14.8793 21.679 15.6319 21.6625 16.2589C21.6459 16.891 21.8562 17.3221 22.1709 17.5421C22.4856 17.7621 22.9657 17.8138 23.5604 17.5861C24.1504 17.3601 24.7828 16.878 25.285 16.1716C25.7872 15.4653 26.0328 14.7127 26.0492 14.0856C26.0659 13.4536 25.8555 13.0225 25.5408 12.8024C25.2262 12.5824 24.7461 12.5307 24.1513 12.7585ZM23.7166 11.6419C24.5533 11.3215 25.4894 11.3019 26.2363 11.8243C26.9833 12.3466 27.2791 13.2276 27.2557 14.1168C27.2322 15.011 26.8918 15.9888 26.2713 16.8614C25.6509 17.7339 24.8366 18.3803 23.9952 18.7026C23.1585 19.023 22.2224 19.0426 21.4754 18.5203C20.7284 17.9979 20.4326 17.1169 20.456 16.2277C20.4795 15.3335 20.82 14.3558 21.4404 13.4832C22.0608 12.6106 22.8751 11.9642 23.7166 11.6419Z" fill="black"/>
<path fill-rule="evenodd" clip-rule="evenodd" d="M7.60345 6.59067C5.1753 6.59067 3.2069 8.54276 3.2069 10.9508C3.2069 13.3588 5.1753 15.3109 7.60345 15.3109C10.0316 15.3109 12 13.3588 12 10.9508C12 8.54276 10.0316 6.59067 7.60345 6.59067ZM2 10.9508C2 7.88173 4.50875 5.39378 7.60345 5.39378C10.6981 5.39378 13.2069 7.88173 13.2069 10.9508C13.2069 14.0198 10.6981 16.5078 7.60345 16.5078C4.50875 16.5078 2 14.0198 2 10.9508Z" fill="black"/>
<path fill-rule="evenodd" clip-rule="evenodd" d="M12.6034 23.5181C11.0083 23.5181 9.61089 24.3602 8.83955 25.6235L7.80718 25.0035C8.78808 23.397 10.5688 22.3212 12.6034 22.3212C14.6381 22.3212 16.4188 23.397 17.3997 25.0035L16.3673 25.6235C15.596 24.3602 14.1986 23.5181 12.6034 23.5181Z" fill="black"/>
<path fill-rule="evenodd" clip-rule="evenodd" d="M7.68965 15.3964C8.02293 15.3964 8.2931 15.6643 8.2931 15.9948V19.7565C8.2931 20.087 8.02293 20.3549 7.68965 20.3549C7.35638 20.3549 7.08621 20.087 7.08621 19.7565V15.9948C7.08621 15.6643 7.35638 15.3964 7.68965 15.3964Z" fill="black"/>
<path fill-rule="evenodd" clip-rule="evenodd" d="M5.61015 5.95965C5.91396 6.09552 6.04918 6.44992 5.91216 6.75121C5.17685 8.36817 5.43794 9.23812 5.82729 9.7109C6.11781 10.0637 6.55468 10.2913 6.99549 10.4148C7.13586 9.33456 7.91462 8.54887 8.83754 8.14779C9.95447 7.66241 11.4049 7.67227 12.5071 8.40103C12.7844 8.58436 12.8594 8.95592 12.6745 9.23092C12.4896 9.50592 12.115 9.58024 11.8377 9.3969C11.1296 8.92876 10.1231 8.89588 9.32194 9.24405C8.73161 9.50059 8.32383 9.92437 8.21194 10.4682C8.8773 10.5075 9.58896 10.8002 10.1308 11.3413C10.9309 12.1403 11.3168 13.4202 10.8589 15.1231C10.7731 15.4425 10.4424 15.6323 10.1204 15.5472C9.79835 15.462 9.60691 15.1341 9.69279 14.8147C10.0625 13.4399 9.71564 12.6253 9.27441 12.1847C8.95752 11.8682 8.5652 11.7108 8.22756 11.6711C8.17896 12.6044 7.73267 13.4316 6.92503 13.9314C5.95591 14.531 4.60024 14.5783 3.07372 13.9876C2.76325 13.8674 2.60978 13.5204 2.73094 13.2125C2.8521 12.9046 3.20201 12.7524 3.51248 12.8726C4.81355 13.3761 5.74237 13.2524 6.28617 12.9159C6.70838 12.6547 6.98083 12.2157 7.02053 11.6493C6.30325 11.5109 5.46758 11.1663 4.89253 10.468C4.11666 9.52588 3.96108 8.13028 4.81197 6.25916C4.94898 5.95786 5.30634 5.82377 5.61015 5.95965Z" fill="black"/>
</svg>
