<svg width="40" height="40" viewBox="0 0 40 40" fill="none" xmlns="http://www.w3.org/2000/svg">
<path fill-rule="evenodd" clip-rule="evenodd" d="M28.1593 17.9144C28.3152 18.0289 28.4072 18.2098 28.4072 18.4022V35.3932C28.4072 35.7283 28.1333 36 27.7955 36H5.77416C5.43632 36 5.16245 35.7283 5.16245 35.3932V18.4022C5.16245 18.2413 5.2269 18.0869 5.34162 17.9731C5.45633 17.8593 5.61192 17.7954 5.77416 17.7954C6.68439 17.7954 7.22728 18.2994 7.59936 18.6448L7.60783 18.6526C8.00649 19.0226 8.19902 19.1824 8.52682 19.1824C8.86341 19.1824 9.08554 19.0109 9.49299 18.6455C9.50489 18.6349 9.517 18.624 9.5293 18.6129C9.89523 18.284 10.4386 17.7954 11.2795 17.7954C12.1203 17.7954 12.6637 18.2839 13.0297 18.6129C13.042 18.624 13.0541 18.6349 13.066 18.6455C13.4734 19.0109 13.6956 19.1824 14.0321 19.1824C14.3687 19.1824 14.5909 19.0109 14.9983 18.6455C15.0102 18.6349 15.0223 18.624 15.0346 18.6129C15.4006 18.2839 15.944 17.7954 16.7848 17.7954C17.6256 17.7954 18.1691 18.284 18.535 18.6129C18.5473 18.624 18.5594 18.6349 18.5713 18.6455C18.9788 19.0109 19.2009 19.1824 19.5375 19.1824C19.8741 19.1824 20.0962 19.0109 20.5036 18.6455C20.5155 18.6349 20.5276 18.624 20.54 18.6129C20.9059 18.284 21.4493 17.7954 22.2901 17.7954C23.131 17.7954 23.6744 18.284 24.0403 18.6129C24.0526 18.624 24.0647 18.6349 24.0766 18.6455C24.4841 19.0109 24.7062 19.1824 25.0428 19.1824C25.4351 19.1824 25.6981 19.0293 26.0637 18.7476C26.1086 18.713 26.1557 18.6757 26.2053 18.6364C26.5441 18.3683 26.9967 18.0099 27.6166 17.8219C27.8021 17.7657 28.0034 17.8 28.1593 17.9144ZM6.38586 19.2116V34.7863H27.1838V19.4192C27.119 19.4683 27.0525 19.5204 26.9826 19.575C26.9287 19.6172 26.8728 19.6609 26.8141 19.7061C26.3931 20.0305 25.8562 20.3961 25.0428 20.3961C24.202 20.3961 23.6585 19.9075 23.2926 19.5785C23.2803 19.5675 23.2682 19.5566 23.2563 19.5459C22.8489 19.1806 22.6267 19.009 22.2901 19.009C21.9535 19.009 21.7314 19.1806 21.324 19.5459C21.3121 19.5566 21.3 19.5675 21.2876 19.5785C20.9217 19.9075 20.3783 20.3961 19.5375 20.3961C18.6966 20.3961 18.1532 19.9075 17.7873 19.5785C17.775 19.5675 17.7629 19.5566 17.751 19.5459C17.3435 19.1806 17.1214 19.009 16.7848 19.009C16.4482 19.009 16.2261 19.1806 15.8186 19.5459C15.8067 19.5566 15.7946 19.5675 15.7823 19.5785C15.4164 19.9075 14.873 20.3961 14.0321 20.3961C13.1913 20.3961 12.6479 19.9075 12.282 19.5785C12.2697 19.5675 12.2576 19.5566 12.2456 19.5459C11.8382 19.1806 11.6161 19.009 11.2795 19.009C10.9429 19.009 10.7208 19.1806 10.3133 19.5459C10.3014 19.5566 10.2893 19.5675 10.277 19.5785C9.91107 19.9075 9.36766 20.3961 8.52682 20.3961C7.69004 20.3961 7.17081 19.9112 6.82219 19.5856C6.80505 19.5696 6.78832 19.554 6.77199 19.5388C6.62758 19.4048 6.50477 19.2954 6.38586 19.2116Z" fill="black"/>
<path fill-rule="evenodd" clip-rule="evenodd" d="M8.58187 5.79013C7.92972 5.21479 7.50228 5.15113 7.23857 5.26324C7.10366 5.3206 6.94529 5.45702 6.78905 5.74959C6.63274 6.04232 6.50264 6.44816 6.40719 6.96229C6.21642 7.9898 6.18403 9.33577 6.26483 10.7946C6.42635 13.7109 7.03079 16.9318 7.5807 18.6523C7.68281 18.9718 7.50452 19.3128 7.18249 19.4141C6.86046 19.5154 6.51662 19.3386 6.41451 19.0191C5.8284 17.1854 5.20943 13.8613 5.04326 10.8611C4.96021 9.36171 4.9879 7.90655 5.20402 6.74247C5.31201 6.1608 5.47207 5.62324 5.70797 5.18148C5.94395 4.73957 6.27985 4.35044 6.75664 4.14773C7.71634 3.73972 8.66523 4.23953 9.39488 4.88324C10.1546 5.55351 10.8863 6.55248 11.5229 7.62719C12.1641 8.70957 12.7303 9.90554 13.1486 11.0001C13.5618 12.0812 13.8499 13.113 13.8998 13.8541C13.9222 14.1885 13.6672 14.4776 13.3301 14.4999C12.993 14.5222 12.7015 14.2692 12.6791 13.9348C12.6415 13.3756 12.4053 12.4785 12.0047 11.4304C11.6092 10.3957 11.0722 9.26188 10.4681 8.24206C9.8595 7.21458 9.20391 6.33892 8.58187 5.79013Z" fill="black"/>
<path fill-rule="evenodd" clip-rule="evenodd" d="M9.64934 7.77464C9.96765 7.88691 10.1339 8.23391 10.0208 8.54968L8.62259 12.4507C8.50942 12.7664 8.15962 12.9314 7.84131 12.8191C7.523 12.7069 7.35671 12.3599 7.46988 12.0441L8.86806 8.1431C8.98124 7.82733 9.33103 7.66236 9.64934 7.77464Z" fill="black"/>
<path fill-rule="evenodd" clip-rule="evenodd" d="M11.0475 12.6292C11.3658 12.7415 11.5321 13.0885 11.4189 13.4042L10.0208 17.3052C9.90759 17.621 9.5578 17.786 9.23949 17.6737C8.92118 17.5614 8.75488 17.2144 8.86806 16.8986L10.2662 12.9977C10.3794 12.6819 10.7292 12.5169 11.0475 12.6292Z" fill="black"/>
<path fill-rule="evenodd" clip-rule="evenodd" d="M33.7544 17.9161C33.5998 17.8015 33.3998 17.7661 33.2147 17.8204C32.5847 18.0053 32.1246 18.3638 31.7788 18.6333C31.7293 18.6718 31.6821 18.7086 31.6372 18.7428C31.2641 19.026 30.9939 19.1824 30.5919 19.1824C30.2512 19.1824 30.0462 19.0159 29.64 18.6477C29.6359 18.644 29.6318 18.6403 29.6277 18.6365C29.249 18.2933 28.6998 17.7954 27.7956 17.7954C27.4578 17.7954 27.1839 18.0671 27.1839 18.4023V35.3932C27.1839 35.7283 27.4576 36 27.7955 36L33.3883 36C33.7261 36 34 35.7283 34 35.3932V18.4023C34 18.2108 33.909 18.0306 33.7544 17.9161ZM28.8634 19.5879C29.222 19.9146 29.7505 20.3961 30.5919 20.3961C31.411 20.3961 31.9535 20.0309 32.3807 19.7065C32.4383 19.6628 32.4933 19.6204 32.5464 19.5795C32.6266 19.5177 32.7026 19.4593 32.7766 19.4044V34.7864H28.4073V19.207C28.5325 19.2925 28.6619 19.4052 28.8149 19.5438C28.8307 19.5581 28.8469 19.5729 28.8634 19.5879Z" fill="black"/>
<path fill-rule="evenodd" clip-rule="evenodd" d="M15.4741 5.74574C15.4741 5.4106 15.7479 5.13892 16.0858 5.13892H20.6298C20.9677 5.13892 21.2415 5.4106 21.2415 5.74574V7.99964C21.2415 8.33477 20.9677 8.60646 20.6298 8.60646H16.0858C15.7479 8.60646 15.4741 8.33477 15.4741 7.99964V5.74574ZM16.6975 6.35256V7.39282H20.0181V6.35256H16.6975Z" fill="black"/>
<path fill-rule="evenodd" clip-rule="evenodd" d="M13.9011 19.6159V14.2938C13.9011 13.4092 14.3136 12.5745 15.0184 12.0326L17.1596 10.3864C17.3091 10.2715 17.3966 10.0944 17.3966 9.90678V8.60646H19.4064V9.90678C19.4064 10.1036 19.5027 10.2882 19.6645 10.4019C19.6645 10.4019 19.6645 10.402 19.6645 10.4019L19.6698 10.4057L19.6867 10.4176C19.7016 10.4282 19.7239 10.444 19.7527 10.4645C19.8104 10.5056 19.8939 10.5655 19.9968 10.6402C20.2027 10.7898 20.4851 10.9979 20.7913 11.2323C21.4176 11.7119 22.0961 12.2663 22.4472 12.6533L23.3566 11.8414C22.9212 11.3616 22.1578 10.7456 21.5389 10.2716C21.2224 10.0293 20.9313 9.81481 20.7194 9.66095C20.6878 9.63795 20.6578 9.61628 20.6298 9.59607V7.99964C20.6298 7.6645 20.356 7.39282 20.0181 7.39282L16.7849 7.39282C16.447 7.39282 16.1731 7.6645 16.1731 7.99964V9.60935L14.2689 11.0733C13.2652 11.845 12.6777 13.034 12.6777 14.2938V19.6159H13.9011Z" fill="black"/>
<path fill-rule="evenodd" clip-rule="evenodd" d="M27.39 12.7088C26.3514 11.1306 24.3256 10.7511 22.6557 11.6865C20.7517 12.753 19.4356 15.396 20.0241 19.5275C20.0714 19.8593 20.3809 20.0903 20.7154 20.0434C21.0499 19.9965 21.2827 19.6895 21.2355 19.3577C20.688 15.5137 21.9499 13.4756 23.2572 12.7433C24.5732 12.0062 26.0641 12.4574 26.6139 13.855C26.6911 14.0512 26.8652 14.1936 27.074 14.2314C27.2828 14.2692 27.4964 14.1969 27.6384 14.0404C28.1567 13.4691 29.291 13.3772 30.1267 14.1276C30.9034 14.8251 31.5001 16.4024 30.3729 19.2186C30.2482 19.5301 30.4017 19.8829 30.7157 20.0065C31.0296 20.1302 31.3853 19.978 31.5099 19.6665C32.7421 16.588 32.2465 14.3943 30.9478 13.2279C29.9361 12.3194 28.4688 12.1199 27.39 12.7088Z" fill="black"/>
<path fill-rule="evenodd" clip-rule="evenodd" d="M30.7636 10.5399C30.7972 10.8734 30.552 11.1708 30.2158 11.2041C29.4415 11.2809 28.8515 11.5432 28.4775 11.9304C28.1157 12.3048 27.8939 12.8595 27.9678 13.6661C27.9984 13.9999 27.7504 14.2951 27.414 14.3254C27.0775 14.3557 26.78 14.1098 26.7494 13.776C26.6485 12.6755 26.951 11.7565 27.5942 11.0907C28.2251 10.4376 29.1206 10.0931 30.0941 9.99648C30.4302 9.96314 30.73 10.2064 30.7636 10.5399Z" fill="black"/>
</svg>
