<svg width="40" height="40" viewBox="0 0 40 40" fill="none" xmlns="http://www.w3.org/2000/svg">
<path fill-rule="evenodd" clip-rule="evenodd" d="M12.9355 24.335C11.3934 24.335 10.2376 25.4796 10.2376 26.7783C10.2376 28.0771 11.3934 29.2217 12.9355 29.2217C14.4776 29.2217 15.6335 28.0771 15.6335 26.7783C15.6335 25.4796 14.4776 24.335 12.9355 24.335ZM9.15837 26.7783C9.15837 24.7688 10.9015 23.2315 12.9355 23.2315C14.9695 23.2315 16.7127 24.7688 16.7127 26.7783C16.7127 28.7878 14.9695 30.3251 12.9355 30.3251C10.9015 30.3251 9.15837 28.7878 9.15837 26.7783Z" fill="black"/>
<path fill-rule="evenodd" clip-rule="evenodd" d="M23.5138 13.1328C23.2812 13.3111 23.1878 13.5154 23.1878 13.6946C23.1878 13.8738 23.2812 14.0781 23.5138 14.2564C23.7465 14.4349 24.0928 14.5616 24.4982 14.5616C24.9036 14.5616 25.2499 14.4349 25.4826 14.2564C25.7152 14.0781 25.8087 13.8738 25.8087 13.6946C25.8087 13.5154 25.7152 13.3111 25.4826 13.1328C25.2499 12.9543 24.9036 12.8276 24.4982 12.8276C24.0928 12.8276 23.7465 12.9543 23.5138 13.1328ZM22.8663 12.25C23.3031 11.915 23.8819 11.7242 24.4982 11.7242C25.1146 11.7242 25.6933 11.915 26.1301 12.25C26.5671 12.5852 26.8878 13.0902 26.8878 13.6946C26.8878 14.299 26.5671 14.804 26.1301 15.1392C25.6933 15.4742 25.1146 15.665 24.4982 15.665C23.8819 15.665 23.3031 15.4742 22.8663 15.1392C22.4293 14.804 22.1086 14.299 22.1086 13.6946C22.1086 13.0902 22.4293 12.5852 22.8663 12.25Z" fill="black"/>
<path fill-rule="evenodd" clip-rule="evenodd" d="M9.23546 22.7586C9.23546 22.4539 9.47704 22.2069 9.77505 22.2069C11.1532 22.2069 12.4019 22.5362 13.24 23.3931C13.4507 23.6086 13.4507 23.9579 13.24 24.1734C13.0293 24.3888 12.6876 24.3888 12.4769 24.1734C11.9274 23.6116 11.0178 23.3104 9.77505 23.3104C9.47704 23.3104 9.23546 23.0633 9.23546 22.7586Z" fill="black"/>
<path fill-rule="evenodd" clip-rule="evenodd" d="M16.5585 22.7586C16.5585 22.4539 16.3169 22.2069 16.0189 22.2069C14.6408 22.2069 13.392 22.5362 12.554 23.3931C12.3432 23.6086 12.3432 23.9579 12.554 24.1734C12.7647 24.3888 13.1063 24.3888 13.3171 24.1734C13.8665 23.6116 14.7761 23.3104 16.0189 23.3104C16.3169 23.3104 16.5585 23.0633 16.5585 22.7586Z" fill="black"/>
<path fill-rule="evenodd" clip-rule="evenodd" d="M12.9355 21.0246C13.2335 21.0246 13.4751 21.2717 13.4751 21.5764V23.5468C13.4751 23.8515 13.2335 24.0985 12.9355 24.0985C12.6375 24.0985 12.3959 23.8515 12.3959 23.5468V21.5764C12.3959 21.2717 12.6375 21.0246 12.9355 21.0246Z" fill="black"/>
<path fill-rule="evenodd" clip-rule="evenodd" d="M24.4982 10.7783C24.7962 10.7783 25.0378 11.0254 25.0378 11.3301V12.1182C25.0378 12.423 24.7962 12.67 24.4982 12.67C24.2002 12.67 23.9586 12.423 23.9586 12.1182V11.3301C23.9586 11.0254 24.2002 10.7783 24.4982 10.7783Z" fill="black"/>
<path fill-rule="evenodd" clip-rule="evenodd" d="M22.639 11.0621C22.7837 10.7958 23.1122 10.6998 23.3727 10.8478L24.4906 11.4827L25.5351 10.8545C25.7919 10.7 26.1227 10.7877 26.2738 11.0503C26.4248 11.313 26.3391 11.6511 26.0822 11.8056L24.7718 12.5938C24.607 12.6929 24.4033 12.6955 24.2362 12.6005L22.8486 11.8124C22.5881 11.6644 22.4943 11.3285 22.639 11.0621Z" fill="black"/>
<path fill-rule="evenodd" clip-rule="evenodd" d="M7 15.7439C7 14.5686 7.93182 13.6158 9.08129 13.6158H18.6398V14.7192H9.08129C8.52784 14.7192 8.07919 15.178 8.07919 15.7439V33.8719C8.07919 34.4378 8.52784 34.8966 9.08129 34.8966H17.0981C17.6515 34.8966 18.1002 34.4378 18.1002 33.8719V28.7488H19.1794V33.8719C19.1794 35.0472 18.2476 36 17.0981 36H9.08129C7.93182 36 7 35.0472 7 33.8719V15.7439Z" fill="black"/>
<path fill-rule="evenodd" clip-rule="evenodd" d="M8.69586 14.1675C8.69586 14.4722 8.93745 14.7192 9.23546 14.7192H16.9439C17.2419 14.7192 17.4835 14.4722 17.4835 14.1675V13.2217C17.4835 12.3946 16.8278 11.7242 16.0189 11.7242H10.1605C9.35159 11.7242 8.69586 12.3946 8.69586 13.2217V14.1675ZM9.77505 13.6158V13.2217C9.77505 13.004 9.94761 12.8276 10.1605 12.8276H16.0189C16.2318 12.8276 16.4043 13.004 16.4043 13.2217V13.6158H9.77505Z" fill="black"/>
<path fill-rule="evenodd" clip-rule="evenodd" d="M20.2586 35.4483C20.2586 35.753 20.5001 36 20.7982 36H28.5066C28.8046 36 29.0462 35.753 29.0462 35.4483V33.5567C29.0462 33.2519 28.8046 33.0049 28.5066 33.0049H20.7982C20.5001 33.0049 20.2586 33.2519 20.2586 33.5567V35.4483ZM21.3377 34.8966V34.1084H27.967V34.8966H21.3377Z" fill="black"/>
<path fill-rule="evenodd" clip-rule="evenodd" d="M20.2586 21.8916C20.2586 22.1963 20.5001 22.4434 20.7982 22.4434H28.1983C28.4963 22.4434 28.7379 22.1963 28.7379 21.8916V8.335C28.7379 8.03029 28.4963 7.78327 28.1983 7.78327H20.7982C20.5001 7.78327 20.2586 8.03029 20.2586 8.335V21.8916ZM21.3377 21.3399V8.88672H27.6587V21.3399H21.3377Z" fill="black"/>
<path fill-rule="evenodd" clip-rule="evenodd" d="M20.2586 33.4778C20.2586 33.7825 20.5001 34.0295 20.7982 34.0295H28.5066C28.8046 34.0295 29.0462 33.7825 29.0462 33.4778C29.0462 31.3029 29.9194 29.8483 30.717 28.9668C31.5168 28.083 32.1725 26.8065 31.9593 25.4684C31.4163 22.0592 30.3799 14.3716 30.5394 6.20429C30.5628 5.00756 29.6285 4 28.4429 4H20.4898C19.3387 4 18.4152 4.95045 18.3929 6.11543C18.2589 13.1034 17.3037 22.191 16.8975 25.7875C16.7652 26.959 17.2989 28.0503 18.0594 28.8086C19.0529 29.7992 20.2586 31.4309 20.2586 33.4778ZM21.3139 32.9261C21.1211 30.7046 19.8012 29.0041 18.8129 28.0186C18.2227 27.4301 17.8855 26.6589 17.9696 25.9141C18.3758 22.3173 19.3368 13.1831 19.4718 6.13705C19.4829 5.56117 19.938 5.10345 20.4898 5.10345H28.4429C29.0091 5.10345 29.4721 5.58804 29.4605 6.18225C29.299 14.4451 30.3464 22.2069 30.8942 25.6458C31.0323 26.513 30.6092 27.4611 29.9249 28.2174C29.0551 29.1786 28.1193 30.7148 27.9838 32.9261H21.3139Z" fill="black"/>
<path fill-rule="evenodd" clip-rule="evenodd" d="M23.0833 31.2762C23.1715 31.0808 23.3627 30.9557 23.5732 30.9557H25.5774C25.7759 30.9557 25.9584 31.0671 26.0525 31.2458L27.1317 33.2951C27.2217 33.4661 27.2172 33.6729 27.1198 33.8396C27.0224 34.0063 26.8465 34.1084 26.6566 34.1084H22.6482C22.4642 34.1084 22.2928 34.0125 22.1937 33.854C22.0945 33.6955 22.0811 33.4963 22.1583 33.3254L23.0833 31.2762ZM23.9185 32.0591L23.4915 33.0049H25.7532L25.2551 32.0591H23.9185Z" fill="black"/>
<path fill-rule="evenodd" clip-rule="evenodd" d="M11.4755 6.21378C11.5108 5.93926 11.7397 5.73403 12.0105 5.73403H13.8605C14.1261 5.73403 14.3521 5.93154 14.3935 6.19971L15.3185 12.1899C15.3432 12.3492 15.2983 12.5116 15.1958 12.6343C15.0933 12.757 14.9434 12.8276 14.7856 12.8276H11.2397C11.0843 12.8276 10.9364 12.7591 10.834 12.6397C10.7315 12.5202 10.6844 12.3614 10.7047 12.2039L11.4755 6.21378ZM12.4837 6.83748L11.8549 11.7242H14.1541L13.3995 6.83748H12.4837Z" fill="black"/>
<path fill-rule="evenodd" clip-rule="evenodd" d="M7 19.8424C7 19.5377 7.24158 19.2907 7.53959 19.2907H17.8689C18.1669 19.2907 18.4085 19.5377 18.4085 19.8424C18.4085 20.1471 18.1669 20.3941 17.8689 20.3941H7.53959C7.24158 20.3941 7 20.1471 7 19.8424Z" fill="black"/>
<path fill-rule="evenodd" clip-rule="evenodd" d="M21.8003 17.9508C21.8003 17.646 22.0418 17.399 22.3398 17.399H26.6566C26.9546 17.399 27.1962 17.646 27.1962 17.9508C27.1962 18.2555 26.9546 18.5025 26.6566 18.5025H22.3398C22.0418 18.5025 21.8003 18.2555 21.8003 17.9508Z" fill="black"/>
<path fill-rule="evenodd" clip-rule="evenodd" d="M7 31.5074C7 31.2027 7.24158 30.9557 7.53959 30.9557H18.5627C18.8607 30.9557 19.1023 31.2027 19.1023 31.5074C19.1023 31.8121 18.8607 32.0591 18.5627 32.0591H7.53959C7.24158 32.0591 7 31.8121 7 31.5074Z" fill="black"/>
</svg>
