<svg width="40" height="40" viewBox="0 0 40 40" fill="none" xmlns="http://www.w3.org/2000/svg">
<path fill-rule="evenodd" clip-rule="evenodd" d="M8 26.1818C8 26.0312 8.11878 25.9091 8.26531 25.9091H11.7143C11.8608 25.9091 11.9796 26.0312 11.9796 26.1818V32.7273C11.9796 32.8779 11.8608 33 11.7143 33H8.26531C8.11878 33 8 32.8779 8 32.7273V26.1818ZM8.53061 26.4545V32.4545H11.449V26.4545H8.53061Z" fill="#116565"/>
<path fill-rule="evenodd" clip-rule="evenodd" d="M34 12.8182C34 12.9688 33.8812 13.0909 33.7347 13.0909L30.2857 13.0909C30.1392 13.0909 30.0204 12.9688 30.0204 12.8182V6.27273C30.0204 6.1221 30.1392 6 30.2857 6L33.7347 6C33.8812 6 34 6.1221 34 6.27273V12.8182ZM33.4694 12.5455V6.54545L30.551 6.54546V12.5455L33.4694 12.5455Z" fill="#116565"/>
<path fill-rule="evenodd" clip-rule="evenodd" d="M10.6531 9.27273C10.6531 9.12211 10.7718 9 10.9184 9H25.1122V9.54546H11.1837V17.1818H26.3061V13.0909H26.8367V17.4545C26.8367 17.6052 26.718 17.7273 26.5714 17.7273H10.9184C10.7718 17.7273 10.6531 17.6052 10.6531 17.4545V9.27273Z" fill="#116565"/>
<path fill-rule="evenodd" clip-rule="evenodd" d="M18.7449 12C17.939 12 17.2857 12.6716 17.2857 13.5C17.2857 14.3284 17.939 15 18.7449 15C19.3284 15 19.8324 14.6479 20.066 14.138L20.546 14.3703C20.2283 15.0642 19.5415 15.5455 18.7449 15.5455C17.646 15.5455 16.7551 14.6297 16.7551 13.5C16.7551 12.3703 17.646 11.4545 18.7449 11.4545C19.6003 11.4545 20.3291 12.0093 20.6104 12.7871L20.1131 12.9772C19.9065 12.4061 19.3715 12 18.7449 12Z" fill="#116565"/>
<path fill-rule="evenodd" clip-rule="evenodd" d="M26.4388 15C25.0468 15 23.9184 16.16 23.9184 17.5909H23.3878C23.3878 15.8587 24.7537 14.4545 26.4388 14.4545V15Z" fill="#116565"/>
<path fill-rule="evenodd" clip-rule="evenodd" d="M13.4388 17.5909C13.4388 16.16 12.3104 15 10.9184 15V14.4545C12.6034 14.4545 13.9694 15.8587 13.9694 17.5909H13.4388Z" fill="#116565"/>
<path fill-rule="evenodd" clip-rule="evenodd" d="M10.9184 11.8636C12.3104 11.8636 13.4388 10.7036 13.4388 9.27273L13.9694 9.27273C13.9694 11.0049 12.6034 12.4091 10.9184 12.4091V11.8636Z" fill="#116565"/>
<path fill-rule="evenodd" clip-rule="evenodd" d="M26.8367 19.6364C26.8367 19.4857 26.718 19.3636 26.5714 19.3636H13.8367C13.6902 19.3636 13.5714 19.4857 13.5714 19.6364V26.4545H14.102V19.9091H26.3061V24.5455H26.8367V19.6364Z" fill="#116565"/>
<path fill-rule="evenodd" clip-rule="evenodd" d="M22.3265 19.6364C22.3265 19.4857 22.2077 19.3636 22.0612 19.3636H18.3469C18.2004 19.3636 18.0816 19.4857 18.0816 19.6364V22.9091C18.0816 23.0063 18.132 23.0962 18.2138 23.145C18.2956 23.1938 18.3965 23.1941 18.4786 23.1459L20.2041 22.1323L21.9296 23.1459C22.0117 23.1941 22.1126 23.1938 22.1944 23.145C22.2762 23.0962 22.3265 23.0063 22.3265 22.9091V19.6364ZM21.7959 19.9091V22.4391L20.3357 21.5814C20.2541 21.5335 20.154 21.5335 20.0725 21.5814L18.6122 22.4391V19.9091H21.7959Z" fill="#116565"/>
<path fill-rule="evenodd" clip-rule="evenodd" d="M27.4307 24.9475C27.7488 25.1815 27.7953 25.6491 27.5299 25.9445L24.2809 29.56L19.4689 32.4545L11.7143 32.4545C11.5678 32.4545 11.449 32.5766 11.449 32.7273C11.449 32.8779 11.5678 33 11.7143 33H19.5408C19.5879 33 19.6342 32.9871 19.6748 32.9627L24.583 30.0103C24.6056 29.9967 24.6261 29.9797 24.6439 29.96L27.9197 26.3146C28.4016 25.7782 28.3172 24.929 27.7396 24.504C27.2787 24.1649 26.6485 24.2103 26.2381 24.6121L22.7428 28.034L18.4597 28.3644C18.3136 28.3757 18.2041 28.5066 18.215 28.6568C18.226 28.807 18.3533 28.9196 18.4994 28.9083L22.877 28.5707C22.9381 28.566 22.9957 28.5396 23.0401 28.4962L26.604 25.0071C26.83 24.7858 27.177 24.7609 27.4307 24.9475Z" fill="#116565"/>
<path fill-rule="evenodd" clip-rule="evenodd" d="M17.322 9.36285C17.396 9.49285 17.5585 9.53657 17.685 9.4605L22.5311 6.54545L30.2857 6.54545C30.4322 6.54545 30.551 6.42335 30.551 6.27273C30.551 6.1221 30.4322 6 30.2857 6L22.4592 6C22.4121 6 22.3658 6.01289 22.3252 6.03734L17.417 8.98972C17.2906 9.06579 17.248 9.23285 17.322 9.36285Z" fill="#116565"/>
<path fill-rule="evenodd" clip-rule="evenodd" d="M21.6914 25.365C21.6894 25.529 21.6099 25.7312 21.3649 25.9326C20.7067 26.4739 19.5504 27.357 18.5549 28.1075C18.0579 28.4821 17.6023 28.8227 17.2709 29.0697C17.1053 29.1932 16.9707 29.2932 16.8775 29.3624L16.7329 29.4696C16.7329 29.4696 16.7327 29.4697 16.8878 29.6911C17.0428 29.9124 17.0428 29.9124 17.0428 29.9123L17.1882 29.8045C17.2816 29.7352 17.4164 29.635 17.5824 29.5113C17.9143 29.2639 18.3707 28.9227 18.8686 28.5473C19.8629 27.7978 21.0281 26.9082 21.6964 26.3586C22.0374 26.0781 22.2177 25.7326 22.222 25.3716C22.2262 25.0147 22.0577 24.6922 21.798 24.4552C21.2787 23.9814 20.372 23.8145 19.4297 24.2616C18.7357 24.5908 18.3545 24.814 18.0647 24.9837C17.9897 25.0276 17.9209 25.0679 17.8543 25.1055C17.5448 25.2805 17.2666 25.4096 16.5527 25.6098C16.2148 25.7045 15.8728 25.7373 15.4992 25.7672C15.4697 25.7695 15.4401 25.7718 15.4102 25.7742C15.0672 25.8012 14.6978 25.8303 14.3132 25.9127C13.4578 26.0959 12.5458 26.5374 11.5154 27.7379C11.4184 27.8508 11.4289 28.0232 11.5388 28.1228C11.6486 28.2225 11.8163 28.2117 11.9132 28.0988C12.8726 26.981 13.6851 26.6044 14.4215 26.4467C14.771 26.3718 15.1075 26.3452 15.4556 26.3177C15.4837 26.3155 15.512 26.3132 15.5404 26.311C15.913 26.2812 16.3006 26.2458 16.6923 26.136C17.4375 25.9271 17.7563 25.7834 18.11 25.5834C18.1816 25.543 18.2537 25.5008 18.3308 25.4556C18.6198 25.2865 18.9804 25.0755 19.652 24.7569C20.4342 24.3858 21.1083 24.5552 21.4458 24.8632C21.6145 25.0171 21.6934 25.1968 21.6914 25.365ZM16.6725 29.8504C16.7581 29.9726 16.9239 30.0004 17.0428 29.9123L16.8878 29.6911L16.7329 29.4696C16.614 29.5576 16.5869 29.7282 16.6725 29.8504Z" fill="#116565"/>
<path fill-rule="evenodd" clip-rule="evenodd" d="M20.3086 13.6351C20.3106 13.471 20.3901 13.2688 20.6351 13.0674C21.2933 12.5261 22.4496 11.643 23.4451 10.8925C23.9421 10.5179 24.3977 10.1773 24.7291 9.93032C24.8947 9.80685 25.0293 9.7068 25.1225 9.63764L25.2671 9.53038C25.2671 9.53036 25.2673 9.53028 25.1122 9.30895C24.9572 9.08762 24.9572 9.08763 24.9572 9.08765L24.8118 9.19545C24.7184 9.26479 24.5836 9.36503 24.4176 9.48871C24.0857 9.73608 23.6293 10.0773 23.1314 10.4527C22.1371 11.2022 20.9719 12.0918 20.3036 12.6414C19.9626 12.9219 19.7823 13.2674 19.778 13.6284C19.7738 13.9853 19.9423 14.3079 20.202 14.5448C20.7213 15.0186 21.628 15.1855 22.5703 14.7384C23.2643 14.4092 23.6455 14.186 23.9353 14.0163C24.0103 13.9724 24.0791 13.9321 24.1457 13.8945C24.4552 13.7195 24.7334 13.5904 25.4473 13.3902C25.7852 13.2955 26.1272 13.2627 26.5008 13.2328C26.5302 13.2305 26.5599 13.2282 26.5898 13.2258C26.9328 13.1988 27.3022 13.1697 27.6868 13.0873C28.5422 12.9041 29.4542 12.4626 30.4846 11.2621C30.5816 11.1492 30.5711 10.9768 30.4612 10.8772C30.3514 10.7775 30.1837 10.7883 30.0868 10.9012C29.1274 12.019 28.3149 12.3956 27.5785 12.5533C27.229 12.6282 26.8925 12.6548 26.5444 12.6823C26.5163 12.6845 26.488 12.6868 26.4597 12.689C26.087 12.7188 25.6994 12.7542 25.3077 12.864C24.5625 13.0729 24.2437 13.2166 23.89 13.4166C23.8184 13.457 23.7463 13.4992 23.6692 13.5444C23.3802 13.7135 23.0196 13.9245 22.348 14.2431C21.5658 14.6142 20.8917 14.4448 20.5542 14.1368C20.3855 13.9829 20.3066 13.8032 20.3086 13.6351ZM25.3275 9.14959C25.2419 9.02736 25.0761 8.99964 24.9572 9.08765L25.1122 9.30895L25.2671 9.53038C25.386 9.44237 25.4132 9.27183 25.3275 9.14959Z" fill="#116565"/>
<path d="M8.53061 32.4545H8.38061C8.38061 32.5374 8.44777 32.6045 8.53061 32.6045V32.4545ZM8.53061 26.4545V26.3045C8.44777 26.3045 8.38061 26.3717 8.38061 26.4545H8.53061ZM11.449 32.4545V32.6045C11.5318 32.6045 11.599 32.5374 11.599 32.4545H11.449ZM11.449 26.4545H11.599C11.599 26.3717 11.5318 26.3045 11.449 26.3045V26.4545ZM33.7347 13.0909V12.9409V13.0909ZM34 12.8182H33.85H34ZM30.2857 13.0909V13.2409V13.0909ZM30.0204 12.8182H29.8704H30.0204ZM30.0204 6.27273H30.1704H30.0204ZM30.2857 6V6.15V6ZM33.7347 6V5.85V6ZM34 6.27273H34.15H34ZM33.4694 6.54545H33.6194C33.6194 6.50567 33.6036 6.46752 33.5755 6.43939C33.5473 6.41126 33.5092 6.39545 33.4694 6.39545V6.54545ZM33.4694 12.5455V12.6955C33.5522 12.6955 33.6194 12.6283 33.6194 12.5455H33.4694ZM30.551 6.54546V6.39546C30.4682 6.39546 30.401 6.46261 30.401 6.54546H30.551ZM30.551 12.5455H30.401C30.401 12.5852 30.4168 12.6234 30.445 12.6515C30.4731 12.6797 30.5112 12.6955 30.551 12.6955V12.5455ZM25.1122 9H25.2622C25.2622 8.91716 25.1951 8.85 25.1122 8.85V9ZM25.1122 9.54546V9.69546C25.1951 9.69546 25.2622 9.6283 25.2622 9.54546H25.1122ZM11.1837 9.54546V9.39546C11.1008 9.39546 11.0337 9.46261 11.0337 9.54546H11.1837ZM11.1837 17.1818H11.0337C11.0337 17.2647 11.1008 17.3318 11.1837 17.3318V17.1818ZM26.3061 17.1818V17.3318C26.389 17.3318 26.4561 17.2647 26.4561 17.1818H26.3061ZM26.3061 13.0909V12.9409C26.2233 12.9409 26.1561 13.0081 26.1561 13.0909H26.3061ZM26.8367 13.0909H26.9867C26.9867 13.0081 26.9196 12.9409 26.8367 12.9409V13.0909ZM20.066 14.138L20.1313 14.003L19.9934 13.9362L19.9296 14.0755L20.066 14.138ZM20.546 14.3703L20.6824 14.4328L20.7436 14.2993L20.6114 14.2353L20.546 14.3703ZM20.6104 12.7871L20.664 12.9272L20.8016 12.8746L20.7515 12.736L20.6104 12.7871ZM20.1131 12.9772L19.972 13.0282L20.024 13.1718L20.1666 13.1173L20.1131 12.9772ZM23.9184 17.5909V17.7409H24.0684V17.5909H23.9184ZM26.4388 15V15.15H26.5888V15H26.4388ZM23.3878 17.5909H23.2378V17.7409H23.3878V17.5909ZM26.4388 14.4545H26.5888V14.3045H26.4388V14.4545ZM10.9184 15H10.7684V15.15H10.9184L10.9184 15ZM13.4388 17.5909H13.2888V17.7409H13.4388V17.5909ZM10.9184 14.4545V14.3045H10.7684V14.4545H10.9184ZM13.9694 17.5909V17.7409H14.1194V17.5909H13.9694ZM13.4388 9.27273V9.12273L13.2888 9.12273V9.27273H13.4388ZM10.9184 11.8636V11.7136H10.7684V11.8636H10.9184ZM13.9694 9.27273H14.1194V9.12273H13.9694V9.27273ZM10.9184 12.4091H10.7684V12.5591H10.9184L10.9184 12.4091ZM13.5714 26.4545H13.4214C13.4214 26.5374 13.4886 26.6045 13.5714 26.6045V26.4545ZM14.102 26.4545V26.6045C14.1849 26.6045 14.252 26.5374 14.252 26.4545H14.102ZM14.102 19.9091V19.7591C14.0192 19.7591 13.952 19.8263 13.952 19.9091H14.102ZM26.3061 19.9091H26.4561C26.4561 19.8263 26.389 19.7591 26.3061 19.7591V19.9091ZM26.3061 24.5455H26.1561C26.1561 24.6283 26.2233 24.6955 26.3061 24.6955V24.5455ZM26.8367 24.5455V24.6955C26.9196 24.6955 26.9867 24.6283 26.9867 24.5455H26.8367ZM18.2138 23.145L18.2906 23.0162L18.2138 23.145ZM18.4786 23.1459L18.4026 23.0165L18.4786 23.1459ZM20.2041 22.1323L20.2801 22.003C20.2332 21.9754 20.175 21.9754 20.1281 22.003L20.2041 22.1323ZM21.9296 23.1459L22.0056 23.0165L21.9296 23.1459ZM22.1944 23.145L22.2712 23.2738L22.1944 23.145ZM21.7959 22.4391L21.7199 22.5685C21.7663 22.5957 21.8237 22.596 21.8704 22.5693C21.9171 22.5426 21.9459 22.4929 21.9459 22.4391H21.7959ZM21.7959 19.9091H21.9459C21.9459 19.8263 21.8788 19.7591 21.7959 19.7591V19.9091ZM20.3357 21.5814L20.2597 21.7107L20.3357 21.5814ZM20.0725 21.5814L20.1484 21.7107L20.0725 21.5814ZM18.6122 22.4391H18.4622C18.4622 22.4929 18.491 22.5426 18.5377 22.5693C18.5844 22.596 18.6418 22.5957 18.6882 22.5685L18.6122 22.4391ZM18.6122 19.9091V19.7591C18.5294 19.7591 18.4622 19.8263 18.4622 19.9091H18.6122ZM27.5299 25.9445L27.4183 25.8442L27.5299 25.9445ZM27.4307 24.9475L27.5196 24.8267L27.4307 24.9475ZM24.2809 29.56L24.3582 29.6885C24.371 29.6809 24.3825 29.6713 24.3925 29.6603L24.2809 29.56ZM19.4689 32.4545V32.6045C19.4961 32.6045 19.5229 32.5971 19.5462 32.5831L19.4689 32.4545ZM11.7143 32.4545V32.3045V32.4545ZM19.5408 33V32.85V33ZM19.6748 32.9627L19.5975 32.8341L19.5975 32.8341L19.6748 32.9627ZM24.583 30.0103L24.6603 30.1388H24.6603L24.583 30.0103ZM24.6439 29.96L24.5323 29.8597L24.6439 29.96ZM27.9197 26.3146L28.0312 26.4148L27.9197 26.3146ZM27.7396 24.504L27.8285 24.3832L27.7396 24.504ZM26.2381 24.6121L26.343 24.7193L26.2381 24.6121ZM22.7428 28.034L22.7543 28.1836C22.7895 28.1809 22.8225 28.1659 22.8477 28.1412L22.7428 28.034ZM18.4597 28.3644L18.4713 28.514L18.4597 28.3644ZM18.215 28.6568L18.3646 28.6459L18.215 28.6568ZM18.4994 28.9083L18.4879 28.7588L18.4994 28.9083ZM22.877 28.5707L22.8655 28.4211L22.877 28.5707ZM23.0401 28.4962L22.9352 28.389H22.9352L23.0401 28.4962ZM26.604 25.0071L26.4991 24.8999L26.604 25.0071ZM17.685 9.4605L17.6077 9.33196L17.685 9.4605ZM22.5311 6.54545V6.39545C22.5039 6.39545 22.4771 6.40287 22.4538 6.41692L22.5311 6.54545ZM30.2857 6.54545V6.39545V6.54545ZM22.4592 6V5.85V6ZM22.3252 6.03734L22.2479 5.9088V5.9088L22.3252 6.03734ZM17.417 8.98972L17.3397 8.86118H17.3397L17.417 8.98972ZM21.3649 25.9326L21.4602 26.0485L21.3649 25.9326ZM21.6914 25.365L21.5414 25.3632L21.6914 25.365ZM18.5549 28.1075L18.4646 27.9877L18.5549 28.1075ZM17.2709 29.0697L17.1813 28.9494L17.2709 29.0697ZM16.8775 29.3624L16.9669 29.4828L16.9669 29.4828L16.8775 29.3624ZM17.0428 29.9123L17.1321 30.0329L17.1322 30.0328L17.0428 29.9123ZM17.1882 29.8045L17.2775 29.925L17.2776 29.925L17.1882 29.8045ZM17.5824 29.5113L17.4928 29.391L17.5824 29.5113ZM18.8686 28.5473L18.9589 28.6671L18.8686 28.5473ZM21.6964 26.3586L21.6011 26.2427L21.6964 26.3586ZM22.222 25.3716L22.3719 25.3734L22.222 25.3716ZM21.798 24.4552L21.8991 24.3444L21.798 24.4552ZM19.4297 24.2616L19.494 24.3971L19.4297 24.2616ZM18.0647 24.9837L17.9889 24.8542V24.8542L18.0647 24.9837ZM17.8543 25.1055L17.7805 24.9749L17.8543 25.1055ZM16.5527 25.6098L16.5122 25.4653L16.5527 25.6098ZM15.4992 25.7672L15.4873 25.6176H15.4872L15.4992 25.7672ZM15.4102 25.7742L15.422 25.9237L15.4102 25.7742ZM14.3132 25.9127L14.2818 25.766L14.3132 25.9127ZM11.5154 27.7379L11.6292 27.8356L11.6292 27.8356L11.5154 27.7379ZM11.9132 28.0988L11.7994 28.0011H11.7994L11.9132 28.0988ZM14.4215 26.4467L14.39 26.3L14.4215 26.4467ZM15.4556 26.3177L15.4674 26.4672H15.4674L15.4556 26.3177ZM15.5404 26.311L15.5284 26.1614L15.5404 26.311ZM16.6923 26.136L16.7328 26.2804L16.6923 26.136ZM18.11 25.5834L18.1839 25.714L18.11 25.5834ZM18.3308 25.4556L18.2551 25.3262L18.3308 25.4556ZM19.652 24.7569L19.5877 24.6213H19.5877L19.652 24.7569ZM21.4458 24.8632L21.3447 24.974L21.4458 24.8632ZM16.6725 29.8504L16.5496 29.9365L16.6725 29.8504ZM20.6351 13.0674L20.5398 12.9515L20.6351 13.0674ZM20.3086 13.6351L20.4586 13.6368L20.3086 13.6351ZM23.4451 10.8925L23.5354 11.0123L23.4451 10.8925ZM24.7291 9.93032L24.8187 10.0506L24.7291 9.93032ZM25.1225 9.63764L25.0331 9.51716L25.0331 9.51721L25.1225 9.63764ZM24.9572 9.08765L24.8679 8.96709L24.8678 8.96717L24.9572 9.08765ZM24.8118 9.19545L24.7225 9.07497L24.7224 9.07502L24.8118 9.19545ZM24.4176 9.48871L24.5072 9.60899L24.4176 9.48871ZM23.1314 10.4527L23.0411 10.3329L23.1314 10.4527ZM20.3036 12.6414L20.3989 12.7573H20.3989L20.3036 12.6414ZM19.778 13.6284L19.6281 13.6266L19.778 13.6284ZM20.202 14.5448L20.1009 14.6556L20.202 14.5448ZM22.5703 14.7384L22.506 14.6029H22.506L22.5703 14.7384ZM23.9353 14.0163L24.0111 14.1458H24.0111L23.9353 14.0163ZM24.1457 13.8945L24.2195 14.0251L24.1457 13.8945ZM25.4473 13.3902L25.4878 13.5347L25.4473 13.3902ZM26.5008 13.2328L26.5127 13.3824L26.5008 13.2328ZM26.5898 13.2258L26.578 13.0763L26.5898 13.2258ZM27.6868 13.0873L27.7182 13.234L27.6868 13.0873ZM30.4846 11.2621L30.3708 11.1644L30.3708 11.1644L30.4846 11.2621ZM30.0868 10.9012L30.2006 10.9989L30.0868 10.9012ZM27.5785 12.5533L27.6099 12.7L27.5785 12.5533ZM26.5444 12.6823L26.5326 12.5328H26.5326L26.5444 12.6823ZM26.4597 12.689L26.4716 12.8386L26.4597 12.689ZM25.3077 12.864L25.2672 12.7196L25.3077 12.864ZM23.89 13.4166L23.8161 13.286L23.89 13.4166ZM23.6692 13.5444L23.7449 13.6738L23.6692 13.5444ZM22.348 14.2431L22.4123 14.3787L22.348 14.2431ZM20.5542 14.1368L20.6553 14.026L20.5542 14.1368ZM25.3275 9.14959L25.4504 9.06354L25.3275 9.14959ZM8.26531 25.7591C8.03206 25.7591 7.85 25.9523 7.85 26.1818H8.15C8.15 26.1101 8.2055 26.0591 8.26531 26.0591V25.7591ZM11.7143 25.7591H8.26531V26.0591H11.7143V25.7591ZM12.1296 26.1818C12.1296 25.9523 11.9475 25.7591 11.7143 25.7591V26.0591C11.7741 26.0591 11.8296 26.1101 11.8296 26.1818H12.1296ZM12.1296 32.7273V26.1818H11.8296V32.7273H12.1296ZM11.7143 33.15C11.9475 33.15 12.1296 32.9568 12.1296 32.7273H11.8296C11.8296 32.799 11.7741 32.85 11.7143 32.85V33.15ZM8.26531 33.15H11.7143V32.85H8.26531V33.15ZM7.85 32.7273C7.85 32.9568 8.03206 33.15 8.26531 33.15V32.85C8.2055 32.85 8.15 32.799 8.15 32.7273H7.85ZM7.85 26.1818V32.7273H8.15V26.1818H7.85ZM8.68061 32.4545V26.4545H8.38061V32.4545H8.68061ZM11.449 32.3045H8.53061V32.6045H11.449V32.3045ZM11.299 26.4545V32.4545H11.599V26.4545H11.299ZM8.53061 26.6045H11.449V26.3045H8.53061V26.6045ZM33.7347 13.2409C33.9679 13.2409 34.15 13.0477 34.15 12.8182H33.85C33.85 12.8899 33.7945 12.9409 33.7347 12.9409V13.2409ZM30.2857 13.2409L33.7347 13.2409V12.9409L30.2857 12.9409V13.2409ZM29.8704 12.8182C29.8704 13.0477 30.0525 13.2409 30.2857 13.2409V12.9409C30.2259 12.9409 30.1704 12.8899 30.1704 12.8182H29.8704ZM29.8704 6.27273V12.8182H30.1704V6.27273H29.8704ZM30.2857 5.85C30.0525 5.85 29.8704 6.04319 29.8704 6.27273L30.1704 6.27273C30.1704 6.20102 30.2259 6.15 30.2857 6.15V5.85ZM33.7347 5.85L30.2857 5.85V6.15L33.7347 6.15V5.85ZM34.15 6.27273C34.15 6.04319 33.9679 5.85 33.7347 5.85V6.15C33.7945 6.15 33.85 6.20102 33.85 6.27273L34.15 6.27273ZM34.15 12.8182V6.27273H33.85V12.8182H34.15ZM33.3194 6.54545V12.5455H33.6194V6.54545H33.3194ZM30.551 6.69546L33.4694 6.69545V6.39545L30.551 6.39546V6.69546ZM30.701 12.5455V6.54546H30.401V12.5455H30.701ZM33.4694 12.3955L30.551 12.3955V12.6955L33.4694 12.6955V12.3955ZM10.9184 8.85C10.6851 8.85 10.5031 9.04319 10.5031 9.27273H10.8031C10.8031 9.20102 10.8586 9.15 10.9184 9.15V8.85ZM25.1122 8.85H10.9184V9.15H25.1122V8.85ZM25.2622 9.54546V9H24.9622V9.54546H25.2622ZM11.1837 9.69546H25.1122V9.39546H11.1837V9.69546ZM11.3337 17.1818V9.54546H11.0337V17.1818H11.3337ZM26.3061 17.0318H11.1837V17.3318H26.3061V17.0318ZM26.1561 13.0909V17.1818H26.4561V13.0909H26.1561ZM26.8367 12.9409H26.3061V13.2409H26.8367V12.9409ZM26.9867 17.4545V13.0909H26.6867V17.4545H26.9867ZM26.5714 17.8773C26.8047 17.8773 26.9867 17.6841 26.9867 17.4545H26.6867C26.6867 17.5263 26.6312 17.5773 26.5714 17.5773V17.8773ZM10.9184 17.8773H26.5714V17.5773H10.9184V17.8773ZM10.5031 17.4545C10.5031 17.6841 10.6851 17.8773 10.9184 17.8773V17.5773C10.8586 17.5773 10.8031 17.5263 10.8031 17.4545H10.5031ZM10.5031 9.27273V17.4545H10.8031V9.27273H10.5031ZM17.4357 13.5C17.4357 12.7505 18.0257 12.15 18.7449 12.15V11.85C17.8523 11.85 17.1357 12.5927 17.1357 13.5H17.4357ZM18.7449 14.85C18.0257 14.85 17.4357 14.2495 17.4357 13.5H17.1357C17.1357 14.4073 17.8523 15.15 18.7449 15.15V14.85ZM19.9296 14.0755C19.7188 14.5357 19.2659 14.85 18.7449 14.85V15.15C19.3909 15.15 19.946 14.7602 20.2023 14.2005L19.9296 14.0755ZM20.6114 14.2353L20.1313 14.003L20.0006 14.273L20.4807 14.5054L20.6114 14.2353ZM18.7449 15.6955C19.6041 15.6955 20.3419 15.1764 20.6824 14.4328L20.4097 14.3079C20.1146 14.9521 19.4789 15.3955 18.7449 15.3955V15.6955ZM16.6051 13.5C16.6051 14.7086 17.5592 15.6955 18.7449 15.6955V15.3955C17.7327 15.3955 16.9051 14.5508 16.9051 13.5H16.6051ZM18.7449 11.3045C17.5592 11.3045 16.6051 12.2914 16.6051 13.5H16.9051C16.9051 12.4492 17.7327 11.6045 18.7449 11.6045V11.3045ZM20.7515 12.736C20.4501 11.9029 19.6676 11.3045 18.7449 11.3045V11.6045C19.533 11.6045 20.208 12.1158 20.4694 12.8381L20.7515 12.736ZM20.1666 13.1173L20.664 12.9272L20.5569 12.647L20.0595 12.8371L20.1666 13.1173ZM18.7449 12.15C19.3043 12.15 19.7855 12.5127 19.972 13.0282L20.2541 12.9262C20.0275 12.2996 19.4387 11.85 18.7449 11.85V12.15ZM24.0684 17.5909C24.0684 16.2389 25.1335 15.15 26.4388 15.15V14.85C24.9601 14.85 23.7684 16.0811 23.7684 17.5909H24.0684ZM23.3878 17.7409H23.9184V17.4409H23.3878V17.7409ZM26.4388 14.3045C24.667 14.3045 23.2378 15.7798 23.2378 17.5909H23.5378C23.5378 15.9377 24.8405 14.6045 26.4388 14.6045V14.3045ZM26.5888 15V14.4545H26.2888V15H26.5888ZM10.9184 15.15C12.2236 15.15 13.2888 16.2389 13.2888 17.5909H13.5888C13.5888 16.0811 12.3971 14.85 10.9184 14.85L10.9184 15.15ZM10.7684 14.4545V15H11.0684V14.4545H10.7684ZM14.1194 17.5909C14.1194 15.7798 12.6901 14.3045 10.9184 14.3045L10.9184 14.6045C12.5167 14.6045 13.8194 15.9377 13.8194 17.5909H14.1194ZM13.4388 17.7409H13.9694V17.4409H13.4388V17.7409ZM13.2888 9.27273C13.2888 10.6247 12.2236 11.7136 10.9184 11.7136L10.9184 12.0136C12.3971 12.0136 13.5888 10.7826 13.5888 9.27273H13.2888ZM13.9694 9.12273L13.4388 9.12273V9.42273L13.9694 9.42273V9.12273ZM10.9184 12.5591C12.6901 12.5591 14.1194 11.0838 14.1194 9.27273H13.8194C13.8194 10.926 12.5167 12.2591 10.9184 12.2591L10.9184 12.5591ZM10.7684 11.8636V12.4091H11.0684V11.8636H10.7684ZM26.5714 19.5136C26.6312 19.5136 26.6867 19.5647 26.6867 19.6364H26.9867C26.9867 19.4068 26.8047 19.2136 26.5714 19.2136V19.5136ZM13.8367 19.5136H26.5714V19.2136H13.8367V19.5136ZM13.7214 19.6364C13.7214 19.5647 13.7769 19.5136 13.8367 19.5136V19.2136C13.6035 19.2136 13.4214 19.4068 13.4214 19.6364H13.7214ZM13.7214 26.4545V19.6364H13.4214V26.4545H13.7214ZM14.102 26.3045H13.5714V26.6045H14.102V26.3045ZM13.952 19.9091V26.4545H14.252V19.9091H13.952ZM26.3061 19.7591H14.102V20.0591H26.3061V19.7591ZM26.4561 24.5455V19.9091H26.1561V24.5455H26.4561ZM26.8367 24.3955H26.3061V24.6955H26.8367V24.3955ZM26.6867 19.6364V24.5455H26.9867V19.6364H26.6867ZM22.0612 19.5136C22.121 19.5136 22.1765 19.5647 22.1765 19.6364H22.4765C22.4765 19.4068 22.2945 19.2136 22.0612 19.2136V19.5136ZM18.3469 19.5136H22.0612V19.2136H18.3469V19.5136ZM18.2316 19.6364C18.2316 19.5647 18.2871 19.5136 18.3469 19.5136V19.2136C18.1137 19.2136 17.9316 19.4068 17.9316 19.6364H18.2316ZM18.2316 22.9091V19.6364H17.9316V22.9091H18.2316ZM18.2906 23.0162C18.2553 22.9951 18.2316 22.9548 18.2316 22.9091H17.9316C17.9316 23.0578 18.0086 23.1973 18.1369 23.2738L18.2906 23.0162ZM18.4026 23.0165C18.3677 23.037 18.3254 23.0369 18.2906 23.0162L18.1369 23.2738C18.2657 23.3506 18.4252 23.3512 18.5545 23.2752L18.4026 23.0165ZM20.1281 22.003L18.4026 23.0165L18.5545 23.2752L20.2801 22.2616L20.1281 22.003ZM22.0056 23.0165L20.2801 22.003L20.1281 22.2616L21.8536 23.2752L22.0056 23.0165ZM22.1175 23.0162C22.0828 23.0369 22.0405 23.037 22.0056 23.0165L21.8536 23.2752C21.983 23.3512 22.1424 23.3506 22.2712 23.2738L22.1175 23.0162ZM22.1765 22.9091C22.1765 22.9548 22.1528 22.9951 22.1175 23.0162L22.2712 23.2738C22.3995 23.1973 22.4765 23.0578 22.4765 22.9091H22.1765ZM22.1765 19.6364V22.9091H22.4765V19.6364H22.1765ZM21.9459 22.4391V19.9091H21.6459V22.4391H21.9459ZM20.2597 21.7107L21.7199 22.5685L21.8719 22.3098L20.4117 21.4521L20.2597 21.7107ZM20.1484 21.7107C20.1831 21.6904 20.2251 21.6904 20.2597 21.7107L20.4117 21.4521C20.2832 21.3766 20.1249 21.3766 19.9965 21.4521L20.1484 21.7107ZM18.6882 22.5685L20.1484 21.7107L19.9965 21.4521L18.5363 22.3098L18.6882 22.5685ZM18.4622 19.9091V22.4391H18.7622V19.9091H18.4622ZM21.7959 19.7591H18.6122V20.0591H21.7959V19.7591ZM27.6415 26.0447C27.9655 25.6842 27.9098 25.1138 27.5196 24.8267L27.3418 25.0684C27.5878 25.2493 27.6251 25.6141 27.4183 25.8442L27.6415 26.0447ZM24.3925 29.6603L27.6415 26.0447L27.4183 25.8442L24.1693 29.4597L24.3925 29.6603ZM19.5462 32.5831L24.3582 29.6885L24.2036 29.4315L19.3916 32.326L19.5462 32.5831ZM11.7143 32.6045L19.4689 32.6045V32.3045L11.7143 32.3045V32.6045ZM11.599 32.7273C11.599 32.6556 11.6545 32.6045 11.7143 32.6045V32.3045C11.481 32.3045 11.299 32.4977 11.299 32.7273H11.599ZM11.7143 32.85C11.6545 32.85 11.599 32.799 11.599 32.7273H11.299C11.299 32.9568 11.481 33.15 11.7143 33.15V32.85ZM19.5408 32.85H11.7143V33.15H19.5408V32.85ZM19.5975 32.8341C19.58 32.8446 19.5605 32.85 19.5408 32.85V33.15C19.6154 33.15 19.6883 33.1296 19.7521 33.0912L19.5975 32.8341ZM24.5057 29.8817L19.5975 32.8341L19.7521 33.0912L24.6603 30.1388L24.5057 29.8817ZM24.5323 29.8597C24.5244 29.8685 24.5154 29.8759 24.5057 29.8817L24.6603 30.1388C24.6958 30.1175 24.7278 30.091 24.7554 30.0602L24.5323 29.8597ZM27.8081 26.2143L24.5323 29.8597L24.7554 30.0602L28.0312 26.4148L27.8081 26.2143ZM27.6507 24.6248C28.1561 24.9967 28.2314 25.7432 27.8081 26.2143L28.0312 26.4148C28.5718 25.8132 28.4782 24.8612 27.8285 24.3832L27.6507 24.6248ZM26.343 24.7193C26.7012 24.3686 27.2494 24.3296 27.6507 24.6248L27.8285 24.3832C27.308 24.0003 26.5958 24.052 26.1331 24.5049L26.343 24.7193ZM22.8477 28.1412L26.343 24.7193L26.1331 24.5049L22.6379 27.9268L22.8477 28.1412ZM18.4713 28.514L22.7543 28.1836L22.7313 27.8845L18.4482 28.2148L18.4713 28.514ZM18.3646 28.6459C18.3594 28.5742 18.4113 28.5186 18.4713 28.514L18.4482 28.2148C18.2159 28.2328 18.0487 28.439 18.0654 28.6677L18.3646 28.6459ZM18.4879 28.7588C18.4285 28.7634 18.3698 28.7171 18.3646 28.6459L18.0654 28.6677C18.0822 28.8969 18.2782 29.0758 18.511 29.0579L18.4879 28.7588ZM22.8655 28.4211L18.4879 28.7588L18.511 29.0579L22.8885 28.7202L22.8655 28.4211ZM22.9352 28.389C22.9156 28.4082 22.8909 28.4191 22.8655 28.4211L22.8885 28.7202C22.9853 28.7128 23.0759 28.6711 23.1451 28.6034L22.9352 28.389ZM26.4991 24.8999L22.9352 28.389L23.1451 28.6034L26.709 25.1142L26.4991 24.8999ZM27.5196 24.8267C27.2063 24.5962 26.7773 24.6275 26.4991 24.8999L26.709 25.1142C26.8827 24.9442 27.1477 24.9255 27.3418 25.0684L27.5196 24.8267ZM17.6077 9.33196C17.5551 9.36358 17.4857 9.34715 17.4524 9.28864L17.1917 9.43705C17.3064 9.63855 17.562 9.70955 17.7623 9.58904L17.6077 9.33196ZM22.4538 6.41692L17.6077 9.33196L17.7623 9.58904L22.6084 6.67399L22.4538 6.41692ZM30.2857 6.39545L22.5311 6.39545V6.69545L30.2857 6.69545V6.39545ZM30.401 6.27273C30.401 6.34444 30.3455 6.39545 30.2857 6.39545V6.69545C30.519 6.69545 30.701 6.50227 30.701 6.27273H30.401ZM30.2857 6.15C30.3455 6.15 30.401 6.20102 30.401 6.27273H30.701C30.701 6.04319 30.519 5.85 30.2857 5.85V6.15ZM22.4592 6.15L30.2857 6.15V5.85L22.4592 5.85V6.15ZM22.4025 6.16588C22.42 6.15536 22.4395 6.15 22.4592 6.15V5.85C22.3846 5.85 22.3117 5.87041 22.2479 5.9088L22.4025 6.16588ZM17.4943 9.11826L22.4025 6.16588L22.2479 5.9088L17.3397 8.86118L17.4943 9.11826ZM17.4524 9.28864C17.4178 9.22781 17.4392 9.1514 17.4943 9.11826L17.3397 8.86118C17.1419 8.98018 17.0783 9.23788 17.1917 9.43705L17.4524 9.28864ZM21.4602 26.0485C21.7326 25.8245 21.8388 25.583 21.8414 25.3667L21.5414 25.3632C21.5401 25.4749 21.4872 25.6379 21.2696 25.8168L21.4602 26.0485ZM18.6451 28.2273C19.6403 27.4771 20.7991 26.5921 21.4602 26.0485L21.2696 25.8168C20.6142 26.3558 19.4605 27.237 18.4646 27.9877L18.6451 28.2273ZM17.3606 29.19C17.6921 28.9429 18.1479 28.6021 18.6451 28.2273L18.4646 27.9877C17.9679 28.3621 17.5125 28.7026 17.1813 28.9494L17.3606 29.19ZM16.9669 29.4828C17.0602 29.4136 17.1948 29.3135 17.3606 29.19L17.1813 28.9494C17.0157 29.0728 16.8812 29.1728 16.7881 29.2419L16.9669 29.4828ZM17.0106 29.605C16.9331 29.4943 16.8944 29.4391 16.8752 29.4114C16.8655 29.3976 16.8608 29.3908 16.8585 29.3876C16.8573 29.3858 16.857 29.3854 16.8571 29.3856C16.8572 29.3857 16.8574 29.3859 16.8576 29.3863C16.8578 29.3865 16.8584 29.3874 16.8591 29.3886C16.8595 29.3892 16.8603 29.3904 16.8612 29.3919C16.8618 29.3929 16.8638 29.3963 16.8662 29.4008C16.8673 29.403 16.8695 29.4073 16.8718 29.4129C16.8736 29.4175 16.8783 29.4293 16.8809 29.4452C16.8835 29.4612 16.8865 29.4953 16.8687 29.5332C16.851 29.5712 16.8212 29.5909 16.8228 29.5897L16.643 29.3496C16.6446 29.3483 16.6148 29.3681 16.597 29.406C16.5793 29.4439 16.5823 29.478 16.5849 29.494C16.5875 29.51 16.5922 29.5218 16.594 29.5263C16.5963 29.5319 16.5985 29.5362 16.5996 29.5385C16.602 29.543 16.604 29.5464 16.6047 29.5474C16.6056 29.5489 16.6063 29.5501 16.6067 29.5507C16.608 29.5527 16.6091 29.5544 16.6092 29.5545C16.6099 29.5556 16.6109 29.5569 16.6121 29.5586C16.6146 29.5623 16.6195 29.5694 16.6292 29.5832C16.6486 29.611 16.6874 29.6664 16.7649 29.7771L17.0106 29.605ZM16.9543 29.7912C16.951 29.7937 16.9773 29.7717 17.0162 29.7647C17.0597 29.7569 17.0941 29.7699 17.1121 29.7793C17.1286 29.7879 17.1395 29.7975 17.1435 29.8011C17.1484 29.8056 17.1521 29.8095 17.1538 29.8115C17.1574 29.8154 17.16 29.8187 17.1607 29.8196C17.1618 29.8209 17.1626 29.822 17.1629 29.8225C17.1637 29.8235 17.1643 29.8243 17.1644 29.8245C17.1646 29.8248 17.1647 29.825 17.1648 29.825C17.1648 29.825 17.1647 29.8249 17.1644 29.8245C17.1641 29.8241 17.1637 29.8235 17.1631 29.8227C17.1608 29.8193 17.156 29.8125 17.1463 29.7986C17.1269 29.771 17.0881 29.7157 17.0106 29.605L16.7649 29.7771C16.8424 29.8878 16.8812 29.9431 16.9006 29.9708C16.9103 29.9846 16.9152 29.9916 16.9177 29.9951C16.9188 29.9968 16.9197 29.998 16.9203 29.9989C16.9203 29.9989 16.9214 30.0004 16.9226 30.0021C16.923 30.0026 16.9239 30.0037 16.9249 30.0051C16.9256 30.006 16.9282 30.0093 16.9318 30.0132C16.9336 30.0152 16.9372 30.0191 16.9422 30.0236C16.9462 30.0272 16.9571 30.0368 16.9736 30.0454C16.9916 30.0548 17.026 30.0678 17.0694 30.06C17.1083 30.053 17.1347 30.031 17.1313 30.0335L16.9543 29.7912ZM17.4928 29.391C17.3269 29.5146 17.1921 29.6148 17.0988 29.6841L17.2776 29.925C17.3711 29.8556 17.506 29.7553 17.672 29.6316L17.4928 29.391ZM18.7783 28.4276C18.2807 28.8027 17.8245 29.1438 17.4928 29.391L17.672 29.6316C18.0041 29.3841 18.4607 29.0427 18.9589 28.6671L18.7783 28.4276ZM21.6011 26.2427C20.9356 26.79 19.773 27.6778 18.7783 28.4276L18.9589 28.6671C19.9528 27.9179 21.1205 27.0264 21.7917 26.4744L21.6011 26.2427ZM22.072 25.3698C22.0683 25.6782 21.9151 25.9845 21.6011 26.2427L21.7917 26.4744C22.1598 26.1717 22.367 25.787 22.3719 25.3734L22.072 25.3698ZM21.6969 24.566C21.9311 24.7797 22.0756 25.0634 22.072 25.3698L22.3719 25.3734C22.3768 24.9661 22.1843 24.6046 21.8991 24.3444L21.6969 24.566ZM19.494 24.3971C20.39 23.972 21.2293 24.1393 21.6969 24.566L21.8991 24.3444C21.3282 23.8234 20.3541 23.657 19.3654 24.1261L19.494 24.3971ZM18.1405 25.1131C18.4284 24.9446 18.8055 24.7238 19.494 24.3971L19.3654 24.1261C18.6659 24.4579 18.2806 24.6835 17.9889 24.8542L18.1405 25.1131ZM17.9281 25.2361C17.9959 25.1978 18.0657 25.1569 18.1405 25.1131L17.9889 24.8542C17.9137 24.8982 17.8459 24.9379 17.7805 24.9749L17.9281 25.2361ZM16.5932 25.7542C17.3162 25.5515 17.606 25.4182 17.9281 25.2361L17.7805 24.9749C17.4836 25.1428 17.2171 25.2677 16.5122 25.4653L16.5932 25.7542ZM15.5112 25.9167C15.8844 25.8868 16.2397 25.8533 16.5932 25.7542L16.5122 25.4653C16.1899 25.5557 15.8611 25.5877 15.4873 25.6176L15.5112 25.9167ZM15.422 25.9237C15.4519 25.9214 15.4816 25.919 15.5112 25.9167L15.4872 25.6176C15.4579 25.62 15.4283 25.6223 15.3984 25.6247L15.422 25.9237ZM14.3447 26.0594C14.7181 25.9794 15.078 25.9508 15.422 25.9237L15.3984 25.6247C15.0565 25.6516 14.6775 25.6813 14.2818 25.766L14.3447 26.0594ZM11.6292 27.8356C12.6399 26.658 13.5237 26.2352 14.3447 26.0594L14.2818 25.766C13.3918 25.9566 12.4516 26.4168 11.4015 27.6402L11.6292 27.8356ZM11.6395 28.0117C11.5902 27.967 11.5848 27.8872 11.6292 27.8356L11.4015 27.6402C11.252 27.8144 11.2676 28.0794 11.438 28.2339L11.6395 28.0117ZM11.7994 28.0011C11.7571 28.0503 11.6865 28.0543 11.6395 28.0117L11.438 28.2339C11.6108 28.3907 11.8754 28.3731 12.027 28.1965L11.7994 28.0011ZM14.39 26.3C13.6191 26.4651 12.7785 26.8604 11.7994 28.0011L12.027 28.1965C12.9668 27.1016 13.7511 26.7437 14.4529 26.5934L14.39 26.3ZM15.4437 26.1682C15.097 26.1956 14.7508 26.2228 14.39 26.3L14.4529 26.5934C14.7912 26.5209 15.118 26.4949 15.4674 26.4672L15.4437 26.1682ZM15.5284 26.1614C15.5001 26.1637 15.4719 26.1659 15.4437 26.1682L15.4674 26.4672C15.4956 26.465 15.5239 26.4628 15.5523 26.4605L15.5284 26.1614ZM16.6518 25.9916C16.2756 26.097 15.9012 26.1316 15.5284 26.1614L15.5523 26.4605C15.9247 26.4307 16.3255 26.3946 16.7328 26.2804L16.6518 25.9916ZM18.0362 25.4529C17.6951 25.6457 17.3879 25.7852 16.6518 25.9916L16.7328 26.2804C17.487 26.069 17.8175 25.9211 18.1839 25.714L18.0362 25.4529ZM18.2551 25.3262C18.1777 25.3714 18.1066 25.413 18.0362 25.4529L18.1839 25.714C18.2565 25.6729 18.3296 25.6301 18.4066 25.5851L18.2551 25.3262ZM19.5877 24.6213C18.9106 24.9426 18.546 25.156 18.2551 25.3262L18.4066 25.5851C18.6937 25.4171 19.0501 25.2085 19.7163 24.8924L19.5877 24.6213ZM21.5469 24.7524C21.158 24.3975 20.4166 24.2281 19.5877 24.6213L19.7163 24.8924C20.4517 24.5435 21.0586 24.7129 21.3447 24.974L21.5469 24.7524ZM21.8414 25.3667C21.844 25.1485 21.7414 24.9298 21.5469 24.7524L21.3447 24.974C21.4877 25.1044 21.5428 25.2451 21.5414 25.3632L21.8414 25.3667ZM16.9536 29.7918C16.9035 29.8288 16.8333 29.8185 16.7953 29.7644L16.5496 29.9365C16.6829 30.1268 16.9443 30.1719 17.1321 30.0329L16.9536 29.7918ZM16.7649 29.7771L16.92 29.9984L17.1657 29.8263L17.0106 29.605L16.7649 29.7771ZM16.61 29.5556L16.7649 29.777L17.0107 29.6051L16.8558 29.3836L16.61 29.5556ZM16.7953 29.7644C16.7557 29.7078 16.7694 29.6292 16.8221 29.5902L16.6437 29.3491C16.4585 29.4861 16.418 29.7485 16.5496 29.9365L16.7953 29.7644ZM16.8222 29.5901L16.9669 29.4828L16.7882 29.2419L16.6435 29.3491L16.8222 29.5901ZM17.0988 29.6841L16.9535 29.7919L17.1322 30.0328L17.2775 29.925L17.0988 29.6841ZM20.5398 12.9515C20.2674 13.1755 20.1612 13.417 20.1586 13.6333L20.4586 13.6368C20.4599 13.5251 20.5128 13.3621 20.7304 13.1832L20.5398 12.9515ZM23.3548 10.7727C22.3597 11.5229 21.2009 12.4079 20.5398 12.9515L20.7304 13.1832C21.3858 12.6442 22.5395 11.763 23.5354 11.0123L23.3548 10.7727ZM24.6394 9.81005C24.3079 10.0571 23.8521 10.3979 23.3548 10.7727L23.5354 11.0123C24.0321 10.6379 24.4875 10.2974 24.8187 10.0506L24.6394 9.81005ZM25.0331 9.51721C24.9398 9.58642 24.8052 9.68652 24.6394 9.81005L24.8187 10.0506C24.9843 9.92718 25.1188 9.82719 25.2119 9.75808L25.0331 9.51721ZM24.9894 9.395C25.0669 9.50566 25.1056 9.56095 25.1248 9.58856C25.1345 9.6024 25.1392 9.60916 25.1415 9.61243C25.1427 9.61417 25.143 9.61456 25.1429 9.6144C25.1428 9.61432 25.1426 9.61407 25.1424 9.6137C25.1422 9.61345 25.1416 9.61255 25.1408 9.61136C25.1405 9.61077 25.1397 9.60961 25.1388 9.60813C25.1382 9.60708 25.1362 9.6037 25.1338 9.59921C25.1327 9.59695 25.1305 9.59264 25.1282 9.58703C25.1264 9.5825 25.1217 9.57066 25.1191 9.55471C25.1165 9.53869 25.1135 9.50459 25.1313 9.46673C25.1491 9.4288 25.1788 9.40908 25.1772 9.41032L25.357 9.65045C25.3554 9.65168 25.3852 9.63196 25.4029 9.59403C25.4207 9.55617 25.4178 9.52207 25.4151 9.50605C25.4125 9.49009 25.4078 9.47825 25.406 9.47372C25.4037 9.46811 25.4015 9.4638 25.4004 9.46154C25.3981 9.45704 25.396 9.45365 25.3954 9.45258C25.3944 9.45108 25.3937 9.44991 25.3933 9.44929C25.392 9.44729 25.3909 9.44561 25.3908 9.44548C25.3901 9.44445 25.3891 9.4431 25.3879 9.44137C25.3854 9.4377 25.3805 9.4306 25.3708 9.41675C25.3514 9.38898 25.3126 9.33356 25.2351 9.2229L24.9894 9.395ZM25.0457 9.20877C25.0457 9.20877 25.0438 9.21008 25.042 9.21137C25.0401 9.21262 25.0344 9.21622 25.0306 9.21847C25.0199 9.22446 25.0041 9.23162 24.9837 9.23528C24.9403 9.24311 24.9059 9.23006 24.8879 9.22069C24.8714 9.21212 24.8605 9.20245 24.8565 9.19888C24.8516 9.19438 24.8479 9.19049 24.8461 9.18852C24.8426 9.18458 24.84 9.1813 24.8393 9.18041C24.8382 9.17908 24.8374 9.178 24.8371 9.1775C24.8363 9.17646 24.8357 9.17567 24.8356 9.1755C24.8354 9.17522 24.8353 9.17504 24.8352 9.17502C24.8352 9.17497 24.8353 9.17509 24.8356 9.17552C24.8359 9.17593 24.8363 9.17651 24.8369 9.17734C24.8392 9.1807 24.844 9.18754 24.8537 9.20138C24.8731 9.22902 24.9119 9.28433 24.9894 9.395L25.2351 9.2229C25.1576 9.11224 25.1188 9.05689 25.0994 9.02921C25.0897 9.01539 25.0848 9.0084 25.0823 9.00485C25.0812 9.00318 25.0803 9.00197 25.0797 9.00114C25.0797 9.00113 25.0786 8.9996 25.0774 8.99791C25.077 8.99738 25.0761 8.99629 25.0751 8.99493C25.0744 8.99403 25.0718 8.99075 25.0682 8.98679C25.0664 8.98482 25.0628 8.98093 25.0578 8.97642C25.0539 8.97286 25.0429 8.96318 25.0265 8.95461C25.0085 8.94525 24.9741 8.9322 24.9306 8.94003C24.9103 8.94368 24.8945 8.95084 24.8838 8.95683C24.8799 8.95908 24.8742 8.96268 24.8723 8.96394C24.8705 8.96523 24.8687 8.96654 24.8687 8.96654L25.0457 9.20877ZM24.5072 9.60899C24.6731 9.48536 24.8079 9.38517 24.9012 9.31589L24.7224 9.07502C24.6289 9.1444 24.494 9.24469 24.328 9.36844L24.5072 9.60899ZM23.2217 10.5724C23.7193 10.1973 24.1755 9.85623 24.5072 9.60899L24.328 9.36844C23.9959 9.61592 23.5393 9.9573 23.0411 10.3329L23.2217 10.5724ZM20.3989 12.7573C21.0644 12.21 22.227 11.3222 23.2217 10.5724L23.0411 10.3329C22.0472 11.0821 20.8795 11.9737 20.2083 12.5256L20.3989 12.7573ZM19.928 13.6302C19.9317 13.3218 20.0849 13.0155 20.3989 12.7573L20.2083 12.5256C19.8402 12.8283 19.633 13.213 19.6281 13.6266L19.928 13.6302ZM20.3031 14.434C20.0689 14.2203 19.9244 13.9366 19.928 13.6302L19.6281 13.6266C19.6232 14.0339 19.8157 14.3954 20.1009 14.6556L20.3031 14.434ZM22.506 14.6029C21.61 15.028 20.7707 14.8607 20.3031 14.434L20.1009 14.6556C20.6718 15.1766 21.6459 15.343 22.6346 14.8739L22.506 14.6029ZM23.8595 13.8869C23.5716 14.0554 23.1945 14.2762 22.506 14.6029L22.6346 14.8739C23.3341 14.5421 23.7194 14.3165 24.0111 14.1458L23.8595 13.8869ZM24.0719 13.7639C24.0041 13.8022 23.9343 13.8431 23.8595 13.8869L24.0111 14.1458C24.0863 14.1018 24.1541 14.0621 24.2195 14.0251L24.0719 13.7639ZM25.4069 13.2458C24.6838 13.4485 24.394 13.5818 24.0719 13.7639L24.2195 14.0251C24.5164 13.8572 24.7829 13.7323 25.4878 13.5347L25.4069 13.2458ZM26.4888 13.0833C26.1156 13.1132 25.7603 13.1467 25.4069 13.2458L25.4878 13.5347C25.8101 13.4443 26.1389 13.4123 26.5127 13.3824L26.4888 13.0833ZM26.578 13.0763C26.5481 13.0786 26.5184 13.081 26.4888 13.0833L26.5127 13.3824C26.5421 13.38 26.5717 13.3777 26.6016 13.3753L26.578 13.0763ZM27.6553 12.9406C27.2819 13.0206 26.922 13.0492 26.578 13.0763L26.6016 13.3753C26.9435 13.3484 27.3225 13.3187 27.7182 13.234L27.6553 12.9406ZM30.3708 11.1644C29.3601 12.342 28.4763 12.7648 27.6553 12.9406L27.7182 13.234C28.6082 13.0434 29.5484 12.5832 30.5985 11.3598L30.3708 11.1644ZM30.3605 10.9883C30.4098 11.033 30.4152 11.1128 30.3708 11.1644L30.5985 11.3598C30.748 11.1856 30.7324 10.9206 30.562 10.7661L30.3605 10.9883ZM30.2006 10.9989C30.2429 10.9497 30.3135 10.9457 30.3605 10.9883L30.562 10.7661C30.3892 10.6093 30.1246 10.6269 29.973 10.8035L30.2006 10.9989ZM27.6099 12.7C28.3809 12.5349 29.2215 12.1396 30.2006 10.9989L29.973 10.8035C29.0332 11.8984 28.2489 12.2563 27.5471 12.4066L27.6099 12.7ZM26.5563 12.8318C26.903 12.8044 27.2492 12.7772 27.6099 12.7L27.5471 12.4066C27.2088 12.4791 26.882 12.5051 26.5326 12.5328L26.5563 12.8318ZM26.4716 12.8386C26.4999 12.8363 26.5281 12.8341 26.5563 12.8318L26.5326 12.5328C26.5044 12.535 26.4761 12.5372 26.4477 12.5395L26.4716 12.8386ZM25.3482 13.0084C25.7244 12.903 26.0988 12.8684 26.4716 12.8386L26.4477 12.5395C26.0753 12.5693 25.6745 12.6054 25.2672 12.7196L25.3482 13.0084ZM23.9638 13.5471C24.3049 13.3543 24.6121 13.2148 25.3482 13.0084L25.2672 12.7196C24.513 12.931 24.1825 13.0789 23.8161 13.286L23.9638 13.5471ZM23.7449 13.6738C23.8223 13.6286 23.8934 13.587 23.9638 13.5471L23.8161 13.286C23.7435 13.3271 23.6704 13.3699 23.5934 13.4149L23.7449 13.6738ZM22.4123 14.3787C23.0894 14.0574 23.4541 13.8441 23.7449 13.6738L23.5934 13.4149C23.3063 13.5829 22.9499 13.7915 22.2837 14.1076L22.4123 14.3787ZM20.4531 14.2476C20.842 14.6025 21.5834 14.7719 22.4123 14.3787L22.2837 14.1076C21.5483 14.4565 20.9414 14.2871 20.6553 14.026L20.4531 14.2476ZM20.1586 13.6333C20.156 13.8515 20.2586 14.0702 20.4531 14.2476L20.6553 14.026C20.5123 13.8956 20.4572 13.7549 20.4586 13.6368L20.1586 13.6333ZM25.0464 9.20822C25.0965 9.17115 25.1667 9.1815 25.2047 9.23565L25.4504 9.06354C25.3171 8.87321 25.0557 8.82814 24.8679 8.96709L25.0464 9.20822ZM25.2351 9.22287L25.08 9.00158L24.8343 9.17373L24.9894 9.39503L25.2351 9.22287ZM25.39 9.44441L25.2351 9.22298L24.9893 9.39492L25.1442 9.61635L25.39 9.44441ZM25.2047 9.23565C25.2443 9.29215 25.2306 9.37081 25.1779 9.40981L25.3563 9.65095C25.5415 9.51393 25.582 9.2515 25.4504 9.06354L25.2047 9.23565ZM25.1778 9.4099L25.0331 9.51716L25.2118 9.75813L25.3565 9.65086L25.1778 9.4099ZM24.9012 9.31594L25.0465 9.20814L24.8678 8.96717L24.7225 9.07497L24.9012 9.31594Z" fill="#116565"/>
</svg>
