<svg width="40" height="40" viewBox="0 0 40 40" fill="none" xmlns="http://www.w3.org/2000/svg">
<path fill-rule="evenodd" clip-rule="evenodd" d="M15.8956 12.8827C16.2053 12.8827 16.4563 13.1278 16.4563 13.4302C16.4563 13.7514 16.5706 14.0355 16.7477 14.2427C16.9454 14.474 17.2138 14.6034 17.4976 14.6034C18.0236 14.6034 18.5388 14.1284 18.5388 13.4302C18.5388 13.1278 18.7899 12.8827 19.0995 12.8827C19.4092 12.8827 19.6602 13.1278 19.6602 13.4302C19.6602 14.6326 18.741 15.6983 17.4976 15.6983C16.8471 15.6983 16.2746 15.3981 15.8867 14.9443C15.5402 14.5389 15.335 14.006 15.335 13.4302C15.335 13.1278 15.586 12.8827 15.8956 12.8827Z" fill="#262626"/>
<path fill-rule="evenodd" clip-rule="evenodd" d="M19.0995 12.8827C19.4092 12.8827 19.6602 13.1278 19.6602 13.4302C19.6602 13.7514 19.7745 14.0355 19.9515 14.2427C20.1493 14.474 20.4176 14.6034 20.7015 14.6034C21.2274 14.6034 21.7427 14.1284 21.7427 13.4302C21.7427 13.1278 21.9937 12.8827 22.3034 12.8827C22.6131 12.8827 22.8641 13.1278 22.8641 13.4302C22.8641 14.6326 21.9449 15.6983 20.7015 15.6983C20.051 15.6983 19.4785 15.3981 19.0906 14.9443C18.7441 14.5389 18.5388 14.006 18.5388 13.4302C18.5388 13.1278 18.7899 12.8827 19.0995 12.8827Z" fill="#262626"/>
<path fill-rule="evenodd" clip-rule="evenodd" d="M22.3034 12.8827C22.6131 12.8827 22.8641 13.1278 22.8641 13.4302C22.8641 13.7439 22.981 14.0246 23.1677 14.2326C23.3765 14.4653 23.6679 14.6034 23.9854 14.6034C24.5805 14.6034 25.1068 14.1024 25.1068 13.4302C25.1068 13.1278 25.3578 12.8827 25.6675 12.8827C25.9771 12.8827 26.2282 13.1278 26.2282 13.4302C26.2282 14.6586 25.2484 15.6983 23.9854 15.6983C23.322 15.6983 22.7305 15.4069 22.3244 14.9543C21.9613 14.5497 21.7427 14.0136 21.7427 13.4302C21.7427 13.1278 21.9937 12.8827 22.3034 12.8827Z" fill="#262626"/>
<path fill-rule="evenodd" clip-rule="evenodd" d="M25.6675 12.8827C25.9771 12.8827 26.2282 13.1278 26.2282 13.4302C26.2282 13.7514 26.3424 14.0355 26.5195 14.2427C26.7172 14.474 26.9856 14.6034 27.2694 14.6034C27.7954 14.6034 28.3107 14.1284 28.3107 13.4302C28.3107 13.1278 28.5617 12.8827 28.8714 12.8827C29.181 12.8827 29.432 13.1278 29.432 13.4302C29.432 14.6326 28.5129 15.6983 27.2694 15.6983C26.619 15.6983 26.0465 15.3981 25.6586 14.9443C25.3121 14.5389 25.1068 14.006 25.1068 13.4302C25.1068 13.1278 25.3578 12.8827 25.6675 12.8827Z" fill="#262626"/>
<path fill-rule="evenodd" clip-rule="evenodd" d="M28.8714 12.8827C29.181 12.8827 29.432 13.1278 29.432 13.4302C29.432 13.7514 29.5463 14.0355 29.7234 14.2427C29.9211 14.474 30.1895 14.6034 30.4733 14.6034C30.9993 14.6034 31.5146 14.1284 31.5146 13.4302C31.5146 13.1278 31.7656 12.8827 32.0752 12.8827C32.3849 12.8827 32.6359 13.1278 32.6359 13.4302C32.6359 14.6326 31.7168 15.6983 30.4733 15.6983C29.8229 15.6983 29.2504 15.3981 28.8625 14.9443C28.516 14.5389 28.3107 14.006 28.3107 13.4302C28.3107 13.1278 28.5617 12.8827 28.8714 12.8827Z" fill="#262626"/>
<path fill-rule="evenodd" clip-rule="evenodd" d="M13.733 8.89385C13.733 8.59149 13.984 8.34637 14.2937 8.34637H33.6772C33.9868 8.34637 34.2379 8.59149 34.2379 8.89385V25.0056H33.1165V9.44134H14.8544V19.4525H13.733V8.89385Z" fill="#262626"/>
<path fill-rule="evenodd" clip-rule="evenodd" d="M5.8835 28.2905C5.8835 28.5929 5.63247 28.838 5.32282 28.838H3.56068C3.25102 28.838 3 28.5929 3 28.2905V26.4134C3 26.111 3.25102 25.8659 3.56068 25.8659H5.32282C5.63247 25.8659 5.8835 26.111 5.8835 26.4134V28.2905ZM4.76214 27.743V26.9609H4.12136V27.743H4.76214Z" fill="#262626"/>
<path fill-rule="evenodd" clip-rule="evenodd" d="M36 28.2905C36 28.5929 35.749 28.838 35.4393 28.838H33.0364C32.7268 28.838 32.4757 28.5929 32.4757 28.2905V26.4134C32.4757 26.111 32.7268 25.8659 33.0364 25.8659H35.4393C35.749 25.8659 36 26.111 36 26.4134V28.2905ZM34.8786 27.743V26.9609H33.5971V27.743H34.8786Z" fill="#262626"/>
<path fill-rule="evenodd" clip-rule="evenodd" d="M26.6761 25.8153C26.5964 26.0333 26.385 26.1788 26.1481 26.1788H16.6966C16.3869 26.1788 16.1359 25.9337 16.1359 25.6313V21.4078C16.1359 21.1055 16.3869 20.8603 16.6966 20.8603H19.1461C20.385 20.8603 21.5856 21.2788 22.5444 22.0448L26.5031 25.2076C26.6865 25.3541 26.7558 25.5974 26.6761 25.8153ZM24.5774 25.0838L21.8343 22.8923C21.0759 22.2864 20.1261 21.9553 19.1461 21.9553H17.2573V25.0838H24.5774Z" fill="#262626"/>
<path fill-rule="evenodd" clip-rule="evenodd" d="M16.1359 27.6648C16.1359 27.3624 16.3869 27.1173 16.6966 27.1173H18.7791C19.0888 27.1173 19.3398 27.3624 19.3398 27.6648C19.3398 27.9672 19.0888 28.2123 18.7791 28.2123H16.6966C16.3869 28.2123 16.1359 27.9672 16.1359 27.6648Z" fill="#262626"/>
<path fill-rule="evenodd" clip-rule="evenodd" d="M8.02077 25.8673C8.11388 26.0576 8.31068 26.1788 8.5267 26.1788H14.7743C15.0839 26.1788 15.335 25.9337 15.335 25.6313V21.4078C15.335 21.1055 15.0839 20.8603 14.7743 20.8603H14.3167C12.6955 20.8603 11.1612 21.576 10.1423 22.8074L8.09057 25.2872C7.95482 25.4513 7.92767 25.6769 8.02077 25.8673ZM9.70048 25.0838L11.0146 23.4955C11.7989 22.5476 12.9694 21.986 14.2136 21.9565V25.0838H9.70048Z" fill="#262626"/>
<path fill-rule="evenodd" clip-rule="evenodd" d="M8.86194 20.9659C10.1518 19.7923 11.8494 19.1397 13.6125 19.1397H19.6894C21.0332 19.1397 22.3484 19.5191 23.4764 20.2322L28.5644 23.4486C28.6723 23.5169 28.7923 23.565 28.9181 23.5906L34.278 24.6797C35.281 24.8835 36 25.7467 36 26.7471V29.229C36 30.3953 35.0318 31.3408 33.8374 31.3408H32.3956V30.2458H33.8374C34.4125 30.2458 34.8786 29.7906 34.8786 29.229V26.7471C34.8786 26.2654 34.5325 25.8498 34.0495 25.7517L28.6897 24.6626C28.4283 24.6095 28.1792 24.5095 27.955 24.3678L22.867 21.1514C21.9205 20.553 20.817 20.2346 19.6894 20.2346H13.6125C12.1331 20.2346 10.7087 20.7822 9.6264 21.767L8.22135 23.0455C7.97839 23.2665 7.68655 23.43 7.36846 23.5232L4.86342 24.257C4.42298 24.386 4.12136 24.7819 4.12136 25.2309V28.3086C4.12136 28.6779 4.32638 29.0181 4.65694 29.1975L6.71646 30.3147L6.17188 31.2719L4.11236 30.1546C3.4258 29.7822 3 29.0756 3 28.3086V25.2309C3 24.2983 3.62644 23.4762 4.5412 23.2082L7.04624 22.4744C7.1994 22.4295 7.33991 22.3508 7.45689 22.2444L8.86194 20.9659ZM11.4102 30.2458H27.4296V31.3408H11.4102V30.2458Z" fill="#262626"/>
<path fill-rule="evenodd" clip-rule="evenodd" d="M17.8981 14.9944V19.6872H16.7767V14.9944H17.8981ZM30.0728 19.4525V14.9944H31.1942V20C31.1942 20.3024 30.9431 20.5475 30.6335 20.5475H21.6626V19.4525H30.0728Z" fill="#262626"/>
<path fill-rule="evenodd" clip-rule="evenodd" d="M12.4515 8.89385C12.4515 9.19622 12.7025 9.44134 13.0121 9.44134H34.9587C35.2684 9.44134 35.5194 9.19622 35.5194 8.89385V6.54749C35.5194 6.24512 35.2684 6 34.9587 6H13.0121C12.7025 6 12.4515 6.24512 12.4515 6.54749V8.89385ZM13.5728 8.34637V7.09497H34.3981V8.34637H13.5728Z" fill="#262626"/>
<path fill-rule="evenodd" clip-rule="evenodd" d="M15.4298 13.7348C15.5338 13.8866 15.7086 13.9777 15.8956 13.9777H32.0752C32.2623 13.9777 32.437 13.8866 32.5411 13.7348C32.6452 13.5831 32.6649 13.3906 32.5937 13.2217L31.4723 10.5625C31.3858 10.3574 31.1811 10.2235 30.9539 10.2235H17.017C16.7898 10.2235 16.585 10.3574 16.4985 10.5625L15.3772 13.2217C15.306 13.3906 15.3257 13.5831 15.4298 13.7348ZM16.7328 12.8827L17.3925 11.3184H30.5784L31.238 12.8827H16.7328Z" fill="#262626"/>
<path fill-rule="evenodd" clip-rule="evenodd" d="M8.92718 28.9944C7.86551 28.9944 7.00485 29.8348 7.00485 30.8715C7.00485 31.9082 7.86551 32.7486 8.92718 32.7486C9.98886 32.7486 10.8495 31.9082 10.8495 30.8715C10.8495 29.8348 9.98886 28.9944 8.92718 28.9944ZM5.8835 30.8715C5.8835 29.2301 7.2462 27.8994 8.92718 27.8994C10.6082 27.8994 11.9709 29.2301 11.9709 30.8715C11.9709 32.5129 10.6082 33.8436 8.92718 33.8436C7.2462 33.8436 5.8835 32.5129 5.8835 30.8715Z" fill="#262626"/>
<path fill-rule="evenodd" clip-rule="evenodd" d="M9.00728 28.9944C7.90137 28.9944 7.00485 29.8698 7.00485 30.9497C7.00485 32.0296 7.90137 32.905 9.00728 32.905C10.1132 32.905 11.0097 32.0296 11.0097 30.9497C11.0097 29.8698 10.1132 28.9944 9.00728 28.9944ZM5.8835 30.9497C5.8835 29.2651 7.28206 27.8994 9.00728 27.8994C10.7325 27.8994 12.1311 29.2651 12.1311 30.9497C12.1311 32.6343 10.7325 34 9.00728 34C7.28206 34 5.8835 32.6343 5.8835 30.9497Z" fill="#262626"/>
<path d="M9.96845 30.9497C9.96845 31.4681 9.53812 31.8883 9.00728 31.8883C8.47644 31.8883 8.04612 31.4681 8.04612 30.9497C8.04612 30.4314 8.47644 30.0112 9.00728 30.0112C9.53812 30.0112 9.96845 30.4314 9.96845 30.9497Z" fill="#262626"/>
<path d="M30.7937 30.9497C30.7937 31.4681 30.3634 31.8883 29.8325 31.8883C29.3017 31.8883 28.8714 31.4681 28.8714 30.9497C28.8714 30.4314 29.3017 30.0112 29.8325 30.0112C30.3634 30.0112 30.7937 30.4314 30.7937 30.9497Z" fill="#262626"/>
<path fill-rule="evenodd" clip-rule="evenodd" d="M29.8325 28.9944C28.7266 28.9944 27.8301 29.8698 27.8301 30.9497C27.8301 32.0296 28.7266 32.905 29.8325 32.905C30.9384 32.905 31.835 32.0296 31.835 30.9497C31.835 29.8698 30.9384 28.9944 29.8325 28.9944ZM26.7087 30.9497C26.7087 29.2651 28.1073 27.8994 29.8325 27.8994C31.5577 27.8994 32.9563 29.2651 32.9563 30.9497C32.9563 32.6343 31.5577 34 29.8325 34C28.1073 34 26.7087 32.6343 26.7087 30.9497Z" fill="#262626"/>
</svg>
