<svg width="40" height="40" viewBox="0 0 40 40" fill="none" xmlns="http://www.w3.org/2000/svg">
<path fill-rule="evenodd" clip-rule="evenodd" d="M25.8972 8.08368C26.8584 8.11815 27.8331 8.51547 28.3931 9.28999C28.584 9.554 28.5177 9.91783 28.245 10.1026C27.9723 10.2874 27.5965 10.2232 27.4056 9.95923C27.1132 9.55489 26.5354 9.27438 25.8526 9.2499C25.1799 9.22578 24.4941 9.45593 24.0225 9.95818C23.7985 10.1966 23.4173 10.2142 23.171 9.99743C22.9247 9.78065 22.9066 9.41162 23.1305 9.17316C23.8766 8.37866 24.926 8.04886 25.8972 8.08368ZM32.1751 13.6536C32.4994 13.7261 32.7017 14.0394 32.6269 14.3534C32.1839 16.2117 30.3286 17.2771 28.4336 16.8537C28.1092 16.7813 27.9069 16.468 27.9818 16.154C28.0566 15.84 28.3803 15.6441 28.7046 15.7166C29.9756 16.0005 31.1646 15.2977 31.4523 14.091C31.5271 13.7769 31.8507 13.5811 32.1751 13.6536ZM22.8761 14.6226C22.7822 14.9318 22.4472 15.1087 22.1278 15.0177C21.7173 14.9009 21.1639 14.8807 20.6539 15.0907C20.1662 15.2915 19.6546 15.7281 19.3383 16.6465C19.233 16.9523 18.8917 17.1175 18.5759 17.0156C18.2601 16.9137 18.0894 16.5832 18.1947 16.2775C18.6091 15.074 19.3456 14.3612 20.1821 14.0168C20.9964 13.6815 21.8434 13.7203 22.4679 13.8982C22.7873 13.9891 22.97 14.3134 22.8761 14.6226ZM24.7519 20.7276C25.0085 20.9328 25.0447 21.3006 24.8327 21.5491C24.1115 22.3942 23.1153 22.6873 22.19 22.6058C21.2833 22.5261 20.4102 22.0855 19.8738 21.4178C19.6694 21.1634 19.7167 20.7968 19.9795 20.599C20.2423 20.4011 20.6209 20.4469 20.8253 20.7013C21.1413 21.0946 21.6989 21.3908 22.2992 21.4436C22.8808 21.4948 23.4676 21.3164 23.9033 20.8058C24.1153 20.5574 24.4952 20.5223 24.7519 20.7276Z" fill="black"/>
<path fill-rule="evenodd" clip-rule="evenodd" d="M14.6367 23.0488C14.8721 23.2767 14.8721 23.6462 14.6367 23.874L9.67881 28.6739C9.55531 28.7934 9.38431 28.8552 9.2101 28.8433C9.03588 28.8314 8.87557 28.7469 8.77068 28.6117C8.40835 28.1447 7.83342 27.8445 7.18589 27.8445C6.09214 27.8445 5.20547 28.7028 5.20547 29.7617C5.20547 30.8206 6.09214 31.6789 7.18589 31.6789C7.49444 31.6789 7.78492 31.611 8.04375 31.4904C8.26651 31.3865 8.53219 31.4249 8.71393 31.5872C8.89566 31.7495 8.95659 32.0028 8.86761 32.2261C8.78265 32.4393 8.73578 32.6715 8.73578 32.9158C8.73578 33.9746 9.62245 34.833 10.7162 34.833C11.81 34.833 12.6966 33.9746 12.6966 32.9158C12.6966 32.3179 12.4147 31.7843 11.9702 31.4317C11.8384 31.3272 11.7584 31.1735 11.7502 31.0087C11.7419 30.8439 11.8061 30.6834 11.9268 30.567L16.7487 25.9171C16.9846 25.6897 17.3662 25.6904 17.6011 25.9187C17.836 26.147 17.8353 26.5165 17.5995 26.7439L13.201 30.9854C13.6392 31.5136 13.9021 32.1851 13.9021 32.9158C13.9021 34.6191 12.4757 36 10.7162 36C8.95668 36 7.53031 34.6191 7.53031 32.9158C7.53031 32.8864 7.53074 32.8571 7.53158 32.828C7.41796 32.8398 7.30261 32.8459 7.18589 32.8459C5.42637 32.8459 4 31.4651 4 29.7617C4 28.0583 5.42637 26.6775 7.18589 26.6775C7.98041 26.6775 8.70702 26.9594 9.2646 27.4244L13.7843 23.0488C14.0197 22.821 14.4014 22.821 14.6367 23.0488Z" fill="black"/>
<path fill-rule="evenodd" clip-rule="evenodd" d="M33.9217 7.11375C33.3077 6.56551 32.3726 6.37289 31.5176 6.78677C31.3726 6.85694 31.2045 6.86763 31.0513 6.81643C30.8981 6.76523 30.7727 6.65646 30.7033 6.51465C30.2316 5.55061 29.573 5.20322 28.9741 5.18287C28.3434 5.16145 27.6152 5.49635 27.0338 6.21277C26.9101 6.36517 26.7163 6.44817 26.5166 6.43427C26.3169 6.42037 26.1374 6.31138 26.0375 6.14341C25.5849 5.38237 24.849 5.10151 24.1475 5.17944C23.4317 5.25895 22.7435 5.71433 22.4324 6.47873C22.3667 6.64035 22.2299 6.76521 22.0594 6.81932C21.8889 6.87344 21.7023 6.85119 21.5505 6.75864C20.3363 6.01855 18.6295 6.91906 18.8176 8.55815C18.85 8.8411 18.6669 9.10543 18.3841 9.18364C17.0689 9.54741 16.3395 11.155 17.3086 12.4684C17.412 12.6085 17.4462 12.7856 17.402 12.9524C17.3579 13.1192 17.2399 13.2586 17.0796 13.3333C15.6977 13.9774 15.3036 15.3782 15.9263 16.3255C16.1014 16.5919 16.0259 16.9448 15.7559 17.1219C14.9547 17.6473 14.7231 18.2329 14.7488 18.724C14.7759 19.2436 15.0974 19.7856 15.6505 20.175C15.7931 20.2754 15.8831 20.4311 15.8969 20.6013C15.9107 20.7714 15.8469 20.9388 15.7222 21.0595L14.261 22.4741L18.1577 26.2465L19.6189 24.8319C19.7447 24.7101 19.9197 24.6483 20.0969 24.6631C20.2742 24.6779 20.4357 24.7678 20.538 24.9087C21.4185 26.1199 23.1012 25.7864 23.5807 24.8159C23.6551 24.6652 23.7926 24.5527 23.9584 24.5067C24.1243 24.4607 24.3025 24.4857 24.448 24.5753C25.0237 24.93 25.5748 25.0357 26.0425 24.9049C26.5025 24.7763 27.029 24.3773 27.4703 23.416C27.5543 23.2331 27.7293 23.1046 27.9339 23.0757C28.1385 23.0467 28.3441 23.1213 28.4787 23.2733C29.0029 23.8654 29.7785 23.9598 30.518 23.7011C31.2919 23.4304 31.8093 22.8509 31.8667 22.3508C31.8845 22.1956 31.9658 22.0538 32.0924 21.9571C32.2191 21.8604 32.3805 21.8169 32.5405 21.8362C33.2621 21.9236 33.9332 21.5761 34.3167 21.0221C34.6935 20.4777 34.766 19.7747 34.3361 19.1395C34.1613 18.8812 34.2246 18.5357 34.4806 18.3515C35.5609 17.5738 35.7711 16.9228 35.731 16.4183C35.6855 15.8456 35.3099 15.2605 34.798 14.6482C34.5958 14.4065 34.6251 14.0537 34.8646 13.8463C35.3606 13.4166 35.6919 12.8624 35.7144 12.2845C35.736 11.73 35.478 11.0219 34.5166 10.2508C34.3089 10.0842 34.2408 9.80439 34.3498 9.56561C34.8223 8.53054 34.5193 7.64737 33.9217 7.11375ZM35.6117 9.63162C36.0548 8.28548 35.6212 7.0436 34.739 6.25591C33.9129 5.51825 32.6996 5.18815 31.5209 5.53348C30.8936 4.56727 30.0002 4.04999 29.0164 4.01658C28.1483 3.98709 27.3027 4.33828 26.6125 4.94345C25.9037 4.21003 24.9385 3.9169 24.01 4.02004C23.0616 4.12539 22.1573 4.64279 21.603 5.49221C19.7611 4.85263 17.6522 6.12957 17.5984 8.22389C15.9819 8.93936 15.1429 10.8778 15.9937 12.6005C14.6571 13.5057 14.0693 15.0934 14.6525 16.4727C13.8628 17.1374 13.5015 17.9524 13.5448 18.7828C13.582 19.4963 13.9149 20.1544 14.4175 20.6722L12.9824 22.0615C12.747 22.2894 12.747 22.6589 12.9824 22.8867L17.7315 27.4843C17.9668 27.7122 18.3485 27.7122 18.5839 27.4843L20.0175 26.0964C21.3469 27.2813 23.3407 26.9927 24.3268 25.8362C24.9664 26.1156 25.6741 26.2227 26.377 26.0261C27.0924 25.826 27.7102 25.3377 28.2006 24.574C29.0556 25.1056 30.0803 25.095 30.9277 24.7986C31.7898 24.497 32.6083 23.849 32.9322 23.0124C33.9347 22.9579 34.803 22.4159 35.3182 21.6717C35.8423 20.9144 36.021 19.9173 35.6061 18.9722C36.6033 18.1319 37.0055 17.2416 36.9329 16.3288C36.8724 15.5669 36.4827 14.8871 36.0628 14.3262C36.5364 13.7913 36.8887 13.1079 36.919 12.3285C36.9544 11.4201 36.549 10.4929 35.6117 9.63162Z" fill="black"/>
</svg>
