<svg width="91" height="19" viewBox="0 0 91 19" fill="none" xmlns="http://www.w3.org/2000/svg">
<path fill-rule="evenodd" clip-rule="evenodd" d="M4.6145 0H7.95455L7.31838 2.61519H3.97777L4.6145 0ZM0 18.8471H3.34141L6.8421 4.38526H3.57927L0 18.8471ZM30.944 0H11.5348L10.8183 2.61519L18.8526 2.53805L14.8758 18.8471H18.2159L22.1941 2.53805H30.2276L30.944 0ZM71.6703 0L67.0572 18.8471H70.3975L75.0117 0H71.6703ZM84.5566 4.23137H80.7386L73.0224 11.923L78.9079 18.9213H82.7269L76.9202 11.923L84.5566 4.23137ZM91 4.23137H87.1018L79.4653 11.923L85.273 18.9213H89.1693L83.2838 11.923L91 4.23137ZM51.0679 7.69281C50.2731 11.3068 49.9541 12.1529 49.9541 12.1529L48.2851 18.8471H45.102L42.8754 18.769L38.1022 18.6914C38.1022 18.6914 35.796 18.0768 35.7153 15.5387C35.6367 13.0775 37.3072 10.5405 38.8185 9.92133C39.455 9.61506 41.1254 9.53831 42.8754 9.53831H43.1142C45.1831 9.53831 47.1696 9.61506 47.1696 9.61506C47.1696 9.61506 47.8864 7.92364 47.5675 7.23109C47.4088 6.99909 45.102 6.99909 42.8754 6.99909C40.7277 6.99909 38.6588 7.07662 38.5806 6.99909L39.2954 4.38526H48.9205C48.9205 4.38526 51.7843 4.15457 51.0679 7.69281ZM46.6134 12.1529H46.2954C46.2954 12.2303 44.4663 12.1529 42.8754 12.1529C42.0798 12.1529 41.4432 12.1529 40.8866 12.2303C39.2172 12.3857 38.341 16.0766 39.6931 16.2321C40.3298 16.3073 41.6821 16.3073 42.8754 16.3073H45.5803L46.6134 12.1529ZM55.8421 5.84618C53.8523 7.38464 53.5347 9.69371 52.8981 11.8463C52.2614 14.0767 51.9433 15.9237 52.6593 17.2307C53.5347 18.769 55.1261 19 56.3177 19L63.477 18.9213L64.1127 16.3073L58.5452 16.2321C57.6703 16.2321 56.2379 16.3073 55.8421 15.2304C55.8421 15.0001 55.9198 13.4618 56.3989 11.77C56.6368 10.9998 57.1932 9.30821 57.591 8.6928C58.1479 7.76956 59.0224 6.9237 60.8526 6.9237H66.2615L66.9779 4.38526L60.6935 4.30695C58.9436 4.30695 57.3527 4.61648 55.8421 5.84618ZM36.6706 4.38526L34.125 4.30695C33.2496 4.30695 32.2953 4.38526 31.4207 4.69231C31.2628 4.77193 31.0238 4.8462 30.6251 5.07879C30.1476 5.23116 29.7507 5.53953 29.3528 5.84618C28.4772 6.53913 27.9216 7.38464 27.5231 8.30651C26.8862 10.0773 26.2504 12.2303 25.7725 14.307L24.6591 19H28.0007L28.6365 16.153L29.5115 13.0009C29.591 12.6165 29.6706 12.2303 29.8304 11.77C30.0683 11.0766 30.5461 9.30821 30.944 8.6928C31.4997 7.76956 32.4552 6.99909 34.2849 6.99909H36.1138L36.6706 4.38526Z" fill="#878787"/>
</svg>
