<svg width="33" height="34" viewBox="0 0 33 34" fill="none" xmlns="http://www.w3.org/2000/svg">
<g clip-path="url(#clip0_5812_3)">
<path d="M9.37793 27.2554V6.93359H23.6892V11.0112H14.111V15.9H22.3331V19.9666H14.1113V27.2557L9.37793 27.2554Z" fill="#116565"/>
<path d="M9.37764 28.722V31.9218H1.58908V24.144H7.91154V22.5552H0V33.4996H10.9334V28.7107H9.37764V28.722ZM7.92197 9.87756H1.61079V2.09972H9.38864V5.46656H10.9442V0.533203H0.022V11.4664H7.93326V9.87784L7.92197 9.87756Z" fill="#116565"/>
<path d="M7.77785 8.28905V3.63379H3.16659V8.28933L7.77785 8.28905ZM7.77785 30.3446V25.7114H3.15559V30.3446H7.77785ZM25.1333 14.6338H23.8108V16.189H25.133L25.1333 14.6338ZM0.022 20.8891H1.53323V17.8001H0.022V20.8891ZM1.53323 17.8117H1.55523V17.7891H1.53323V17.8117ZM7.84441 20.9114V17.7778C7.82213 17.7778 7.86669 17.7778 7.84441 17.7778V14.6561H1.51123V13.1006H0V16.2339H1.54451V17.7784H3.14459V16.2556H6.21077V17.8221H4.72182V19.3776H6.28862V20.9111H7.84413L7.84441 20.9114ZM17.2779 12.4781V14.4335H23.5555V13.0557H20.4332V12.4781H17.2779ZM20.4555 22.5115H20.4332V22.534H20.4558L20.4555 22.5115ZM21.967 21.4225H20.4558V22.5112H21.967V21.4225ZM28.3332 24.1113V25.7001H29.8664C29.8777 25.167 29.8887 24.6446 29.8887 24.1113H28.3332ZM29.8783 27.189H33.0003V25.7224H29.8783V27.189Z" fill="#116565"/>
<path d="M28.3105 24.0889V24.1114H28.3328V24.0889H28.3105ZM29.8886 24.1117H29.9109V24.0891H29.8886V24.1117Z" fill="#116565"/>
<path d="M29.9001 22.5777V24.0887H31.5002V22.4999H32.9891V17.7665H31.4446V13.1109H26.7112V17.811H23.7892V19.4111H31.4113V20.9666H25.2113V22.5554H26.7448V24.0887H28.289V22.5777H29.9001ZM29.8445 17.7555H28.3559V16.2775H29.8445V17.7555ZM25.2339 3.67773V8.31099H29.8561V3.67773H25.2339ZM20.4339 22.5331H18.9227V21.4224H17.2783V24.0669H20.4339V22.5334V22.5331Z" fill="#116565"/>
<path d="M22.0771 0.522461V5.46682H23.6549V2.10082H31.4327V9.8781H25.1551V11.4559H32.9995V0.522743H22.0771V0.522461ZM29.8552 25.7001V25.7226H29.8772V25.7001H29.8552ZM31.4104 33.4999V31.9887H29.8995V33.4999H31.4104ZM15.7662 30.3666H21.9657V28.8111H17.3437V27.2223H18.8104V25.6332H17.2881C17.2659 25.0556 17.2881 24.5445 17.2659 24.0554C16.7102 24.0554 16.2214 24.078 15.6661 24.078C15.6661 24.078 15.6435 27.7889 15.6435 28.8556H14.1106V32.0222H12.5996V33.4999H23.5218V31.9444H15.7662V30.3666ZM29.8888 31.9892C29.8917 31.9892 29.8945 31.9879 29.8966 31.9858C29.8986 31.9837 29.8998 31.9809 29.8998 31.9779C29.8998 31.975 29.8986 31.9722 29.8966 31.9701C29.8945 31.968 29.8917 31.9667 29.8888 31.9667C29.8858 31.9667 29.883 31.968 29.881 31.9701C29.8789 31.9722 29.8778 31.975 29.8778 31.9779C29.8778 31.9842 29.8826 31.9892 29.8888 31.9892ZM28.2774 27.222H25.1438V25.6442H23.5663V24.1443H21.9882V25.6888H20.4883V27.2666H23.6326V28.8554H25.1881V31.9664H29.8769V30.4222H28.2771L28.2774 27.222ZM29.8998 30.4114V30.3889H29.8778L29.8998 30.4114ZM29.8998 30.3889H32.9882V28.8776H29.8995L29.8998 30.3889Z" fill="#116565"/>
<path d="M29.878 30.4115H29.9L29.878 30.389V30.4115ZM14.1886 3.65559H15.6888V5.13354H18.8221V0.5H17.2999V1.98895H15.6888V0.511H14.133V2.08879H12.6221V5.14454H14.1886V3.65559Z" fill="#116565"/>
</g>
<defs>
<clipPath id="clip0_5812_3">
<rect width="33" height="33" fill="white" transform="translate(0 0.5)"/>
</clipPath>
</defs>
</svg>
